ISO-10303-21;
HEADER;
/* Generated by software containing ST-Developer
 * from STEP Tools, Inc. (www.steptools.com) 
 */
/* OPTION: using custom renumber hook */

FILE_DESCRIPTION(
/* description */ ('STEP AP242 Edition 2',
'CAx-IF Rec.Pracs.---Representation and Presentation of Product Manufa
cturing Information (PMI)---4.0---2014-10-13',
'CAx-IF Rec.Pracs.---3D Tessellated Geometry---0.4---2014-09-14','2;1',
'CAx-IF Rec.Pracs.---User Defined Attributes---1.5---2016-08-15'),
/* implementation_level */ '2;1');

FILE_NAME(
/* name */ 'Back Wall - Part 4',
/* time_stamp */ '2026-08-29T04:29:40Z',
/* author */ (''),
/* organization */ (''),
/* preprocessor_version */ 'ST-DEVELOPER v20',
/* originating_system */ 'ONSHAPE BY PTC INC, 1.220',
/* authorisation */ '  ');

FILE_SCHEMA (('AP242_MANAGED_MODEL_BASED_3D_ENGINEERING_MIM_LF { 1 0 10303 442 3 1 4 }'));
ENDSEC;

DATA;
#10=SHAPE_REPRESENTATION_RELATIONSHIP('','',#325,#11);
#11=ADVANCED_BREP_SHAPE_REPRESENTATION('',(#323),#507);
#12=ORIENTED_EDGE('',*,*,#96,.F.);
#13=ORIENTED_EDGE('',*,*,#97,.T.);
#14=ORIENTED_EDGE('',*,*,#98,.T.);
#15=ORIENTED_EDGE('',*,*,#99,.F.);
#16=ORIENTED_EDGE('',*,*,#100,.F.);
#17=ORIENTED_EDGE('',*,*,#101,.T.);
#18=ORIENTED_EDGE('',*,*,#102,.T.);
#19=ORIENTED_EDGE('',*,*,#103,.F.);
#20=ORIENTED_EDGE('',*,*,#104,.F.);
#21=ORIENTED_EDGE('',*,*,#105,.F.);
#22=ORIENTED_EDGE('',*,*,#106,.T.);
#23=ORIENTED_EDGE('',*,*,#107,.T.);
#24=ORIENTED_EDGE('',*,*,#108,.T.);
#25=ORIENTED_EDGE('',*,*,#109,.F.);
#26=ORIENTED_EDGE('',*,*,#110,.F.);
#27=ORIENTED_EDGE('',*,*,#105,.T.);
#28=ORIENTED_EDGE('',*,*,#111,.T.);
#29=ORIENTED_EDGE('',*,*,#112,.F.);
#30=ORIENTED_EDGE('',*,*,#113,.F.);
#31=ORIENTED_EDGE('',*,*,#109,.T.);
#32=ORIENTED_EDGE('',*,*,#106,.F.);
#33=ORIENTED_EDGE('',*,*,#110,.T.);
#34=ORIENTED_EDGE('',*,*,#113,.T.);
#35=ORIENTED_EDGE('',*,*,#114,.T.);
#36=ORIENTED_EDGE('',*,*,#115,.F.);
#37=ORIENTED_EDGE('',*,*,#101,.F.);
#38=ORIENTED_EDGE('',*,*,#116,.T.);
#39=ORIENTED_EDGE('',*,*,#117,.T.);
#40=ORIENTED_EDGE('',*,*,#118,.F.);
#41=ORIENTED_EDGE('',*,*,#97,.F.);
#42=ORIENTED_EDGE('',*,*,#119,.T.);
#43=ORIENTED_EDGE('',*,*,#120,.T.);
#44=ORIENTED_EDGE('',*,*,#121,.F.);
#45=ORIENTED_EDGE('',*,*,#122,.F.);
#46=ORIENTED_EDGE('',*,*,#104,.T.);
#47=ORIENTED_EDGE('',*,*,#123,.T.);
#48=ORIENTED_EDGE('',*,*,#124,.T.);
#49=ORIENTED_EDGE('',*,*,#125,.F.);
#50=ORIENTED_EDGE('',*,*,#126,.F.);
#51=ORIENTED_EDGE('',*,*,#99,.T.);
#52=ORIENTED_EDGE('',*,*,#127,.T.);
#53=ORIENTED_EDGE('',*,*,#128,.F.);
#54=ORIENTED_EDGE('',*,*,#129,.F.);
#55=ORIENTED_EDGE('',*,*,#103,.T.);
#56=ORIENTED_EDGE('',*,*,#130,.T.);
#57=ORIENTED_EDGE('',*,*,#131,.F.);
#58=ORIENTED_EDGE('',*,*,#111,.F.);
#59=ORIENTED_EDGE('',*,*,#108,.F.);
#60=ORIENTED_EDGE('',*,*,#131,.T.);
#61=ORIENTED_EDGE('',*,*,#132,.F.);
#62=ORIENTED_EDGE('',*,*,#114,.F.);
#63=ORIENTED_EDGE('',*,*,#112,.T.);
#64=ORIENTED_EDGE('',*,*,#130,.F.);
#65=ORIENTED_EDGE('',*,*,#102,.F.);
#66=ORIENTED_EDGE('',*,*,#115,.T.);
#67=ORIENTED_EDGE('',*,*,#132,.T.);
#68=ORIENTED_EDGE('',*,*,#129,.T.);
#69=ORIENTED_EDGE('',*,*,#133,.F.);
#70=ORIENTED_EDGE('',*,*,#116,.F.);
#71=ORIENTED_EDGE('',*,*,#100,.T.);
#72=ORIENTED_EDGE('',*,*,#128,.T.);
#73=ORIENTED_EDGE('',*,*,#134,.F.);
#74=ORIENTED_EDGE('',*,*,#117,.F.);
#75=ORIENTED_EDGE('',*,*,#133,.T.);
#76=ORIENTED_EDGE('',*,*,#127,.F.);
#77=ORIENTED_EDGE('',*,*,#98,.F.);
#78=ORIENTED_EDGE('',*,*,#118,.T.);
#79=ORIENTED_EDGE('',*,*,#134,.T.);
#80=ORIENTED_EDGE('',*,*,#107,.F.);
#81=ORIENTED_EDGE('',*,*,#122,.T.);
#82=ORIENTED_EDGE('',*,*,#135,.T.);
#83=ORIENTED_EDGE('',*,*,#123,.F.);
#84=ORIENTED_EDGE('',*,*,#126,.T.);
#85=ORIENTED_EDGE('',*,*,#136,.F.);
#86=ORIENTED_EDGE('',*,*,#119,.F.);
#87=ORIENTED_EDGE('',*,*,#96,.T.);
#88=ORIENTED_EDGE('',*,*,#125,.T.);
#89=ORIENTED_EDGE('',*,*,#137,.F.);
#90=ORIENTED_EDGE('',*,*,#120,.F.);
#91=ORIENTED_EDGE('',*,*,#136,.T.);
#92=ORIENTED_EDGE('',*,*,#124,.F.);
#93=ORIENTED_EDGE('',*,*,#135,.F.);
#94=ORIENTED_EDGE('',*,*,#121,.T.);
#95=ORIENTED_EDGE('',*,*,#137,.T.);
#96=EDGE_CURVE('',#138,#139,#166,.T.);
#97=EDGE_CURVE('',#138,#140,#167,.T.);
#98=EDGE_CURVE('',#140,#141,#168,.T.);
#99=EDGE_CURVE('',#139,#141,#169,.T.);
#100=EDGE_CURVE('',#142,#143,#170,.T.);
#101=EDGE_CURVE('',#142,#144,#171,.T.);
#102=EDGE_CURVE('',#144,#145,#172,.T.);
#103=EDGE_CURVE('',#143,#145,#173,.T.);
#104=EDGE_CURVE('',#146,#147,#174,.T.);
#105=EDGE_CURVE('',#148,#146,#175,.T.);
#106=EDGE_CURVE('',#148,#149,#176,.T.);
#107=EDGE_CURVE('',#149,#147,#177,.T.);
#108=EDGE_CURVE('',#146,#150,#178,.T.);
#109=EDGE_CURVE('',#151,#150,#179,.T.);
#110=EDGE_CURVE('',#148,#151,#180,.T.);
#111=EDGE_CURVE('',#150,#152,#181,.T.);
#112=EDGE_CURVE('',#153,#152,#182,.T.);
#113=EDGE_CURVE('',#151,#153,#183,.T.);
#114=EDGE_CURVE('',#153,#154,#184,.T.);
#115=EDGE_CURVE('',#144,#154,#185,.T.);
#116=EDGE_CURVE('',#142,#155,#186,.T.);
#117=EDGE_CURVE('',#155,#156,#187,.T.);
#118=EDGE_CURVE('',#140,#156,#188,.T.);
#119=EDGE_CURVE('',#138,#157,#189,.T.);
#120=EDGE_CURVE('',#157,#158,#190,.T.);
#121=EDGE_CURVE('',#159,#158,#191,.T.);
#122=EDGE_CURVE('',#149,#159,#192,.T.);
#123=EDGE_CURVE('',#147,#160,#193,.T.);
#124=EDGE_CURVE('',#160,#161,#194,.T.);
#125=EDGE_CURVE('',#162,#161,#195,.T.);
#126=EDGE_CURVE('',#139,#162,#196,.T.);
#127=EDGE_CURVE('',#141,#163,#197,.T.);
#128=EDGE_CURVE('',#164,#163,#198,.T.);
#129=EDGE_CURVE('',#143,#164,#199,.T.);
#130=EDGE_CURVE('',#145,#165,#200,.T.);
#131=EDGE_CURVE('',#152,#165,#201,.T.);
#132=EDGE_CURVE('',#154,#165,#202,.T.);
#133=EDGE_CURVE('',#155,#164,#203,.T.);
#134=EDGE_CURVE('',#156,#163,#204,.T.);
#135=EDGE_CURVE('',#159,#160,#205,.T.);
#136=EDGE_CURVE('',#157,#162,#206,.T.);
#137=EDGE_CURVE('',#158,#161,#207,.T.);
#138=VERTEX_POINT('',#422);
#139=VERTEX_POINT('',#423);
#140=VERTEX_POINT('',#425);
#141=VERTEX_POINT('',#427);
#142=VERTEX_POINT('',#431);
#143=VERTEX_POINT('',#432);
#144=VERTEX_POINT('',#434);
#145=VERTEX_POINT('',#436);
#146=VERTEX_POINT('',#440);
#147=VERTEX_POINT('',#441);
#148=VERTEX_POINT('',#443);
#149=VERTEX_POINT('',#445);
#150=VERTEX_POINT('',#449);
#151=VERTEX_POINT('',#451);
#152=VERTEX_POINT('',#455);
#153=VERTEX_POINT('',#457);
#154=VERTEX_POINT('',#461);
#155=VERTEX_POINT('',#464);
#156=VERTEX_POINT('',#466);
#157=VERTEX_POINT('',#469);
#158=VERTEX_POINT('',#471);
#159=VERTEX_POINT('',#473);
#160=VERTEX_POINT('',#477);
#161=VERTEX_POINT('',#479);
#162=VERTEX_POINT('',#481);
#163=VERTEX_POINT('',#484);
#164=VERTEX_POINT('',#486);
#165=VERTEX_POINT('',#489);
#166=LINE('',#421,#208);
#167=LINE('',#424,#209);
#168=LINE('',#426,#210);
#169=LINE('',#428,#211);
#170=LINE('',#430,#212);
#171=LINE('',#433,#213);
#172=LINE('',#435,#214);
#173=LINE('',#437,#215);
#174=LINE('',#439,#216);
#175=LINE('',#442,#217);
#176=LINE('',#444,#218);
#177=LINE('',#446,#219);
#178=LINE('',#448,#220);
#179=LINE('',#450,#221);
#180=LINE('',#452,#222);
#181=LINE('',#454,#223);
#182=LINE('',#456,#224);
#183=LINE('',#458,#225);
#184=LINE('',#460,#226);
#185=LINE('',#462,#227);
#186=LINE('',#463,#228);
#187=LINE('',#465,#229);
#188=LINE('',#467,#230);
#189=LINE('',#468,#231);
#190=LINE('',#470,#232);
#191=LINE('',#472,#233);
#192=LINE('',#474,#234);
#193=LINE('',#476,#235);
#194=LINE('',#478,#236);
#195=LINE('',#480,#237);
#196=LINE('',#482,#238);
#197=LINE('',#483,#239);
#198=LINE('',#485,#240);
#199=LINE('',#487,#241);
#200=LINE('',#488,#242);
#201=LINE('',#490,#243);
#202=LINE('',#492,#244);
#203=LINE('',#495,#245);
#204=LINE('',#497,#246);
#205=LINE('',#500,#247);
#206=LINE('',#502,#248);
#207=LINE('',#504,#249);
#208=VECTOR('',#347,1.);
#209=VECTOR('',#348,1.);
#210=VECTOR('',#349,1.);
#211=VECTOR('',#350,1.);
#212=VECTOR('',#353,1.);
#213=VECTOR('',#354,1.);
#214=VECTOR('',#355,1.);
#215=VECTOR('',#356,1.);
#216=VECTOR('',#359,1.);
#217=VECTOR('',#360,1.);
#218=VECTOR('',#361,1.);
#219=VECTOR('',#362,1.);
#220=VECTOR('',#365,1.);
#221=VECTOR('',#366,1.);
#222=VECTOR('',#367,1.);
#223=VECTOR('',#370,1.);
#224=VECTOR('',#371,1.);
#225=VECTOR('',#372,1.);
#226=VECTOR('',#375,1.);
#227=VECTOR('',#376,1.);
#228=VECTOR('',#377,1.);
#229=VECTOR('',#378,1.);
#230=VECTOR('',#379,1.);
#231=VECTOR('',#380,1.);
#232=VECTOR('',#381,1.);
#233=VECTOR('',#382,1.);
#234=VECTOR('',#383,1.);
#235=VECTOR('',#386,1.);
#236=VECTOR('',#387,1.);
#237=VECTOR('',#388,1.);
#238=VECTOR('',#389,1.);
#239=VECTOR('',#390,1.);
#240=VECTOR('',#391,1.);
#241=VECTOR('',#392,1.);
#242=VECTOR('',#393,1.);
#243=VECTOR('',#394,1.);
#244=VECTOR('',#397,1.);
#245=VECTOR('',#402,1.);
#246=VECTOR('',#405,1.);
#247=VECTOR('',#410,1.);
#248=VECTOR('',#413,1.);
#249=VECTOR('',#416,1.);
#250=EDGE_LOOP('',(#12,#13,#14,#15));
#251=EDGE_LOOP('',(#16,#17,#18,#19));
#252=EDGE_LOOP('',(#20,#21,#22,#23));
#253=EDGE_LOOP('',(#24,#25,#26,#27));
#254=EDGE_LOOP('',(#28,#29,#30,#31));
#255=EDGE_LOOP('',(#32,#33,#34,#35,#36,#37,#38,#39,#40,#41,#42,#43,#44,
#45));
#256=EDGE_LOOP('',(#46,#47,#48,#49,#50,#51,#52,#53,#54,#55,#56,#57,#58,
#59));
#257=EDGE_LOOP('',(#60,#61,#62,#63));
#258=EDGE_LOOP('',(#64,#65,#66,#67));
#259=EDGE_LOOP('',(#68,#69,#70,#71));
#260=EDGE_LOOP('',(#72,#73,#74,#75));
#261=EDGE_LOOP('',(#76,#77,#78,#79));
#262=EDGE_LOOP('',(#80,#81,#82,#83));
#263=EDGE_LOOP('',(#84,#85,#86,#87));
#264=EDGE_LOOP('',(#88,#89,#90,#91));
#265=EDGE_LOOP('',(#92,#93,#94,#95));
#266=FACE_BOUND('',#250,.T.);
#267=FACE_BOUND('',#251,.T.);
#268=FACE_BOUND('',#252,.T.);
#269=FACE_BOUND('',#253,.T.);
#270=FACE_BOUND('',#254,.T.);
#271=FACE_BOUND('',#255,.T.);
#272=FACE_BOUND('',#256,.T.);
#273=FACE_BOUND('',#257,.T.);
#274=FACE_BOUND('',#258,.T.);
#275=FACE_BOUND('',#259,.T.);
#276=FACE_BOUND('',#260,.T.);
#277=FACE_BOUND('',#261,.T.);
#278=FACE_BOUND('',#262,.T.);
#279=FACE_BOUND('',#263,.T.);
#280=FACE_BOUND('',#264,.T.);
#281=FACE_BOUND('',#265,.T.);
#282=PLANE('',#327);
#283=PLANE('',#328);
#284=PLANE('',#329);
#285=PLANE('',#330);
#286=PLANE('',#331);
#287=PLANE('',#332);
#288=PLANE('',#333);
#289=PLANE('',#334);
#290=PLANE('',#335);
#291=PLANE('',#336);
#292=PLANE('',#337);
#293=PLANE('',#338);
#294=PLANE('',#339);
#295=PLANE('',#340);
#296=PLANE('',#341);
#297=PLANE('',#342);
#298=ADVANCED_FACE('',(#266),#282,.T.);
#299=ADVANCED_FACE('',(#267),#283,.T.);
#300=ADVANCED_FACE('',(#268),#284,.T.);
#301=ADVANCED_FACE('',(#269),#285,.F.);
#302=ADVANCED_FACE('',(#270),#286,.F.);
#303=ADVANCED_FACE('',(#271),#287,.T.);
#304=ADVANCED_FACE('',(#272),#288,.F.);
#305=ADVANCED_FACE('',(#273),#289,.F.);
#306=ADVANCED_FACE('',(#274),#290,.T.);
#307=ADVANCED_FACE('',(#275),#291,.F.);
#308=ADVANCED_FACE('',(#276),#292,.F.);
#309=ADVANCED_FACE('',(#277),#293,.T.);
#310=ADVANCED_FACE('',(#278),#294,.T.);
#311=ADVANCED_FACE('',(#279),#295,.F.);
#312=ADVANCED_FACE('',(#280),#296,.F.);
#313=ADVANCED_FACE('',(#281),#297,.T.);
#314=CLOSED_SHELL('',(#298,#299,#300,#301,#302,#303,#304,#305,#306,#307,
#308,#309,#310,#311,#312,#313));
#315=STYLED_ITEM('',(#316),#323);
#316=PRESENTATION_STYLE_ASSIGNMENT((#317));
#317=SURFACE_STYLE_USAGE(.BOTH.,#318);
#318=SURFACE_SIDE_STYLE('',(#319));
#319=SURFACE_STYLE_FILL_AREA(#320);
#320=FILL_AREA_STYLE('',(#321));
#321=FILL_AREA_STYLE_COLOUR('',#322);
#322=COLOUR_RGB('',0.917647058823529,0.917647058823529,0.917647058823529);
#323=MANIFOLD_SOLID_BREP('Part 4',#314);
#324=SHAPE_DEFINITION_REPRESENTATION(#512,#325);
#325=SHAPE_REPRESENTATION('Part 4',(#326),#507);
#326=AXIS2_PLACEMENT_3D('',#419,#343,#344);
#327=AXIS2_PLACEMENT_3D('',#420,#345,#346);
#328=AXIS2_PLACEMENT_3D('',#429,#351,#352);
#329=AXIS2_PLACEMENT_3D('',#438,#357,#358);
#330=AXIS2_PLACEMENT_3D('',#447,#363,#364);
#331=AXIS2_PLACEMENT_3D('',#453,#368,#369);
#332=AXIS2_PLACEMENT_3D('',#459,#373,#374);
#333=AXIS2_PLACEMENT_3D('',#475,#384,#385);
#334=AXIS2_PLACEMENT_3D('',#491,#395,#396);
#335=AXIS2_PLACEMENT_3D('',#493,#398,#399);
#336=AXIS2_PLACEMENT_3D('',#494,#400,#401);
#337=AXIS2_PLACEMENT_3D('',#496,#403,#404);
#338=AXIS2_PLACEMENT_3D('',#498,#406,#407);
#339=AXIS2_PLACEMENT_3D('',#499,#408,#409);
#340=AXIS2_PLACEMENT_3D('',#501,#411,#412);
#341=AXIS2_PLACEMENT_3D('',#503,#414,#415);
#342=AXIS2_PLACEMENT_3D('',#505,#417,#418);
#343=DIRECTION('',(0.,0.,1.));
#344=DIRECTION('',(1.,0.,0.));
#345=DIRECTION('',(0.,0.,-1.));
#346=DIRECTION('',(-1.,0.,0.));
#347=DIRECTION('',(0.,1.,0.));
#348=DIRECTION('',(-1.,0.,0.));
#349=DIRECTION('',(0.,1.,0.));
#350=DIRECTION('',(-1.,0.,0.));
#351=DIRECTION('',(0.,0.,-1.));
#352=DIRECTION('',(-1.,0.,0.));
#353=DIRECTION('',(0.,1.,0.));
#354=DIRECTION('',(-1.,0.,0.));
#355=DIRECTION('',(0.,1.,0.));
#356=DIRECTION('',(-1.,0.,0.));
#357=DIRECTION('',(1.,0.,0.));
#358=DIRECTION('',(0.,0.,-1.));
#359=DIRECTION('',(0.,0.,-1.));
#360=DIRECTION('',(0.,1.,0.));
#361=DIRECTION('',(0.,0.,-1.));
#362=DIRECTION('',(0.,1.,0.));
#363=DIRECTION('',(2.11874623020068E-16,0.,-1.));
#364=DIRECTION('',(-1.,0.,-2.11874623020068E-16));
#365=DIRECTION('',(-1.,0.,-2.11874623020068E-16));
#366=DIRECTION('',(0.,1.,0.));
#367=DIRECTION('',(-1.,0.,-2.11874623020068E-16));
#368=DIRECTION('',(1.,0.,0.));
#369=DIRECTION('',(0.,0.,-1.));
#370=DIRECTION('',(0.,0.,-1.));
#371=DIRECTION('',(0.,1.,0.));
#372=DIRECTION('',(0.,0.,-1.));
#373=DIRECTION('',(0.,-1.,0.));
#374=DIRECTION('',(1.,0.,0.));
#375=DIRECTION('',(1.,0.,0.));
#376=DIRECTION('',(0.,0.,-1.));
#377=DIRECTION('',(0.,0.,-1.));
#378=DIRECTION('',(1.,0.,0.));
#379=DIRECTION('',(0.,0.,-1.));
#380=DIRECTION('',(0.,0.,-1.));
#381=DIRECTION('',(1.,0.,0.));
#382=DIRECTION('',(0.,0.,-1.));
#383=DIRECTION('',(1.,0.,0.));
#384=DIRECTION('',(0.,-1.,0.));
#385=DIRECTION('',(1.,0.,0.));
#386=DIRECTION('',(1.,0.,0.));
#387=DIRECTION('',(0.,0.,-1.));
#388=DIRECTION('',(1.,0.,0.));
#389=DIRECTION('',(0.,0.,-1.));
#390=DIRECTION('',(0.,0.,-1.));
#391=DIRECTION('',(1.,0.,0.));
#392=DIRECTION('',(0.,0.,-1.));
#393=DIRECTION('',(0.,0.,-1.));
#394=DIRECTION('',(1.,0.,0.));
#395=DIRECTION('',(0.,0.,1.));
#396=DIRECTION('',(1.,0.,0.));
#397=DIRECTION('',(0.,1.,0.));
#398=DIRECTION('',(1.,0.,0.));
#399=DIRECTION('',(0.,0.,-1.));
#400=DIRECTION('',(1.,0.,0.));
#401=DIRECTION('',(0.,0.,-1.));
#402=DIRECTION('',(0.,1.,0.));
#403=DIRECTION('',(0.,0.,1.));
#404=DIRECTION('',(1.,0.,0.));
#405=DIRECTION('',(0.,1.,0.));
#406=DIRECTION('',(1.,0.,0.));
#407=DIRECTION('',(0.,0.,-1.));
#408=DIRECTION('',(0.,0.,1.));
#409=DIRECTION('',(1.,0.,0.));
#410=DIRECTION('',(0.,1.,0.));
#411=DIRECTION('',(1.,0.,0.));
#412=DIRECTION('',(0.,0.,-1.));
#413=DIRECTION('',(0.,1.,0.));
#414=DIRECTION('',(0.,0.,1.));
#415=DIRECTION('',(1.,0.,0.));
#416=DIRECTION('',(0.,1.,0.));
#417=DIRECTION('',(1.,0.,0.));
#418=DIRECTION('',(0.,0.,-1.));
#419=CARTESIAN_POINT('',(0.,0.,0.));
#420=CARTESIAN_POINT('',(0.052375,-0.003,-0.03175));
#421=CARTESIAN_POINT('',(0.06,-0.003,-0.03175));
#422=CARTESIAN_POINT('',(0.06,-0.003,-0.03175));
#423=CARTESIAN_POINT('',(0.06,0.,-0.03175));
#424=CARTESIAN_POINT('',(0.052375,-0.003,-0.03175));
#425=CARTESIAN_POINT('',(0.058,-0.003,-0.03175));
#426=CARTESIAN_POINT('',(0.058,-0.003,-0.03175));
#427=CARTESIAN_POINT('',(0.058,0.,-0.03175));
#428=CARTESIAN_POINT('',(0.052375,0.,-0.03175));
#429=CARTESIAN_POINT('',(0.052375,-0.003,-0.03175));
#430=CARTESIAN_POINT('',(0.048,-0.003,-0.03175));
#431=CARTESIAN_POINT('',(0.048,-0.003,-0.03175));
#432=CARTESIAN_POINT('',(0.048,0.,-0.03175));
#433=CARTESIAN_POINT('',(0.052375,-0.003,-0.03175));
#434=CARTESIAN_POINT('',(0.046,-0.003,-0.03175));
#435=CARTESIAN_POINT('',(0.046,-0.003,-0.03175));
#436=CARTESIAN_POINT('',(0.046,0.,-0.03175));
#437=CARTESIAN_POINT('',(0.052375,0.,-0.03175));
#438=CARTESIAN_POINT('',(0.06875,-0.003,-0.02925));
#439=CARTESIAN_POINT('',(0.06875,0.,-0.02925));
#440=CARTESIAN_POINT('',(0.06875,0.,-0.02675));
#441=CARTESIAN_POINT('',(0.06875,0.,-0.03175));
#442=CARTESIAN_POINT('',(0.06875,-0.003,-0.02675));
#443=CARTESIAN_POINT('',(0.06875,-0.003,-0.02675));
#444=CARTESIAN_POINT('',(0.06875,-0.003,-0.02925));
#445=CARTESIAN_POINT('',(0.06875,-0.003,-0.03175));
#446=CARTESIAN_POINT('',(0.06875,-0.003,-0.03175));
#447=CARTESIAN_POINT('',(0.052375,-0.003,-0.02675));
#448=CARTESIAN_POINT('',(0.052375,0.,-0.02675));
#449=CARTESIAN_POINT('',(0.036,0.,-0.02675));
#450=CARTESIAN_POINT('',(0.036,-0.003,-0.02675));
#451=CARTESIAN_POINT('',(0.036,-0.003,-0.02675));
#452=CARTESIAN_POINT('',(0.052375,-0.003,-0.02675));
#453=CARTESIAN_POINT('',(0.036,-0.003,-0.02925));
#454=CARTESIAN_POINT('',(0.036,0.,-0.02925));
#455=CARTESIAN_POINT('',(0.036,0.,-0.06875));
#456=CARTESIAN_POINT('',(0.036,-0.003,-0.06875));
#457=CARTESIAN_POINT('',(0.036,-0.003,-0.06875));
#458=CARTESIAN_POINT('',(0.036,-0.003,-0.02925));
#459=CARTESIAN_POINT('',(0.052375,-0.003,-0.02925));
#460=CARTESIAN_POINT('',(0.041,-0.003,-0.06875));
#461=CARTESIAN_POINT('',(0.046,-0.003,-0.06875));
#462=CARTESIAN_POINT('',(0.046,-0.003,-0.05025));
#463=CARTESIAN_POINT('',(0.048,-0.003,-0.05025));
#464=CARTESIAN_POINT('',(0.048,-0.003,-0.06875));
#465=CARTESIAN_POINT('',(0.053,-0.003,-0.06875));
#466=CARTESIAN_POINT('',(0.058,-0.003,-0.06875));
#467=CARTESIAN_POINT('',(0.058,-0.003,-0.05025));
#468=CARTESIAN_POINT('',(0.06,-0.003,-0.05025));
#469=CARTESIAN_POINT('',(0.06,-0.003,-0.06875));
#470=CARTESIAN_POINT('',(0.065,-0.003,-0.06875));
#471=CARTESIAN_POINT('',(0.07,-0.003,-0.06875));
#472=CARTESIAN_POINT('',(0.07,-0.003,-0.05025));
#473=CARTESIAN_POINT('',(0.07,-0.003,-0.03175));
#474=CARTESIAN_POINT('',(0.065,-0.003,-0.03175));
#475=CARTESIAN_POINT('',(0.052375,0.,-0.02925));
#476=CARTESIAN_POINT('',(0.065,0.,-0.03175));
#477=CARTESIAN_POINT('',(0.07,0.,-0.03175));
#478=CARTESIAN_POINT('',(0.07,0.,-0.05025));
#479=CARTESIAN_POINT('',(0.07,0.,-0.06875));
#480=CARTESIAN_POINT('',(0.065,0.,-0.06875));
#481=CARTESIAN_POINT('',(0.06,0.,-0.06875));
#482=CARTESIAN_POINT('',(0.06,0.,-0.05025));
#483=CARTESIAN_POINT('',(0.058,0.,-0.05025));
#484=CARTESIAN_POINT('',(0.058,0.,-0.06875));
#485=CARTESIAN_POINT('',(0.053,0.,-0.06875));
#486=CARTESIAN_POINT('',(0.048,0.,-0.06875));
#487=CARTESIAN_POINT('',(0.048,0.,-0.05025));
#488=CARTESIAN_POINT('',(0.046,0.,-0.05025));
#489=CARTESIAN_POINT('',(0.046,0.,-0.06875));
#490=CARTESIAN_POINT('',(0.041,0.,-0.06875));
#491=CARTESIAN_POINT('',(0.041,-0.003,-0.06875));
#492=CARTESIAN_POINT('',(0.046,-0.003,-0.06875));
#493=CARTESIAN_POINT('',(0.046,-0.003,-0.05025));
#494=CARTESIAN_POINT('',(0.048,-0.003,-0.05025));
#495=CARTESIAN_POINT('',(0.048,-0.003,-0.06875));
#496=CARTESIAN_POINT('',(0.053,-0.003,-0.06875));
#497=CARTESIAN_POINT('',(0.058,-0.003,-0.06875));
#498=CARTESIAN_POINT('',(0.058,-0.003,-0.05025));
#499=CARTESIAN_POINT('',(0.065,-0.003,-0.03175));
#500=CARTESIAN_POINT('',(0.07,-0.003,-0.03175));
#501=CARTESIAN_POINT('',(0.06,-0.003,-0.05025));
#502=CARTESIAN_POINT('',(0.06,-0.003,-0.06875));
#503=CARTESIAN_POINT('',(0.065,-0.003,-0.06875));
#504=CARTESIAN_POINT('',(0.07,-0.003,-0.06875));
#505=CARTESIAN_POINT('',(0.07,-0.003,-0.05025));
#506=MECHANICAL_DESIGN_GEOMETRIC_PRESENTATION_REPRESENTATION('',(#315),
#507);
#507=(
GEOMETRIC_REPRESENTATION_CONTEXT(3)
GLOBAL_UNCERTAINTY_ASSIGNED_CONTEXT((#508))
GLOBAL_UNIT_ASSIGNED_CONTEXT((#511,#510,#509))
REPRESENTATION_CONTEXT('Part 4','TOP_LEVEL_ASSEMBLY_PART')
);
#508=UNCERTAINTY_MEASURE_WITH_UNIT(LENGTH_MEASURE(1.E-8),#511,
'DISTANCE_ACCURACY_VALUE','Maximum Tolerance applied to model');
#509=(
NAMED_UNIT(*)
SI_UNIT($,.STERADIAN.)
SOLID_ANGLE_UNIT()
);
#510=(
NAMED_UNIT(*)
PLANE_ANGLE_UNIT()
SI_UNIT($,.RADIAN.)
);
#511=(
LENGTH_UNIT()
NAMED_UNIT(*)
SI_UNIT($,.METRE.)
);
#512=PRODUCT_DEFINITION_SHAPE('','',#513);
#513=PRODUCT_DEFINITION('','',#515,#514);
#514=PRODUCT_DEFINITION_CONTEXT('',#521,'design');
#515=PRODUCT_DEFINITION_FORMATION_WITH_SPECIFIED_SOURCE('','',#517,
 .NOT_KNOWN.);
#516=PRODUCT_RELATED_PRODUCT_CATEGORY('','',(#517));
#517=PRODUCT('Part 4','Part 4','Part 4',(#519));
#518=PRODUCT_CATEGORY('','');
#519=PRODUCT_CONTEXT('',#521,'mechanical');
#520=APPLICATION_PROTOCOL_DEFINITION('international standard',
'ap242_managed_model_based_3d_engineering',2020,#521);
#521=APPLICATION_CONTEXT('managed model based 3d engineering');
ENDSEC;
END-ISO-10303-21;
