ISO-10303-21;
HEADER;
/*Generated by software containing ST-Developer
 * from STEP Tools, Inc. (www.steptools.com) 
 */
/*OPTION: using custom renumber hook */
/*description */
/*implementation_level */
FILE_DESCRIPTION(('STEP AP242 Edition 2','STEP AP242 Edition 2''CAx-IF Rec.Pracs.---Representation and Presentation of Product Manufa
cturing Information (PMI)---4.0---2014-10-13','STEP AP242 Edition 2''CAx-IF Rec.Pracs.---Representation and Presentation of Product Manufa
cturing Information (PMI)---4.0---2014-10-13''CAx-IF Rec.Pracs.---3D Tessellated Geometry---0.4---2014-09-14','STEP AP242 Edition 2''CAx-IF Rec.Pracs.---Representation and Presentation of Product Manufa
cturing Information (PMI)---4.0---2014-10-13''CAx-IF Rec.Pracs.---3D Tessellated Geometry---0.4---2014-09-14''2;1','STEP AP242 Edition 2''CAx-IF Rec.Pracs.---Representation and Presentation of Product Manufa
cturing Information (PMI)---4.0---2014-10-13''CAx-IF Rec.Pracs.---3D Tessellated Geometry---0.4---2014-09-14''2;1''CAx-IF Rec.Pracs.---User Defined Attributes---1.5---2016-08-15'),'2;1');
/*name */
/*time_stamp */
/*author */
/*organization */
/*preprocessor_version */
/*originating_system */
/*authorisation */
FILE_NAME('/vol/tmp/translate-8690657965799404828/Floor - Part 1.step','2026-08-29T04:14:27',(''),(''),'ST-DEVELOPER v20','ONSHAPE BY PTC INC, 1.220','  ');
FILE_SCHEMA(('AP242_MANAGED_MODEL_BASED_3D_ENGINEERING_MIM_LF { 1 0 10303 442 3 1 4 }'));
ENDSEC;
DATA;
#10=SHAPE_REPRESENTATION_RELATIONSHIP('','',#199,#11);
#11=ADVANCED_BREP_SHAPE_REPRESENTATION('',(#197),#309);
#12=ORIENTED_EDGE('',*,*,#60,.F.);
#13=ORIENTED_EDGE('',*,*,#61,.F.);
#14=ORIENTED_EDGE('',*,*,#62,.T.);
#15=ORIENTED_EDGE('',*,*,#63,.F.);
#16=ORIENTED_EDGE('',*,*,#64,.T.);
#17=ORIENTED_EDGE('',*,*,#65,.T.);
#18=ORIENTED_EDGE('',*,*,#66,.T.);
#19=ORIENTED_EDGE('',*,*,#67,.T.);
#20=ORIENTED_EDGE('',*,*,#63,.T.);
#21=ORIENTED_EDGE('',*,*,#68,.T.);
#22=ORIENTED_EDGE('',*,*,#69,.F.);
#23=ORIENTED_EDGE('',*,*,#70,.F.);
#24=ORIENTED_EDGE('',*,*,#69,.T.);
#25=ORIENTED_EDGE('',*,*,#71,.T.);
#26=ORIENTED_EDGE('',*,*,#72,.F.);
#27=ORIENTED_EDGE('',*,*,#73,.F.);
#28=ORIENTED_EDGE('',*,*,#74,.F.);
#29=ORIENTED_EDGE('',*,*,#65,.F.);
#30=ORIENTED_EDGE('',*,*,#75,.T.);
#31=ORIENTED_EDGE('',*,*,#72,.T.);
#32=ORIENTED_EDGE('',*,*,#64,.F.);
#33=ORIENTED_EDGE('',*,*,#70,.T.);
#34=ORIENTED_EDGE('',*,*,#73,.T.);
#35=ORIENTED_EDGE('',*,*,#75,.F.);
#36=ORIENTED_EDGE('',*,*,#60,.T.);
#37=ORIENTED_EDGE('',*,*,#76,.T.);
#38=ORIENTED_EDGE('',*,*,#77,.F.);
#39=ORIENTED_EDGE('',*,*,#78,.F.);
#40=ORIENTED_EDGE('',*,*,#78,.T.);
#41=ORIENTED_EDGE('',*,*,#79,.F.);
#42=ORIENTED_EDGE('',*,*,#80,.F.);
#43=ORIENTED_EDGE('',*,*,#61,.T.);
#44=ORIENTED_EDGE('',*,*,#77,.T.);
#45=ORIENTED_EDGE('',*,*,#81,.F.);
#46=ORIENTED_EDGE('',*,*,#82,.F.);
#47=ORIENTED_EDGE('',*,*,#79,.T.);
#48=ORIENTED_EDGE('',*,*,#76,.F.);
#49=ORIENTED_EDGE('',*,*,#67,.F.);
#50=ORIENTED_EDGE('',*,*,#83,.T.);
#51=ORIENTED_EDGE('',*,*,#81,.T.);
#52=ORIENTED_EDGE('',*,*,#80,.T.);
#53=ORIENTED_EDGE('',*,*,#82,.T.);
#54=ORIENTED_EDGE('',*,*,#83,.F.);
#55=ORIENTED_EDGE('',*,*,#66,.F.);
#56=ORIENTED_EDGE('',*,*,#74,.T.);
#57=ORIENTED_EDGE('',*,*,#71,.F.);
#58=ORIENTED_EDGE('',*,*,#68,.F.);
#59=ORIENTED_EDGE('',*,*,#62,.F.);
#60=EDGE_CURVE('',#84,#85,#100,.T.);
#61=EDGE_CURVE('',#86,#84,#101,.T.);
#62=EDGE_CURVE('',#86,#87,#102,.T.);
#63=EDGE_CURVE('',#88,#87,#103,.T.);
#64=EDGE_CURVE('',#88,#89,#104,.T.);
#65=EDGE_CURVE('',#89,#90,#105,.T.);
#66=EDGE_CURVE('',#90,#91,#106,.T.);
#67=EDGE_CURVE('',#91,#85,#107,.T.);
#68=EDGE_CURVE('',#87,#92,#108,.T.);
#69=EDGE_CURVE('',#93,#92,#109,.T.);
#70=EDGE_CURVE('',#88,#93,#110,.T.);
#71=EDGE_CURVE('',#92,#94,#111,.T.);
#72=EDGE_CURVE('',#95,#94,#112,.T.);
#73=EDGE_CURVE('',#93,#95,#113,.T.);
#74=EDGE_CURVE('',#90,#94,#114,.T.);
#75=EDGE_CURVE('',#89,#95,#115,.T.);
#76=EDGE_CURVE('',#85,#96,#116,.T.);
#77=EDGE_CURVE('',#97,#96,#117,.T.);
#78=EDGE_CURVE('',#84,#97,#118,.T.);
#79=EDGE_CURVE('',#98,#97,#119,.T.);
#80=EDGE_CURVE('',#86,#98,#120,.T.);
#81=EDGE_CURVE('',#99,#96,#121,.T.);
#82=EDGE_CURVE('',#98,#99,#122,.T.);
#83=EDGE_CURVE('',#91,#99,#123,.T.);
#84=VERTEX_POINT('',#260);
#85=VERTEX_POINT('',#261);
#86=VERTEX_POINT('',#263);
#87=VERTEX_POINT('',#265);
#88=VERTEX_POINT('',#267);
#89=VERTEX_POINT('',#269);
#90=VERTEX_POINT('',#271);
#91=VERTEX_POINT('',#273);
#92=VERTEX_POINT('',#277);
#93=VERTEX_POINT('',#279);
#94=VERTEX_POINT('',#283);
#95=VERTEX_POINT('',#285);
#96=VERTEX_POINT('',#293);
#97=VERTEX_POINT('',#295);
#98=VERTEX_POINT('',#299);
#99=VERTEX_POINT('',#303);
#100=LINE('',#259,#124);
#101=LINE('',#262,#125);
#102=LINE('',#264,#126);
#103=LINE('',#266,#127);
#104=LINE('',#268,#128);
#105=LINE('',#270,#129);
#106=LINE('',#272,#130);
#107=LINE('',#274,#131);
#108=LINE('',#276,#132);
#109=LINE('',#278,#133);
#110=LINE('',#280,#134);
#111=LINE('',#282,#135);
#112=LINE('',#284,#136);
#113=LINE('',#286,#137);
#114=LINE('',#288,#138);
#115=LINE('',#289,#139);
#116=LINE('',#292,#140);
#117=LINE('',#294,#141);
#118=LINE('',#296,#142);
#119=LINE('',#298,#143);
#120=LINE('',#300,#144);
#121=LINE('',#302,#145);
#122=LINE('',#304,#146);
#123=LINE('',#306,#147);
#124=VECTOR('',#215,1.);
#125=VECTOR('',#216,1.);
#126=VECTOR('',#217,1.);
#127=VECTOR('',#218,1.);
#128=VECTOR('',#219,1.);
#129=VECTOR('',#220,1.);
#130=VECTOR('',#221,1.);
#131=VECTOR('',#222,1.);
#132=VECTOR('',#225,1.);
#133=VECTOR('',#226,1.);
#134=VECTOR('',#227,1.);
#135=VECTOR('',#230,1.);
#136=VECTOR('',#231,1.);
#137=VECTOR('',#232,1.);
#138=VECTOR('',#235,1.);
#139=VECTOR('',#236,1.);
#140=VECTOR('',#241,1.);
#141=VECTOR('',#242,1.);
#142=VECTOR('',#243,1.);
#143=VECTOR('',#246,1.);
#144=VECTOR('',#247,1.);
#145=VECTOR('',#250,1.);
#146=VECTOR('',#251,1.);
#147=VECTOR('',#254,1.);
#148=EDGE_LOOP('',(#12,#13,#14,#15,#16,#17,#18,#19));
#149=EDGE_LOOP('',(#20,#21,#22,#23));
#150=EDGE_LOOP('',(#24,#25,#26,#27));
#151=EDGE_LOOP('',(#28,#29,#30,#31));
#152=EDGE_LOOP('',(#32,#33,#34,#35));
#153=EDGE_LOOP('',(#36,#37,#38,#39));
#154=EDGE_LOOP('',(#40,#41,#42,#43));
#155=EDGE_LOOP('',(#44,#45,#46,#47));
#156=EDGE_LOOP('',(#48,#49,#50,#51));
#157=EDGE_LOOP('',(#52,#53,#54,#55,#56,#57,#58,#59));
#158=FACE_BOUND('',#148,.T.);
#159=FACE_BOUND('',#149,.T.);
#160=FACE_BOUND('',#150,.T.);
#161=FACE_BOUND('',#151,.T.);
#162=FACE_BOUND('',#152,.T.);
#163=FACE_BOUND('',#153,.T.);
#164=FACE_BOUND('',#154,.T.);
#165=FACE_BOUND('',#155,.T.);
#166=FACE_BOUND('',#156,.T.);
#167=FACE_BOUND('',#157,.T.);
#168=PLANE('',#201);
#169=PLANE('',#202);
#170=PLANE('',#203);
#171=PLANE('',#204);
#172=PLANE('',#205);
#173=PLANE('',#206);
#174=PLANE('',#207);
#175=PLANE('',#208);
#176=PLANE('',#209);
#177=PLANE('',#210);
#178=ADVANCED_FACE('',(#158),#168,.T.);
#179=ADVANCED_FACE('',(#159),#169,.F.);
#180=ADVANCED_FACE('',(#160),#170,.F.);
#181=ADVANCED_FACE('',(#161),#171,.T.);
#182=ADVANCED_FACE('',(#162),#172,.T.);
#183=ADVANCED_FACE('',(#163),#173,.F.);
#184=ADVANCED_FACE('',(#164),#174,.F.);
#185=ADVANCED_FACE('',(#165),#175,.F.);
#186=ADVANCED_FACE('',(#166),#176,.T.);
#187=ADVANCED_FACE('',(#167),#177,.T.);
#188=CLOSED_SHELL('',(#178,#179,#180,#181,#182,#183,#184,#185,#186,#187));
#189=STYLED_ITEM('',(#190),#197);
#190=PRESENTATION_STYLE_ASSIGNMENT((#191));
#191=SURFACE_STYLE_USAGE(.BOTH.,#192);
#192=SURFACE_SIDE_STYLE('',(#193));
#193=SURFACE_STYLE_FILL_AREA(#194);
#194=FILL_AREA_STYLE('',(#195));
#195=FILL_AREA_STYLE_COLOUR('',#196);
#196=COLOUR_RGB('',0.917647058823529,0.643137254901961,0.568627450980392);
#197=MANIFOLD_SOLID_BREP('Part 1',#188);
#198=SHAPE_DEFINITION_REPRESENTATION(#314,#199);
#199=SHAPE_REPRESENTATION('Part 1',(#200),#309);
#200=AXIS2_PLACEMENT_3D('',#257,#211,#212);
#201=AXIS2_PLACEMENT_3D('',#258,#213,#214);
#202=AXIS2_PLACEMENT_3D('',#275,#223,#224);
#203=AXIS2_PLACEMENT_3D('',#281,#228,#229);
#204=AXIS2_PLACEMENT_3D('',#287,#233,#234);
#205=AXIS2_PLACEMENT_3D('',#290,#237,#238);
#206=AXIS2_PLACEMENT_3D('',#291,#239,#240);
#207=AXIS2_PLACEMENT_3D('',#297,#244,#245);
#208=AXIS2_PLACEMENT_3D('',#301,#248,#249);
#209=AXIS2_PLACEMENT_3D('',#305,#252,#253);
#210=AXIS2_PLACEMENT_3D('',#307,#255,#256);
#211=DIRECTION('',(0.,0.,1.));
#212=DIRECTION('',(1.,0.,0.));
#213=DIRECTION('',(0.,1.,0.));
#214=DIRECTION('',(0.,0.,1.));
#215=DIRECTION('',(1.,0.,0.));
#216=DIRECTION('',(0.,0.,-1.));
#217=DIRECTION('',(1.,0.,0.));
#218=DIRECTION('',(0.,0.,-1.));
#219=DIRECTION('',(1.,0.,0.));
#220=DIRECTION('',(0.,0.,-1.));
#221=DIRECTION('',(1.,0.,0.));
#222=DIRECTION('',(0.,0.,-1.));
#223=DIRECTION('',(1.,-1.98254111540206E-16,0.));
#224=DIRECTION('',(1.98254111540206E-16,1.,0.));
#225=DIRECTION('',(0.,-1.,0.));
#226=DIRECTION('',(0.,0.,-1.));
#227=DIRECTION('',(-1.98254111540206E-16,-1.,0.));
#228=DIRECTION('',(0.,1.,0.));
#229=DIRECTION('',(0.,0.,1.));
#230=DIRECTION('',(1.,0.,0.));
#231=DIRECTION('',(0.,0.,-1.));
#232=DIRECTION('',(1.,0.,0.));
#233=DIRECTION('',(1.,-1.98254111540206E-16,0.));
#234=DIRECTION('',(1.98254111540206E-16,1.,0.));
#235=DIRECTION('',(0.,-1.,0.));
#236=DIRECTION('',(-1.98254111540206E-16,-1.,0.));
#237=DIRECTION('',(0.,0.,1.));
#238=DIRECTION('',(1.,0.,0.));
#239=DIRECTION('',(0.,0.,1.));
#240=DIRECTION('',(1.,0.,0.));
#241=DIRECTION('',(0.,-1.,0.));
#242=DIRECTION('',(1.,0.,0.));
#243=DIRECTION('',(0.,-1.,0.));
#244=DIRECTION('',(1.,0.,0.));
#245=DIRECTION('',(0.,0.,-1.));
#246=DIRECTION('',(0.,0.,-1.));
#247=DIRECTION('',(0.,-1.,0.));
#248=DIRECTION('',(0.,1.,0.));
#249=DIRECTION('',(0.,0.,1.));
#250=DIRECTION('',(0.,0.,-1.));
#251=DIRECTION('',(1.,0.,0.));
#252=DIRECTION('',(1.,0.,0.));
#253=DIRECTION('',(0.,0.,-1.));
#254=DIRECTION('',(0.,-1.,0.));
#255=DIRECTION('',(0.,0.,1.));
#256=DIRECTION('',(1.,0.,0.));
#257=CARTESIAN_POINT('',(0.,0.,0.));
#258=CARTESIAN_POINT('',(1.38777878078145E-17,0.07,0.0025));
#259=CARTESIAN_POINT('',(1.38777878078145E-17,0.07,0.));
#260=CARTESIAN_POINT('',(-0.0725,0.07,0.));
#261=CARTESIAN_POINT('',(0.0725,0.07,0.));
#262=CARTESIAN_POINT('',(-0.0725,0.07,0.001));
#263=CARTESIAN_POINT('',(-0.0725,0.07,0.001));
#264=CARTESIAN_POINT('',(-0.07125,0.07,0.001));
#265=CARTESIAN_POINT('',(-0.07,0.07,0.001));
#266=CARTESIAN_POINT('',(-0.07,0.07,0.0025));
#267=CARTESIAN_POINT('',(-0.07,0.07,0.0025));
#268=CARTESIAN_POINT('',(1.38777878078145E-17,0.07,0.0025));
#269=CARTESIAN_POINT('',(0.07,0.07,0.0025));
#270=CARTESIAN_POINT('',(0.07,0.07,0.0025));
#271=CARTESIAN_POINT('',(0.07,0.07,0.001));
#272=CARTESIAN_POINT('',(0.07125,0.07,0.001));
#273=CARTESIAN_POINT('',(0.0725,0.07,0.001));
#274=CARTESIAN_POINT('',(0.0725,0.07,0.001));
#275=CARTESIAN_POINT('',(-0.07,1.38777878078145E-17,0.0025));
#276=CARTESIAN_POINT('',(-0.07,-1.38777878078145E-17,0.001));
#277=CARTESIAN_POINT('',(-0.07,-0.07,0.001));
#278=CARTESIAN_POINT('',(-0.07,-0.07,0.0025));
#279=CARTESIAN_POINT('',(-0.07,-0.07,0.0025));
#280=CARTESIAN_POINT('',(-0.07,1.38777878078145E-17,0.0025));
#281=CARTESIAN_POINT('',(-1.38777878078145E-17,-0.07,0.0025));
#282=CARTESIAN_POINT('',(-1.38777878078145E-17,-0.07,0.001));
#283=CARTESIAN_POINT('',(0.07,-0.07,0.001));
#284=CARTESIAN_POINT('',(0.07,-0.07,0.0025));
#285=CARTESIAN_POINT('',(0.07,-0.07,0.0025));
#286=CARTESIAN_POINT('',(-1.38777878078145E-17,-0.07,0.0025));
#287=CARTESIAN_POINT('',(0.07,1.38777878078145E-17,0.0025));
#288=CARTESIAN_POINT('',(0.07,0.,0.001));
#289=CARTESIAN_POINT('',(0.07,1.38777878078145E-17,0.0025));
#290=CARTESIAN_POINT('',(0.,0.,0.0025));
#291=CARTESIAN_POINT('',(0.,0.,0.));
#292=CARTESIAN_POINT('',(0.0725,1.38777878078145E-17,0.));
#293=CARTESIAN_POINT('',(0.0725,-0.0725,0.));
#294=CARTESIAN_POINT('',(-5.55111512312578E-17,-0.0725,0.));
#295=CARTESIAN_POINT('',(-0.0725,-0.0725,0.));
#296=CARTESIAN_POINT('',(-0.0725,-1.38777878078145E-17,0.));
#297=CARTESIAN_POINT('',(-0.0725,-1.38777878078145E-17,0.001));
#298=CARTESIAN_POINT('',(-0.0725,-0.0725,0.001));
#299=CARTESIAN_POINT('',(-0.0725,-0.0725,0.001));
#300=CARTESIAN_POINT('',(-0.0725,-1.38777878078145E-17,0.001));
#301=CARTESIAN_POINT('',(-5.55111512312578E-17,-0.0725,0.001));
#302=CARTESIAN_POINT('',(0.0725,-0.0725,0.001));
#303=CARTESIAN_POINT('',(0.0725,-0.0725,0.001));
#304=CARTESIAN_POINT('',(-5.55111512312578E-17,-0.0725,0.001));
#305=CARTESIAN_POINT('',(0.0725,1.38777878078145E-17,0.001));
#306=CARTESIAN_POINT('',(0.0725,1.38777878078145E-17,0.001));
#307=CARTESIAN_POINT('',(-1.38777878078145E-17,-0.00125,0.001));
#308=MECHANICAL_DESIGN_GEOMETRIC_PRESENTATION_REPRESENTATION('',(#189),#309);
#309=(
GEOMETRIC_REPRESENTATION_CONTEXT(3)
GLOBAL_UNCERTAINTY_ASSIGNED_CONTEXT((#310))
GLOBAL_UNIT_ASSIGNED_CONTEXT((#313,#312,#311))
REPRESENTATION_CONTEXT('Part 1','TOP_LEVEL_ASSEMBLY_PART')
);
#310=UNCERTAINTY_MEASURE_WITH_UNIT(LENGTH_MEASURE(1.E-08),#313,'DISTANCE_ACCURACY_VALUE','Maximum Tolerance applied to model');
#311=(
NAMED_UNIT(*)
SI_UNIT($,.STERADIAN.)
SOLID_ANGLE_UNIT()
);
#312=(
NAMED_UNIT(*)
PLANE_ANGLE_UNIT()
SI_UNIT($,.RADIAN.)
);
#313=(
LENGTH_UNIT()
NAMED_UNIT(*)
SI_UNIT($,.METRE.)
);
#314=PRODUCT_DEFINITION_SHAPE('','',#315);
#315=PRODUCT_DEFINITION('','',#317,#316);
#316=PRODUCT_DEFINITION_CONTEXT('',#323,'design');
#317=PRODUCT_DEFINITION_FORMATION_WITH_SPECIFIED_SOURCE('','',#319,.NOT_KNOWN.);
#318=PRODUCT_RELATED_PRODUCT_CATEGORY('','',(#319));
#319=PRODUCT('Part 1','Part 1','Part 1',(#321));
#320=PRODUCT_CATEGORY('','');
#321=PRODUCT_CONTEXT('',#323,'mechanical');
#322=APPLICATION_PROTOCOL_DEFINITION('international standard','ap242_managed_model_based_3d_engineering',2020,#323);
#323=APPLICATION_CONTEXT('managed model based 3d engineering');
#324=SHAPE_ASPECT('DISTANCE.Flh9lfym2LhgcCI_1',$,#314,.T.);
#325=GEOMETRIC_ITEM_SPECIFIC_USAGE('','',#324,#11,#183);
#326=SHAPE_ASPECT('DISTANCE.Flh9lfym2LhgcCI_1',$,#314,.T.);
#327=GEOMETRIC_ITEM_SPECIFIC_USAGE('','',#326,#11,#187);
#328=DIMENSIONAL_LOCATION('linear distance','DISTANCE.Flh9lfym2LhgcCI_1',#324,#326);
#330=(
LENGTH_UNIT()
NAMED_UNIT(*)
SI_UNIT(.CENTI.,.METRE.)
);
#331=PRECISION_QUALIFIER(3);
#329=(
LENGTH_MEASURE_WITH_UNIT()
MEASURE_REPRESENTATION_ITEM()
MEASURE_WITH_UNIT(POSITIVE_LENGTH_MEASURE(0.1),#330)
QUALIFIED_REPRESENTATION_ITEM((#331))
REPRESENTATION_ITEM('nominal value')
);
#332=SHAPE_DIMENSION_REPRESENTATION('',(#329),#309);
#333=DIMENSIONAL_CHARACTERISTIC_REPRESENTATION(#328,#332);
#334=PRESENTATION_STYLE_ASSIGNMENT((NULL_STYLE(.NULL.)));
#335=CARTESIAN_POINT('',(-6.93889390390723E-18,-0.108125,0.0005));
#336=DIRECTION('',(1.,0.,0.));
#337=DIRECTION('',(0.,0.,1.));
#338=AXIS2_PLACEMENT_3D('',#335,#336,#337);
#339=PLANE('',#338);
#340=ANNOTATION_PLANE('',(#334),#339,(#367));
#341=CARTESIAN_POINT('',(0.,0.,0.));
#342=DIRECTION('',(0.,0.,1.));
#343=DIRECTION('',(1.,0.,0.));
#344=AXIS2_PLACEMENT_3D('',#341,#342,#343);
#345=CARTESIAN_POINT('',(0.,0.,0.));
#346=DIRECTION('',(0.,0.,1.));
#347=DIRECTION('',(1.,0.,0.));
#348=AXIS2_PLACEMENT_3D('',#345,#346,#347);
#349=SHAPE_REPRESENTATION('',(#348,#197),#309);
#350=REPRESENTATION_MAP(#344,#349);
#351=MAPPED_ITEM('',#350,#344);
#352=PRESENTATION_STYLE_ASSIGNMENT((NULL_STYLE(.NULL.)));
#353=STYLED_ITEM('',(#352),#351);
#354=DRAUGHTING_MODEL('',(#340,#344,#351,#353),#309);
#355=DRAUGHTING_PRE_DEFINED_CURVE_FONT('continuous');
#356=COLOUR_RGB('',0.,0.,0.);
#357=CURVE_STYLE('',#355,POSITIVE_LENGTH_MEASURE(0.02),#356);
#358=PRESENTATION_STYLE_ASSIGNMENT((#357));
#359=COORDINATES_LIST('coordinates',435,((0.,-0.1090194,0.0026833),(0.,-0.1081250,0.),(0.,-0.1072306,0.0026833),(0.,-0.1072306,-0.0016833),(0.,-0.1081250,0.0010000),(0.,-0.1090194,-0.0016833),(0.,-0.1071942,0.0000089),(0.,-0.1088844,0.0000089),(0.,-0.1090167,0.0000036),(0.,-0.1071942,0.0000089),(0.,-0.1090167,0.0000036),(0.,-0.1091430,-0.0000124),(0.,-0.1071942,0.0000089),(0.,-0.1091430,-0.0000124),(0.,-0.1092631,-0.0000391),(0.,-0.1071942,0.0000089),(0.,-0.1092631,-0.0000391),(0.,-0.1093770,-0.0000765),(0.,-0.1071942,0.0000089),(0.,-0.1093770,-0.0000765),(0.,-0.1094848,-0.0001246),(0.,-0.1071942,0.0000089),(0.,-0.1094848,-0.0001246),(0.,-0.1095864,-0.0001834),(0.,-0.1071942,0.0000089),(0.,-0.1095864,-0.0001834),(0.,-0.1096819,-0.0002528),(0.,-0.1071942,0.0000089),(0.,-0.1096819,-0.0002528),(0.,-0.1097712,-0.0003329),(0.,-0.1071942,0.0000089),(0.,-0.1097712,-0.0003329),(0.,-0.1098407,-0.0004092),(0.,-0.1071942,0.0000089),(0.,-0.1098407,-0.0004092),(0.,-0.1099009,-0.0004887),(0.,-0.1071942,0.0000089),(0.,-0.1099009,-0.0004887),(0.,-0.1099518,-0.0005715),(0.,-0.1099518,-0.0005715),(0.,-0.1099935,-0.0006576),(0.,-0.1100259,-0.0007469),(0.,-0.1099518,-0.0005715),(0.,-0.1100259,-0.0007469),(0.,-0.1100491,-0.0008395),(0.,-0.1099518,-0.0005715),(0.,-0.1100491,-0.0008395),(0.,-0.1100629,-0.0009354),(0.,-0.1099518,-0.0005715),(0.,-0.1100629,-0.0009354),(0.,-0.1100676,-0.0010346),(0.,-0.1099518,-0.0005715),(0.,-0.1100676,-0.0010346),(0.,-0.1100629,-0.0011321),(0.,-0.1099518,-0.0005715),(0.,-0.1100629,-0.0011321),(0.,-0.1100487,-0.0012266),(0.,-0.1099518,-0.0005715),(0.,-0.1100487,-0.0012266),(0.,-0.1100252,-0.0013182),(0.,-0.1099518,-0.0005715),(0.,-0.1100252,-0.0013182),(0.,-0.1099922,-0.0014069),(0.,-0.1099518,-0.0005715),(0.,-0.1099922,-0.0014069),(0.,-0.1099497,-0.0014926),(0.,-0.1099518,-0.0005715),(0.,-0.1099497,-0.0014926),(0.,-0.1098979,-0.0015753),(0.,-0.1099518,-0.0005715),(0.,-0.1098979,-0.0015753),(0.,-0.1098366,-0.0016551),(0.,-0.1099518,-0.0005715),(0.,-0.1098366,-0.0016551),(0.,-0.1097659,-0.0017320),(0.,-0.1097659,-0.0017320),(0.,-0.1094696,-0.0014283),(0.,-0.1095455,-0.0013367),(0.,-0.1097659,-0.0017320),(0.,-0.1095455,-0.0013367),(0.,-0.1095998,-0.0012399),(0.,-0.1099518,-0.0005715),(0.,-0.1097659,-0.0017320),(0.,-0.1095998,-0.0012399),(0.,-0.1099518,-0.0005715),(0.,-0.1095998,-0.0012399),(0.,-0.1096323,-0.0011378),(0.,-0.1099518,-0.0005715),(0.,-0.1096323,-0.0011378),(0.,-0.1096432,-0.0010304),(0.,-0.1099518,-0.0005715),(0.,-0.1096432,-0.0010304),(0.,-0.1096321,-0.0009221),(0.,-0.1099518,-0.0005715),(0.,-0.1096321,-0.0009221),(0.,-0.1095987,-0.0008195),(0.,-0.1099518,-0.0005715),(0.,-0.1095987,-0.0008195),(0.,-0.1095432,-0.0007226),(0.,-0.1099518,-0.0005715),(0.,-0.1095432,-0.0007226),(0.,-0.1094654,-0.0006314),(0.,-0.1099518,-0.0005715),(0.,-0.1094654,-0.0006314),(0.,-0.1093493,-0.0005383),(0.,-0.1099518,-0.0005715),(0.,-0.1093493,-0.0005383),(0.,-0.1092138,-0.0004718),(0.,-0.1099518,-0.0005715),(0.,-0.1092138,-0.0004718),(0.,-0.1091387,-0.0004485),(0.,-0.1071942,0.0000089),(0.,-0.1099518,-0.0005715),(0.,-0.1091387,-0.0004485),(0.,-0.1071942,0.0000089),(0.,-0.1091387,-0.0004485),(0.,-0.1090588,-0.0004319),(0.,-0.1071942,0.0000089),(0.,-0.1090588,-0.0004319),(0.,-0.1089740,-0.0004220),(0.,-0.1071942,0.0000089),(0.,-0.1089740,-0.0004220),(0.,-0.1088844,-0.0004186),(0.,-0.1071942,0.0000089),(0.,-0.1088844,-0.0004186),(0.,-0.1071942,-0.0004186),(0.,-0.1071942,0.0000089),(0.,-0.1071942,-0.0004186),(0.,-0.1071072,-0.0004220),(0.,-0.1071942,0.0000089),(0.,-0.1071072,-0.0004220),(0.,-0.1070244,-0.0004319),(0.,-0.1071942,0.0000089),(0.,-0.1070244,-0.0004319),(0.,-0.1068717,-0.0004718),(0.,-0.1071942,0.0000089),(0.,-0.1068717,-0.0004718),(0.,-0.1067360,-0.0005383),(0.,-0.1071942,0.0000089),(0.,-0.1067360,-0.0005383),(0.,-0.1066174,-0.0006314),(0.,-0.1093533,-0.0015223),(0.,-0.1094696,-0.0014283),(0.,-0.1097659,-0.0017320),(0.,-0.1092169,-0.0015894),(0.,-0.1093533,-0.0015223),(0.,-0.1097659,-0.0017320),(0.,-0.1090606,-0.0016297),(0.,-0.1092169,-0.0015894),(0.,-0.1097659,-0.0017320),(0.,-0.1089750,-0.0016398),(0.,-0.1090606,-0.0016297),(0.,-0.1097659,-0.0017320),(0.,-0.1088844,-0.0016431),(0.,-0.1089750,-0.0016398),(0.,-0.1097659,-0.0017320),(0.,-0.1071868,-0.0016431),(0.,-0.1088844,-0.0016431),(0.,-0.1097659,-0.0017320),(0.,-0.1071868,-0.0016431),(0.,-0.1097659,-0.0017320),(0.,-0.1096779,-0.0018116),(0.,-0.1070985,-0.0016398),(0.,-0.1071868,-0.0016431),(0.,-0.1096779,-0.0018116),(0.,-0.1070985,-0.0016398),(0.,-0.1096779,-0.0018116),(0.,-0.1095837,-0.0018807),(0.,-0.1070985,-0.0016398),(0.,-0.1095837,-0.0018807),(0.,-0.1094833,-0.0019390),(0.,-0.1070151,-0.0016298),(0.,-0.1070985,-0.0016398),(0.,-0.1094833,-0.0019390),(0.,-0.1070151,-0.0016298),(0.,-0.1094833,-0.0019390),(0.,-0.1093767,-0.0019868),(0.,-0.1070151,-0.0016298),(0.,-0.1093767,-0.0019868),(0.,-0.1092640,-0.0020240),(0.,-0.1070151,-0.0016298),(0.,-0.1092640,-0.0020240),(0.,-0.1091450,-0.0020505),(0.,-0.1070151,-0.0016298),(0.,-0.1091450,-0.0020505),(0.,-0.1090199,-0.0020664),(0.,-0.1069366,-0.0016132),(0.,-0.1070151,-0.0016298),(0.,-0.1090199,-0.0020664),(0.,-0.1069366,-0.0016132),(0.,-0.1090199,-0.0020664),(0.,-0.1088886,-0.0020718),(0.,-0.1069366,-0.0016132),(0.,-0.1088886,-0.0020718),(0.,-0.1071942,-0.0020718),(0.,-0.1068629,-0.0015899),(0.,-0.1069366,-0.0016132),(0.,-0.1071942,-0.0020718),(0.,-0.1067304,-0.0015235),(0.,-0.1068629,-0.0015899),(0.,-0.1071942,-0.0020718),(0.,-0.1066174,-0.0014304),(0.,-0.1067304,-0.0015235),(0.,-0.1071942,-0.0020718),(0.,-0.1066174,-0.0014304),(0.,-0.1071942,-0.0020718),(0.,-0.1071868,-0.0020718),(0.,-0.1066174,-0.0014304),(0.,-0.1071868,-0.0020718),(0.,-0.1070563,-0.0020664),(0.,-0.1065387,-0.0013352),(0.,-0.1066174,-0.0014304),(0.,-0.1070563,-0.0020664),(0.,-0.1065387,-0.0013352),(0.,-0.1070563,-0.0020664),(0.,-0.1069320,-0.0020505),(0.,-0.1064825,-0.0012367),(0.,-0.1065387,-0.0013352),(0.,-0.1069320,-0.0020505),(0.,-0.1064825,-0.0012367),(0.,-0.1069320,-0.0020505),(0.,-0.1068139,-0.0020240),(0.,-0.1064825,-0.0012367),(0.,-0.1068139,-0.0020240),(0.,-0.1067021,-0.0019868),(0.,-0.1064487,-0.0011351),(0.,-0.1064825,-0.0012367),(0.,-0.1067021,-0.0019868),(0.,-0.1064487,-0.0011351),(0.,-0.1067021,-0.0019868),(0.,-0.1065964,-0.0019390),(0.,-0.1064487,-0.0011351),(0.,-0.1065964,-0.0019390),(0.,-0.1064970,-0.0018807),(0.,-0.1064375,-0.0010304),(0.,-0.1064487,-0.0011351),(0.,-0.1064970,-0.0018807),(0.,-0.1064375,-0.0010304),(0.,-0.1064970,-0.0018807),(0.,-0.1064038,-0.0018116),(0.,-0.1064375,-0.0010304),(0.,-0.1064038,-0.0018116),(0.,-0.1063168,-0.0017320),(0.,-0.1064487,-0.0009213),(0.,-0.1064375,-0.0010304),(0.,-0.1063168,-0.0017320),(0.,-0.1064487,-0.0009213),(0.,-0.1063168,-0.0017320),(0.,-0.1062452,-0.0016537),(0.,-0.1064487,-0.0009213),(0.,-0.1062452,-0.0016537),(0.,-0.1061830,-0.0015727),(0.,-0.1064825,-0.0008184),(0.,-0.1064487,-0.0009213),(0.,-0.1061830,-0.0015727),(0.,-0.1064825,-0.0008184),(0.,-0.1061830,-0.0015727),(0.,-0.1061305,-0.0014890),(0.,-0.1064825,-0.0008184),(0.,-0.1061305,-0.0014890),(0.,-0.1060874,-0.0014026),(0.,-0.1065387,-0.0007218),(0.,-0.1064825,-0.0008184),(0.,-0.1060874,-0.0014026),(0.,-0.1065387,-0.0007218),(0.,-0.1060874,-0.0014026),(0.,-0.1060540,-0.0013136),(0.,-0.1065387,-0.0007218),(0.,-0.1060540,-0.0013136),(0.,-0.1060301,-0.0012218),(0.,-0.1066174,-0.0006314),(0.,-0.1065387,-0.0007218),(0.,-0.1060301,-0.0012218),(0.,-0.1071942,0.0000089),(0.,-0.1066174,-0.0006314),(0.,-0.1060301,-0.0012218),(0.,-0.1071942,0.0000089),(0.,-0.1060301,-0.0012218),(0.,-0.1060158,-0.0011274),(0.,-0.1071942,0.0000089),(0.,-0.1060158,-0.0011274),(0.,-0.1060110,-0.0010304),(0.,-0.1071942,0.0000089),(0.,-0.1060110,-0.0010304),(0.,-0.1060158,-0.0009321),(0.,-0.1071942,0.0000089),(0.,-0.1060158,-0.0009321),(0.,-0.1060301,-0.0008370),(0.,-0.1071942,0.0000089),(0.,-0.1060301,-0.0008370),(0.,-0.1060540,-0.0007449),(0.,-0.1071942,0.0000089),(0.,-0.1060540,-0.0007449),(0.,-0.1060874,-0.0006560),(0.,-0.1071942,0.0000089),(0.,-0.1060874,-0.0006560),(0.,-0.1061305,-0.0005701),(0.,-0.1071942,0.0000089),(0.,-0.1061305,-0.0005701),(0.,-0.1061830,-0.0004872),(0.,-0.1071942,0.0000089),(0.,-0.1061830,-0.0004872),(0.,-0.1062452,-0.0004075),(0.,-0.1071942,0.0000089),(0.,-0.1062452,-0.0004075),(0.,-0.1063168,-0.0003308),(0.,-0.1071942,0.0000089),(0.,-0.1063168,-0.0003308),(0.,-0.1064056,-0.0002512),(0.,-0.1071942,0.0000089),(0.,-0.1064056,-0.0002512),(0.,-0.1065003,-0.0001822),(0.,-0.1071942,0.0000089),(0.,-0.1065003,-0.0001822),(0.,-0.1066010,-0.0001238),(0.,-0.1071942,0.0000089),(0.,-0.1066010,-0.0001238),(0.,-0.1067076,-0.0000760),(0.,-0.1071942,0.0000089),(0.,-0.1067076,-0.0000760),(0.,-0.1068203,-0.0000388),(0.,-0.1071942,0.0000089),(0.,-0.1068203,-0.0000388),(0.,-0.1069389,-0.0000123),(0.,-0.1071942,0.0000089),(0.,-0.1069389,-0.0000123),(0.,-0.1070636,0.0000036),(0.,-0.1065571,0.0021288),(0.,-0.1060554,0.0027363),(0.,-0.1060089,0.0028537),(0.,-0.1065571,0.0021288),(0.,-0.1060089,0.0028537),(0.,-0.1060406,0.0029585),(0.,-0.1065571,0.0021288),(0.,-0.1060406,0.0029585),(0.,-0.1061158,0.0030434),(0.,-0.1065571,0.0021288),(0.,-0.1061158,0.0030434),(0.,-0.1062290,0.0030718),(0.,-0.1062290,0.0030718),(0.,-0.1098559,0.0030718),(0.,-0.1099379,0.0030564),(0.,-0.1062290,0.0030718),(0.,-0.1099379,0.0030564),(0.,-0.1100062,0.0030104),(0.,-0.1062290,0.0030718),(0.,-0.1100062,0.0030104),(0.,-0.1100522,0.0029418),(0.,-0.1062290,0.0030718),(0.,-0.1100522,0.0029418),(0.,-0.1100676,0.0028590),(0.,-0.1062290,0.0030718),(0.,-0.1100676,0.0028590),(0.,-0.1100522,0.0027770),(0.,-0.1062290,0.0030718),(0.,-0.1100522,0.0027770),(0.,-0.1100062,0.0027087),(0.,-0.1062290,0.0030718),(0.,-0.1100062,0.0027087),(0.,-0.1099379,0.0026627),(0.,-0.1062290,0.0030718),(0.,-0.1099379,0.0026627),(0.,-0.1098559,0.0026474),(0.,-0.1062290,0.0030718),(0.,-0.1098559,0.0026474),(0.,-0.1066703,0.0026474),(0.,-0.1065571,0.0021288),(0.,-0.1062290,0.0030718),(0.,-0.1066703,0.0026474),(0.,-0.1065571,0.0021288),(0.,-0.1066703,0.0026474),(0.,-0.1069095,0.0023764),(0.,-0.1065571,0.0021288),(0.,-0.1069095,0.0023764),(0.,-0.1069465,0.0022611),(0.,-0.1065571,0.0021288),(0.,-0.1069465,0.0022611),(0.,-0.1069444,0.0022198),(0.,-0.1065571,0.0021288),(0.,-0.1069444,0.0022198),(0.,-0.1069156,0.0021394),(0.,-0.1065571,0.0021288),(0.,-0.1069156,0.0021394),(0.,-0.1068587,0.0020801),(0.,-0.1065571,0.0021288),(0.,-0.1068587,0.0020801),(0.,-0.1067306,0.0020462),(0.,-0.1065571,0.0021288),(0.,-0.1067306,0.0020462),(0.,-0.1066968,0.0020462),(0.,-0.1065571,0.0021288),(0.,-0.1066968,0.0020462),(0.,-0.1066248,0.0020711),(0.,-0.1102168,0.0006468),(0.,-0.1101438,0.0005402),(0.,-0.1100371,0.0004672),(0.,-0.1102168,0.0006468),(0.,-0.1100371,0.0004672),(0.,-0.1099120,0.0004428),(0.,-0.1102168,0.0006468),(0.,-0.1099120,0.0004428),(0.,-0.1097868,0.0004672),(0.,-0.1102168,0.0006468),(0.,-0.1097868,0.0004672),(0.,-0.1096802,0.0005402),(0.,-0.1102168,0.0006468),(0.,-0.1096802,0.0005402),(0.,-0.1096072,0.0006468),(0.,-0.1102168,0.0006468),(0.,-0.1096072,0.0006468),(0.,-0.1095829,0.0007720),(0.,-0.1102168,0.0006468),(0.,-0.1095829,0.0007720),(0.,-0.1096072,0.0008969),(0.,-0.1102168,0.0006468),(0.,-0.1096072,0.0008969),(0.,-0.1096802,0.0010027),(0.,-0.1102168,0.0006468),(0.,-0.1096802,0.0010027),(0.,-0.1097868,0.0010757),(0.,-0.1102168,0.0006468),(0.,-0.1097868,0.0010757),(0.,-0.1099120,0.0011001),(0.,-0.1102168,0.0006468),(0.,-0.1099120,0.0011001),(0.,-0.1100371,0.0010757),(0.,-0.1102168,0.0006468),(0.,-0.1100371,0.0010757),(0.,-0.1101438,0.0010027),(0.,-0.1102168,0.0006468),(0.,-0.1101438,0.0010027),(0.,-0.1102168,0.0008969),(0.,-0.1102168,0.0006468),(0.,-0.1102168,0.0008969),(0.,-0.1102411,0.0007720)));
#360=COMPLEX_TRIANGULATED_SURFACE_SET('surface set',#359,435,(),(),(),((1,2,3),(4,5,6),(7,8,9),(10,11,12),(13,14,15),(16,17,18),(19,20,21),(22,23,24),(25,26,27),(28,29,30),(31,32,33),(34,35,36),(37,38,39),(40,41,42),(43,44,45),(46,47,48),(49,50,51),(52,53,54),(55,56,57),(58,59,60),(61,62,63),(64,65,66),(67,68,69),(70,71,72),(73,74,75),(76,77,78),(79,80,81),(82,83,84),(85,86,87),(88,89,90),(91,92,93),(94,95,96),(97,98,99),(100,101,102),(103,104,105),(106,107,108),(109,110,111),(112,113,114),(115,116,117),(118,119,120),(121,122,123),(124,125,126),(127,128,129),(130,131,132),(133,134,135),(136,137,138),(139,140,141),(142,143,144),(145,146,147),(148,149,150),(151,152,153),(154,155,156),(157,158,159),(160,161,162),(163,164,165),(166,167,168),(169,170,171),(172,173,174),(175,176,177),(178,179,180),(181,182,183),(184,185,186),(187,188,189),(190,191,192),(193,194,195),(196,197,198),(199,200,201),(202,203,204),(205,206,207),(208,209,210),(211,212,213),(214,215,216),(217,218,219),(220,221,222),(223,224,225),(226,227,228),(229,230,231),(232,233,234),(235,236,237),(238,239,240),(241,242,243),(244,245,246),(247,248,249),(250,251,252),(253,254,255),(256,257,258),(259,260,261),(262,263,264),(265,266,267),(268,269,270),(271,272,273),(274,275,276),(277,278,279),(280,281,282),(283,284,285),(286,287,288),(289,290,291),(292,293,294),(295,296,297),(298,299,300),(301,302,303),(304,305,306),(307,308,309),(310,311,312),(313,314,315),(316,317,318),(319,320,321),(322,323,324),(325,326,327),(328,329,330),(331,332,333),(334,335,336),(337,338,339),(340,341,342),(343,344,345),(346,347,348),(349,350,351),(352,353,354),(355,356,357),(358,359,360),(361,362,363),(364,365,366),(367,368,369),(370,371,372),(373,374,375),(376,377,378),(379,380,381),(382,383,384),(385,386,387),(388,389,390),(391,392,393),(394,395,396),(397,398,399),(400,401,402),(403,404,405),(406,407,408),(409,410,411),(412,413,414),(415,416,417),(418,419,420),(421,422,423),(424,425,426),(427,428,429),(430,431,432),(433,434,435)));
#361=TESSELLATED_GEOMETRIC_SET('linear dimension',(#360));
#362=COORDINATES_LIST('coordinates',8,((0.,-0.0725000,0.),(0.,-0.1081250,0.),(0.,-0.0725000,0.0010000),(0.,-0.1081250,0.0010000),(0.,-0.1081250,-0.0030718),(0.,-0.1081250,-0.0030718),(0.,-0.1081250,0.0040718),(0.,-0.1081250,0.0040718)));
#363=TESSELLATED_CURVE_SET('curve set',#362,((1,2),(3,4),(5,6),(7,8)));
#364=TESSELLATED_GEOMETRIC_SET('linear dimension',(#363));
#365=TESSELLATED_ANNOTATION_OCCURRENCE('linear dimension',(#358),#361);
#366=TESSELLATED_ANNOTATION_OCCURRENCE('linear dimension',(#358),#364);
#367=DRAUGHTING_CALLOUT('linear dimension',(#365,#366));
#368=DRAUGHTING_MODEL_ITEM_ASSOCIATION('','',#324,#354,#367);
#369=DRAUGHTING_MODEL_ITEM_ASSOCIATION('','',#326,#354,#367);
#370=DRAUGHTING_MODEL_ITEM_ASSOCIATION('','',#328,#354,#367);
ENDSEC;
END-ISO-10303-21;
