ISO-10303-21;
HEADER;
/* Generated by software containing ST-Developer
 * from STEP Tools, Inc. (www.steptools.com) 
 */
/* OPTION: using custom renumber hook */

FILE_DESCRIPTION(
/* description */ ('STEP AP242 Edition 2',
'CAx-IF Rec.Pracs.---Representation and Presentation of Product Manufa
cturing Information (PMI)---4.0---2014-10-13',
'CAx-IF Rec.Pracs.---3D Tessellated Geometry---0.4---2014-09-14','2;1',
'CAx-IF Rec.Pracs.---User Defined Attributes---1.5---2016-08-15'),
/* implementation_level */ '2;1');

FILE_NAME(
/* name */ 'Ceiling - Part 1',
/* time_stamp */ '2026-08-29T04:17:16Z',
/* author */ (''),
/* organization */ (''),
/* preprocessor_version */ 'ST-DEVELOPER v20',
/* originating_system */ 'ONSHAPE BY PTC INC, 1.220',
/* authorisation */ '  ');

FILE_SCHEMA (('AP242_MANAGED_MODEL_BASED_3D_ENGINEERING_MIM_LF { 1 0 10303 442 3 1 4 }'));
ENDSEC;

DATA;
#10=SHAPE_REPRESENTATION_RELATIONSHIP('','',#123,#11);
#11=ADVANCED_BREP_SHAPE_REPRESENTATION('',(#121),#185);
#12=OVER_RIDING_STYLED_ITEM('',(#108),#103,#106);
#13=ORIENTED_EDGE('',*,*,#37,.F.);
#14=ORIENTED_EDGE('',*,*,#38,.F.);
#15=ORIENTED_EDGE('',*,*,#39,.T.);
#16=ORIENTED_EDGE('',*,*,#40,.T.);
#17=ORIENTED_EDGE('',*,*,#41,.T.);
#18=ORIENTED_EDGE('',*,*,#42,.F.);
#19=ORIENTED_EDGE('',*,*,#43,.F.);
#20=ORIENTED_EDGE('',*,*,#38,.T.);
#21=ORIENTED_EDGE('',*,*,#44,.T.);
#22=ORIENTED_EDGE('',*,*,#45,.F.);
#23=ORIENTED_EDGE('',*,*,#46,.F.);
#24=ORIENTED_EDGE('',*,*,#42,.T.);
#25=ORIENTED_EDGE('',*,*,#47,.F.);
#26=ORIENTED_EDGE('',*,*,#40,.F.);
#27=ORIENTED_EDGE('',*,*,#48,.T.);
#28=ORIENTED_EDGE('',*,*,#45,.T.);
#29=ORIENTED_EDGE('',*,*,#39,.F.);
#30=ORIENTED_EDGE('',*,*,#43,.T.);
#31=ORIENTED_EDGE('',*,*,#46,.T.);
#32=ORIENTED_EDGE('',*,*,#48,.F.);
#33=ORIENTED_EDGE('',*,*,#37,.T.);
#34=ORIENTED_EDGE('',*,*,#47,.T.);
#35=ORIENTED_EDGE('',*,*,#44,.F.);
#36=ORIENTED_EDGE('',*,*,#41,.F.);
#37=EDGE_CURVE('',#49,#50,#57,.T.);
#38=EDGE_CURVE('',#51,#49,#58,.T.);
#39=EDGE_CURVE('',#51,#52,#59,.T.);
#40=EDGE_CURVE('',#52,#50,#60,.T.);
#41=EDGE_CURVE('',#49,#53,#61,.T.);
#42=EDGE_CURVE('',#54,#53,#62,.T.);
#43=EDGE_CURVE('',#51,#54,#63,.T.);
#44=EDGE_CURVE('',#53,#55,#64,.T.);
#45=EDGE_CURVE('',#56,#55,#65,.T.);
#46=EDGE_CURVE('',#54,#56,#66,.T.);
#47=EDGE_CURVE('',#50,#55,#67,.T.);
#48=EDGE_CURVE('',#52,#56,#68,.T.);
#49=VERTEX_POINT('',#160);
#50=VERTEX_POINT('',#161);
#51=VERTEX_POINT('',#163);
#52=VERTEX_POINT('',#165);
#53=VERTEX_POINT('',#169);
#54=VERTEX_POINT('',#171);
#55=VERTEX_POINT('',#175);
#56=VERTEX_POINT('',#177);
#57=LINE('',#159,#69);
#58=LINE('',#162,#70);
#59=LINE('',#164,#71);
#60=LINE('',#166,#72);
#61=LINE('',#168,#73);
#62=LINE('',#170,#74);
#63=LINE('',#172,#75);
#64=LINE('',#174,#76);
#65=LINE('',#176,#77);
#66=LINE('',#178,#78);
#67=LINE('',#180,#79);
#68=LINE('',#181,#80);
#69=VECTOR('',#135,1.);
#70=VECTOR('',#136,1.);
#71=VECTOR('',#137,1.);
#72=VECTOR('',#138,1.);
#73=VECTOR('',#141,1.);
#74=VECTOR('',#142,1.);
#75=VECTOR('',#143,1.);
#76=VECTOR('',#146,1.);
#77=VECTOR('',#147,1.);
#78=VECTOR('',#148,1.);
#79=VECTOR('',#151,1.);
#80=VECTOR('',#152,1.);
#81=EDGE_LOOP('',(#13,#14,#15,#16));
#82=EDGE_LOOP('',(#17,#18,#19,#20));
#83=EDGE_LOOP('',(#21,#22,#23,#24));
#84=EDGE_LOOP('',(#25,#26,#27,#28));
#85=EDGE_LOOP('',(#29,#30,#31,#32));
#86=EDGE_LOOP('',(#33,#34,#35,#36));
#87=FACE_BOUND('',#81,.T.);
#88=FACE_BOUND('',#82,.T.);
#89=FACE_BOUND('',#83,.T.);
#90=FACE_BOUND('',#84,.T.);
#91=FACE_BOUND('',#85,.T.);
#92=FACE_BOUND('',#86,.T.);
#93=PLANE('',#125);
#94=PLANE('',#126);
#95=PLANE('',#127);
#96=PLANE('',#128);
#97=PLANE('',#129);
#98=PLANE('',#130);
#99=ADVANCED_FACE('',(#87),#93,.T.);
#100=ADVANCED_FACE('',(#88),#94,.F.);
#101=ADVANCED_FACE('',(#89),#95,.F.);
#102=ADVANCED_FACE('',(#90),#96,.T.);
#103=ADVANCED_FACE('Face appearance 1',(#91),#97,.T.);
#104=ADVANCED_FACE('',(#92),#98,.F.);
#105=CLOSED_SHELL('',(#99,#100,#101,#102,#103,#104));
#106=STYLED_ITEM('',(#107),#121);
#107=PRESENTATION_STYLE_ASSIGNMENT((#109));
#108=PRESENTATION_STYLE_ASSIGNMENT((#110));
#109=SURFACE_STYLE_USAGE(.BOTH.,#111);
#110=SURFACE_STYLE_USAGE(.BOTH.,#112);
#111=SURFACE_SIDE_STYLE('',(#113));
#112=SURFACE_SIDE_STYLE('',(#114));
#113=SURFACE_STYLE_FILL_AREA(#115);
#114=SURFACE_STYLE_FILL_AREA(#116);
#115=FILL_AREA_STYLE('',(#117));
#116=FILL_AREA_STYLE('',(#118));
#117=FILL_AREA_STYLE_COLOUR('',#119);
#118=FILL_AREA_STYLE_COLOUR('',#120);
#119=COLOUR_RGB('',0.196078431372549,0.156862745098039,0.235294117647059);
#120=COLOUR_RGB('',0.27843137254902,0.168627450980392,0.392156862745098);
#121=MANIFOLD_SOLID_BREP('Part 1',#105);
#122=SHAPE_DEFINITION_REPRESENTATION(#190,#123);
#123=SHAPE_REPRESENTATION('Part 1',(#124),#185);
#124=AXIS2_PLACEMENT_3D('',#157,#131,#132);
#125=AXIS2_PLACEMENT_3D('',#158,#133,#134);
#126=AXIS2_PLACEMENT_3D('',#167,#139,#140);
#127=AXIS2_PLACEMENT_3D('',#173,#144,#145);
#128=AXIS2_PLACEMENT_3D('',#179,#149,#150);
#129=AXIS2_PLACEMENT_3D('',#182,#153,#154);
#130=AXIS2_PLACEMENT_3D('',#183,#155,#156);
#131=DIRECTION('',(0.,0.,1.));
#132=DIRECTION('',(1.,0.,0.));
#133=DIRECTION('',(0.,1.,0.));
#134=DIRECTION('',(0.,0.,1.));
#135=DIRECTION('',(1.,0.,0.));
#136=DIRECTION('',(0.,0.,-1.));
#137=DIRECTION('',(1.,0.,0.));
#138=DIRECTION('',(0.,0.,-1.));
#139=DIRECTION('',(1.,-1.91417762866406E-16,0.));
#140=DIRECTION('',(1.91417762866406E-16,1.,0.));
#141=DIRECTION('',(-1.91417762866406E-16,-1.,0.));
#142=DIRECTION('',(0.,0.,-1.));
#143=DIRECTION('',(-1.91417762866406E-16,-1.,0.));
#144=DIRECTION('',(0.,1.,0.));
#145=DIRECTION('',(0.,0.,1.));
#146=DIRECTION('',(1.,0.,0.));
#147=DIRECTION('',(0.,0.,-1.));
#148=DIRECTION('',(1.,0.,0.));
#149=DIRECTION('',(1.,-1.91417762866406E-16,0.));
#150=DIRECTION('',(1.91417762866406E-16,1.,0.));
#151=DIRECTION('',(-1.91417762866406E-16,-1.,0.));
#152=DIRECTION('',(-1.91417762866406E-16,-1.,0.));
#153=DIRECTION('',(0.,0.,1.));
#154=DIRECTION('',(1.,0.,0.));
#155=DIRECTION('',(0.,0.,1.));
#156=DIRECTION('',(1.,0.,0.));
#157=CARTESIAN_POINT('',(0.,0.,0.));
#158=CARTESIAN_POINT('',(2.77555756156289E-17,0.0725,0.0025));
#159=CARTESIAN_POINT('',(2.77555756156289E-17,0.0725,0.));
#160=CARTESIAN_POINT('',(-0.0725,0.0725,0.));
#161=CARTESIAN_POINT('',(0.0725,0.0725,0.));
#162=CARTESIAN_POINT('',(-0.0725,0.0725,0.0025));
#163=CARTESIAN_POINT('',(-0.0725,0.0725,0.0025));
#164=CARTESIAN_POINT('',(2.77555756156289E-17,0.0725,0.0025));
#165=CARTESIAN_POINT('',(0.0725,0.0725,0.0025));
#166=CARTESIAN_POINT('',(0.0725,0.0725,0.0025));
#167=CARTESIAN_POINT('',(-0.0725,0.,0.0025));
#168=CARTESIAN_POINT('',(-0.0725,0.,0.));
#169=CARTESIAN_POINT('',(-0.0725,-0.0725,0.));
#170=CARTESIAN_POINT('',(-0.0725,-0.0725,0.0025));
#171=CARTESIAN_POINT('',(-0.0725,-0.0725,0.0025));
#172=CARTESIAN_POINT('',(-0.0725,0.,0.0025));
#173=CARTESIAN_POINT('',(-1.38777878078145E-17,-0.0725,0.0025));
#174=CARTESIAN_POINT('',(-1.38777878078145E-17,-0.0725,0.));
#175=CARTESIAN_POINT('',(0.0725,-0.0725,0.));
#176=CARTESIAN_POINT('',(0.0725,-0.0725,0.0025));
#177=CARTESIAN_POINT('',(0.0725,-0.0725,0.0025));
#178=CARTESIAN_POINT('',(-1.38777878078145E-17,-0.0725,0.0025));
#179=CARTESIAN_POINT('',(0.0725,0.,0.0025));
#180=CARTESIAN_POINT('',(0.0725,0.,0.));
#181=CARTESIAN_POINT('',(0.0725,0.,0.0025));
#182=CARTESIAN_POINT('',(0.,0.,0.0025));
#183=CARTESIAN_POINT('',(0.,0.,0.));
#184=MECHANICAL_DESIGN_GEOMETRIC_PRESENTATION_REPRESENTATION('',(#106,#12),
#185);
#185=(
GEOMETRIC_REPRESENTATION_CONTEXT(3)
GLOBAL_UNCERTAINTY_ASSIGNED_CONTEXT((#186))
GLOBAL_UNIT_ASSIGNED_CONTEXT((#189,#188,#187))
REPRESENTATION_CONTEXT('Part 1','TOP_LEVEL_ASSEMBLY_PART')
);
#186=UNCERTAINTY_MEASURE_WITH_UNIT(LENGTH_MEASURE(1.E-8),#189,
'DISTANCE_ACCURACY_VALUE','Maximum Tolerance applied to model');
#187=(
NAMED_UNIT(*)
SI_UNIT($,.STERADIAN.)
SOLID_ANGLE_UNIT()
);
#188=(
NAMED_UNIT(*)
PLANE_ANGLE_UNIT()
SI_UNIT($,.RADIAN.)
);
#189=(
LENGTH_UNIT()
NAMED_UNIT(*)
SI_UNIT($,.METRE.)
);
#190=PRODUCT_DEFINITION_SHAPE('','',#191);
#191=PRODUCT_DEFINITION('','',#193,#192);
#192=PRODUCT_DEFINITION_CONTEXT('',#199,'design');
#193=PRODUCT_DEFINITION_FORMATION_WITH_SPECIFIED_SOURCE('','',#195,
 .NOT_KNOWN.);
#194=PRODUCT_RELATED_PRODUCT_CATEGORY('','',(#195));
#195=PRODUCT('Part 1','Part 1','Part 1',(#197));
#196=PRODUCT_CATEGORY('','');
#197=PRODUCT_CONTEXT('',#199,'mechanical');
#198=APPLICATION_PROTOCOL_DEFINITION('international standard',
'ap242_managed_model_based_3d_engineering',2020,#199);
#199=APPLICATION_CONTEXT('managed model based 3d engineering');
ENDSEC;
END-ISO-10303-21;
