ISO-10303-21;
HEADER;
/* Generated by software containing ST-Developer
 * from STEP Tools, Inc. (www.steptools.com) 
 */
/* OPTION: using custom renumber hook */

FILE_DESCRIPTION(
/* description */ ('STEP AP242 Edition 2',
'CAx-IF Rec.Pracs.---Representation and Presentation of Product Manufa
cturing Information (PMI)---4.0---2014-10-13',
'CAx-IF Rec.Pracs.---3D Tessellated Geometry---0.4---2014-09-14','2;1',
'CAx-IF Rec.Pracs.---User Defined Attributes---1.5---2016-08-15'),
/* implementation_level */ '2;1');

FILE_NAME(
/* name */ 'ladder - Part 1',
/* time_stamp */ '2026-08-29T04:43:15Z',
/* author */ (''),
/* organization */ (''),
/* preprocessor_version */ 'ST-DEVELOPER v20',
/* originating_system */ 'ONSHAPE BY PTC INC, 1.220',
/* authorisation */ '  ');

FILE_SCHEMA (('AP242_MANAGED_MODEL_BASED_3D_ENGINEERING_MIM_LF { 1 0 10303 442 3 1 4 }'));
ENDSEC;

DATA;
#10=SHAPE_REPRESENTATION_RELATIONSHIP('','',#635,#11);
#11=ADVANCED_BREP_SHAPE_REPRESENTATION('',(#633),#985);
#12=ORIENTED_EDGE('',*,*,#180,.F.);
#13=ORIENTED_EDGE('',*,*,#181,.F.);
#14=ORIENTED_EDGE('',*,*,#182,.T.);
#15=ORIENTED_EDGE('',*,*,#183,.T.);
#16=ORIENTED_EDGE('',*,*,#184,.F.);
#17=ORIENTED_EDGE('',*,*,#185,.F.);
#18=ORIENTED_EDGE('',*,*,#186,.T.);
#19=ORIENTED_EDGE('',*,*,#187,.T.);
#20=ORIENTED_EDGE('',*,*,#188,.F.);
#21=ORIENTED_EDGE('',*,*,#189,.T.);
#22=ORIENTED_EDGE('',*,*,#190,.T.);
#23=ORIENTED_EDGE('',*,*,#191,.F.);
#24=ORIENTED_EDGE('',*,*,#192,.F.);
#25=ORIENTED_EDGE('',*,*,#193,.T.);
#26=ORIENTED_EDGE('',*,*,#194,.T.);
#27=ORIENTED_EDGE('',*,*,#195,.F.);
#28=ORIENTED_EDGE('',*,*,#196,.F.);
#29=ORIENTED_EDGE('',*,*,#197,.T.);
#30=ORIENTED_EDGE('',*,*,#198,.T.);
#31=ORIENTED_EDGE('',*,*,#199,.F.);
#32=ORIENTED_EDGE('',*,*,#200,.T.);
#33=ORIENTED_EDGE('',*,*,#182,.F.);
#34=ORIENTED_EDGE('',*,*,#201,.F.);
#35=ORIENTED_EDGE('',*,*,#202,.T.);
#36=ORIENTED_EDGE('',*,*,#203,.F.);
#37=ORIENTED_EDGE('',*,*,#202,.F.);
#38=ORIENTED_EDGE('',*,*,#204,.T.);
#39=ORIENTED_EDGE('',*,*,#205,.T.);
#40=ORIENTED_EDGE('',*,*,#206,.F.);
#41=ORIENTED_EDGE('',*,*,#205,.F.);
#42=ORIENTED_EDGE('',*,*,#207,.T.);
#43=ORIENTED_EDGE('',*,*,#208,.T.);
#44=ORIENTED_EDGE('',*,*,#209,.F.);
#45=ORIENTED_EDGE('',*,*,#210,.T.);
#46=ORIENTED_EDGE('',*,*,#211,.T.);
#47=ORIENTED_EDGE('',*,*,#208,.F.);
#48=ORIENTED_EDGE('',*,*,#212,.F.);
#49=ORIENTED_EDGE('',*,*,#188,.T.);
#50=ORIENTED_EDGE('',*,*,#213,.T.);
#51=ORIENTED_EDGE('',*,*,#214,.F.);
#52=ORIENTED_EDGE('',*,*,#215,.F.);
#53=ORIENTED_EDGE('',*,*,#192,.T.);
#54=ORIENTED_EDGE('',*,*,#216,.T.);
#55=ORIENTED_EDGE('',*,*,#217,.F.);
#56=ORIENTED_EDGE('',*,*,#218,.F.);
#57=ORIENTED_EDGE('',*,*,#185,.T.);
#58=ORIENTED_EDGE('',*,*,#219,.T.);
#59=ORIENTED_EDGE('',*,*,#220,.F.);
#60=ORIENTED_EDGE('',*,*,#221,.F.);
#61=ORIENTED_EDGE('',*,*,#196,.T.);
#62=ORIENTED_EDGE('',*,*,#222,.T.);
#63=ORIENTED_EDGE('',*,*,#223,.F.);
#64=ORIENTED_EDGE('',*,*,#201,.T.);
#65=ORIENTED_EDGE('',*,*,#181,.T.);
#66=ORIENTED_EDGE('',*,*,#224,.T.);
#67=ORIENTED_EDGE('',*,*,#225,.F.);
#68=ORIENTED_EDGE('',*,*,#226,.T.);
#69=ORIENTED_EDGE('',*,*,#227,.T.);
#70=ORIENTED_EDGE('',*,*,#228,.F.);
#71=ORIENTED_EDGE('',*,*,#229,.F.);
#72=ORIENTED_EDGE('',*,*,#230,.F.);
#73=ORIENTED_EDGE('',*,*,#209,.T.);
#74=ORIENTED_EDGE('',*,*,#207,.F.);
#75=ORIENTED_EDGE('',*,*,#204,.F.);
#76=ORIENTED_EDGE('',*,*,#190,.F.);
#77=ORIENTED_EDGE('',*,*,#231,.T.);
#78=ORIENTED_EDGE('',*,*,#232,.T.);
#79=ORIENTED_EDGE('',*,*,#233,.F.);
#80=ORIENTED_EDGE('',*,*,#194,.F.);
#81=ORIENTED_EDGE('',*,*,#234,.T.);
#82=ORIENTED_EDGE('',*,*,#235,.T.);
#83=ORIENTED_EDGE('',*,*,#236,.F.);
#84=ORIENTED_EDGE('',*,*,#187,.F.);
#85=ORIENTED_EDGE('',*,*,#237,.T.);
#86=ORIENTED_EDGE('',*,*,#238,.T.);
#87=ORIENTED_EDGE('',*,*,#239,.F.);
#88=ORIENTED_EDGE('',*,*,#198,.F.);
#89=ORIENTED_EDGE('',*,*,#240,.T.);
#90=ORIENTED_EDGE('',*,*,#241,.T.);
#91=ORIENTED_EDGE('',*,*,#242,.F.);
#92=ORIENTED_EDGE('',*,*,#200,.F.);
#93=ORIENTED_EDGE('',*,*,#203,.T.);
#94=ORIENTED_EDGE('',*,*,#206,.T.);
#95=ORIENTED_EDGE('',*,*,#211,.F.);
#96=ORIENTED_EDGE('',*,*,#243,.T.);
#97=ORIENTED_EDGE('',*,*,#244,.T.);
#98=ORIENTED_EDGE('',*,*,#245,.T.);
#99=ORIENTED_EDGE('',*,*,#246,.F.);
#100=ORIENTED_EDGE('',*,*,#247,.F.);
#101=ORIENTED_EDGE('',*,*,#248,.T.);
#102=ORIENTED_EDGE('',*,*,#249,.F.);
#103=ORIENTED_EDGE('',*,*,#183,.F.);
#104=ORIENTED_EDGE('',*,*,#223,.T.);
#105=ORIENTED_EDGE('',*,*,#250,.T.);
#106=ORIENTED_EDGE('',*,*,#241,.F.);
#107=ORIENTED_EDGE('',*,*,#251,.F.);
#108=ORIENTED_EDGE('',*,*,#217,.T.);
#109=ORIENTED_EDGE('',*,*,#252,.T.);
#110=ORIENTED_EDGE('',*,*,#235,.F.);
#111=ORIENTED_EDGE('',*,*,#253,.F.);
#112=ORIENTED_EDGE('',*,*,#214,.T.);
#113=ORIENTED_EDGE('',*,*,#254,.T.);
#114=ORIENTED_EDGE('',*,*,#232,.F.);
#115=ORIENTED_EDGE('',*,*,#255,.F.);
#116=ORIENTED_EDGE('',*,*,#256,.F.);
#117=ORIENTED_EDGE('',*,*,#220,.T.);
#118=ORIENTED_EDGE('',*,*,#257,.T.);
#119=ORIENTED_EDGE('',*,*,#238,.F.);
#120=ORIENTED_EDGE('',*,*,#225,.T.);
#121=ORIENTED_EDGE('',*,*,#258,.T.);
#122=ORIENTED_EDGE('',*,*,#248,.F.);
#123=ORIENTED_EDGE('',*,*,#259,.F.);
#124=ORIENTED_EDGE('',*,*,#247,.T.);
#125=ORIENTED_EDGE('',*,*,#260,.F.);
#126=ORIENTED_EDGE('',*,*,#226,.F.);
#127=ORIENTED_EDGE('',*,*,#259,.T.);
#128=ORIENTED_EDGE('',*,*,#261,.F.);
#129=ORIENTED_EDGE('',*,*,#229,.T.);
#130=ORIENTED_EDGE('',*,*,#262,.T.);
#131=ORIENTED_EDGE('',*,*,#244,.F.);
#132=ORIENTED_EDGE('',*,*,#245,.F.);
#133=ORIENTED_EDGE('',*,*,#262,.F.);
#134=ORIENTED_EDGE('',*,*,#228,.T.);
#135=ORIENTED_EDGE('',*,*,#263,.T.);
#136=ORIENTED_EDGE('',*,*,#246,.T.);
#137=ORIENTED_EDGE('',*,*,#263,.F.);
#138=ORIENTED_EDGE('',*,*,#227,.F.);
#139=ORIENTED_EDGE('',*,*,#260,.T.);
#140=ORIENTED_EDGE('',*,*,#249,.T.);
#141=ORIENTED_EDGE('',*,*,#258,.F.);
#142=ORIENTED_EDGE('',*,*,#224,.F.);
#143=ORIENTED_EDGE('',*,*,#180,.T.);
#144=ORIENTED_EDGE('',*,*,#231,.F.);
#145=ORIENTED_EDGE('',*,*,#189,.F.);
#146=ORIENTED_EDGE('',*,*,#212,.T.);
#147=ORIENTED_EDGE('',*,*,#255,.T.);
#148=ORIENTED_EDGE('',*,*,#239,.T.);
#149=ORIENTED_EDGE('',*,*,#257,.F.);
#150=ORIENTED_EDGE('',*,*,#219,.F.);
#151=ORIENTED_EDGE('',*,*,#184,.T.);
#152=ORIENTED_EDGE('',*,*,#234,.F.);
#153=ORIENTED_EDGE('',*,*,#193,.F.);
#154=ORIENTED_EDGE('',*,*,#215,.T.);
#155=ORIENTED_EDGE('',*,*,#253,.T.);
#156=ORIENTED_EDGE('',*,*,#233,.T.);
#157=ORIENTED_EDGE('',*,*,#254,.F.);
#158=ORIENTED_EDGE('',*,*,#213,.F.);
#159=ORIENTED_EDGE('',*,*,#191,.T.);
#160=ORIENTED_EDGE('',*,*,#237,.F.);
#161=ORIENTED_EDGE('',*,*,#186,.F.);
#162=ORIENTED_EDGE('',*,*,#218,.T.);
#163=ORIENTED_EDGE('',*,*,#256,.T.);
#164=ORIENTED_EDGE('',*,*,#236,.T.);
#165=ORIENTED_EDGE('',*,*,#252,.F.);
#166=ORIENTED_EDGE('',*,*,#216,.F.);
#167=ORIENTED_EDGE('',*,*,#195,.T.);
#168=ORIENTED_EDGE('',*,*,#240,.F.);
#169=ORIENTED_EDGE('',*,*,#197,.F.);
#170=ORIENTED_EDGE('',*,*,#221,.T.);
#171=ORIENTED_EDGE('',*,*,#251,.T.);
#172=ORIENTED_EDGE('',*,*,#242,.T.);
#173=ORIENTED_EDGE('',*,*,#250,.F.);
#174=ORIENTED_EDGE('',*,*,#222,.F.);
#175=ORIENTED_EDGE('',*,*,#199,.T.);
#176=ORIENTED_EDGE('',*,*,#243,.F.);
#177=ORIENTED_EDGE('',*,*,#210,.F.);
#178=ORIENTED_EDGE('',*,*,#230,.T.);
#179=ORIENTED_EDGE('',*,*,#261,.T.);
#180=EDGE_CURVE('',#264,#265,#320,.T.);
#181=EDGE_CURVE('',#266,#264,#321,.T.);
#182=EDGE_CURVE('',#266,#267,#322,.T.);
#183=EDGE_CURVE('',#267,#265,#323,.T.);
#184=EDGE_CURVE('',#268,#269,#324,.T.);
#185=EDGE_CURVE('',#270,#268,#325,.T.);
#186=EDGE_CURVE('',#270,#271,#326,.T.);
#187=EDGE_CURVE('',#271,#269,#327,.T.);
#188=EDGE_CURVE('',#272,#273,#328,.T.);
#189=EDGE_CURVE('',#272,#274,#329,.T.);
#190=EDGE_CURVE('',#274,#275,#330,.T.);
#191=EDGE_CURVE('',#273,#275,#331,.T.);
#192=EDGE_CURVE('',#276,#277,#332,.T.);
#193=EDGE_CURVE('',#276,#278,#333,.T.);
#194=EDGE_CURVE('',#278,#279,#334,.T.);
#195=EDGE_CURVE('',#277,#279,#335,.T.);
#196=EDGE_CURVE('',#280,#281,#336,.T.);
#197=EDGE_CURVE('',#280,#282,#337,.T.);
#198=EDGE_CURVE('',#282,#283,#338,.T.);
#199=EDGE_CURVE('',#281,#283,#339,.T.);
#200=EDGE_CURVE('',#284,#267,#340,.T.);
#201=EDGE_CURVE('',#285,#266,#341,.T.);
#202=EDGE_CURVE('',#285,#284,#342,.T.);
#203=EDGE_CURVE('',#284,#286,#343,.T.);
#204=EDGE_CURVE('',#285,#287,#344,.T.);
#205=EDGE_CURVE('',#287,#286,#345,.T.);
#206=EDGE_CURVE('',#286,#288,#346,.T.);
#207=EDGE_CURVE('',#287,#289,#347,.T.);
#208=EDGE_CURVE('',#289,#288,#348,.T.);
#209=EDGE_CURVE('',#290,#289,#349,.T.);
#210=EDGE_CURVE('',#290,#291,#350,.T.);
#211=EDGE_CURVE('',#291,#288,#351,.T.);
#212=EDGE_CURVE('',#272,#292,#352,.T.);
#213=EDGE_CURVE('',#273,#293,#353,.T.);
#214=EDGE_CURVE('',#292,#293,#354,.T.);
#215=EDGE_CURVE('',#276,#294,#355,.T.);
#216=EDGE_CURVE('',#277,#295,#356,.T.);
#217=EDGE_CURVE('',#294,#295,#357,.T.);
#218=EDGE_CURVE('',#270,#296,#358,.T.);
#219=EDGE_CURVE('',#268,#297,#359,.T.);
#220=EDGE_CURVE('',#296,#297,#360,.T.);
#221=EDGE_CURVE('',#280,#298,#361,.T.);
#222=EDGE_CURVE('',#281,#299,#362,.T.);
#223=EDGE_CURVE('',#298,#299,#363,.T.);
#224=EDGE_CURVE('',#264,#300,#364,.T.);
#225=EDGE_CURVE('',#301,#300,#365,.T.);
#226=EDGE_CURVE('',#301,#302,#366,.T.);
#227=EDGE_CURVE('',#302,#303,#367,.T.);
#228=EDGE_CURVE('',#304,#303,#368,.T.);
#229=EDGE_CURVE('',#305,#304,#369,.T.);
#230=EDGE_CURVE('',#290,#305,#370,.T.);
#231=EDGE_CURVE('',#274,#306,#371,.T.);
#232=EDGE_CURVE('',#306,#307,#372,.T.);
#233=EDGE_CURVE('',#275,#307,#373,.T.);
#234=EDGE_CURVE('',#278,#308,#374,.T.);
#235=EDGE_CURVE('',#308,#309,#375,.T.);
#236=EDGE_CURVE('',#279,#309,#376,.T.);
#237=EDGE_CURVE('',#271,#310,#377,.T.);
#238=EDGE_CURVE('',#310,#311,#378,.T.);
#239=EDGE_CURVE('',#269,#311,#379,.T.);
#240=EDGE_CURVE('',#282,#312,#380,.T.);
#241=EDGE_CURVE('',#312,#313,#381,.T.);
#242=EDGE_CURVE('',#283,#313,#382,.T.);
#243=EDGE_CURVE('',#291,#314,#383,.T.);
#244=EDGE_CURVE('',#314,#315,#384,.T.);
#245=EDGE_CURVE('',#315,#316,#385,.T.);
#246=EDGE_CURVE('',#317,#316,#386,.T.);
#247=EDGE_CURVE('',#318,#317,#387,.T.);
#248=EDGE_CURVE('',#318,#319,#388,.T.);
#249=EDGE_CURVE('',#265,#319,#389,.T.);
#250=EDGE_CURVE('',#299,#313,#390,.T.);
#251=EDGE_CURVE('',#298,#312,#391,.T.);
#252=EDGE_CURVE('',#295,#309,#392,.T.);
#253=EDGE_CURVE('',#294,#308,#393,.T.);
#254=EDGE_CURVE('',#293,#307,#394,.T.);
#255=EDGE_CURVE('',#292,#306,#395,.T.);
#256=EDGE_CURVE('',#296,#310,#396,.T.);
#257=EDGE_CURVE('',#297,#311,#397,.T.);
#258=EDGE_CURVE('',#300,#319,#398,.T.);
#259=EDGE_CURVE('',#301,#318,#399,.T.);
#260=EDGE_CURVE('',#302,#317,#400,.T.);
#261=EDGE_CURVE('',#305,#314,#401,.T.);
#262=EDGE_CURVE('',#304,#315,#402,.T.);
#263=EDGE_CURVE('',#303,#316,#403,.T.);
#264=VERTEX_POINT('',#816);
#265=VERTEX_POINT('',#817);
#266=VERTEX_POINT('',#819);
#267=VERTEX_POINT('',#821);
#268=VERTEX_POINT('',#825);
#269=VERTEX_POINT('',#826);
#270=VERTEX_POINT('',#828);
#271=VERTEX_POINT('',#830);
#272=VERTEX_POINT('',#834);
#273=VERTEX_POINT('',#835);
#274=VERTEX_POINT('',#837);
#275=VERTEX_POINT('',#839);
#276=VERTEX_POINT('',#843);
#277=VERTEX_POINT('',#844);
#278=VERTEX_POINT('',#846);
#279=VERTEX_POINT('',#848);
#280=VERTEX_POINT('',#852);
#281=VERTEX_POINT('',#853);
#282=VERTEX_POINT('',#855);
#283=VERTEX_POINT('',#857);
#284=VERTEX_POINT('',#861);
#285=VERTEX_POINT('',#863);
#286=VERTEX_POINT('',#867);
#287=VERTEX_POINT('',#869);
#288=VERTEX_POINT('',#873);
#289=VERTEX_POINT('',#875);
#290=VERTEX_POINT('',#879);
#291=VERTEX_POINT('',#881);
#292=VERTEX_POINT('',#885);
#293=VERTEX_POINT('',#887);
#294=VERTEX_POINT('',#890);
#295=VERTEX_POINT('',#892);
#296=VERTEX_POINT('',#895);
#297=VERTEX_POINT('',#897);
#298=VERTEX_POINT('',#900);
#299=VERTEX_POINT('',#902);
#300=VERTEX_POINT('',#905);
#301=VERTEX_POINT('',#907);
#302=VERTEX_POINT('',#909);
#303=VERTEX_POINT('',#911);
#304=VERTEX_POINT('',#913);
#305=VERTEX_POINT('',#915);
#306=VERTEX_POINT('',#919);
#307=VERTEX_POINT('',#921);
#308=VERTEX_POINT('',#924);
#309=VERTEX_POINT('',#926);
#310=VERTEX_POINT('',#929);
#311=VERTEX_POINT('',#931);
#312=VERTEX_POINT('',#934);
#313=VERTEX_POINT('',#936);
#314=VERTEX_POINT('',#939);
#315=VERTEX_POINT('',#941);
#316=VERTEX_POINT('',#943);
#317=VERTEX_POINT('',#945);
#318=VERTEX_POINT('',#947);
#319=VERTEX_POINT('',#949);
#320=LINE('',#815,#404);
#321=LINE('',#818,#405);
#322=LINE('',#820,#406);
#323=LINE('',#822,#407);
#324=LINE('',#824,#408);
#325=LINE('',#827,#409);
#326=LINE('',#829,#410);
#327=LINE('',#831,#411);
#328=LINE('',#833,#412);
#329=LINE('',#836,#413);
#330=LINE('',#838,#414);
#331=LINE('',#840,#415);
#332=LINE('',#842,#416);
#333=LINE('',#845,#417);
#334=LINE('',#847,#418);
#335=LINE('',#849,#419);
#336=LINE('',#851,#420);
#337=LINE('',#854,#421);
#338=LINE('',#856,#422);
#339=LINE('',#858,#423);
#340=LINE('',#860,#424);
#341=LINE('',#862,#425);
#342=LINE('',#864,#426);
#343=LINE('',#866,#427);
#344=LINE('',#868,#428);
#345=LINE('',#870,#429);
#346=LINE('',#872,#430);
#347=LINE('',#874,#431);
#348=LINE('',#876,#432);
#349=LINE('',#878,#433);
#350=LINE('',#880,#434);
#351=LINE('',#882,#435);
#352=LINE('',#884,#436);
#353=LINE('',#886,#437);
#354=LINE('',#888,#438);
#355=LINE('',#889,#439);
#356=LINE('',#891,#440);
#357=LINE('',#893,#441);
#358=LINE('',#894,#442);
#359=LINE('',#896,#443);
#360=LINE('',#898,#444);
#361=LINE('',#899,#445);
#362=LINE('',#901,#446);
#363=LINE('',#903,#447);
#364=LINE('',#904,#448);
#365=LINE('',#906,#449);
#366=LINE('',#908,#450);
#367=LINE('',#910,#451);
#368=LINE('',#912,#452);
#369=LINE('',#914,#453);
#370=LINE('',#916,#454);
#371=LINE('',#918,#455);
#372=LINE('',#920,#456);
#373=LINE('',#922,#457);
#374=LINE('',#923,#458);
#375=LINE('',#925,#459);
#376=LINE('',#927,#460);
#377=LINE('',#928,#461);
#378=LINE('',#930,#462);
#379=LINE('',#932,#463);
#380=LINE('',#933,#464);
#381=LINE('',#935,#465);
#382=LINE('',#937,#466);
#383=LINE('',#938,#467);
#384=LINE('',#940,#468);
#385=LINE('',#942,#469);
#386=LINE('',#944,#470);
#387=LINE('',#946,#471);
#388=LINE('',#948,#472);
#389=LINE('',#950,#473);
#390=LINE('',#952,#474);
#391=LINE('',#953,#475);
#392=LINE('',#955,#476);
#393=LINE('',#956,#477);
#394=LINE('',#958,#478);
#395=LINE('',#959,#479);
#396=LINE('',#961,#480);
#397=LINE('',#962,#481);
#398=LINE('',#964,#482);
#399=LINE('',#965,#483);
#400=LINE('',#967,#484);
#401=LINE('',#969,#485);
#402=LINE('',#970,#486);
#403=LINE('',#972,#487);
#404=VECTOR('',#671,1.);
#405=VECTOR('',#672,1.);
#406=VECTOR('',#673,1.);
#407=VECTOR('',#674,1.);
#408=VECTOR('',#677,1.);
#409=VECTOR('',#678,1.);
#410=VECTOR('',#679,1.);
#411=VECTOR('',#680,1.);
#412=VECTOR('',#683,1.);
#413=VECTOR('',#684,1.);
#414=VECTOR('',#685,1.);
#415=VECTOR('',#686,1.);
#416=VECTOR('',#689,1.);
#417=VECTOR('',#690,1.);
#418=VECTOR('',#691,1.);
#419=VECTOR('',#692,1.);
#420=VECTOR('',#695,1.);
#421=VECTOR('',#696,1.);
#422=VECTOR('',#697,1.);
#423=VECTOR('',#698,1.);
#424=VECTOR('',#701,1.);
#425=VECTOR('',#702,1.);
#426=VECTOR('',#703,1.);
#427=VECTOR('',#706,1.);
#428=VECTOR('',#707,1.);
#429=VECTOR('',#708,1.);
#430=VECTOR('',#711,1.);
#431=VECTOR('',#712,1.);
#432=VECTOR('',#713,1.);
#433=VECTOR('',#716,1.);
#434=VECTOR('',#717,1.);
#435=VECTOR('',#718,1.);
#436=VECTOR('',#721,1.);
#437=VECTOR('',#722,1.);
#438=VECTOR('',#723,1.);
#439=VECTOR('',#724,1.);
#440=VECTOR('',#725,1.);
#441=VECTOR('',#726,1.);
#442=VECTOR('',#727,1.);
#443=VECTOR('',#728,1.);
#444=VECTOR('',#729,1.);
#445=VECTOR('',#730,1.);
#446=VECTOR('',#731,1.);
#447=VECTOR('',#732,1.);
#448=VECTOR('',#733,1.);
#449=VECTOR('',#734,1.);
#450=VECTOR('',#735,1.);
#451=VECTOR('',#736,1.);
#452=VECTOR('',#737,1.);
#453=VECTOR('',#738,1.);
#454=VECTOR('',#739,1.);
#455=VECTOR('',#742,1.);
#456=VECTOR('',#743,1.);
#457=VECTOR('',#744,1.);
#458=VECTOR('',#745,1.);
#459=VECTOR('',#746,1.);
#460=VECTOR('',#747,1.);
#461=VECTOR('',#748,1.);
#462=VECTOR('',#749,1.);
#463=VECTOR('',#750,1.);
#464=VECTOR('',#751,1.);
#465=VECTOR('',#752,1.);
#466=VECTOR('',#753,1.);
#467=VECTOR('',#754,1.);
#468=VECTOR('',#755,1.);
#469=VECTOR('',#756,1.);
#470=VECTOR('',#757,1.);
#471=VECTOR('',#758,1.);
#472=VECTOR('',#759,1.);
#473=VECTOR('',#760,1.);
#474=VECTOR('',#763,1.);
#475=VECTOR('',#764,1.);
#476=VECTOR('',#767,1.);
#477=VECTOR('',#768,1.);
#478=VECTOR('',#771,1.);
#479=VECTOR('',#772,1.);
#480=VECTOR('',#775,1.);
#481=VECTOR('',#776,1.);
#482=VECTOR('',#779,1.);
#483=VECTOR('',#780,1.);
#484=VECTOR('',#783,1.);
#485=VECTOR('',#786,1.);
#486=VECTOR('',#787,1.);
#487=VECTOR('',#790,1.);
#488=EDGE_LOOP('',(#12,#13,#14,#15));
#489=EDGE_LOOP('',(#16,#17,#18,#19));
#490=EDGE_LOOP('',(#20,#21,#22,#23));
#491=EDGE_LOOP('',(#24,#25,#26,#27));
#492=EDGE_LOOP('',(#28,#29,#30,#31));
#493=EDGE_LOOP('',(#32,#33,#34,#35));
#494=EDGE_LOOP('',(#36,#37,#38,#39));
#495=EDGE_LOOP('',(#40,#41,#42,#43));
#496=EDGE_LOOP('',(#44,#45,#46,#47));
#497=EDGE_LOOP('',(#48,#49,#50,#51));
#498=EDGE_LOOP('',(#52,#53,#54,#55));
#499=EDGE_LOOP('',(#56,#57,#58,#59));
#500=EDGE_LOOP('',(#60,#61,#62,#63));
#501=EDGE_LOOP('',(#64,#65,#66,#67,#68,#69,#70,#71,#72,#73,#74,#75));
#502=EDGE_LOOP('',(#76,#77,#78,#79));
#503=EDGE_LOOP('',(#80,#81,#82,#83));
#504=EDGE_LOOP('',(#84,#85,#86,#87));
#505=EDGE_LOOP('',(#88,#89,#90,#91));
#506=EDGE_LOOP('',(#92,#93,#94,#95,#96,#97,#98,#99,#100,#101,#102,#103));
#507=EDGE_LOOP('',(#104,#105,#106,#107));
#508=EDGE_LOOP('',(#108,#109,#110,#111));
#509=EDGE_LOOP('',(#112,#113,#114,#115));
#510=EDGE_LOOP('',(#116,#117,#118,#119));
#511=EDGE_LOOP('',(#120,#121,#122,#123));
#512=EDGE_LOOP('',(#124,#125,#126,#127));
#513=EDGE_LOOP('',(#128,#129,#130,#131));
#514=EDGE_LOOP('',(#132,#133,#134,#135));
#515=EDGE_LOOP('',(#136,#137,#138,#139));
#516=EDGE_LOOP('',(#140,#141,#142,#143));
#517=EDGE_LOOP('',(#144,#145,#146,#147));
#518=EDGE_LOOP('',(#148,#149,#150,#151));
#519=EDGE_LOOP('',(#152,#153,#154,#155));
#520=EDGE_LOOP('',(#156,#157,#158,#159));
#521=EDGE_LOOP('',(#160,#161,#162,#163));
#522=EDGE_LOOP('',(#164,#165,#166,#167));
#523=EDGE_LOOP('',(#168,#169,#170,#171));
#524=EDGE_LOOP('',(#172,#173,#174,#175));
#525=EDGE_LOOP('',(#176,#177,#178,#179));
#526=FACE_BOUND('',#488,.T.);
#527=FACE_BOUND('',#489,.T.);
#528=FACE_BOUND('',#490,.T.);
#529=FACE_BOUND('',#491,.T.);
#530=FACE_BOUND('',#492,.T.);
#531=FACE_BOUND('',#493,.T.);
#532=FACE_BOUND('',#494,.T.);
#533=FACE_BOUND('',#495,.T.);
#534=FACE_BOUND('',#496,.T.);
#535=FACE_BOUND('',#497,.T.);
#536=FACE_BOUND('',#498,.T.);
#537=FACE_BOUND('',#499,.T.);
#538=FACE_BOUND('',#500,.T.);
#539=FACE_BOUND('',#501,.T.);
#540=FACE_BOUND('',#502,.T.);
#541=FACE_BOUND('',#503,.T.);
#542=FACE_BOUND('',#504,.T.);
#543=FACE_BOUND('',#505,.T.);
#544=FACE_BOUND('',#506,.T.);
#545=FACE_BOUND('',#507,.T.);
#546=FACE_BOUND('',#508,.T.);
#547=FACE_BOUND('',#509,.T.);
#548=FACE_BOUND('',#510,.T.);
#549=FACE_BOUND('',#511,.T.);
#550=FACE_BOUND('',#512,.T.);
#551=FACE_BOUND('',#513,.T.);
#552=FACE_BOUND('',#514,.T.);
#553=FACE_BOUND('',#515,.T.);
#554=FACE_BOUND('',#516,.T.);
#555=FACE_BOUND('',#517,.T.);
#556=FACE_BOUND('',#518,.T.);
#557=FACE_BOUND('',#519,.T.);
#558=FACE_BOUND('',#520,.T.);
#559=FACE_BOUND('',#521,.T.);
#560=FACE_BOUND('',#522,.T.);
#561=FACE_BOUND('',#523,.T.);
#562=FACE_BOUND('',#524,.T.);
#563=FACE_BOUND('',#525,.T.);
#564=PLANE('',#637);
#565=PLANE('',#638);
#566=PLANE('',#639);
#567=PLANE('',#640);
#568=PLANE('',#641);
#569=PLANE('',#642);
#570=PLANE('',#643);
#571=PLANE('',#644);
#572=PLANE('',#645);
#573=PLANE('',#646);
#574=PLANE('',#647);
#575=PLANE('',#648);
#576=PLANE('',#649);
#577=PLANE('',#650);
#578=PLANE('',#651);
#579=PLANE('',#652);
#580=PLANE('',#653);
#581=PLANE('',#654);
#582=PLANE('',#655);
#583=PLANE('',#656);
#584=PLANE('',#657);
#585=PLANE('',#658);
#586=PLANE('',#659);
#587=PLANE('',#660);
#588=PLANE('',#661);
#589=PLANE('',#662);
#590=PLANE('',#663);
#591=PLANE('',#664);
#592=PLANE('',#665);
#593=PLANE('',#666);
#594=ADVANCED_FACE('',(#526),#564,.F.);
#595=ADVANCED_FACE('',(#527),#565,.F.);
#596=ADVANCED_FACE('',(#528),#566,.F.);
#597=ADVANCED_FACE('',(#529),#567,.F.);
#598=ADVANCED_FACE('',(#530),#568,.F.);
#599=ADVANCED_FACE('',(#531),#569,.F.);
#600=ADVANCED_FACE('',(#532),#570,.T.);
#601=ADVANCED_FACE('',(#533),#571,.T.);
#602=ADVANCED_FACE('',(#534),#572,.F.);
#603=ADVANCED_FACE('',(#535,#536,#537,#538,#539),#573,.F.);
#604=ADVANCED_FACE('',(#540,#541,#542,#543,#544),#574,.T.);
#605=ADVANCED_FACE('',(#545),#575,.T.);
#606=ADVANCED_FACE('',(#546),#576,.T.);
#607=ADVANCED_FACE('',(#547),#577,.T.);
#608=ADVANCED_FACE('',(#548),#578,.T.);
#609=ADVANCED_FACE('',(#549),#579,.T.);
#610=ADVANCED_FACE('',(#550),#580,.F.);
#611=ADVANCED_FACE('',(#551),#581,.T.);
#612=ADVANCED_FACE('',(#552),#582,.T.);
#613=ADVANCED_FACE('',(#553),#583,.F.);
#614=ADVANCED_FACE('',(#554),#584,.F.);
#615=ADVANCED_FACE('',(#555),#585,.T.);
#616=ADVANCED_FACE('',(#556),#586,.F.);
#617=ADVANCED_FACE('',(#557),#587,.T.);
#618=ADVANCED_FACE('',(#558),#588,.F.);
#619=ADVANCED_FACE('',(#559),#589,.T.);
#620=ADVANCED_FACE('',(#560),#590,.F.);
#621=ADVANCED_FACE('',(#561),#591,.T.);
#622=ADVANCED_FACE('',(#562),#592,.F.);
#623=ADVANCED_FACE('',(#563),#593,.T.);
#624=CLOSED_SHELL('',(#594,#595,#596,#597,#598,#599,#600,#601,#602,#603,
#604,#605,#606,#607,#608,#609,#610,#611,#612,#613,#614,#615,#616,#617,#618,
#619,#620,#621,#622,#623));
#625=STYLED_ITEM('',(#626),#633);
#626=PRESENTATION_STYLE_ASSIGNMENT((#627));
#627=SURFACE_STYLE_USAGE(.BOTH.,#628);
#628=SURFACE_SIDE_STYLE('',(#629));
#629=SURFACE_STYLE_FILL_AREA(#630);
#630=FILL_AREA_STYLE('',(#631));
#631=FILL_AREA_STYLE_COLOUR('',#632);
#632=COLOUR_RGB('',0.96078431372549,0.901960784313726,0.862745098039216);
#633=MANIFOLD_SOLID_BREP('Part 1',#624);
#634=SHAPE_DEFINITION_REPRESENTATION(#990,#635);
#635=SHAPE_REPRESENTATION('Part 1',(#636),#985);
#636=AXIS2_PLACEMENT_3D('',#813,#667,#668);
#637=AXIS2_PLACEMENT_3D('',#814,#669,#670);
#638=AXIS2_PLACEMENT_3D('',#823,#675,#676);
#639=AXIS2_PLACEMENT_3D('',#832,#681,#682);
#640=AXIS2_PLACEMENT_3D('',#841,#687,#688);
#641=AXIS2_PLACEMENT_3D('',#850,#693,#694);
#642=AXIS2_PLACEMENT_3D('',#859,#699,#700);
#643=AXIS2_PLACEMENT_3D('',#865,#704,#705);
#644=AXIS2_PLACEMENT_3D('',#871,#709,#710);
#645=AXIS2_PLACEMENT_3D('',#877,#714,#715);
#646=AXIS2_PLACEMENT_3D('',#883,#719,#720);
#647=AXIS2_PLACEMENT_3D('',#917,#740,#741);
#648=AXIS2_PLACEMENT_3D('',#951,#761,#762);
#649=AXIS2_PLACEMENT_3D('',#954,#765,#766);
#650=AXIS2_PLACEMENT_3D('',#957,#769,#770);
#651=AXIS2_PLACEMENT_3D('',#960,#773,#774);
#652=AXIS2_PLACEMENT_3D('',#963,#777,#778);
#653=AXIS2_PLACEMENT_3D('',#966,#781,#782);
#654=AXIS2_PLACEMENT_3D('',#968,#784,#785);
#655=AXIS2_PLACEMENT_3D('',#971,#788,#789);
#656=AXIS2_PLACEMENT_3D('',#973,#791,#792);
#657=AXIS2_PLACEMENT_3D('',#974,#793,#794);
#658=AXIS2_PLACEMENT_3D('',#975,#795,#796);
#659=AXIS2_PLACEMENT_3D('',#976,#797,#798);
#660=AXIS2_PLACEMENT_3D('',#977,#799,#800);
#661=AXIS2_PLACEMENT_3D('',#978,#801,#802);
#662=AXIS2_PLACEMENT_3D('',#979,#803,#804);
#663=AXIS2_PLACEMENT_3D('',#980,#805,#806);
#664=AXIS2_PLACEMENT_3D('',#981,#807,#808);
#665=AXIS2_PLACEMENT_3D('',#982,#809,#810);
#666=AXIS2_PLACEMENT_3D('',#983,#811,#812);
#667=DIRECTION('',(0.,0.,1.));
#668=DIRECTION('',(1.,0.,0.));
#669=DIRECTION('',(-1.,0.,0.));
#670=DIRECTION('',(0.,0.,1.));
#671=DIRECTION('',(0.,-1.,0.));
#672=DIRECTION('',(0.,0.,-1.));
#673=DIRECTION('',(0.,-1.,0.));
#674=DIRECTION('',(0.,0.,-1.));
#675=DIRECTION('',(-1.,0.,0.));
#676=DIRECTION('',(0.,0.,1.));
#677=DIRECTION('',(0.,-1.,0.));
#678=DIRECTION('',(0.,0.,-1.));
#679=DIRECTION('',(0.,-1.,0.));
#680=DIRECTION('',(0.,0.,-1.));
#681=DIRECTION('',(-1.,0.,0.));
#682=DIRECTION('',(0.,0.,1.));
#683=DIRECTION('',(0.,0.,-1.));
#684=DIRECTION('',(0.,-1.,0.));
#685=DIRECTION('',(0.,0.,-1.));
#686=DIRECTION('',(0.,-1.,0.));
#687=DIRECTION('',(-1.,0.,0.));
#688=DIRECTION('',(0.,0.,1.));
#689=DIRECTION('',(0.,0.,-1.));
#690=DIRECTION('',(0.,-1.,0.));
#691=DIRECTION('',(0.,0.,-1.));
#692=DIRECTION('',(0.,-1.,0.));
#693=DIRECTION('',(-1.,0.,0.));
#694=DIRECTION('',(0.,0.,1.));
#695=DIRECTION('',(0.,0.,-1.));
#696=DIRECTION('',(0.,-1.,0.));
#697=DIRECTION('',(0.,0.,-1.));
#698=DIRECTION('',(0.,-1.,0.));
#699=DIRECTION('',(0.,0.,-1.));
#700=DIRECTION('',(-1.,0.,0.));
#701=DIRECTION('',(1.,0.,0.));
#702=DIRECTION('',(1.,0.,0.));
#703=DIRECTION('',(0.,-1.,0.));
#704=DIRECTION('',(-1.,0.,0.));
#705=DIRECTION('',(0.,0.,1.));
#706=DIRECTION('',(0.,0.,-1.));
#707=DIRECTION('',(0.,0.,-1.));
#708=DIRECTION('',(0.,-1.,0.));
#709=DIRECTION('',(0.,0.,-1.));
#710=DIRECTION('',(-1.,0.,0.));
#711=DIRECTION('',(1.,0.,0.));
#712=DIRECTION('',(1.,0.,0.));
#713=DIRECTION('',(0.,-1.,0.));
#714=DIRECTION('',(-1.,0.,0.));
#715=DIRECTION('',(0.,0.,1.));
#716=DIRECTION('',(0.,0.,-1.));
#717=DIRECTION('',(0.,-1.,0.));
#718=DIRECTION('',(0.,0.,-1.));
#719=DIRECTION('',(0.,-1.,0.));
#720=DIRECTION('',(1.,0.,0.));
#721=DIRECTION('',(1.,0.,0.));
#722=DIRECTION('',(1.,0.,0.));
#723=DIRECTION('',(0.,0.,-1.));
#724=DIRECTION('',(1.,0.,0.));
#725=DIRECTION('',(1.,0.,0.));
#726=DIRECTION('',(0.,0.,-1.));
#727=DIRECTION('',(1.,0.,0.));
#728=DIRECTION('',(1.,0.,0.));
#729=DIRECTION('',(0.,0.,-1.));
#730=DIRECTION('',(1.,0.,0.));
#731=DIRECTION('',(1.,0.,0.));
#732=DIRECTION('',(0.,0.,-1.));
#733=DIRECTION('',(1.,0.,0.));
#734=DIRECTION('',(0.,0.,-1.));
#735=DIRECTION('',(1.,0.,0.));
#736=DIRECTION('',(0.,0.,-1.));
#737=DIRECTION('',(1.,0.,0.));
#738=DIRECTION('',(0.,0.,-1.));
#739=DIRECTION('',(1.,0.,0.));
#740=DIRECTION('',(0.,-1.,0.));
#741=DIRECTION('',(1.,0.,0.));
#742=DIRECTION('',(1.,0.,0.));
#743=DIRECTION('',(0.,0.,-1.));
#744=DIRECTION('',(1.,0.,0.));
#745=DIRECTION('',(1.,0.,0.));
#746=DIRECTION('',(0.,0.,-1.));
#747=DIRECTION('',(1.,0.,0.));
#748=DIRECTION('',(1.,0.,0.));
#749=DIRECTION('',(0.,0.,-1.));
#750=DIRECTION('',(1.,0.,0.));
#751=DIRECTION('',(1.,0.,0.));
#752=DIRECTION('',(0.,0.,-1.));
#753=DIRECTION('',(1.,0.,0.));
#754=DIRECTION('',(1.,0.,0.));
#755=DIRECTION('',(0.,0.,-1.));
#756=DIRECTION('',(1.,0.,0.));
#757=DIRECTION('',(0.,0.,-1.));
#758=DIRECTION('',(1.,0.,0.));
#759=DIRECTION('',(0.,0.,-1.));
#760=DIRECTION('',(1.,0.,0.));
#761=DIRECTION('',(-1.,0.,0.));
#762=DIRECTION('',(0.,0.,1.));
#763=DIRECTION('',(0.,-1.,0.));
#764=DIRECTION('',(0.,-1.,0.));
#765=DIRECTION('',(-1.,0.,0.));
#766=DIRECTION('',(0.,0.,1.));
#767=DIRECTION('',(0.,-1.,0.));
#768=DIRECTION('',(0.,-1.,0.));
#769=DIRECTION('',(-1.,0.,0.));
#770=DIRECTION('',(0.,0.,1.));
#771=DIRECTION('',(0.,-1.,0.));
#772=DIRECTION('',(0.,-1.,0.));
#773=DIRECTION('',(-1.,0.,0.));
#774=DIRECTION('',(0.,0.,1.));
#775=DIRECTION('',(0.,-1.,0.));
#776=DIRECTION('',(0.,-1.,0.));
#777=DIRECTION('',(-1.,0.,0.));
#778=DIRECTION('',(0.,0.,1.));
#779=DIRECTION('',(0.,-1.,0.));
#780=DIRECTION('',(0.,-1.,0.));
#781=DIRECTION('',(0.,0.,-1.));
#782=DIRECTION('',(-1.,0.,0.));
#783=DIRECTION('',(0.,-1.,0.));
#784=DIRECTION('',(-1.,0.,0.));
#785=DIRECTION('',(0.,0.,1.));
#786=DIRECTION('',(0.,-1.,0.));
#787=DIRECTION('',(0.,-1.,0.));
#788=DIRECTION('',(0.,0.,-1.));
#789=DIRECTION('',(-1.,0.,0.));
#790=DIRECTION('',(0.,-1.,0.));
#791=DIRECTION('',(-1.,0.,0.));
#792=DIRECTION('',(0.,0.,1.));
#793=DIRECTION('',(0.,0.,-1.));
#794=DIRECTION('',(-1.,0.,0.));
#795=DIRECTION('',(0.,0.,-1.));
#796=DIRECTION('',(-1.,0.,0.));
#797=DIRECTION('',(0.,0.,-1.));
#798=DIRECTION('',(-1.,0.,0.));
#799=DIRECTION('',(0.,0.,-1.));
#800=DIRECTION('',(-1.,0.,0.));
#801=DIRECTION('',(0.,0.,-1.));
#802=DIRECTION('',(-1.,0.,0.));
#803=DIRECTION('',(0.,0.,-1.));
#804=DIRECTION('',(-1.,0.,0.));
#805=DIRECTION('',(0.,0.,-1.));
#806=DIRECTION('',(-1.,0.,0.));
#807=DIRECTION('',(0.,0.,-1.));
#808=DIRECTION('',(-1.,0.,0.));
#809=DIRECTION('',(0.,0.,-1.));
#810=DIRECTION('',(-1.,0.,0.));
#811=DIRECTION('',(0.,0.,-1.));
#812=DIRECTION('',(-1.,0.,0.));
#813=CARTESIAN_POINT('',(0.,0.,0.));
#814=CARTESIAN_POINT('',(-0.0717673897743225,0.0035,0.0117534715682268));
#815=CARTESIAN_POINT('',(-0.0717673897743225,0.0035,0.0393064765962066));
#816=CARTESIAN_POINT('',(-0.0717673897743225,0.0035,0.0393064765962066));
#817=CARTESIAN_POINT('',(-0.0717673897743225,0.,0.0393064765962066));
#818=CARTESIAN_POINT('',(-0.0717673897743225,0.0035,0.0117534715682268));
#819=CARTESIAN_POINT('',(-0.0717673897743225,0.0035,0.05032900172472));
#820=CARTESIAN_POINT('',(-0.0717673897743225,0.0035,0.05032900172472));
#821=CARTESIAN_POINT('',(-0.0717673897743225,0.,0.05032900172472));
#822=CARTESIAN_POINT('',(-0.0717673897743225,0.,0.0117534715682268));
#823=CARTESIAN_POINT('',(-0.0717673897743225,0.0035,0.0117534715682268));
#824=CARTESIAN_POINT('',(-0.0717673897743225,0.0035,0.00930647659620663));
#825=CARTESIAN_POINT('',(-0.0717673897743225,0.0035,0.00930647659620663));
#826=CARTESIAN_POINT('',(-0.0717673897743225,0.,0.00930647659620663));
#827=CARTESIAN_POINT('',(-0.0717673897743225,0.0035,0.0117534715682268));
#828=CARTESIAN_POINT('',(-0.0717673897743225,0.0035,0.0205495592893573));
#829=CARTESIAN_POINT('',(-0.0717673897743225,0.0035,0.0205495592893573));
#830=CARTESIAN_POINT('',(-0.0717673897743225,0.,0.0205495592893573));
#831=CARTESIAN_POINT('',(-0.0717673897743225,0.,0.0117534715682268));
#832=CARTESIAN_POINT('',(-0.0717673897743225,0.0035,0.0117534715682268));
#833=CARTESIAN_POINT('',(-0.0717673897743225,0.0035,0.0117534715682268));
#834=CARTESIAN_POINT('',(-0.0717673897743225,0.0035,0.0355495592893573));
#835=CARTESIAN_POINT('',(-0.0717673897743225,0.0035,0.0243064765962067));
#836=CARTESIAN_POINT('',(-0.0717673897743225,0.0035,0.0355495592893573));
#837=CARTESIAN_POINT('',(-0.0717673897743225,0.,0.0355495592893573));
#838=CARTESIAN_POINT('',(-0.0717673897743225,0.,0.0117534715682268));
#839=CARTESIAN_POINT('',(-0.0717673897743225,0.,0.0243064765962067));
#840=CARTESIAN_POINT('',(-0.0717673897743225,0.0035,0.0243064765962067));
#841=CARTESIAN_POINT('',(-0.0717673897743225,0.0035,0.0117534715682268));
#842=CARTESIAN_POINT('',(-0.0717673897743225,0.0035,0.0117534715682268));
#843=CARTESIAN_POINT('',(-0.0717673897743225,0.0035,0.00554955928935728));
#844=CARTESIAN_POINT('',(-0.0717673897743225,0.0035,-0.00569352340379337));
#845=CARTESIAN_POINT('',(-0.0717673897743225,0.0035,0.00554955928935728));
#846=CARTESIAN_POINT('',(-0.0717673897743225,0.,0.00554955928935728));
#847=CARTESIAN_POINT('',(-0.0717673897743225,0.,0.0117534715682268));
#848=CARTESIAN_POINT('',(-0.0717673897743225,0.,-0.00569352340379337));
#849=CARTESIAN_POINT('',(-0.0717673897743225,0.0035,-0.00569352340379337));
#850=CARTESIAN_POINT('',(-0.0717673897743225,0.0035,0.0117534715682268));
#851=CARTESIAN_POINT('',(-0.0717673897743225,0.0035,0.0117534715682268));
#852=CARTESIAN_POINT('',(-0.0717673897743225,0.0035,-0.00945044071064272));
#853=CARTESIAN_POINT('',(-0.0717673897743225,0.0035,-0.0206935234037934));
#854=CARTESIAN_POINT('',(-0.0717673897743225,0.0035,-0.00945044071064272));
#855=CARTESIAN_POINT('',(-0.0717673897743225,0.,-0.00945044071064272));
#856=CARTESIAN_POINT('',(-0.0717673897743225,0.,0.0117534715682268));
#857=CARTESIAN_POINT('',(-0.0717673897743225,0.,-0.0206935234037934));
#858=CARTESIAN_POINT('',(-0.0717673897743225,0.0035,-0.0206935234037934));
#859=CARTESIAN_POINT('',(-0.0735482163727284,0.0035,0.05032900172472));
#860=CARTESIAN_POINT('',(-0.0735482163727284,0.,0.05032900172472));
#861=CARTESIAN_POINT('',(-0.0753290429711342,0.,0.05032900172472));
#862=CARTESIAN_POINT('',(-0.0735482163727284,0.0035,0.05032900172472));
#863=CARTESIAN_POINT('',(-0.0753290429711342,0.0035,0.05032900172472));
#864=CARTESIAN_POINT('',(-0.0753290429711342,0.0035,0.05032900172472));
#865=CARTESIAN_POINT('',(-0.0753290429711342,0.0035,0.0117534715682268));
#866=CARTESIAN_POINT('',(-0.0753290429711342,0.,0.0117534715682268));
#867=CARTESIAN_POINT('',(-0.0753290429711342,0.,-0.0388220585882664));
#868=CARTESIAN_POINT('',(-0.0753290429711342,0.0035,0.0117534715682268));
#869=CARTESIAN_POINT('',(-0.0753290429711342,0.0035,-0.0388220585882664));
#870=CARTESIAN_POINT('',(-0.0753290429711342,0.0035,-0.0388220585882664));
#871=CARTESIAN_POINT('',(-0.0735482163727284,0.0035,-0.0388220585882664));
#872=CARTESIAN_POINT('',(-0.0735482163727284,0.,-0.0388220585882664));
#873=CARTESIAN_POINT('',(-0.0717673897743225,0.,-0.0388220585882664));
#874=CARTESIAN_POINT('',(-0.0735482163727284,0.0035,-0.0388220585882664));
#875=CARTESIAN_POINT('',(-0.0717673897743225,0.0035,-0.0388220585882664));
#876=CARTESIAN_POINT('',(-0.0717673897743225,0.0035,-0.0388220585882664));
#877=CARTESIAN_POINT('',(-0.0717673897743225,0.0035,0.0117534715682268));
#878=CARTESIAN_POINT('',(-0.0717673897743225,0.0035,0.0117534715682268));
#879=CARTESIAN_POINT('',(-0.0717673897743225,0.0035,-0.0244504407106427));
#880=CARTESIAN_POINT('',(-0.0717673897743225,0.0035,-0.0244504407106427));
#881=CARTESIAN_POINT('',(-0.0717673897743225,0.,-0.0244504407106427));
#882=CARTESIAN_POINT('',(-0.0717673897743225,0.,0.0117534715682268));
#883=CARTESIAN_POINT('',(-0.0735482163727284,0.0035,0.0117534715682268));
#884=CARTESIAN_POINT('',(-0.0610482163727284,0.0035,0.0355495592893573));
#885=CARTESIAN_POINT('',(-0.0503290429711342,0.0035,0.0355495592893573));
#886=CARTESIAN_POINT('',(-0.0610482163727284,0.0035,0.0243064765962067));
#887=CARTESIAN_POINT('',(-0.0503290429711342,0.0035,0.0243064765962067));
#888=CARTESIAN_POINT('',(-0.0503290429711342,0.0035,0.0117534715682268));
#889=CARTESIAN_POINT('',(-0.0610482163727284,0.0035,0.00554955928935728));
#890=CARTESIAN_POINT('',(-0.0503290429711342,0.0035,0.00554955928935728));
#891=CARTESIAN_POINT('',(-0.0610482163727284,0.0035,-0.00569352340379337));
#892=CARTESIAN_POINT('',(-0.0503290429711342,0.0035,-0.00569352340379337));
#893=CARTESIAN_POINT('',(-0.0503290429711342,0.0035,0.0117534715682268));
#894=CARTESIAN_POINT('',(-0.0610482163727284,0.0035,0.0205495592893573));
#895=CARTESIAN_POINT('',(-0.0503290429711342,0.0035,0.0205495592893573));
#896=CARTESIAN_POINT('',(-0.0610482163727284,0.0035,0.00930647659620663));
#897=CARTESIAN_POINT('',(-0.0503290429711342,0.0035,0.00930647659620663));
#898=CARTESIAN_POINT('',(-0.0503290429711342,0.0035,0.0117534715682268));
#899=CARTESIAN_POINT('',(-0.0610482163727284,0.0035,-0.00945044071064272));
#900=CARTESIAN_POINT('',(-0.0503290429711342,0.0035,-0.00945044071064272));
#901=CARTESIAN_POINT('',(-0.0610482163727284,0.0035,-0.0206935234037934));
#902=CARTESIAN_POINT('',(-0.0503290429711342,0.0035,-0.0206935234037934));
#903=CARTESIAN_POINT('',(-0.0503290429711342,0.0035,0.0117534715682268));
#904=CARTESIAN_POINT('',(-0.0610482163727284,0.0035,0.0393064765962066));
#905=CARTESIAN_POINT('',(-0.0503290429711342,0.0035,0.0393064765962066));
#906=CARTESIAN_POINT('',(-0.0503290429711342,0.0035,0.0117534715682268));
#907=CARTESIAN_POINT('',(-0.0503290429711342,0.0035,0.05032900172472));
#908=CARTESIAN_POINT('',(-0.0735482163727284,0.0035,0.05032900172472));
#909=CARTESIAN_POINT('',(-0.0467673897743225,0.0035,0.05032900172472));
#910=CARTESIAN_POINT('',(-0.0467673897743225,0.0035,0.0117534715682268));
#911=CARTESIAN_POINT('',(-0.0467673897743225,0.0035,-0.0388220585882664));
#912=CARTESIAN_POINT('',(-0.0485482163727284,0.0035,-0.0388220585882664));
#913=CARTESIAN_POINT('',(-0.0503290429711342,0.0035,-0.0388220585882664));
#914=CARTESIAN_POINT('',(-0.0503290429711342,0.0035,0.0117534715682268));
#915=CARTESIAN_POINT('',(-0.0503290429711342,0.0035,-0.0244504407106427));
#916=CARTESIAN_POINT('',(-0.0610482163727284,0.0035,-0.0244504407106427));
#917=CARTESIAN_POINT('',(-0.0735482163727284,0.,0.0117534715682268));
#918=CARTESIAN_POINT('',(-0.0610482163727284,0.,0.0355495592893573));
#919=CARTESIAN_POINT('',(-0.0503290429711342,0.,0.0355495592893573));
#920=CARTESIAN_POINT('',(-0.0503290429711342,0.,0.0117534715682268));
#921=CARTESIAN_POINT('',(-0.0503290429711342,0.,0.0243064765962067));
#922=CARTESIAN_POINT('',(-0.0610482163727284,0.,0.0243064765962067));
#923=CARTESIAN_POINT('',(-0.0610482163727284,0.,0.00554955928935728));
#924=CARTESIAN_POINT('',(-0.0503290429711342,0.,0.00554955928935728));
#925=CARTESIAN_POINT('',(-0.0503290429711342,0.,0.0117534715682268));
#926=CARTESIAN_POINT('',(-0.0503290429711342,0.,-0.00569352340379337));
#927=CARTESIAN_POINT('',(-0.0610482163727284,0.,-0.00569352340379337));
#928=CARTESIAN_POINT('',(-0.0610482163727284,0.,0.0205495592893573));
#929=CARTESIAN_POINT('',(-0.0503290429711342,0.,0.0205495592893573));
#930=CARTESIAN_POINT('',(-0.0503290429711342,0.,0.0117534715682268));
#931=CARTESIAN_POINT('',(-0.0503290429711342,0.,0.00930647659620663));
#932=CARTESIAN_POINT('',(-0.0610482163727284,0.,0.00930647659620663));
#933=CARTESIAN_POINT('',(-0.0610482163727284,0.,-0.00945044071064272));
#934=CARTESIAN_POINT('',(-0.0503290429711342,0.,-0.00945044071064272));
#935=CARTESIAN_POINT('',(-0.0503290429711342,0.,0.0117534715682268));
#936=CARTESIAN_POINT('',(-0.0503290429711342,0.,-0.0206935234037934));
#937=CARTESIAN_POINT('',(-0.0610482163727284,0.,-0.0206935234037934));
#938=CARTESIAN_POINT('',(-0.0610482163727284,0.,-0.0244504407106427));
#939=CARTESIAN_POINT('',(-0.0503290429711342,0.,-0.0244504407106427));
#940=CARTESIAN_POINT('',(-0.0503290429711342,0.,0.0117534715682268));
#941=CARTESIAN_POINT('',(-0.0503290429711342,0.,-0.0388220585882664));
#942=CARTESIAN_POINT('',(-0.0485482163727284,0.,-0.0388220585882664));
#943=CARTESIAN_POINT('',(-0.0467673897743225,0.,-0.0388220585882664));
#944=CARTESIAN_POINT('',(-0.0467673897743225,0.,0.0117534715682268));
#945=CARTESIAN_POINT('',(-0.0467673897743225,0.,0.05032900172472));
#946=CARTESIAN_POINT('',(-0.0735482163727284,0.,0.05032900172472));
#947=CARTESIAN_POINT('',(-0.0503290429711342,0.,0.05032900172472));
#948=CARTESIAN_POINT('',(-0.0503290429711342,0.,0.0117534715682268));
#949=CARTESIAN_POINT('',(-0.0503290429711342,0.,0.0393064765962066));
#950=CARTESIAN_POINT('',(-0.0610482163727284,0.,0.0393064765962066));
#951=CARTESIAN_POINT('',(-0.0503290429711342,0.0035,0.0117534715682268));
#952=CARTESIAN_POINT('',(-0.0503290429711342,0.0035,-0.0206935234037934));
#953=CARTESIAN_POINT('',(-0.0503290429711342,0.0035,-0.00945044071064272));
#954=CARTESIAN_POINT('',(-0.0503290429711342,0.0035,0.0117534715682268));
#955=CARTESIAN_POINT('',(-0.0503290429711342,0.0035,-0.00569352340379337));
#956=CARTESIAN_POINT('',(-0.0503290429711342,0.0035,0.00554955928935728));
#957=CARTESIAN_POINT('',(-0.0503290429711342,0.0035,0.0117534715682268));
#958=CARTESIAN_POINT('',(-0.0503290429711342,0.0035,0.0243064765962067));
#959=CARTESIAN_POINT('',(-0.0503290429711342,0.0035,0.0355495592893573));
#960=CARTESIAN_POINT('',(-0.0503290429711342,0.0035,0.0117534715682268));
#961=CARTESIAN_POINT('',(-0.0503290429711342,0.0035,0.0205495592893573));
#962=CARTESIAN_POINT('',(-0.0503290429711342,0.0035,0.00930647659620663));
#963=CARTESIAN_POINT('',(-0.0503290429711342,0.0035,0.0117534715682268));
#964=CARTESIAN_POINT('',(-0.0503290429711342,0.0035,0.0393064765962066));
#965=CARTESIAN_POINT('',(-0.0503290429711342,0.0035,0.05032900172472));
#966=CARTESIAN_POINT('',(-0.0485482163727284,0.0035,0.05032900172472));
#967=CARTESIAN_POINT('',(-0.0467673897743225,0.0035,0.05032900172472));
#968=CARTESIAN_POINT('',(-0.0503290429711342,0.0035,0.0117534715682268));
#969=CARTESIAN_POINT('',(-0.0503290429711342,0.0035,-0.0244504407106427));
#970=CARTESIAN_POINT('',(-0.0503290429711342,0.0035,-0.0388220585882664));
#971=CARTESIAN_POINT('',(-0.0485482163727284,0.0035,-0.0388220585882664));
#972=CARTESIAN_POINT('',(-0.0467673897743225,0.0035,-0.0388220585882664));
#973=CARTESIAN_POINT('',(-0.0467673897743225,0.0035,0.0117534715682268));
#974=CARTESIAN_POINT('',(-0.0610482163727284,0.0035,0.0393064765962066));
#975=CARTESIAN_POINT('',(-0.0610482163727284,0.0035,0.0355495592893573));
#976=CARTESIAN_POINT('',(-0.0610482163727284,0.0035,0.00930647659620663));
#977=CARTESIAN_POINT('',(-0.0610482163727284,0.0035,0.00554955928935728));
#978=CARTESIAN_POINT('',(-0.0610482163727284,0.0035,0.0243064765962067));
#979=CARTESIAN_POINT('',(-0.0610482163727284,0.0035,0.0205495592893573));
#980=CARTESIAN_POINT('',(-0.0610482163727284,0.0035,-0.00569352340379337));
#981=CARTESIAN_POINT('',(-0.0610482163727284,0.0035,-0.00945044071064272));
#982=CARTESIAN_POINT('',(-0.0610482163727284,0.0035,-0.0206935234037934));
#983=CARTESIAN_POINT('',(-0.0610482163727284,0.0035,-0.0244504407106427));
#984=MECHANICAL_DESIGN_GEOMETRIC_PRESENTATION_REPRESENTATION('',(#625),
#985);
#985=(
GEOMETRIC_REPRESENTATION_CONTEXT(3)
GLOBAL_UNCERTAINTY_ASSIGNED_CONTEXT((#986))
GLOBAL_UNIT_ASSIGNED_CONTEXT((#989,#988,#987))
REPRESENTATION_CONTEXT('Part 1','TOP_LEVEL_ASSEMBLY_PART')
);
#986=UNCERTAINTY_MEASURE_WITH_UNIT(LENGTH_MEASURE(1.E-8),#989,
'DISTANCE_ACCURACY_VALUE','Maximum Tolerance applied to model');
#987=(
NAMED_UNIT(*)
SI_UNIT($,.STERADIAN.)
SOLID_ANGLE_UNIT()
);
#988=(
NAMED_UNIT(*)
PLANE_ANGLE_UNIT()
SI_UNIT($,.RADIAN.)
);
#989=(
LENGTH_UNIT()
NAMED_UNIT(*)
SI_UNIT($,.METRE.)
);
#990=PRODUCT_DEFINITION_SHAPE('','',#991);
#991=PRODUCT_DEFINITION('','',#993,#992);
#992=PRODUCT_DEFINITION_CONTEXT('',#999,'design');
#993=PRODUCT_DEFINITION_FORMATION_WITH_SPECIFIED_SOURCE('','',#995,
 .NOT_KNOWN.);
#994=PRODUCT_RELATED_PRODUCT_CATEGORY('','',(#995));
#995=PRODUCT('Part 1','Part 1','Part 1',(#997));
#996=PRODUCT_CATEGORY('','');
#997=PRODUCT_CONTEXT('',#999,'mechanical');
#998=APPLICATION_PROTOCOL_DEFINITION('international standard',
'ap242_managed_model_based_3d_engineering',2020,#999);
#999=APPLICATION_CONTEXT('managed model based 3d engineering');
ENDSEC;
END-ISO-10303-21;
