ISO-10303-21;
HEADER;
/* Generated by software containing ST-Developer
 * from STEP Tools, Inc. (www.steptools.com) 
 */
/* OPTION: using custom renumber hook */

FILE_DESCRIPTION(
/* description */ ('STEP AP242 Edition 2',
'CAx-IF Rec.Pracs.---Representation and Presentation of Product Manufa
cturing Information (PMI)---4.0---2014-10-13',
'CAx-IF Rec.Pracs.---3D Tessellated Geometry---0.4---2014-09-14','2;1',
'CAx-IF Rec.Pracs.---User Defined Attributes---1.5---2016-08-15'),
/* implementation_level */ '2;1');

FILE_NAME(
/* name */ 'Clock - Part 1',
/* time_stamp */ '2026-08-29T04:39:55Z',
/* author */ (''),
/* organization */ (''),
/* preprocessor_version */ 'ST-DEVELOPER v20',
/* originating_system */ 'ONSHAPE BY PTC INC, 1.220',
/* authorisation */ '  ');

FILE_SCHEMA (('AP242_MANAGED_MODEL_BASED_3D_ENGINEERING_MIM_LF { 1 0 10303 442 3 1 4 }'));
ENDSEC;

DATA;
#10=SHAPE_REPRESENTATION_RELATIONSHIP('','',#307,#11);
#11=ADVANCED_BREP_SHAPE_REPRESENTATION('',(#305),#495);
#12=CIRCLE('',#311,0.00114588442931464);
#13=CIRCLE('',#312,0.00114588442931464);
#14=CIRCLE('',#318,0.00622383998391909);
#15=CIRCLE('',#319,0.0085647813975811);
#16=CIRCLE('',#324,0.0085647813975811);
#17=CIRCLE('',#327,0.00622383998391909);
#18=CYLINDRICAL_SURFACE('',#310,0.00114588442931464);
#19=CYLINDRICAL_SURFACE('',#323,0.0085647813975811);
#20=CYLINDRICAL_SURFACE('',#326,0.00622383998391909);
#21=ORIENTED_EDGE('',*,*,#97,.F.);
#22=ORIENTED_EDGE('',*,*,#98,.F.);
#23=ORIENTED_EDGE('',*,*,#99,.T.);
#24=ORIENTED_EDGE('',*,*,#100,.T.);
#25=ORIENTED_EDGE('',*,*,#101,.T.);
#26=ORIENTED_EDGE('',*,*,#102,.F.);
#27=ORIENTED_EDGE('',*,*,#103,.F.);
#28=ORIENTED_EDGE('',*,*,#98,.T.);
#29=ORIENTED_EDGE('',*,*,#104,.T.);
#30=ORIENTED_EDGE('',*,*,#105,.F.);
#31=ORIENTED_EDGE('',*,*,#106,.F.);
#32=ORIENTED_EDGE('',*,*,#102,.T.);
#33=ORIENTED_EDGE('',*,*,#99,.F.);
#34=ORIENTED_EDGE('',*,*,#103,.T.);
#35=ORIENTED_EDGE('',*,*,#106,.T.);
#36=ORIENTED_EDGE('',*,*,#107,.F.);
#37=ORIENTED_EDGE('',*,*,#101,.F.);
#38=ORIENTED_EDGE('',*,*,#97,.T.);
#39=ORIENTED_EDGE('',*,*,#108,.F.);
#40=ORIENTED_EDGE('',*,*,#109,.T.);
#41=ORIENTED_EDGE('',*,*,#110,.T.);
#42=ORIENTED_EDGE('',*,*,#111,.F.);
#43=ORIENTED_EDGE('',*,*,#112,.F.);
#44=ORIENTED_EDGE('',*,*,#104,.F.);
#45=ORIENTED_EDGE('',*,*,#100,.F.);
#46=ORIENTED_EDGE('',*,*,#107,.T.);
#47=ORIENTED_EDGE('',*,*,#105,.T.);
#48=ORIENTED_EDGE('',*,*,#112,.T.);
#49=ORIENTED_EDGE('',*,*,#113,.T.);
#50=ORIENTED_EDGE('',*,*,#114,.F.);
#51=ORIENTED_EDGE('',*,*,#115,.F.);
#52=ORIENTED_EDGE('',*,*,#108,.T.);
#53=ORIENTED_EDGE('',*,*,#116,.F.);
#54=ORIENTED_EDGE('',*,*,#117,.T.);
#55=ORIENTED_EDGE('',*,*,#118,.T.);
#56=ORIENTED_EDGE('',*,*,#119,.F.);
#57=ORIENTED_EDGE('',*,*,#120,.T.);
#58=ORIENTED_EDGE('',*,*,#121,.F.);
#59=ORIENTED_EDGE('',*,*,#114,.T.);
#60=ORIENTED_EDGE('',*,*,#122,.T.);
#61=ORIENTED_EDGE('',*,*,#123,.F.);
#62=ORIENTED_EDGE('',*,*,#124,.T.);
#63=ORIENTED_EDGE('',*,*,#125,.F.);
#64=ORIENTED_EDGE('',*,*,#117,.F.);
#65=ORIENTED_EDGE('',*,*,#126,.T.);
#66=ORIENTED_EDGE('',*,*,#127,.T.);
#67=ORIENTED_EDGE('',*,*,#128,.F.);
#68=ORIENTED_EDGE('',*,*,#118,.F.);
#69=ORIENTED_EDGE('',*,*,#125,.T.);
#70=ORIENTED_EDGE('',*,*,#129,.F.);
#71=ORIENTED_EDGE('',*,*,#130,.F.);
#72=ORIENTED_EDGE('',*,*,#119,.T.);
#73=ORIENTED_EDGE('',*,*,#128,.T.);
#74=ORIENTED_EDGE('',*,*,#131,.T.);
#75=ORIENTED_EDGE('',*,*,#126,.F.);
#76=ORIENTED_EDGE('',*,*,#120,.F.);
#77=ORIENTED_EDGE('',*,*,#130,.T.);
#78=ORIENTED_EDGE('',*,*,#124,.F.);
#79=ORIENTED_EDGE('',*,*,#131,.F.);
#80=ORIENTED_EDGE('',*,*,#129,.T.);
#81=ORIENTED_EDGE('',*,*,#127,.F.);
#82=ORIENTED_EDGE('',*,*,#132,.F.);
#83=ORIENTED_EDGE('',*,*,#116,.T.);
#84=ORIENTED_EDGE('',*,*,#132,.T.);
#85=ORIENTED_EDGE('',*,*,#121,.T.);
#86=ORIENTED_EDGE('',*,*,#133,.F.);
#87=ORIENTED_EDGE('',*,*,#109,.F.);
#88=ORIENTED_EDGE('',*,*,#115,.T.);
#89=ORIENTED_EDGE('',*,*,#123,.T.);
#90=ORIENTED_EDGE('',*,*,#134,.F.);
#91=ORIENTED_EDGE('',*,*,#110,.F.);
#92=ORIENTED_EDGE('',*,*,#133,.T.);
#93=ORIENTED_EDGE('',*,*,#122,.F.);
#94=ORIENTED_EDGE('',*,*,#113,.F.);
#95=ORIENTED_EDGE('',*,*,#111,.T.);
#96=ORIENTED_EDGE('',*,*,#134,.T.);
#97=EDGE_CURVE('',#135,#136,#161,.T.);
#98=EDGE_CURVE('',#137,#135,#162,.T.);
#99=EDGE_CURVE('',#137,#138,#163,.T.);
#100=EDGE_CURVE('',#138,#136,#164,.T.);
#101=EDGE_CURVE('',#135,#139,#12,.T.);
#102=EDGE_CURVE('',#140,#139,#165,.T.);
#103=EDGE_CURVE('',#137,#140,#13,.T.);
#104=EDGE_CURVE('',#139,#141,#166,.T.);
#105=EDGE_CURVE('',#142,#141,#167,.T.);
#106=EDGE_CURVE('',#140,#142,#168,.T.);
#107=EDGE_CURVE('',#138,#142,#169,.T.);
#108=EDGE_CURVE('',#143,#136,#170,.T.);
#109=EDGE_CURVE('',#143,#144,#171,.T.);
#110=EDGE_CURVE('',#144,#145,#172,.T.);
#111=EDGE_CURVE('',#146,#145,#173,.T.);
#112=EDGE_CURVE('',#141,#146,#174,.T.);
#113=EDGE_CURVE('',#146,#147,#175,.T.);
#114=EDGE_CURVE('',#148,#147,#176,.T.);
#115=EDGE_CURVE('',#143,#148,#177,.T.);
#116=EDGE_CURVE('',#149,#149,#14,.T.);
#117=EDGE_CURVE('',#150,#151,#178,.T.);
#118=EDGE_CURVE('',#151,#152,#179,.T.);
#119=EDGE_CURVE('',#153,#152,#180,.T.);
#120=EDGE_CURVE('',#153,#150,#15,.T.);
#121=EDGE_CURVE('',#148,#154,#181,.T.);
#122=EDGE_CURVE('',#147,#155,#182,.T.);
#123=EDGE_CURVE('',#154,#155,#183,.T.);
#124=EDGE_CURVE('',#156,#157,#184,.T.);
#125=EDGE_CURVE('',#151,#157,#185,.T.);
#126=EDGE_CURVE('',#150,#156,#186,.T.);
#127=EDGE_CURVE('',#157,#158,#187,.T.);
#128=EDGE_CURVE('',#152,#158,#188,.T.);
#129=EDGE_CURVE('',#159,#158,#189,.T.);
#130=EDGE_CURVE('',#153,#159,#190,.T.);
#131=EDGE_CURVE('',#159,#156,#16,.T.);
#132=EDGE_CURVE('',#160,#160,#17,.T.);
#133=EDGE_CURVE('',#144,#154,#191,.T.);
#134=EDGE_CURVE('',#145,#155,#192,.T.);
#135=VERTEX_POINT('',#415);
#136=VERTEX_POINT('',#416);
#137=VERTEX_POINT('',#418);
#138=VERTEX_POINT('',#420);
#139=VERTEX_POINT('',#424);
#140=VERTEX_POINT('',#426);
#141=VERTEX_POINT('',#430);
#142=VERTEX_POINT('',#432);
#143=VERTEX_POINT('',#438);
#144=VERTEX_POINT('',#440);
#145=VERTEX_POINT('',#442);
#146=VERTEX_POINT('',#444);
#147=VERTEX_POINT('',#448);
#148=VERTEX_POINT('',#450);
#149=VERTEX_POINT('',#454);
#150=VERTEX_POINT('',#456);
#151=VERTEX_POINT('',#457);
#152=VERTEX_POINT('',#459);
#153=VERTEX_POINT('',#461);
#154=VERTEX_POINT('',#464);
#155=VERTEX_POINT('',#466);
#156=VERTEX_POINT('',#470);
#157=VERTEX_POINT('',#471);
#158=VERTEX_POINT('',#476);
#159=VERTEX_POINT('',#480);
#160=VERTEX_POINT('',#487);
#161=LINE('',#414,#193);
#162=LINE('',#417,#194);
#163=LINE('',#419,#195);
#164=LINE('',#421,#196);
#165=LINE('',#425,#197);
#166=LINE('',#429,#198);
#167=LINE('',#431,#199);
#168=LINE('',#433,#200);
#169=LINE('',#435,#201);
#170=LINE('',#437,#202);
#171=LINE('',#439,#203);
#172=LINE('',#441,#204);
#173=LINE('',#443,#205);
#174=LINE('',#445,#206);
#175=LINE('',#447,#207);
#176=LINE('',#449,#208);
#177=LINE('',#451,#209);
#178=LINE('',#455,#210);
#179=LINE('',#458,#211);
#180=LINE('',#460,#212);
#181=LINE('',#463,#213);
#182=LINE('',#465,#214);
#183=LINE('',#467,#215);
#184=LINE('',#469,#216);
#185=LINE('',#472,#217);
#186=LINE('',#473,#218);
#187=LINE('',#475,#219);
#188=LINE('',#477,#220);
#189=LINE('',#479,#221);
#190=LINE('',#481,#222);
#191=LINE('',#490,#223);
#192=LINE('',#492,#224);
#193=VECTOR('',#336,1.);
#194=VECTOR('',#337,1.);
#195=VECTOR('',#338,1.);
#196=VECTOR('',#339,1.);
#197=VECTOR('',#344,1.);
#198=VECTOR('',#349,1.);
#199=VECTOR('',#350,1.);
#200=VECTOR('',#351,1.);
#201=VECTOR('',#354,1.);
#202=VECTOR('',#357,1.);
#203=VECTOR('',#358,1.);
#204=VECTOR('',#359,1.);
#205=VECTOR('',#360,1.);
#206=VECTOR('',#361,1.);
#207=VECTOR('',#364,1.);
#208=VECTOR('',#365,1.);
#209=VECTOR('',#366,1.);
#210=VECTOR('',#371,1.);
#211=VECTOR('',#372,1.);
#212=VECTOR('',#373,1.);
#213=VECTOR('',#376,1.);
#214=VECTOR('',#377,1.);
#215=VECTOR('',#378,1.);
#216=VECTOR('',#381,1.);
#217=VECTOR('',#382,1.);
#218=VECTOR('',#383,1.);
#219=VECTOR('',#386,1.);
#220=VECTOR('',#387,1.);
#221=VECTOR('',#390,1.);
#222=VECTOR('',#391,1.);
#223=VECTOR('',#406,1.);
#224=VECTOR('',#409,1.);
#225=EDGE_LOOP('',(#21,#22,#23,#24));
#226=EDGE_LOOP('',(#25,#26,#27,#28));
#227=EDGE_LOOP('',(#29,#30,#31,#32));
#228=EDGE_LOOP('',(#33,#34,#35,#36));
#229=EDGE_LOOP('',(#37,#38,#39,#40,#41,#42,#43,#44));
#230=EDGE_LOOP('',(#45,#46,#47,#48,#49,#50,#51,#52));
#231=EDGE_LOOP('',(#53));
#232=EDGE_LOOP('',(#54,#55,#56,#57));
#233=EDGE_LOOP('',(#58,#59,#60,#61));
#234=EDGE_LOOP('',(#62,#63,#64,#65));
#235=EDGE_LOOP('',(#66,#67,#68,#69));
#236=EDGE_LOOP('',(#70,#71,#72,#73));
#237=EDGE_LOOP('',(#74,#75,#76,#77));
#238=EDGE_LOOP('',(#78,#79,#80,#81));
#239=EDGE_LOOP('',(#82));
#240=EDGE_LOOP('',(#83));
#241=EDGE_LOOP('',(#84));
#242=EDGE_LOOP('',(#85,#86,#87,#88));
#243=EDGE_LOOP('',(#89,#90,#91,#92));
#244=EDGE_LOOP('',(#93,#94,#95,#96));
#245=FACE_BOUND('',#225,.T.);
#246=FACE_BOUND('',#226,.T.);
#247=FACE_BOUND('',#227,.T.);
#248=FACE_BOUND('',#228,.T.);
#249=FACE_BOUND('',#229,.T.);
#250=FACE_BOUND('',#230,.T.);
#251=FACE_BOUND('',#231,.T.);
#252=FACE_BOUND('',#232,.T.);
#253=FACE_BOUND('',#233,.T.);
#254=FACE_BOUND('',#234,.T.);
#255=FACE_BOUND('',#235,.T.);
#256=FACE_BOUND('',#236,.T.);
#257=FACE_BOUND('',#237,.T.);
#258=FACE_BOUND('',#238,.T.);
#259=FACE_BOUND('',#239,.T.);
#260=FACE_BOUND('',#240,.T.);
#261=FACE_BOUND('',#241,.T.);
#262=FACE_BOUND('',#242,.T.);
#263=FACE_BOUND('',#243,.T.);
#264=FACE_BOUND('',#244,.T.);
#265=PLANE('',#309);
#266=PLANE('',#313);
#267=PLANE('',#314);
#268=PLANE('',#315);
#269=PLANE('',#316);
#270=PLANE('',#317);
#271=PLANE('',#320);
#272=PLANE('',#321);
#273=PLANE('',#322);
#274=PLANE('',#325);
#275=PLANE('',#328);
#276=PLANE('',#329);
#277=PLANE('',#330);
#278=PLANE('',#331);
#279=ADVANCED_FACE('',(#245),#265,.T.);
#280=ADVANCED_FACE('',(#246),#18,.T.);
#281=ADVANCED_FACE('',(#247),#266,.F.);
#282=ADVANCED_FACE('',(#248),#267,.T.);
#283=ADVANCED_FACE('',(#249),#268,.T.);
#284=ADVANCED_FACE('',(#250),#269,.T.);
#285=ADVANCED_FACE('',(#251,#252,#253),#270,.T.);
#286=ADVANCED_FACE('',(#254),#271,.F.);
#287=ADVANCED_FACE('',(#255),#272,.F.);
#288=ADVANCED_FACE('',(#256),#273,.T.);
#289=ADVANCED_FACE('',(#257),#19,.T.);
#290=ADVANCED_FACE('',(#258),#274,.F.);
#291=ADVANCED_FACE('',(#259,#260),#20,.T.);
#292=ADVANCED_FACE('',(#261),#275,.T.);
#293=ADVANCED_FACE('',(#262),#276,.F.);
#294=ADVANCED_FACE('',(#263),#277,.F.);
#295=ADVANCED_FACE('',(#264),#278,.T.);
#296=CLOSED_SHELL('',(#279,#280,#281,#282,#283,#284,#285,#286,#287,#288,
#289,#290,#291,#292,#293,#294,#295));
#297=STYLED_ITEM('',(#298),#305);
#298=PRESENTATION_STYLE_ASSIGNMENT((#299));
#299=SURFACE_STYLE_USAGE(.BOTH.,#300);
#300=SURFACE_SIDE_STYLE('',(#301));
#301=SURFACE_STYLE_FILL_AREA(#302);
#302=FILL_AREA_STYLE('',(#303));
#303=FILL_AREA_STYLE_COLOUR('',#304);
#304=COLOUR_RGB('',0.96078431372549,0.901960784313726,0.862745098039216);
#305=MANIFOLD_SOLID_BREP('Part 1',#296);
#306=SHAPE_DEFINITION_REPRESENTATION(#500,#307);
#307=SHAPE_REPRESENTATION('Part 1',(#308),#495);
#308=AXIS2_PLACEMENT_3D('',#412,#332,#333);
#309=AXIS2_PLACEMENT_3D('',#413,#334,#335);
#310=AXIS2_PLACEMENT_3D('',#422,#340,#341);
#311=AXIS2_PLACEMENT_3D('',#423,#342,#343);
#312=AXIS2_PLACEMENT_3D('',#427,#345,#346);
#313=AXIS2_PLACEMENT_3D('',#428,#347,#348);
#314=AXIS2_PLACEMENT_3D('',#434,#352,#353);
#315=AXIS2_PLACEMENT_3D('',#436,#355,#356);
#316=AXIS2_PLACEMENT_3D('',#446,#362,#363);
#317=AXIS2_PLACEMENT_3D('',#452,#367,#368);
#318=AXIS2_PLACEMENT_3D('',#453,#369,#370);
#319=AXIS2_PLACEMENT_3D('',#462,#374,#375);
#320=AXIS2_PLACEMENT_3D('',#468,#379,#380);
#321=AXIS2_PLACEMENT_3D('',#474,#384,#385);
#322=AXIS2_PLACEMENT_3D('',#478,#388,#389);
#323=AXIS2_PLACEMENT_3D('',#482,#392,#393);
#324=AXIS2_PLACEMENT_3D('',#483,#394,#395);
#325=AXIS2_PLACEMENT_3D('',#484,#396,#397);
#326=AXIS2_PLACEMENT_3D('',#485,#398,#399);
#327=AXIS2_PLACEMENT_3D('',#486,#400,#401);
#328=AXIS2_PLACEMENT_3D('',#488,#402,#403);
#329=AXIS2_PLACEMENT_3D('',#489,#404,#405);
#330=AXIS2_PLACEMENT_3D('',#491,#407,#408);
#331=AXIS2_PLACEMENT_3D('',#493,#410,#411);
#332=DIRECTION('',(0.,0.,1.));
#333=DIRECTION('',(1.,0.,0.));
#334=DIRECTION('',(-0.895994436364894,0.,0.444065276736603));
#335=DIRECTION('',(0.444065276736603,0.,0.895994436364895));
#336=DIRECTION('',(0.444065276736603,0.,0.895994436364895));
#337=DIRECTION('',(0.,1.,0.));
#338=DIRECTION('',(0.444065276736603,0.,0.895994436364895));
#339=DIRECTION('',(0.,1.,0.));
#340=DIRECTION('',(0.,1.,0.));
#341=DIRECTION('',(0.,0.,1.));
#342=DIRECTION('',(0.,-1.,0.));
#343=DIRECTION('',(0.,0.,-1.));
#344=DIRECTION('',(0.,1.,0.));
#345=DIRECTION('',(0.,-1.,0.));
#346=DIRECTION('',(0.,0.,-1.));
#347=DIRECTION('',(-0.895994436364895,0.,0.444065276736602));
#348=DIRECTION('',(0.444065276736602,0.,0.895994436364895));
#349=DIRECTION('',(0.444065276736602,0.,0.895994436364895));
#350=DIRECTION('',(0.,1.,0.));
#351=DIRECTION('',(0.444065276736602,0.,0.895994436364895));
#352=DIRECTION('',(0.,-1.,0.));
#353=DIRECTION('',(1.,0.,0.));
#354=DIRECTION('',(1.,0.,0.));
#355=DIRECTION('',(0.,-1.,0.));
#356=DIRECTION('',(1.,0.,0.));
#357=DIRECTION('',(1.,0.,0.));
#358=DIRECTION('',(0.,0.,-1.));
#359=DIRECTION('',(1.,0.,0.));
#360=DIRECTION('',(0.,0.,-1.));
#361=DIRECTION('',(1.,0.,0.));
#362=DIRECTION('',(0.,0.,-1.));
#363=DIRECTION('',(-1.,0.,0.));
#364=DIRECTION('',(0.,-1.,0.));
#365=DIRECTION('',(1.,0.,0.));
#366=DIRECTION('',(0.,-1.,0.));
#367=DIRECTION('',(0.,-1.,0.));
#368=DIRECTION('',(1.,0.,0.));
#369=DIRECTION('',(0.,-1.,0.));
#370=DIRECTION('',(0.,0.,-1.));
#371=DIRECTION('',(0.,0.,-1.));
#372=DIRECTION('',(1.,0.,0.));
#373=DIRECTION('',(0.,0.,-1.));
#374=DIRECTION('',(0.,-1.,0.));
#375=DIRECTION('',(0.,0.,-1.));
#376=DIRECTION('',(0.,0.,-1.));
#377=DIRECTION('',(0.,0.,-1.));
#378=DIRECTION('',(1.,0.,0.));
#379=DIRECTION('',(1.,0.,0.));
#380=DIRECTION('',(0.,0.,-1.));
#381=DIRECTION('',(0.,0.,-1.));
#382=DIRECTION('',(0.,1.,0.));
#383=DIRECTION('',(0.,1.,0.));
#384=DIRECTION('',(0.,0.,1.));
#385=DIRECTION('',(1.,0.,0.));
#386=DIRECTION('',(1.,0.,0.));
#387=DIRECTION('',(0.,1.,0.));
#388=DIRECTION('',(1.,0.,0.));
#389=DIRECTION('',(0.,0.,-1.));
#390=DIRECTION('',(0.,0.,-1.));
#391=DIRECTION('',(0.,1.,0.));
#392=DIRECTION('',(0.,1.,0.));
#393=DIRECTION('',(0.,0.,1.));
#394=DIRECTION('',(0.,-1.,0.));
#395=DIRECTION('',(0.,0.,-1.));
#396=DIRECTION('',(0.,-1.,0.));
#397=DIRECTION('',(1.,0.,0.));
#398=DIRECTION('',(0.,1.,0.));
#399=DIRECTION('',(0.,0.,1.));
#400=DIRECTION('',(0.,-1.,0.));
#401=DIRECTION('',(0.,0.,-1.));
#402=DIRECTION('',(0.,-1.,0.));
#403=DIRECTION('',(1.,0.,0.));
#404=DIRECTION('',(-1.,0.,0.));
#405=DIRECTION('',(0.,0.,1.));
#406=DIRECTION('',(0.,-1.,0.));
#407=DIRECTION('',(0.,0.,-1.));
#408=DIRECTION('',(-1.,0.,0.));
#409=DIRECTION('',(0.,-1.,0.));
#410=DIRECTION('',(-1.,0.,0.));
#411=DIRECTION('',(0.,0.,1.));
#412=CARTESIAN_POINT('',(0.,0.,0.));
#413=CARTESIAN_POINT('',(-0.0103385197962798,-0.008,0.00510463049994153));
#414=CARTESIAN_POINT('',(-0.0103385197962798,-0.005,0.00510463049994153));
#415=CARTESIAN_POINT('',(-0.0118061995199277,-0.005,0.00214328014078224));
#416=CARTESIAN_POINT('',(-0.00887084007263184,-0.005,0.00806598085910082));
#417=CARTESIAN_POINT('',(-0.0118061995199277,-0.008,0.00214328014078224));
#418=CARTESIAN_POINT('',(-0.0118061995199277,-0.008,0.00214328014078224));
#419=CARTESIAN_POINT('',(-0.0103385197962798,-0.008,0.00510463049994153));
#420=CARTESIAN_POINT('',(-0.00887084007263184,-0.008,0.00806598085910082));
#421=CARTESIAN_POINT('',(-0.00887084007263184,-0.008,0.00806598085910082));
#422=CARTESIAN_POINT('',(-0.0120836533606052,-0.008,0.00103149306960404));
#423=CARTESIAN_POINT('',(-0.0120836533606052,-0.005,0.00103149306960404));
#424=CARTESIAN_POINT('',(-0.0112700983427574,-0.005,0.00183844991992531));
#425=CARTESIAN_POINT('',(-0.0112700983427574,-0.008,0.00183844991992531));
#426=CARTESIAN_POINT('',(-0.0112700983427574,-0.008,0.00183844991992531));
#427=CARTESIAN_POINT('',(-0.0120836533606052,-0.008,0.00103149306960404));
#428=CARTESIAN_POINT('',(-0.00972687991546997,-0.008,0.00495221538951306));
#429=CARTESIAN_POINT('',(-0.00972687991546997,-0.005,0.00495221538951306));
#430=CARTESIAN_POINT('',(-0.00818366148818249,-0.005,0.00806598085910082));
#431=CARTESIAN_POINT('',(-0.00818366148818249,-0.008,0.00806598085910082));
#432=CARTESIAN_POINT('',(-0.00818366148818249,-0.008,0.00806598085910082));
#433=CARTESIAN_POINT('',(-0.00972687991546997,-0.008,0.00495221538951306));
#434=CARTESIAN_POINT('',(-0.00823476002551615,-0.008,0.0024606486549601));
#435=CARTESIAN_POINT('',(-0.00823476002551615,-0.008,0.00806598085910082));
#436=CARTESIAN_POINT('',(-0.0085647813975811,-0.005,0.0107203465886414));
#437=CARTESIAN_POINT('',(-0.00823476002551615,-0.005,0.00806598085910082));
#438=CARTESIAN_POINT('',(-0.0135666616261005,-0.005,0.00806598085910082));
#439=CARTESIAN_POINT('',(-0.0135666616261005,-0.005,0.0024606486549601));
#440=CARTESIAN_POINT('',(-0.0135666616261005,-0.005,-0.00314468354918063));
#441=CARTESIAN_POINT('',(-0.00823476002551615,-0.005,-0.00314468354918063));
#442=CARTESIAN_POINT('',(-0.00290285842493177,-0.005,-0.00314468354918063));
#443=CARTESIAN_POINT('',(-0.00290285842493177,-0.005,0.0024606486549601));
#444=CARTESIAN_POINT('',(-0.00290285842493177,-0.005,0.00806598085910082));
#445=CARTESIAN_POINT('',(-0.00823476002551615,-0.005,0.00806598085910082));
#446=CARTESIAN_POINT('',(-0.00823476002551615,-0.005,0.00806598085910082));
#447=CARTESIAN_POINT('',(-0.00290285842493177,-0.005,0.00806598085910082));
#448=CARTESIAN_POINT('',(-0.00290285842493177,-0.015,0.00806598085910082));
#449=CARTESIAN_POINT('',(-0.00823476002551615,-0.015,0.00806598085910082));
#450=CARTESIAN_POINT('',(-0.0135666616261005,-0.015,0.00806598085910082));
#451=CARTESIAN_POINT('',(-0.0135666616261005,-0.005,0.00806598085910082));
#452=CARTESIAN_POINT('',(-0.0085647813975811,-0.015,0.0107203465886414));
#453=CARTESIAN_POINT('',(-0.0085647813975811,-0.015,0.0193138681352138));
#454=CARTESIAN_POINT('',(-0.0085647813975811,-0.015,0.0130900281512948));
#455=CARTESIAN_POINT('',(-0.0171295627951622,-0.015,0.00643795588985086));
#456=CARTESIAN_POINT('',(-0.0171295627951622,-0.015,0.0193138681352138));
#457=CARTESIAN_POINT('',(-0.0171295627951622,-0.015,-0.00643795635551214));
#458=CARTESIAN_POINT('',(-0.0085647813975811,-0.015,-0.00643795635551214));
#459=CARTESIAN_POINT('',(0.,-0.015,-0.00643795635551214));
#460=CARTESIAN_POINT('',(0.,-0.015,0.00643795588985086));
#461=CARTESIAN_POINT('',(0.,-0.015,0.0193138681352138));
#462=CARTESIAN_POINT('',(-0.0085647813975811,-0.015,0.0193138681352138));
#463=CARTESIAN_POINT('',(-0.0135666616261005,-0.015,0.0024606486549601));
#464=CARTESIAN_POINT('',(-0.0135666616261005,-0.015,-0.00314468354918063));
#465=CARTESIAN_POINT('',(-0.00290285842493177,-0.015,0.0024606486549601));
#466=CARTESIAN_POINT('',(-0.00290285842493177,-0.015,-0.00314468354918063));
#467=CARTESIAN_POINT('',(-0.00823476002551615,-0.015,-0.00314468354918063));
#468=CARTESIAN_POINT('',(-0.0171295627951622,-0.015,0.00643795588985086));
#469=CARTESIAN_POINT('',(-0.0171295627951622,0.,0.00643795588985086));
#470=CARTESIAN_POINT('',(-0.0171295627951622,0.,0.0193138681352138));
#471=CARTESIAN_POINT('',(-0.0171295627951622,0.,-0.00643795635551214));
#472=CARTESIAN_POINT('',(-0.0171295627951622,-0.015,-0.00643795635551214));
#473=CARTESIAN_POINT('',(-0.0171295627951622,-0.015,0.0193138681352138));
#474=CARTESIAN_POINT('',(-0.0085647813975811,-0.015,-0.00643795635551214));
#475=CARTESIAN_POINT('',(-0.0085647813975811,0.,-0.00643795635551214));
#476=CARTESIAN_POINT('',(0.,0.,-0.00643795635551214));
#477=CARTESIAN_POINT('',(0.,-0.015,-0.00643795635551214));
#478=CARTESIAN_POINT('',(0.,-0.015,0.00643795588985086));
#479=CARTESIAN_POINT('',(0.,0.,0.00643795588985086));
#480=CARTESIAN_POINT('',(0.,0.,0.0193138681352138));
#481=CARTESIAN_POINT('',(0.,-0.015,0.0193138681352138));
#482=CARTESIAN_POINT('',(-0.0085647813975811,-0.015,0.0193138681352138));
#483=CARTESIAN_POINT('',(-0.0085647813975811,0.,0.0193138681352138));
#484=CARTESIAN_POINT('',(-0.0085647813975811,0.,0.0107203465886414));
#485=CARTESIAN_POINT('',(-0.0085647813975811,-0.0163,0.0193138681352138));
#486=CARTESIAN_POINT('',(-0.0085647813975811,-0.0163,0.0193138681352138));
#487=CARTESIAN_POINT('',(-0.0085647813975811,-0.0163,0.0130900281512948));
#488=CARTESIAN_POINT('',(-0.0085647813975811,-0.0163,0.0107203465886414));
#489=CARTESIAN_POINT('',(-0.0135666616261005,-0.005,0.0024606486549601));
#490=CARTESIAN_POINT('',(-0.0135666616261005,-0.005,-0.00314468354918063));
#491=CARTESIAN_POINT('',(-0.00823476002551615,-0.005,-0.00314468354918063));
#492=CARTESIAN_POINT('',(-0.00290285842493177,-0.005,-0.00314468354918063));
#493=CARTESIAN_POINT('',(-0.00290285842493177,-0.005,0.0024606486549601));
#494=MECHANICAL_DESIGN_GEOMETRIC_PRESENTATION_REPRESENTATION('',(#297),
#495);
#495=(
GEOMETRIC_REPRESENTATION_CONTEXT(3)
GLOBAL_UNCERTAINTY_ASSIGNED_CONTEXT((#496))
GLOBAL_UNIT_ASSIGNED_CONTEXT((#499,#498,#497))
REPRESENTATION_CONTEXT('Part 1','TOP_LEVEL_ASSEMBLY_PART')
);
#496=UNCERTAINTY_MEASURE_WITH_UNIT(LENGTH_MEASURE(1.E-8),#499,
'DISTANCE_ACCURACY_VALUE','Maximum Tolerance applied to model');
#497=(
NAMED_UNIT(*)
SI_UNIT($,.STERADIAN.)
SOLID_ANGLE_UNIT()
);
#498=(
NAMED_UNIT(*)
PLANE_ANGLE_UNIT()
SI_UNIT($,.RADIAN.)
);
#499=(
LENGTH_UNIT()
NAMED_UNIT(*)
SI_UNIT($,.METRE.)
);
#500=PRODUCT_DEFINITION_SHAPE('','',#501);
#501=PRODUCT_DEFINITION('','',#503,#502);
#502=PRODUCT_DEFINITION_CONTEXT('',#509,'design');
#503=PRODUCT_DEFINITION_FORMATION_WITH_SPECIFIED_SOURCE('','',#505,
 .NOT_KNOWN.);
#504=PRODUCT_RELATED_PRODUCT_CATEGORY('','',(#505));
#505=PRODUCT('Part 1','Part 1','Part 1',(#507));
#506=PRODUCT_CATEGORY('','');
#507=PRODUCT_CONTEXT('',#509,'mechanical');
#508=APPLICATION_PROTOCOL_DEFINITION('international standard',
'ap242_managed_model_based_3d_engineering',2020,#509);
#509=APPLICATION_CONTEXT('managed model based 3d engineering');
ENDSEC;
END-ISO-10303-21;
