ISO-10303-21;
HEADER;
/* Generated by software containing ST-Developer
 * from STEP Tools, Inc. (www.steptools.com) 
 */
/* OPTION: using custom renumber hook */

FILE_DESCRIPTION(
/* description */ ('STEP AP242 Edition 2',
'CAx-IF Rec.Pracs.---Representation and Presentation of Product Manufa
cturing Information (PMI)---4.0---2014-10-13',
'CAx-IF Rec.Pracs.---3D Tessellated Geometry---0.4---2014-09-14','2;1',
'CAx-IF Rec.Pracs.---User Defined Attributes---1.5---2016-08-15'),
/* implementation_level */ '2;1');

FILE_NAME(
/* name */ 'shelf - Part 1',
/* time_stamp */ '2026-08-29T04:39:15Z',
/* author */ (''),
/* organization */ (''),
/* preprocessor_version */ 'ST-DEVELOPER v20',
/* originating_system */ 'ONSHAPE BY PTC INC, 1.220',
/* authorisation */ '  ');

FILE_SCHEMA (('AP242_MANAGED_MODEL_BASED_3D_ENGINEERING_MIM_LF { 1 0 10303 442 3 1 4 }'));
ENDSEC;

DATA;
#10=SHAPE_REPRESENTATION_RELATIONSHIP('','',#545,#11);
#11=ADVANCED_BREP_SHAPE_REPRESENTATION('',(#543),#851);
#12=ORIENTED_EDGE('',*,*,#156,.F.);
#13=ORIENTED_EDGE('',*,*,#157,.T.);
#14=ORIENTED_EDGE('',*,*,#158,.T.);
#15=ORIENTED_EDGE('',*,*,#159,.F.);
#16=ORIENTED_EDGE('',*,*,#160,.F.);
#17=ORIENTED_EDGE('',*,*,#161,.T.);
#18=ORIENTED_EDGE('',*,*,#162,.F.);
#19=ORIENTED_EDGE('',*,*,#163,.T.);
#20=ORIENTED_EDGE('',*,*,#164,.T.);
#21=ORIENTED_EDGE('',*,*,#165,.T.);
#22=ORIENTED_EDGE('',*,*,#166,.F.);
#23=ORIENTED_EDGE('',*,*,#167,.T.);
#24=ORIENTED_EDGE('',*,*,#168,.F.);
#25=ORIENTED_EDGE('',*,*,#169,.F.);
#26=ORIENTED_EDGE('',*,*,#170,.T.);
#27=ORIENTED_EDGE('',*,*,#171,.T.);
#28=ORIENTED_EDGE('',*,*,#172,.F.);
#29=ORIENTED_EDGE('',*,*,#173,.T.);
#30=ORIENTED_EDGE('',*,*,#174,.T.);
#31=ORIENTED_EDGE('',*,*,#175,.F.);
#32=ORIENTED_EDGE('',*,*,#176,.F.);
#33=ORIENTED_EDGE('',*,*,#177,.T.);
#34=ORIENTED_EDGE('',*,*,#178,.F.);
#35=ORIENTED_EDGE('',*,*,#179,.F.);
#36=ORIENTED_EDGE('',*,*,#180,.F.);
#37=ORIENTED_EDGE('',*,*,#181,.T.);
#38=ORIENTED_EDGE('',*,*,#182,.F.);
#39=ORIENTED_EDGE('',*,*,#183,.T.);
#40=ORIENTED_EDGE('',*,*,#184,.T.);
#41=ORIENTED_EDGE('',*,*,#185,.F.);
#42=ORIENTED_EDGE('',*,*,#186,.F.);
#43=ORIENTED_EDGE('',*,*,#187,.T.);
#44=ORIENTED_EDGE('',*,*,#188,.F.);
#45=ORIENTED_EDGE('',*,*,#189,.T.);
#46=ORIENTED_EDGE('',*,*,#190,.T.);
#47=ORIENTED_EDGE('',*,*,#191,.F.);
#48=ORIENTED_EDGE('',*,*,#192,.F.);
#49=ORIENTED_EDGE('',*,*,#178,.T.);
#50=ORIENTED_EDGE('',*,*,#193,.T.);
#51=ORIENTED_EDGE('',*,*,#165,.F.);
#52=ORIENTED_EDGE('',*,*,#193,.F.);
#53=ORIENTED_EDGE('',*,*,#177,.F.);
#54=ORIENTED_EDGE('',*,*,#194,.T.);
#55=ORIENTED_EDGE('',*,*,#166,.T.);
#56=ORIENTED_EDGE('',*,*,#195,.T.);
#57=ORIENTED_EDGE('',*,*,#196,.F.);
#58=ORIENTED_EDGE('',*,*,#197,.T.);
#59=ORIENTED_EDGE('',*,*,#168,.T.);
#60=ORIENTED_EDGE('',*,*,#198,.F.);
#61=ORIENTED_EDGE('',*,*,#187,.F.);
#62=ORIENTED_EDGE('',*,*,#199,.F.);
#63=ORIENTED_EDGE('',*,*,#200,.T.);
#64=ORIENTED_EDGE('',*,*,#194,.F.);
#65=ORIENTED_EDGE('',*,*,#176,.T.);
#66=ORIENTED_EDGE('',*,*,#198,.T.);
#67=ORIENTED_EDGE('',*,*,#167,.F.);
#68=ORIENTED_EDGE('',*,*,#195,.F.);
#69=ORIENTED_EDGE('',*,*,#201,.T.);
#70=ORIENTED_EDGE('',*,*,#202,.T.);
#71=ORIENTED_EDGE('',*,*,#184,.F.);
#72=ORIENTED_EDGE('',*,*,#203,.T.);
#73=ORIENTED_EDGE('',*,*,#171,.F.);
#74=ORIENTED_EDGE('',*,*,#204,.F.);
#75=ORIENTED_EDGE('',*,*,#205,.T.);
#76=ORIENTED_EDGE('',*,*,#182,.T.);
#77=ORIENTED_EDGE('',*,*,#206,.T.);
#78=ORIENTED_EDGE('',*,*,#161,.F.);
#79=ORIENTED_EDGE('',*,*,#207,.F.);
#80=ORIENTED_EDGE('',*,*,#183,.F.);
#81=ORIENTED_EDGE('',*,*,#207,.T.);
#82=ORIENTED_EDGE('',*,*,#160,.T.);
#83=ORIENTED_EDGE('',*,*,#203,.F.);
#84=ORIENTED_EDGE('',*,*,#206,.F.);
#85=ORIENTED_EDGE('',*,*,#181,.F.);
#86=ORIENTED_EDGE('',*,*,#208,.T.);
#87=ORIENTED_EDGE('',*,*,#162,.T.);
#88=ORIENTED_EDGE('',*,*,#192,.T.);
#89=ORIENTED_EDGE('',*,*,#164,.F.);
#90=ORIENTED_EDGE('',*,*,#209,.F.);
#91=ORIENTED_EDGE('',*,*,#179,.T.);
#92=ORIENTED_EDGE('',*,*,#208,.F.);
#93=ORIENTED_EDGE('',*,*,#180,.T.);
#94=ORIENTED_EDGE('',*,*,#209,.T.);
#95=ORIENTED_EDGE('',*,*,#163,.F.);
#96=ORIENTED_EDGE('',*,*,#170,.F.);
#97=ORIENTED_EDGE('',*,*,#210,.F.);
#98=ORIENTED_EDGE('',*,*,#211,.T.);
#99=ORIENTED_EDGE('',*,*,#204,.T.);
#100=ORIENTED_EDGE('',*,*,#169,.T.);
#101=ORIENTED_EDGE('',*,*,#197,.F.);
#102=ORIENTED_EDGE('',*,*,#212,.F.);
#103=ORIENTED_EDGE('',*,*,#210,.T.);
#104=ORIENTED_EDGE('',*,*,#196,.T.);
#105=ORIENTED_EDGE('',*,*,#205,.F.);
#106=ORIENTED_EDGE('',*,*,#211,.F.);
#107=ORIENTED_EDGE('',*,*,#212,.T.);
#108=ORIENTED_EDGE('',*,*,#186,.T.);
#109=ORIENTED_EDGE('',*,*,#213,.F.);
#110=ORIENTED_EDGE('',*,*,#214,.F.);
#111=ORIENTED_EDGE('',*,*,#199,.T.);
#112=ORIENTED_EDGE('',*,*,#185,.T.);
#113=ORIENTED_EDGE('',*,*,#202,.F.);
#114=ORIENTED_EDGE('',*,*,#215,.F.);
#115=ORIENTED_EDGE('',*,*,#213,.T.);
#116=ORIENTED_EDGE('',*,*,#201,.F.);
#117=ORIENTED_EDGE('',*,*,#200,.F.);
#118=ORIENTED_EDGE('',*,*,#214,.T.);
#119=ORIENTED_EDGE('',*,*,#215,.T.);
#120=ORIENTED_EDGE('',*,*,#216,.F.);
#121=ORIENTED_EDGE('',*,*,#191,.T.);
#122=ORIENTED_EDGE('',*,*,#217,.T.);
#123=ORIENTED_EDGE('',*,*,#173,.F.);
#124=ORIENTED_EDGE('',*,*,#189,.F.);
#125=ORIENTED_EDGE('',*,*,#218,.T.);
#126=ORIENTED_EDGE('',*,*,#175,.T.);
#127=ORIENTED_EDGE('',*,*,#219,.F.);
#128=ORIENTED_EDGE('',*,*,#218,.F.);
#129=ORIENTED_EDGE('',*,*,#188,.T.);
#130=ORIENTED_EDGE('',*,*,#216,.T.);
#131=ORIENTED_EDGE('',*,*,#172,.T.);
#132=ORIENTED_EDGE('',*,*,#190,.F.);
#133=ORIENTED_EDGE('',*,*,#219,.T.);
#134=ORIENTED_EDGE('',*,*,#174,.F.);
#135=ORIENTED_EDGE('',*,*,#217,.F.);
#136=ORIENTED_EDGE('',*,*,#220,.T.);
#137=ORIENTED_EDGE('',*,*,#157,.F.);
#138=ORIENTED_EDGE('',*,*,#221,.F.);
#139=ORIENTED_EDGE('',*,*,#222,.T.);
#140=ORIENTED_EDGE('',*,*,#223,.F.);
#141=ORIENTED_EDGE('',*,*,#222,.F.);
#142=ORIENTED_EDGE('',*,*,#224,.T.);
#143=ORIENTED_EDGE('',*,*,#225,.T.);
#144=ORIENTED_EDGE('',*,*,#226,.F.);
#145=ORIENTED_EDGE('',*,*,#225,.F.);
#146=ORIENTED_EDGE('',*,*,#227,.T.);
#147=ORIENTED_EDGE('',*,*,#159,.T.);
#148=ORIENTED_EDGE('',*,*,#221,.T.);
#149=ORIENTED_EDGE('',*,*,#156,.T.);
#150=ORIENTED_EDGE('',*,*,#227,.F.);
#151=ORIENTED_EDGE('',*,*,#224,.F.);
#152=ORIENTED_EDGE('',*,*,#220,.F.);
#153=ORIENTED_EDGE('',*,*,#223,.T.);
#154=ORIENTED_EDGE('',*,*,#226,.T.);
#155=ORIENTED_EDGE('',*,*,#158,.F.);
#156=EDGE_CURVE('',#228,#229,#276,.T.);
#157=EDGE_CURVE('',#228,#230,#277,.T.);
#158=EDGE_CURVE('',#230,#231,#278,.T.);
#159=EDGE_CURVE('',#229,#231,#279,.T.);
#160=EDGE_CURVE('',#232,#233,#280,.T.);
#161=EDGE_CURVE('',#232,#234,#281,.T.);
#162=EDGE_CURVE('',#235,#234,#282,.T.);
#163=EDGE_CURVE('',#235,#236,#283,.T.);
#164=EDGE_CURVE('',#236,#237,#284,.T.);
#165=EDGE_CURVE('',#237,#238,#285,.T.);
#166=EDGE_CURVE('',#239,#238,#286,.T.);
#167=EDGE_CURVE('',#239,#240,#287,.T.);
#168=EDGE_CURVE('',#241,#240,#288,.T.);
#169=EDGE_CURVE('',#242,#241,#289,.T.);
#170=EDGE_CURVE('',#242,#243,#290,.T.);
#171=EDGE_CURVE('',#243,#233,#291,.T.);
#172=EDGE_CURVE('',#244,#245,#292,.T.);
#173=EDGE_CURVE('',#244,#246,#293,.T.);
#174=EDGE_CURVE('',#246,#247,#294,.T.);
#175=EDGE_CURVE('',#245,#247,#295,.T.);
#176=EDGE_CURVE('',#248,#249,#296,.T.);
#177=EDGE_CURVE('',#248,#250,#297,.T.);
#178=EDGE_CURVE('',#251,#250,#298,.T.);
#179=EDGE_CURVE('',#252,#251,#299,.T.);
#180=EDGE_CURVE('',#253,#252,#300,.T.);
#181=EDGE_CURVE('',#253,#254,#301,.T.);
#182=EDGE_CURVE('',#255,#254,#302,.T.);
#183=EDGE_CURVE('',#255,#256,#303,.T.);
#184=EDGE_CURVE('',#256,#257,#304,.T.);
#185=EDGE_CURVE('',#258,#257,#305,.T.);
#186=EDGE_CURVE('',#259,#258,#306,.T.);
#187=EDGE_CURVE('',#259,#249,#307,.T.);
#188=EDGE_CURVE('',#260,#261,#308,.T.);
#189=EDGE_CURVE('',#260,#262,#309,.T.);
#190=EDGE_CURVE('',#262,#263,#310,.T.);
#191=EDGE_CURVE('',#261,#263,#311,.T.);
#192=EDGE_CURVE('',#251,#237,#312,.T.);
#193=EDGE_CURVE('',#250,#238,#313,.T.);
#194=EDGE_CURVE('',#248,#239,#314,.T.);
#195=EDGE_CURVE('',#264,#265,#315,.T.);
#196=EDGE_CURVE('',#266,#265,#316,.T.);
#197=EDGE_CURVE('',#266,#241,#317,.T.);
#198=EDGE_CURVE('',#249,#240,#318,.T.);
#199=EDGE_CURVE('',#267,#259,#319,.T.);
#200=EDGE_CURVE('',#267,#264,#320,.T.);
#201=EDGE_CURVE('',#264,#268,#321,.T.);
#202=EDGE_CURVE('',#268,#257,#322,.T.);
#203=EDGE_CURVE('',#256,#233,#323,.T.);
#204=EDGE_CURVE('',#269,#243,#324,.T.);
#205=EDGE_CURVE('',#269,#265,#325,.T.);
#206=EDGE_CURVE('',#254,#234,#326,.T.);
#207=EDGE_CURVE('',#255,#232,#327,.T.);
#208=EDGE_CURVE('',#253,#235,#328,.T.);
#209=EDGE_CURVE('',#252,#236,#329,.T.);
#210=EDGE_CURVE('',#270,#242,#330,.T.);
#211=EDGE_CURVE('',#270,#269,#331,.T.);
#212=EDGE_CURVE('',#270,#266,#332,.T.);
#213=EDGE_CURVE('',#271,#258,#333,.T.);
#214=EDGE_CURVE('',#267,#271,#334,.T.);
#215=EDGE_CURVE('',#271,#268,#335,.T.);
#216=EDGE_CURVE('',#261,#244,#336,.T.);
#217=EDGE_CURVE('',#263,#246,#337,.T.);
#218=EDGE_CURVE('',#260,#245,#338,.T.);
#219=EDGE_CURVE('',#262,#247,#339,.T.);
#220=EDGE_CURVE('',#272,#230,#340,.T.);
#221=EDGE_CURVE('',#273,#228,#341,.T.);
#222=EDGE_CURVE('',#273,#272,#342,.T.);
#223=EDGE_CURVE('',#272,#274,#343,.T.);
#224=EDGE_CURVE('',#273,#275,#344,.T.);
#225=EDGE_CURVE('',#275,#274,#345,.T.);
#226=EDGE_CURVE('',#274,#231,#346,.T.);
#227=EDGE_CURVE('',#275,#229,#347,.T.);
#228=VERTEX_POINT('',#705);
#229=VERTEX_POINT('',#706);
#230=VERTEX_POINT('',#708);
#231=VERTEX_POINT('',#710);
#232=VERTEX_POINT('',#713);
#233=VERTEX_POINT('',#714);
#234=VERTEX_POINT('',#716);
#235=VERTEX_POINT('',#718);
#236=VERTEX_POINT('',#720);
#237=VERTEX_POINT('',#722);
#238=VERTEX_POINT('',#724);
#239=VERTEX_POINT('',#726);
#240=VERTEX_POINT('',#728);
#241=VERTEX_POINT('',#730);
#242=VERTEX_POINT('',#732);
#243=VERTEX_POINT('',#734);
#244=VERTEX_POINT('',#737);
#245=VERTEX_POINT('',#738);
#246=VERTEX_POINT('',#740);
#247=VERTEX_POINT('',#742);
#248=VERTEX_POINT('',#746);
#249=VERTEX_POINT('',#747);
#250=VERTEX_POINT('',#749);
#251=VERTEX_POINT('',#751);
#252=VERTEX_POINT('',#753);
#253=VERTEX_POINT('',#755);
#254=VERTEX_POINT('',#757);
#255=VERTEX_POINT('',#759);
#256=VERTEX_POINT('',#761);
#257=VERTEX_POINT('',#763);
#258=VERTEX_POINT('',#765);
#259=VERTEX_POINT('',#767);
#260=VERTEX_POINT('',#770);
#261=VERTEX_POINT('',#771);
#262=VERTEX_POINT('',#773);
#263=VERTEX_POINT('',#775);
#264=VERTEX_POINT('',#784);
#265=VERTEX_POINT('',#785);
#266=VERTEX_POINT('',#787);
#267=VERTEX_POINT('',#791);
#268=VERTEX_POINT('',#796);
#269=VERTEX_POINT('',#800);
#270=VERTEX_POINT('',#813);
#271=VERTEX_POINT('',#820);
#272=VERTEX_POINT('',#835);
#273=VERTEX_POINT('',#837);
#274=VERTEX_POINT('',#841);
#275=VERTEX_POINT('',#843);
#276=LINE('',#704,#348);
#277=LINE('',#707,#349);
#278=LINE('',#709,#350);
#279=LINE('',#711,#351);
#280=LINE('',#712,#352);
#281=LINE('',#715,#353);
#282=LINE('',#717,#354);
#283=LINE('',#719,#355);
#284=LINE('',#721,#356);
#285=LINE('',#723,#357);
#286=LINE('',#725,#358);
#287=LINE('',#727,#359);
#288=LINE('',#729,#360);
#289=LINE('',#731,#361);
#290=LINE('',#733,#362);
#291=LINE('',#735,#363);
#292=LINE('',#736,#364);
#293=LINE('',#739,#365);
#294=LINE('',#741,#366);
#295=LINE('',#743,#367);
#296=LINE('',#745,#368);
#297=LINE('',#748,#369);
#298=LINE('',#750,#370);
#299=LINE('',#752,#371);
#300=LINE('',#754,#372);
#301=LINE('',#756,#373);
#302=LINE('',#758,#374);
#303=LINE('',#760,#375);
#304=LINE('',#762,#376);
#305=LINE('',#764,#377);
#306=LINE('',#766,#378);
#307=LINE('',#768,#379);
#308=LINE('',#769,#380);
#309=LINE('',#772,#381);
#310=LINE('',#774,#382);
#311=LINE('',#776,#383);
#312=LINE('',#778,#384);
#313=LINE('',#779,#385);
#314=LINE('',#781,#386);
#315=LINE('',#783,#387);
#316=LINE('',#786,#388);
#317=LINE('',#788,#389);
#318=LINE('',#789,#390);
#319=LINE('',#790,#391);
#320=LINE('',#792,#392);
#321=LINE('',#795,#393);
#322=LINE('',#797,#394);
#323=LINE('',#798,#395);
#324=LINE('',#799,#396);
#325=LINE('',#801,#397);
#326=LINE('',#803,#398);
#327=LINE('',#804,#399);
#328=LINE('',#807,#400);
#329=LINE('',#809,#401);
#330=LINE('',#812,#402);
#331=LINE('',#814,#403);
#332=LINE('',#816,#404);
#333=LINE('',#819,#405);
#334=LINE('',#821,#406);
#335=LINE('',#823,#407);
#336=LINE('',#826,#408);
#337=LINE('',#827,#409);
#338=LINE('',#829,#410);
#339=LINE('',#830,#411);
#340=LINE('',#834,#412);
#341=LINE('',#836,#413);
#342=LINE('',#838,#414);
#343=LINE('',#840,#415);
#344=LINE('',#842,#416);
#345=LINE('',#844,#417);
#346=LINE('',#846,#418);
#347=LINE('',#847,#419);
#348=VECTOR('',#578,1.);
#349=VECTOR('',#579,1.);
#350=VECTOR('',#580,1.);
#351=VECTOR('',#581,1.);
#352=VECTOR('',#582,1.);
#353=VECTOR('',#583,1.);
#354=VECTOR('',#584,1.);
#355=VECTOR('',#585,1.);
#356=VECTOR('',#586,1.);
#357=VECTOR('',#587,1.);
#358=VECTOR('',#588,1.);
#359=VECTOR('',#589,1.);
#360=VECTOR('',#590,1.);
#361=VECTOR('',#591,1.);
#362=VECTOR('',#592,1.);
#363=VECTOR('',#593,1.);
#364=VECTOR('',#594,1.);
#365=VECTOR('',#595,1.);
#366=VECTOR('',#596,1.);
#367=VECTOR('',#597,1.);
#368=VECTOR('',#600,1.);
#369=VECTOR('',#601,1.);
#370=VECTOR('',#602,1.);
#371=VECTOR('',#603,1.);
#372=VECTOR('',#604,1.);
#373=VECTOR('',#605,1.);
#374=VECTOR('',#606,1.);
#375=VECTOR('',#607,1.);
#376=VECTOR('',#608,1.);
#377=VECTOR('',#609,1.);
#378=VECTOR('',#610,1.);
#379=VECTOR('',#611,1.);
#380=VECTOR('',#612,1.);
#381=VECTOR('',#613,1.);
#382=VECTOR('',#614,1.);
#383=VECTOR('',#615,1.);
#384=VECTOR('',#618,1.);
#385=VECTOR('',#619,1.);
#386=VECTOR('',#622,1.);
#387=VECTOR('',#625,1.);
#388=VECTOR('',#626,1.);
#389=VECTOR('',#627,1.);
#390=VECTOR('',#628,1.);
#391=VECTOR('',#629,1.);
#392=VECTOR('',#630,1.);
#393=VECTOR('',#635,1.);
#394=VECTOR('',#636,1.);
#395=VECTOR('',#637,1.);
#396=VECTOR('',#638,1.);
#397=VECTOR('',#639,1.);
#398=VECTOR('',#642,1.);
#399=VECTOR('',#643,1.);
#400=VECTOR('',#648,1.);
#401=VECTOR('',#651,1.);
#402=VECTOR('',#656,1.);
#403=VECTOR('',#657,1.);
#404=VECTOR('',#660,1.);
#405=VECTOR('',#665,1.);
#406=VECTOR('',#666,1.);
#407=VECTOR('',#669,1.);
#408=VECTOR('',#674,1.);
#409=VECTOR('',#675,1.);
#410=VECTOR('',#678,1.);
#411=VECTOR('',#679,1.);
#412=VECTOR('',#686,1.);
#413=VECTOR('',#687,1.);
#414=VECTOR('',#688,1.);
#415=VECTOR('',#691,1.);
#416=VECTOR('',#692,1.);
#417=VECTOR('',#693,1.);
#418=VECTOR('',#696,1.);
#419=VECTOR('',#697,1.);
#420=EDGE_LOOP('',(#12,#13,#14,#15));
#421=EDGE_LOOP('',(#16,#17,#18,#19,#20,#21,#22,#23,#24,#25,#26,#27));
#422=EDGE_LOOP('',(#28,#29,#30,#31));
#423=EDGE_LOOP('',(#32,#33,#34,#35,#36,#37,#38,#39,#40,#41,#42,#43));
#424=EDGE_LOOP('',(#44,#45,#46,#47));
#425=EDGE_LOOP('',(#48,#49,#50,#51));
#426=EDGE_LOOP('',(#52,#53,#54,#55));
#427=EDGE_LOOP('',(#56,#57,#58,#59,#60,#61,#62,#63));
#428=EDGE_LOOP('',(#64,#65,#66,#67));
#429=EDGE_LOOP('',(#68,#69,#70,#71,#72,#73,#74,#75));
#430=EDGE_LOOP('',(#76,#77,#78,#79));
#431=EDGE_LOOP('',(#80,#81,#82,#83));
#432=EDGE_LOOP('',(#84,#85,#86,#87));
#433=EDGE_LOOP('',(#88,#89,#90,#91));
#434=EDGE_LOOP('',(#92,#93,#94,#95));
#435=EDGE_LOOP('',(#96,#97,#98,#99));
#436=EDGE_LOOP('',(#100,#101,#102,#103));
#437=EDGE_LOOP('',(#104,#105,#106,#107));
#438=EDGE_LOOP('',(#108,#109,#110,#111));
#439=EDGE_LOOP('',(#112,#113,#114,#115));
#440=EDGE_LOOP('',(#116,#117,#118,#119));
#441=EDGE_LOOP('',(#120,#121,#122,#123));
#442=EDGE_LOOP('',(#124,#125,#126,#127));
#443=EDGE_LOOP('',(#128,#129,#130,#131));
#444=EDGE_LOOP('',(#132,#133,#134,#135));
#445=EDGE_LOOP('',(#136,#137,#138,#139));
#446=EDGE_LOOP('',(#140,#141,#142,#143));
#447=EDGE_LOOP('',(#144,#145,#146,#147));
#448=EDGE_LOOP('',(#148,#149,#150,#151));
#449=EDGE_LOOP('',(#152,#153,#154,#155));
#450=FACE_BOUND('',#420,.T.);
#451=FACE_BOUND('',#421,.T.);
#452=FACE_BOUND('',#422,.T.);
#453=FACE_BOUND('',#423,.T.);
#454=FACE_BOUND('',#424,.T.);
#455=FACE_BOUND('',#425,.T.);
#456=FACE_BOUND('',#426,.T.);
#457=FACE_BOUND('',#427,.T.);
#458=FACE_BOUND('',#428,.T.);
#459=FACE_BOUND('',#429,.T.);
#460=FACE_BOUND('',#430,.T.);
#461=FACE_BOUND('',#431,.T.);
#462=FACE_BOUND('',#432,.T.);
#463=FACE_BOUND('',#433,.T.);
#464=FACE_BOUND('',#434,.T.);
#465=FACE_BOUND('',#435,.T.);
#466=FACE_BOUND('',#436,.T.);
#467=FACE_BOUND('',#437,.T.);
#468=FACE_BOUND('',#438,.T.);
#469=FACE_BOUND('',#439,.T.);
#470=FACE_BOUND('',#440,.T.);
#471=FACE_BOUND('',#441,.T.);
#472=FACE_BOUND('',#442,.T.);
#473=FACE_BOUND('',#443,.T.);
#474=FACE_BOUND('',#444,.T.);
#475=FACE_BOUND('',#445,.T.);
#476=FACE_BOUND('',#446,.T.);
#477=FACE_BOUND('',#447,.T.);
#478=FACE_BOUND('',#448,.T.);
#479=FACE_BOUND('',#449,.T.);
#480=PLANE('',#547);
#481=PLANE('',#548);
#482=PLANE('',#549);
#483=PLANE('',#550);
#484=PLANE('',#551);
#485=PLANE('',#552);
#486=PLANE('',#553);
#487=PLANE('',#554);
#488=PLANE('',#555);
#489=PLANE('',#556);
#490=PLANE('',#557);
#491=PLANE('',#558);
#492=PLANE('',#559);
#493=PLANE('',#560);
#494=PLANE('',#561);
#495=PLANE('',#562);
#496=PLANE('',#563);
#497=PLANE('',#564);
#498=PLANE('',#565);
#499=PLANE('',#566);
#500=PLANE('',#567);
#501=PLANE('',#568);
#502=PLANE('',#569);
#503=PLANE('',#570);
#504=PLANE('',#571);
#505=PLANE('',#572);
#506=PLANE('',#573);
#507=ADVANCED_FACE('',(#450,#451,#452),#480,.F.);
#508=ADVANCED_FACE('',(#453,#454),#481,.F.);
#509=ADVANCED_FACE('',(#455),#482,.F.);
#510=ADVANCED_FACE('',(#456),#483,.T.);
#511=ADVANCED_FACE('',(#457),#484,.F.);
#512=ADVANCED_FACE('',(#458),#485,.T.);
#513=ADVANCED_FACE('',(#459),#486,.F.);
#514=ADVANCED_FACE('',(#460),#487,.F.);
#515=ADVANCED_FACE('',(#461),#488,.T.);
#516=ADVANCED_FACE('',(#462),#489,.T.);
#517=ADVANCED_FACE('',(#463),#490,.F.);
#518=ADVANCED_FACE('',(#464),#491,.T.);
#519=ADVANCED_FACE('',(#465),#492,.T.);
#520=ADVANCED_FACE('',(#466),#493,.F.);
#521=ADVANCED_FACE('',(#467),#494,.T.);
#522=ADVANCED_FACE('',(#468),#495,.F.);
#523=ADVANCED_FACE('',(#469),#496,.F.);
#524=ADVANCED_FACE('',(#470),#497,.T.);
#525=ADVANCED_FACE('',(#471),#498,.F.);
#526=ADVANCED_FACE('',(#472),#499,.T.);
#527=ADVANCED_FACE('',(#473),#500,.F.);
#528=ADVANCED_FACE('',(#474),#501,.T.);
#529=ADVANCED_FACE('',(#475),#502,.F.);
#530=ADVANCED_FACE('',(#476),#503,.T.);
#531=ADVANCED_FACE('',(#477),#504,.T.);
#532=ADVANCED_FACE('',(#478),#505,.F.);
#533=ADVANCED_FACE('',(#479),#506,.T.);
#534=CLOSED_SHELL('',(#507,#508,#509,#510,#511,#512,#513,#514,#515,#516,
#517,#518,#519,#520,#521,#522,#523,#524,#525,#526,#527,#528,#529,#530,#531,
#532,#533));
#535=STYLED_ITEM('',(#536),#543);
#536=PRESENTATION_STYLE_ASSIGNMENT((#537));
#537=SURFACE_STYLE_USAGE(.BOTH.,#538);
#538=SURFACE_SIDE_STYLE('',(#539));
#539=SURFACE_STYLE_FILL_AREA(#540);
#540=FILL_AREA_STYLE('',(#541));
#541=FILL_AREA_STYLE_COLOUR('',#542);
#542=COLOUR_RGB('',0.96078431372549,0.901960784313726,0.862745098039216);
#543=MANIFOLD_SOLID_BREP('Part 1',#534);
#544=SHAPE_DEFINITION_REPRESENTATION(#856,#545);
#545=SHAPE_REPRESENTATION('Part 1',(#546),#851);
#546=AXIS2_PLACEMENT_3D('',#702,#574,#575);
#547=AXIS2_PLACEMENT_3D('',#703,#576,#577);
#548=AXIS2_PLACEMENT_3D('',#744,#598,#599);
#549=AXIS2_PLACEMENT_3D('',#777,#616,#617);
#550=AXIS2_PLACEMENT_3D('',#780,#620,#621);
#551=AXIS2_PLACEMENT_3D('',#782,#623,#624);
#552=AXIS2_PLACEMENT_3D('',#793,#631,#632);
#553=AXIS2_PLACEMENT_3D('',#794,#633,#634);
#554=AXIS2_PLACEMENT_3D('',#802,#640,#641);
#555=AXIS2_PLACEMENT_3D('',#805,#644,#645);
#556=AXIS2_PLACEMENT_3D('',#806,#646,#647);
#557=AXIS2_PLACEMENT_3D('',#808,#649,#650);
#558=AXIS2_PLACEMENT_3D('',#810,#652,#653);
#559=AXIS2_PLACEMENT_3D('',#811,#654,#655);
#560=AXIS2_PLACEMENT_3D('',#815,#658,#659);
#561=AXIS2_PLACEMENT_3D('',#817,#661,#662);
#562=AXIS2_PLACEMENT_3D('',#818,#663,#664);
#563=AXIS2_PLACEMENT_3D('',#822,#667,#668);
#564=AXIS2_PLACEMENT_3D('',#824,#670,#671);
#565=AXIS2_PLACEMENT_3D('',#825,#672,#673);
#566=AXIS2_PLACEMENT_3D('',#828,#676,#677);
#567=AXIS2_PLACEMENT_3D('',#831,#680,#681);
#568=AXIS2_PLACEMENT_3D('',#832,#682,#683);
#569=AXIS2_PLACEMENT_3D('',#833,#684,#685);
#570=AXIS2_PLACEMENT_3D('',#839,#689,#690);
#571=AXIS2_PLACEMENT_3D('',#845,#694,#695);
#572=AXIS2_PLACEMENT_3D('',#848,#698,#699);
#573=AXIS2_PLACEMENT_3D('',#849,#700,#701);
#574=DIRECTION('',(0.,0.,1.));
#575=DIRECTION('',(1.,0.,0.));
#576=DIRECTION('',(1.,0.,0.));
#577=DIRECTION('',(0.,1.,0.));
#578=DIRECTION('',(0.,0.,-1.));
#579=DIRECTION('',(0.,-1.,0.));
#580=DIRECTION('',(0.,0.,-1.));
#581=DIRECTION('',(0.,-1.,0.));
#582=DIRECTION('',(0.,1.,0.));
#583=DIRECTION('',(0.,0.,-1.));
#584=DIRECTION('',(0.,1.,0.));
#585=DIRECTION('',(0.,0.,-1.));
#586=DIRECTION('',(0.,1.,0.));
#587=DIRECTION('',(0.,0.,-1.));
#588=DIRECTION('',(0.,1.,0.));
#589=DIRECTION('',(0.,0.,-1.));
#590=DIRECTION('',(0.,1.,0.));
#591=DIRECTION('',(0.,0.,-1.));
#592=DIRECTION('',(0.,1.,0.));
#593=DIRECTION('',(0.,0.,-1.));
#594=DIRECTION('',(0.,0.,-1.));
#595=DIRECTION('',(0.,-1.,0.));
#596=DIRECTION('',(0.,0.,-1.));
#597=DIRECTION('',(0.,-1.,0.));
#598=DIRECTION('',(-1.,0.,0.));
#599=DIRECTION('',(0.,-1.,0.));
#600=DIRECTION('',(0.,0.,-1.));
#601=DIRECTION('',(0.,1.,0.));
#602=DIRECTION('',(0.,0.,-1.));
#603=DIRECTION('',(0.,1.,0.));
#604=DIRECTION('',(0.,0.,-1.));
#605=DIRECTION('',(0.,1.,0.));
#606=DIRECTION('',(0.,0.,-1.));
#607=DIRECTION('',(0.,1.,0.));
#608=DIRECTION('',(0.,0.,1.));
#609=DIRECTION('',(0.,1.,0.));
#610=DIRECTION('',(0.,0.,1.));
#611=DIRECTION('',(0.,1.,0.));
#612=DIRECTION('',(0.,0.,1.));
#613=DIRECTION('',(0.,-1.,0.));
#614=DIRECTION('',(0.,0.,1.));
#615=DIRECTION('',(0.,-1.,0.));
#616=DIRECTION('',(0.,1.,0.));
#617=DIRECTION('',(0.,0.,1.));
#618=DIRECTION('',(1.,0.,0.));
#619=DIRECTION('',(1.,0.,0.));
#620=DIRECTION('',(0.,0.,1.));
#621=DIRECTION('',(1.,0.,0.));
#622=DIRECTION('',(1.,0.,0.));
#623=DIRECTION('',(0.,0.,1.));
#624=DIRECTION('',(1.,0.,0.));
#625=DIRECTION('',(1.,0.,0.));
#626=DIRECTION('',(0.,1.,0.));
#627=DIRECTION('',(-1.,0.,0.));
#628=DIRECTION('',(1.,0.,0.));
#629=DIRECTION('',(1.,0.,0.));
#630=DIRECTION('',(0.,1.,0.));
#631=DIRECTION('',(0.,-1.,0.));
#632=DIRECTION('',(1.,0.,0.));
#633=DIRECTION('',(0.,-1.,0.));
#634=DIRECTION('',(1.,0.,0.));
#635=DIRECTION('',(0.,0.,1.));
#636=DIRECTION('',(1.,0.,0.));
#637=DIRECTION('',(1.,0.,0.));
#638=DIRECTION('',(-1.,0.,0.));
#639=DIRECTION('',(0.,0.,-1.));
#640=DIRECTION('',(0.,1.,0.));
#641=DIRECTION('',(0.,0.,1.));
#642=DIRECTION('',(1.,0.,0.));
#643=DIRECTION('',(1.,0.,0.));
#644=DIRECTION('',(0.,0.,1.));
#645=DIRECTION('',(1.,0.,0.));
#646=DIRECTION('',(0.,0.,1.));
#647=DIRECTION('',(1.,0.,0.));
#648=DIRECTION('',(1.,0.,0.));
#649=DIRECTION('',(0.,0.,1.));
#650=DIRECTION('',(1.,0.,0.));
#651=DIRECTION('',(1.,0.,0.));
#652=DIRECTION('',(0.,-1.,0.));
#653=DIRECTION('',(1.,0.,0.));
#654=DIRECTION('',(0.,0.,1.));
#655=DIRECTION('',(1.,0.,0.));
#656=DIRECTION('',(-1.,0.,0.));
#657=DIRECTION('',(0.,1.,0.));
#658=DIRECTION('',(0.,1.,0.));
#659=DIRECTION('',(0.,0.,1.));
#660=DIRECTION('',(0.,0.,-1.));
#661=DIRECTION('',(1.,0.,0.));
#662=DIRECTION('',(0.,1.,0.));
#663=DIRECTION('',(0.,1.,0.));
#664=DIRECTION('',(0.,0.,1.));
#665=DIRECTION('',(1.,0.,0.));
#666=DIRECTION('',(0.,0.,1.));
#667=DIRECTION('',(0.,0.,-1.));
#668=DIRECTION('',(-1.,0.,0.));
#669=DIRECTION('',(0.,1.,0.));
#670=DIRECTION('',(-1.,0.,0.));
#671=DIRECTION('',(0.,-1.,0.));
#672=DIRECTION('',(0.,0.,-1.));
#673=DIRECTION('',(-1.,0.,0.));
#674=DIRECTION('',(1.,0.,0.));
#675=DIRECTION('',(1.,0.,0.));
#676=DIRECTION('',(0.,0.,-1.));
#677=DIRECTION('',(-1.,0.,0.));
#678=DIRECTION('',(1.,0.,0.));
#679=DIRECTION('',(1.,0.,0.));
#680=DIRECTION('',(0.,-1.,0.));
#681=DIRECTION('',(1.,0.,0.));
#682=DIRECTION('',(0.,-1.,0.));
#683=DIRECTION('',(1.,0.,0.));
#684=DIRECTION('',(0.,0.,-1.));
#685=DIRECTION('',(-1.,0.,0.));
#686=DIRECTION('',(1.,0.,0.));
#687=DIRECTION('',(1.,0.,0.));
#688=DIRECTION('',(0.,-1.,0.));
#689=DIRECTION('',(-1.,0.,0.));
#690=DIRECTION('',(0.,0.,1.));
#691=DIRECTION('',(0.,0.,-1.));
#692=DIRECTION('',(0.,0.,-1.));
#693=DIRECTION('',(0.,-1.,0.));
#694=DIRECTION('',(0.,0.,-1.));
#695=DIRECTION('',(-1.,0.,0.));
#696=DIRECTION('',(1.,0.,0.));
#697=DIRECTION('',(1.,0.,0.));
#698=DIRECTION('',(0.,-1.,0.));
#699=DIRECTION('',(1.,0.,0.));
#700=DIRECTION('',(0.,-1.,0.));
#701=DIRECTION('',(1.,0.,0.));
#702=CARTESIAN_POINT('',(0.,0.,0.));
#703=CARTESIAN_POINT('',(0.,-0.0133412387222052,0.0256058406084776));
#704=CARTESIAN_POINT('',(0.,-0.0084,0.00800030049867928));
#705=CARTESIAN_POINT('',(0.,-0.0084,0.0093009639531374));
#706=CARTESIAN_POINT('',(0.,-0.0084,0.00669963704422116));
#707=CARTESIAN_POINT('',(0.,-0.0084,0.0093009639531374));
#708=CARTESIAN_POINT('',(0.,-0.0095,0.0093009639531374));
#709=CARTESIAN_POINT('',(0.,-0.0095,0.00800030049867928));
#710=CARTESIAN_POINT('',(0.,-0.0095,0.00669963704422116));
#711=CARTESIAN_POINT('',(0.,-0.0084,0.00669963704422116));
#712=CARTESIAN_POINT('',(0.,-0.01,0.045));
#713=CARTESIAN_POINT('',(0.,-0.0025,0.045));
#714=CARTESIAN_POINT('',(0.,0.,0.045));
#715=CARTESIAN_POINT('',(0.,-0.0025,0.045));
#716=CARTESIAN_POINT('',(0.,-0.0025,0.0281605856120586));
#717=CARTESIAN_POINT('',(0.,-0.0095,0.0281605856120586));
#718=CARTESIAN_POINT('',(0.,-0.0095,0.0281605856120586));
#719=CARTESIAN_POINT('',(0.,-0.0095,0.045));
#720=CARTESIAN_POINT('',(0.,-0.0095,0.0256605856120586));
#721=CARTESIAN_POINT('',(0.,-0.0095,0.0256605856120586));
#722=CARTESIAN_POINT('',(0.,-0.0025,0.0256605856120586));
#723=CARTESIAN_POINT('',(0.,-0.0025,0.045));
#724=CARTESIAN_POINT('',(0.,-0.0025,0.005));
#725=CARTESIAN_POINT('',(0.,-0.01,0.005));
#726=CARTESIAN_POINT('',(0.,-0.01,0.005));
#727=CARTESIAN_POINT('',(0.,-0.01,0.0025));
#728=CARTESIAN_POINT('',(0.,-0.01,0.));
#729=CARTESIAN_POINT('',(0.,-0.0133412387222052,0.));
#730=CARTESIAN_POINT('',(0.,-0.0116824774444103,0.));
#731=CARTESIAN_POINT('',(0.,-0.0116824774444103,0.0256058406084776));
#732=CARTESIAN_POINT('',(0.,-0.0116824774444103,0.0512116812169552));
#733=CARTESIAN_POINT('',(0.,-0.0133412387222052,0.0512116812169552));
#734=CARTESIAN_POINT('',(0.,0.,0.0512116812169552));
#735=CARTESIAN_POINT('',(0.,0.,0.0256058406084776));
#736=CARTESIAN_POINT('',(0.,-0.0084,0.0340135730803013));
#737=CARTESIAN_POINT('',(0.,-0.0084,0.0354768186807633));
#738=CARTESIAN_POINT('',(0.,-0.0084,0.0325503274798394));
#739=CARTESIAN_POINT('',(0.,-0.0084,0.0354768186807633));
#740=CARTESIAN_POINT('',(0.,-0.0095,0.0354768186807633));
#741=CARTESIAN_POINT('',(0.,-0.0095,0.0340135730803013));
#742=CARTESIAN_POINT('',(0.,-0.0095,0.0325503274798394));
#743=CARTESIAN_POINT('',(0.,-0.0084,0.0325503274798394));
#744=CARTESIAN_POINT('',(-0.035,-0.0134059470146894,0.0258061178028583));
#745=CARTESIAN_POINT('',(-0.035,-0.01,0.0025));
#746=CARTESIAN_POINT('',(-0.035,-0.01,0.005));
#747=CARTESIAN_POINT('',(-0.035,-0.01,0.));
#748=CARTESIAN_POINT('',(-0.035,-0.01,0.005));
#749=CARTESIAN_POINT('',(-0.035,-0.0025,0.005));
#750=CARTESIAN_POINT('',(-0.035,-0.0025,0.045));
#751=CARTESIAN_POINT('',(-0.035,-0.0025,0.0256605856120586));
#752=CARTESIAN_POINT('',(-0.035,-0.0095,0.0256605856120586));
#753=CARTESIAN_POINT('',(-0.035,-0.0095,0.0256605856120586));
#754=CARTESIAN_POINT('',(-0.035,-0.0095,0.045));
#755=CARTESIAN_POINT('',(-0.035,-0.0095,0.0281605856120586));
#756=CARTESIAN_POINT('',(-0.035,-0.0095,0.0281605856120586));
#757=CARTESIAN_POINT('',(-0.035,-0.0025,0.0281605856120586));
#758=CARTESIAN_POINT('',(-0.035,-0.0025,0.045));
#759=CARTESIAN_POINT('',(-0.035,-0.0025,0.045));
#760=CARTESIAN_POINT('',(-0.035,-0.01,0.045));
#761=CARTESIAN_POINT('',(-0.035,0.,0.045));
#762=CARTESIAN_POINT('',(-0.035,0.,0.0258061178028583));
#763=CARTESIAN_POINT('',(-0.035,0.,0.0516122356057167));
#764=CARTESIAN_POINT('',(-0.035,-0.0134059470146894,0.0516122356057167));
#765=CARTESIAN_POINT('',(-0.035,-0.0118118940293789,0.0516122356057167));
#766=CARTESIAN_POINT('',(-0.035,-0.0118118940293789,0.0258061178028583));
#767=CARTESIAN_POINT('',(-0.035,-0.0118118940293789,0.));
#768=CARTESIAN_POINT('',(-0.035,-0.0134059470146894,0.));
#769=CARTESIAN_POINT('',(-0.035,-0.0084,0.0258061178028583));
#770=CARTESIAN_POINT('',(-0.035,-0.0084,0.0325503274798394));
#771=CARTESIAN_POINT('',(-0.035,-0.0084,0.0354768186807633));
#772=CARTESIAN_POINT('',(-0.035,-0.0134059470146894,0.0325503274798394));
#773=CARTESIAN_POINT('',(-0.035,-0.0095,0.0325503274798394));
#774=CARTESIAN_POINT('',(-0.035,-0.0095,0.0258061178028583));
#775=CARTESIAN_POINT('',(-0.035,-0.0095,0.0354768186807633));
#776=CARTESIAN_POINT('',(-0.035,-0.0134059470146894,0.0354768186807633));
#777=CARTESIAN_POINT('',(-0.0175,-0.0025,0.045));
#778=CARTESIAN_POINT('',(-0.0175,-0.0025,0.0256605856120586));
#779=CARTESIAN_POINT('',(-0.0175,-0.0025,0.005));
#780=CARTESIAN_POINT('',(-0.0175,-0.01,0.005));
#781=CARTESIAN_POINT('',(-0.0175,-0.01,0.005));
#782=CARTESIAN_POINT('',(-0.0175,-0.01,0.));
#783=CARTESIAN_POINT('',(-0.0175,0.,0.));
#784=CARTESIAN_POINT('',(-0.0375,0.,0.));
#785=CARTESIAN_POINT('',(0.0025,0.,0.));
#786=CARTESIAN_POINT('',(0.0025,-0.0133412387222052,0.));
#787=CARTESIAN_POINT('',(0.0025,-0.0116824774444103,0.));
#788=CARTESIAN_POINT('',(-0.0175,-0.0116824774444103,0.));
#789=CARTESIAN_POINT('',(-0.0175,-0.01,0.));
#790=CARTESIAN_POINT('',(-0.0375,-0.0118118940293789,0.));
#791=CARTESIAN_POINT('',(-0.0375,-0.0118118940293789,0.));
#792=CARTESIAN_POINT('',(-0.0375,-0.0134059470146894,0.));
#793=CARTESIAN_POINT('',(-0.0175,-0.01,0.0025));
#794=CARTESIAN_POINT('',(-0.0175,0.,0.0025));
#795=CARTESIAN_POINT('',(-0.0375,0.,0.0258061178028583));
#796=CARTESIAN_POINT('',(-0.0375,0.,0.0516122356057167));
#797=CARTESIAN_POINT('',(-0.0375,0.,0.0516122356057167));
#798=CARTESIAN_POINT('',(-0.0175,0.,0.045));
#799=CARTESIAN_POINT('',(0.0025,0.,0.0512116812169552));
#800=CARTESIAN_POINT('',(0.0025,0.,0.0512116812169552));
#801=CARTESIAN_POINT('',(0.0025,0.,0.0256058406084776));
#802=CARTESIAN_POINT('',(-0.0175,-0.0025,0.045));
#803=CARTESIAN_POINT('',(-0.0175,-0.0025,0.0281605856120586));
#804=CARTESIAN_POINT('',(-0.0175,-0.0025,0.045));
#805=CARTESIAN_POINT('',(-0.0175,-0.005,0.045));
#806=CARTESIAN_POINT('',(-0.0175,-0.0095,0.0281605856120586));
#807=CARTESIAN_POINT('',(-0.0175,-0.0095,0.0281605856120586));
#808=CARTESIAN_POINT('',(-0.0175,-0.0095,0.0256605856120586));
#809=CARTESIAN_POINT('',(-0.0175,-0.0095,0.0256605856120586));
#810=CARTESIAN_POINT('',(-0.0175,-0.0095,0.025));
#811=CARTESIAN_POINT('',(0.0025,-0.0133412387222052,0.0512116812169552));
#812=CARTESIAN_POINT('',(0.0025,-0.0116824774444103,0.0512116812169552));
#813=CARTESIAN_POINT('',(0.0025,-0.0116824774444103,0.0512116812169552));
#814=CARTESIAN_POINT('',(0.0025,-0.0133412387222052,0.0512116812169552));
#815=CARTESIAN_POINT('',(0.0025,-0.0116824774444103,0.0256058406084776));
#816=CARTESIAN_POINT('',(0.0025,-0.0116824774444103,0.0256058406084776));
#817=CARTESIAN_POINT('',(0.0025,-0.0133412387222052,0.0256058406084776));
#818=CARTESIAN_POINT('',(-0.0375,-0.0118118940293789,0.0258061178028583));
#819=CARTESIAN_POINT('',(-0.0375,-0.0118118940293789,0.0516122356057167));
#820=CARTESIAN_POINT('',(-0.0375,-0.0118118940293789,0.0516122356057167));
#821=CARTESIAN_POINT('',(-0.0375,-0.0118118940293789,0.0258061178028583));
#822=CARTESIAN_POINT('',(-0.0375,-0.0134059470146894,0.0516122356057167));
#823=CARTESIAN_POINT('',(-0.0375,-0.0134059470146894,0.0516122356057167));
#824=CARTESIAN_POINT('',(-0.0375,-0.0134059470146894,0.0258061178028583));
#825=CARTESIAN_POINT('',(-0.017570124939084,-0.0084,0.0354768186807633));
#826=CARTESIAN_POINT('',(-0.017570124939084,-0.0084,0.0354768186807633));
#827=CARTESIAN_POINT('',(-0.017570124939084,-0.0095,0.0354768186807633));
#828=CARTESIAN_POINT('',(-0.017570124939084,-0.0084,0.0325503274798394));
#829=CARTESIAN_POINT('',(-0.017570124939084,-0.0084,0.0325503274798394));
#830=CARTESIAN_POINT('',(-0.017570124939084,-0.0095,0.0325503274798394));
#831=CARTESIAN_POINT('',(-0.017570124939084,-0.0084,0.0210882278624922));
#832=CARTESIAN_POINT('',(-0.017570124939084,-0.0095,0.0210882278624922));
#833=CARTESIAN_POINT('',(-0.0174888335168361,-0.0084,0.0093009639531374));
#834=CARTESIAN_POINT('',(-0.0174888335168361,-0.0095,0.0093009639531374));
#835=CARTESIAN_POINT('',(-0.0349776670336723,-0.0095,0.0093009639531374));
#836=CARTESIAN_POINT('',(-0.0174888335168361,-0.0084,0.0093009639531374));
#837=CARTESIAN_POINT('',(-0.0349776670336723,-0.0084,0.0093009639531374));
#838=CARTESIAN_POINT('',(-0.0349776670336723,-0.0084,0.0093009639531374));
#839=CARTESIAN_POINT('',(-0.0349776670336723,-0.0084,0.00800030049867928));
#840=CARTESIAN_POINT('',(-0.0349776670336723,-0.0095,0.00800030049867928));
#841=CARTESIAN_POINT('',(-0.0349776670336723,-0.0095,0.00669963704422116));
#842=CARTESIAN_POINT('',(-0.0349776670336723,-0.0084,0.00800030049867928));
#843=CARTESIAN_POINT('',(-0.0349776670336723,-0.0084,0.00669963704422116));
#844=CARTESIAN_POINT('',(-0.0349776670336723,-0.0084,0.00669963704422116));
#845=CARTESIAN_POINT('',(-0.0174888335168361,-0.0084,0.00669963704422116));
#846=CARTESIAN_POINT('',(-0.0174888335168361,-0.0095,0.00669963704422116));
#847=CARTESIAN_POINT('',(-0.0174888335168361,-0.0084,0.00669963704422116));
#848=CARTESIAN_POINT('',(-0.017570124939084,-0.0084,0.0210882278624922));
#849=CARTESIAN_POINT('',(-0.017570124939084,-0.0095,0.0210882278624922));
#850=MECHANICAL_DESIGN_GEOMETRIC_PRESENTATION_REPRESENTATION('',(#535),
#851);
#851=(
GEOMETRIC_REPRESENTATION_CONTEXT(3)
GLOBAL_UNCERTAINTY_ASSIGNED_CONTEXT((#852))
GLOBAL_UNIT_ASSIGNED_CONTEXT((#855,#854,#853))
REPRESENTATION_CONTEXT('Part 1','TOP_LEVEL_ASSEMBLY_PART')
);
#852=UNCERTAINTY_MEASURE_WITH_UNIT(LENGTH_MEASURE(1.E-8),#855,
'DISTANCE_ACCURACY_VALUE','Maximum Tolerance applied to model');
#853=(
NAMED_UNIT(*)
SI_UNIT($,.STERADIAN.)
SOLID_ANGLE_UNIT()
);
#854=(
NAMED_UNIT(*)
PLANE_ANGLE_UNIT()
SI_UNIT($,.RADIAN.)
);
#855=(
LENGTH_UNIT()
NAMED_UNIT(*)
SI_UNIT($,.METRE.)
);
#856=PRODUCT_DEFINITION_SHAPE('','',#857);
#857=PRODUCT_DEFINITION('','',#859,#858);
#858=PRODUCT_DEFINITION_CONTEXT('',#865,'design');
#859=PRODUCT_DEFINITION_FORMATION_WITH_SPECIFIED_SOURCE('','',#861,
 .NOT_KNOWN.);
#860=PRODUCT_RELATED_PRODUCT_CATEGORY('','',(#861));
#861=PRODUCT('Part 1','Part 1','Part 1',(#863));
#862=PRODUCT_CATEGORY('','');
#863=PRODUCT_CONTEXT('',#865,'mechanical');
#864=APPLICATION_PROTOCOL_DEFINITION('international standard',
'ap242_managed_model_based_3d_engineering',2020,#865);
#865=APPLICATION_CONTEXT('managed model based 3d engineering');
ENDSEC;
END-ISO-10303-21;
