ISO-10303-21;
HEADER;
/* Generated by software containing ST-Developer
 * from STEP Tools, Inc. (www.steptools.com) 
 */
/* OPTION: using custom renumber hook */

FILE_DESCRIPTION(
/* description */ ('STEP AP242 Edition 2',
'CAx-IF Rec.Pracs.---Representation and Presentation of Product Manufa
cturing Information (PMI)---4.0---2014-10-13',
'CAx-IF Rec.Pracs.---3D Tessellated Geometry---0.4---2014-09-14','2;1',
'CAx-IF Rec.Pracs.---User Defined Attributes---1.5---2016-08-15'),
/* implementation_level */ '2;1');

FILE_NAME(
/* name */ 'desktop - Part 2',
/* time_stamp */ '2026-08-29T04:50:04Z',
/* author */ (''),
/* organization */ (''),
/* preprocessor_version */ 'ST-DEVELOPER v20',
/* originating_system */ 'ONSHAPE BY PTC INC, 1.220',
/* authorisation */ '  ');

FILE_SCHEMA (('AP242_MANAGED_MODEL_BASED_3D_ENGINEERING_MIM_LF { 1 0 10303 442 3 1 4 }'));
ENDSEC;

DATA;
#10=SHAPE_REPRESENTATION_RELATIONSHIP('','',#263,#11);
#11=ADVANCED_BREP_SHAPE_REPRESENTATION('',(#261),#415);
#12=CYLINDRICAL_SURFACE('',#278,0.00110223539448796);
#13=CIRCLE('',#271,0.00110223539448796);
#14=CIRCLE('',#279,0.00110223539448796);
#15=ORIENTED_EDGE('',*,*,#79,.F.);
#16=ORIENTED_EDGE('',*,*,#80,.T.);
#17=ORIENTED_EDGE('',*,*,#81,.F.);
#18=ORIENTED_EDGE('',*,*,#82,.T.);
#19=ORIENTED_EDGE('',*,*,#83,.F.);
#20=ORIENTED_EDGE('',*,*,#84,.F.);
#21=ORIENTED_EDGE('',*,*,#85,.T.);
#22=ORIENTED_EDGE('',*,*,#86,.T.);
#23=ORIENTED_EDGE('',*,*,#87,.F.);
#24=ORIENTED_EDGE('',*,*,#85,.F.);
#25=ORIENTED_EDGE('',*,*,#88,.T.);
#26=ORIENTED_EDGE('',*,*,#89,.T.);
#27=ORIENTED_EDGE('',*,*,#90,.F.);
#28=ORIENTED_EDGE('',*,*,#89,.F.);
#29=ORIENTED_EDGE('',*,*,#91,.T.);
#30=ORIENTED_EDGE('',*,*,#92,.T.);
#31=ORIENTED_EDGE('',*,*,#83,.T.);
#32=ORIENTED_EDGE('',*,*,#93,.T.);
#33=ORIENTED_EDGE('',*,*,#94,.T.);
#34=ORIENTED_EDGE('',*,*,#95,.T.);
#35=ORIENTED_EDGE('',*,*,#96,.T.);
#36=ORIENTED_EDGE('',*,*,#97,.T.);
#37=ORIENTED_EDGE('',*,*,#92,.F.);
#38=ORIENTED_EDGE('',*,*,#98,.F.);
#39=ORIENTED_EDGE('',*,*,#84,.T.);
#40=ORIENTED_EDGE('',*,*,#98,.T.);
#41=ORIENTED_EDGE('',*,*,#91,.F.);
#42=ORIENTED_EDGE('',*,*,#88,.F.);
#43=ORIENTED_EDGE('',*,*,#99,.F.);
#44=ORIENTED_EDGE('',*,*,#100,.F.);
#45=ORIENTED_EDGE('',*,*,#86,.F.);
#46=ORIENTED_EDGE('',*,*,#87,.T.);
#47=ORIENTED_EDGE('',*,*,#90,.T.);
#48=ORIENTED_EDGE('',*,*,#97,.F.);
#49=ORIENTED_EDGE('',*,*,#101,.F.);
#50=ORIENTED_EDGE('',*,*,#100,.T.);
#51=ORIENTED_EDGE('',*,*,#102,.F.);
#52=ORIENTED_EDGE('',*,*,#103,.F.);
#53=ORIENTED_EDGE('',*,*,#79,.T.);
#54=ORIENTED_EDGE('',*,*,#101,.T.);
#55=ORIENTED_EDGE('',*,*,#96,.F.);
#56=ORIENTED_EDGE('',*,*,#104,.F.);
#57=ORIENTED_EDGE('',*,*,#102,.T.);
#58=ORIENTED_EDGE('',*,*,#105,.F.);
#59=ORIENTED_EDGE('',*,*,#80,.F.);
#60=ORIENTED_EDGE('',*,*,#103,.T.);
#61=ORIENTED_EDGE('',*,*,#104,.T.);
#62=ORIENTED_EDGE('',*,*,#95,.F.);
#63=ORIENTED_EDGE('',*,*,#106,.F.);
#64=ORIENTED_EDGE('',*,*,#105,.T.);
#65=ORIENTED_EDGE('',*,*,#107,.F.);
#66=ORIENTED_EDGE('',*,*,#108,.F.);
#67=ORIENTED_EDGE('',*,*,#81,.T.);
#68=ORIENTED_EDGE('',*,*,#106,.T.);
#69=ORIENTED_EDGE('',*,*,#94,.F.);
#70=ORIENTED_EDGE('',*,*,#109,.F.);
#71=ORIENTED_EDGE('',*,*,#107,.T.);
#72=ORIENTED_EDGE('',*,*,#108,.T.);
#73=ORIENTED_EDGE('',*,*,#109,.T.);
#74=ORIENTED_EDGE('',*,*,#93,.F.);
#75=ORIENTED_EDGE('',*,*,#82,.F.);
#76=ORIENTED_EDGE('',*,*,#110,.F.);
#77=ORIENTED_EDGE('',*,*,#99,.T.);
#78=ORIENTED_EDGE('',*,*,#110,.T.);
#79=EDGE_CURVE('',#111,#112,#133,.T.);
#80=EDGE_CURVE('',#111,#113,#134,.T.);
#81=EDGE_CURVE('',#114,#113,#135,.T.);
#82=EDGE_CURVE('',#114,#115,#136,.T.);
#83=EDGE_CURVE('',#116,#115,#137,.T.);
#84=EDGE_CURVE('',#117,#116,#138,.T.);
#85=EDGE_CURVE('',#117,#118,#139,.T.);
#86=EDGE_CURVE('',#118,#112,#140,.T.);
#87=EDGE_CURVE('',#118,#119,#141,.T.);
#88=EDGE_CURVE('',#117,#120,#142,.T.);
#89=EDGE_CURVE('',#120,#119,#143,.T.);
#90=EDGE_CURVE('',#119,#121,#144,.T.);
#91=EDGE_CURVE('',#120,#122,#145,.T.);
#92=EDGE_CURVE('',#122,#121,#146,.T.);
#93=EDGE_CURVE('',#115,#123,#147,.T.);
#94=EDGE_CURVE('',#123,#124,#148,.T.);
#95=EDGE_CURVE('',#124,#125,#149,.T.);
#96=EDGE_CURVE('',#125,#126,#150,.T.);
#97=EDGE_CURVE('',#126,#121,#151,.T.);
#98=EDGE_CURVE('',#116,#122,#152,.T.);
#99=EDGE_CURVE('',#127,#127,#13,.T.);
#100=EDGE_CURVE('',#112,#128,#153,.T.);
#101=EDGE_CURVE('',#128,#126,#154,.T.);
#102=EDGE_CURVE('',#129,#128,#155,.T.);
#103=EDGE_CURVE('',#111,#129,#156,.T.);
#104=EDGE_CURVE('',#129,#125,#157,.T.);
#105=EDGE_CURVE('',#113,#130,#158,.T.);
#106=EDGE_CURVE('',#130,#124,#159,.T.);
#107=EDGE_CURVE('',#131,#130,#160,.T.);
#108=EDGE_CURVE('',#114,#131,#161,.T.);
#109=EDGE_CURVE('',#131,#123,#162,.T.);
#110=EDGE_CURVE('',#132,#132,#14,.T.);
#111=VERTEX_POINT('',#348);
#112=VERTEX_POINT('',#349);
#113=VERTEX_POINT('',#351);
#114=VERTEX_POINT('',#353);
#115=VERTEX_POINT('',#355);
#116=VERTEX_POINT('',#357);
#117=VERTEX_POINT('',#359);
#118=VERTEX_POINT('',#361);
#119=VERTEX_POINT('',#365);
#120=VERTEX_POINT('',#367);
#121=VERTEX_POINT('',#371);
#122=VERTEX_POINT('',#373);
#123=VERTEX_POINT('',#377);
#124=VERTEX_POINT('',#379);
#125=VERTEX_POINT('',#381);
#126=VERTEX_POINT('',#383);
#127=VERTEX_POINT('',#389);
#128=VERTEX_POINT('',#391);
#129=VERTEX_POINT('',#395);
#130=VERTEX_POINT('',#401);
#131=VERTEX_POINT('',#405);
#132=VERTEX_POINT('',#412);
#133=LINE('',#347,#163);
#134=LINE('',#350,#164);
#135=LINE('',#352,#165);
#136=LINE('',#354,#166);
#137=LINE('',#356,#167);
#138=LINE('',#358,#168);
#139=LINE('',#360,#169);
#140=LINE('',#362,#170);
#141=LINE('',#364,#171);
#142=LINE('',#366,#172);
#143=LINE('',#368,#173);
#144=LINE('',#370,#174);
#145=LINE('',#372,#175);
#146=LINE('',#374,#176);
#147=LINE('',#376,#177);
#148=LINE('',#378,#178);
#149=LINE('',#380,#179);
#150=LINE('',#382,#180);
#151=LINE('',#384,#181);
#152=LINE('',#385,#182);
#153=LINE('',#390,#183);
#154=LINE('',#392,#184);
#155=LINE('',#394,#185);
#156=LINE('',#396,#186);
#157=LINE('',#398,#187);
#158=LINE('',#400,#188);
#159=LINE('',#402,#189);
#160=LINE('',#404,#190);
#161=LINE('',#406,#191);
#162=LINE('',#408,#192);
#163=VECTOR('',#285,1.);
#164=VECTOR('',#286,1.);
#165=VECTOR('',#287,1.);
#166=VECTOR('',#288,1.);
#167=VECTOR('',#289,1.);
#168=VECTOR('',#290,1.);
#169=VECTOR('',#291,1.);
#170=VECTOR('',#292,1.);
#171=VECTOR('',#295,1.);
#172=VECTOR('',#296,1.);
#173=VECTOR('',#297,1.);
#174=VECTOR('',#300,1.);
#175=VECTOR('',#301,1.);
#176=VECTOR('',#302,1.);
#177=VECTOR('',#305,1.);
#178=VECTOR('',#306,1.);
#179=VECTOR('',#307,1.);
#180=VECTOR('',#308,1.);
#181=VECTOR('',#309,1.);
#182=VECTOR('',#310,1.);
#183=VECTOR('',#317,1.);
#184=VECTOR('',#318,1.);
#185=VECTOR('',#321,1.);
#186=VECTOR('',#322,1.);
#187=VECTOR('',#325,1.);
#188=VECTOR('',#328,1.);
#189=VECTOR('',#329,1.);
#190=VECTOR('',#332,1.);
#191=VECTOR('',#333,1.);
#192=VECTOR('',#336,1.);
#193=EDGE_LOOP('',(#15,#16,#17,#18,#19,#20,#21,#22));
#194=EDGE_LOOP('',(#23,#24,#25,#26));
#195=EDGE_LOOP('',(#27,#28,#29,#30));
#196=EDGE_LOOP('',(#31,#32,#33,#34,#35,#36,#37,#38));
#197=EDGE_LOOP('',(#39,#40,#41,#42));
#198=EDGE_LOOP('',(#43));
#199=EDGE_LOOP('',(#44,#45,#46,#47,#48,#49));
#200=EDGE_LOOP('',(#50,#51,#52,#53));
#201=EDGE_LOOP('',(#54,#55,#56,#57));
#202=EDGE_LOOP('',(#58,#59,#60,#61,#62,#63));
#203=EDGE_LOOP('',(#64,#65,#66,#67));
#204=EDGE_LOOP('',(#68,#69,#70,#71));
#205=EDGE_LOOP('',(#72,#73,#74,#75));
#206=EDGE_LOOP('',(#76));
#207=EDGE_LOOP('',(#77));
#208=EDGE_LOOP('',(#78));
#209=FACE_BOUND('',#193,.T.);
#210=FACE_BOUND('',#194,.T.);
#211=FACE_BOUND('',#195,.T.);
#212=FACE_BOUND('',#196,.T.);
#213=FACE_BOUND('',#197,.T.);
#214=FACE_BOUND('',#198,.T.);
#215=FACE_BOUND('',#199,.T.);
#216=FACE_BOUND('',#200,.T.);
#217=FACE_BOUND('',#201,.T.);
#218=FACE_BOUND('',#202,.T.);
#219=FACE_BOUND('',#203,.T.);
#220=FACE_BOUND('',#204,.T.);
#221=FACE_BOUND('',#205,.T.);
#222=FACE_BOUND('',#206,.T.);
#223=FACE_BOUND('',#207,.T.);
#224=FACE_BOUND('',#208,.T.);
#225=PLANE('',#265);
#226=PLANE('',#266);
#227=PLANE('',#267);
#228=PLANE('',#268);
#229=PLANE('',#269);
#230=PLANE('',#270);
#231=PLANE('',#272);
#232=PLANE('',#273);
#233=PLANE('',#274);
#234=PLANE('',#275);
#235=PLANE('',#276);
#236=PLANE('',#277);
#237=PLANE('',#280);
#238=ADVANCED_FACE('',(#209),#225,.F.);
#239=ADVANCED_FACE('',(#210),#226,.T.);
#240=ADVANCED_FACE('',(#211),#227,.T.);
#241=ADVANCED_FACE('',(#212),#228,.F.);
#242=ADVANCED_FACE('',(#213),#229,.F.);
#243=ADVANCED_FACE('',(#214,#215),#230,.T.);
#244=ADVANCED_FACE('',(#216),#231,.F.);
#245=ADVANCED_FACE('',(#217),#232,.F.);
#246=ADVANCED_FACE('',(#218),#233,.T.);
#247=ADVANCED_FACE('',(#219),#234,.F.);
#248=ADVANCED_FACE('',(#220),#235,.F.);
#249=ADVANCED_FACE('',(#221),#236,.T.);
#250=ADVANCED_FACE('',(#222,#223),#12,.T.);
#251=ADVANCED_FACE('',(#224),#237,.T.);
#252=CLOSED_SHELL('',(#238,#239,#240,#241,#242,#243,#244,#245,#246,#247,
#248,#249,#250,#251));
#253=STYLED_ITEM('',(#254),#261);
#254=PRESENTATION_STYLE_ASSIGNMENT((#255));
#255=SURFACE_STYLE_USAGE(.BOTH.,#256);
#256=SURFACE_SIDE_STYLE('',(#257));
#257=SURFACE_STYLE_FILL_AREA(#258);
#258=FILL_AREA_STYLE('',(#259));
#259=FILL_AREA_STYLE_COLOUR('',#260);
#260=COLOUR_RGB('',0.917647058823529,0.643137254901961,0.568627450980392);
#261=MANIFOLD_SOLID_BREP('Part 2',#252);
#262=SHAPE_DEFINITION_REPRESENTATION(#420,#263);
#263=SHAPE_REPRESENTATION('Part 2',(#264),#415);
#264=AXIS2_PLACEMENT_3D('',#345,#281,#282);
#265=AXIS2_PLACEMENT_3D('',#346,#283,#284);
#266=AXIS2_PLACEMENT_3D('',#363,#293,#294);
#267=AXIS2_PLACEMENT_3D('',#369,#298,#299);
#268=AXIS2_PLACEMENT_3D('',#375,#303,#304);
#269=AXIS2_PLACEMENT_3D('',#386,#311,#312);
#270=AXIS2_PLACEMENT_3D('',#387,#313,#314);
#271=AXIS2_PLACEMENT_3D('',#388,#315,#316);
#272=AXIS2_PLACEMENT_3D('',#393,#319,#320);
#273=AXIS2_PLACEMENT_3D('',#397,#323,#324);
#274=AXIS2_PLACEMENT_3D('',#399,#326,#327);
#275=AXIS2_PLACEMENT_3D('',#403,#330,#331);
#276=AXIS2_PLACEMENT_3D('',#407,#334,#335);
#277=AXIS2_PLACEMENT_3D('',#409,#337,#338);
#278=AXIS2_PLACEMENT_3D('',#410,#339,#340);
#279=AXIS2_PLACEMENT_3D('',#411,#341,#342);
#280=AXIS2_PLACEMENT_3D('',#413,#343,#344);
#281=DIRECTION('',(0.,0.,1.));
#282=DIRECTION('',(1.,0.,0.));
#283=DIRECTION('',(0.,0.,-1.));
#284=DIRECTION('',(-1.,0.,0.));
#285=DIRECTION('',(0.,-1.,0.));
#286=DIRECTION('',(1.,0.,0.));
#287=DIRECTION('',(0.,1.,0.));
#288=DIRECTION('',(1.,0.,0.));
#289=DIRECTION('',(0.,-1.,0.));
#290=DIRECTION('',(1.,0.,0.));
#291=DIRECTION('',(0.,-1.,0.));
#292=DIRECTION('',(1.,0.,0.));
#293=DIRECTION('',(-1.,0.,0.));
#294=DIRECTION('',(0.,0.,1.));
#295=DIRECTION('',(0.,0.,-1.));
#296=DIRECTION('',(0.,0.,-1.));
#297=DIRECTION('',(0.,-1.,0.));
#298=DIRECTION('',(0.,0.,-1.));
#299=DIRECTION('',(-1.,0.,0.));
#300=DIRECTION('',(1.,0.,0.));
#301=DIRECTION('',(1.,0.,0.));
#302=DIRECTION('',(0.,-1.,0.));
#303=DIRECTION('',(-1.,0.,0.));
#304=DIRECTION('',(0.,0.,1.));
#305=DIRECTION('',(0.,0.,-1.));
#306=DIRECTION('',(0.,1.,0.));
#307=DIRECTION('',(0.,0.,-1.));
#308=DIRECTION('',(0.,-1.,0.));
#309=DIRECTION('',(0.,0.,-1.));
#310=DIRECTION('',(0.,0.,-1.));
#311=DIRECTION('',(0.,-1.,0.));
#312=DIRECTION('',(1.,0.,0.));
#313=DIRECTION('',(0.,-1.,0.));
#314=DIRECTION('',(1.,0.,0.));
#315=DIRECTION('',(0.,-1.,0.));
#316=DIRECTION('',(0.,0.,-1.));
#317=DIRECTION('',(0.,0.,-1.));
#318=DIRECTION('',(1.,0.,0.));
#319=DIRECTION('',(-1.,0.,0.));
#320=DIRECTION('',(0.,0.,1.));
#321=DIRECTION('',(0.,-1.,0.));
#322=DIRECTION('',(0.,0.,-1.));
#323=DIRECTION('',(0.,0.,-1.));
#324=DIRECTION('',(-1.,0.,0.));
#325=DIRECTION('',(1.,0.,0.));
#326=DIRECTION('',(0.,-1.,0.));
#327=DIRECTION('',(1.,0.,0.));
#328=DIRECTION('',(0.,0.,-1.));
#329=DIRECTION('',(1.,0.,0.));
#330=DIRECTION('',(1.,0.,0.));
#331=DIRECTION('',(0.,0.,-1.));
#332=DIRECTION('',(0.,1.,0.));
#333=DIRECTION('',(0.,0.,-1.));
#334=DIRECTION('',(0.,0.,1.));
#335=DIRECTION('',(1.,0.,0.));
#336=DIRECTION('',(1.,0.,0.));
#337=DIRECTION('',(0.,-1.,0.));
#338=DIRECTION('',(1.,0.,0.));
#339=DIRECTION('',(0.,1.,0.));
#340=DIRECTION('',(0.,0.,1.));
#341=DIRECTION('',(0.,-1.,0.));
#342=DIRECTION('',(0.,0.,-1.));
#343=DIRECTION('',(0.,-1.,0.));
#344=DIRECTION('',(1.,0.,0.));
#345=CARTESIAN_POINT('',(0.,0.,0.));
#346=CARTESIAN_POINT('',(0.0128127331845462,0.015,0.0300856346273792));
#347=CARTESIAN_POINT('',(0.0128127331845462,0.003,0.0300856346273792));
#348=CARTESIAN_POINT('',(0.0128127331845462,0.003,0.0300856346273792));
#349=CARTESIAN_POINT('',(0.0128127331845462,0.,0.0300856346273792));
#350=CARTESIAN_POINT('',(0.0128127331845462,0.003,0.0300856346273792));
#351=CARTESIAN_POINT('',(0.0137832798063755,0.003,0.0300856346273792));
#352=CARTESIAN_POINT('',(0.0137832798063755,0.,0.0300856346273792));
#353=CARTESIAN_POINT('',(0.0137832798063755,0.,0.0300856346273792));
#354=CARTESIAN_POINT('',(0.0128127331845462,0.,0.0300856346273792));
#355=CARTESIAN_POINT('',(0.0181297156959772,0.,0.0300856346273792));
#356=CARTESIAN_POINT('',(0.0181297156959772,0.015,0.0300856346273792));
#357=CARTESIAN_POINT('',(0.0181297156959772,0.015,0.0300856346273792));
#358=CARTESIAN_POINT('',(0.0128127331845462,0.015,0.0300856346273792));
#359=CARTESIAN_POINT('',(0.00749575067311525,0.015,0.0300856346273792));
#360=CARTESIAN_POINT('',(0.00749575067311525,0.015,0.0300856346273792));
#361=CARTESIAN_POINT('',(0.00749575067311525,0.,0.0300856346273792));
#362=CARTESIAN_POINT('',(0.0128127331845462,0.,0.0300856346273792));
#363=CARTESIAN_POINT('',(0.00749575067311525,0.015,0.0118705953618068));
#364=CARTESIAN_POINT('',(0.00749575067311525,0.,0.0118705953618068));
#365=CARTESIAN_POINT('',(0.00749575067311525,0.,-0.00634444390376562));
#366=CARTESIAN_POINT('',(0.00749575067311525,0.015,0.0118705953618068));
#367=CARTESIAN_POINT('',(0.00749575067311525,0.015,-0.00634444390376562));
#368=CARTESIAN_POINT('',(0.00749575067311525,0.015,-0.00634444390376562));
#369=CARTESIAN_POINT('',(0.0128127331845462,0.015,-0.00634444390376562));
#370=CARTESIAN_POINT('',(0.0128127331845462,0.,-0.00634444390376562));
#371=CARTESIAN_POINT('',(0.0181297156959772,0.,-0.00634444390376562));
#372=CARTESIAN_POINT('',(0.0128127331845462,0.015,-0.00634444390376562));
#373=CARTESIAN_POINT('',(0.0181297156959772,0.015,-0.00634444390376562));
#374=CARTESIAN_POINT('',(0.0181297156959772,0.015,-0.00634444390376562));
#375=CARTESIAN_POINT('',(0.0181297156959772,0.015,0.0118705953618068));
#376=CARTESIAN_POINT('',(0.0181297156959772,0.,0.0118705953618068));
#377=CARTESIAN_POINT('',(0.0181297156959772,0.,0.0111504029482603));
#378=CARTESIAN_POINT('',(0.0181297156959772,0.,0.0111504029482603));
#379=CARTESIAN_POINT('',(0.0181297156959772,0.003,0.0111504029482603));
#380=CARTESIAN_POINT('',(0.0181297156959772,0.003,0.0118705953618068));
#381=CARTESIAN_POINT('',(0.0181297156959772,0.003,0.00978324934840202));
#382=CARTESIAN_POINT('',(0.0181297156959772,0.003,0.00978324934840202));
#383=CARTESIAN_POINT('',(0.0181297156959772,0.,0.00978324934840202));
#384=CARTESIAN_POINT('',(0.0181297156959772,0.,0.0118705953618068));
#385=CARTESIAN_POINT('',(0.0181297156959772,0.015,0.0118705953618068));
#386=CARTESIAN_POINT('',(0.0128127331845462,0.015,0.0118705953618068));
#387=CARTESIAN_POINT('',(0.0128127331845462,0.,0.0118705953618068));
#388=CARTESIAN_POINT('',(0.0162441581487656,0.,0.00622864812612534));
#389=CARTESIAN_POINT('',(0.0162441581487656,0.,0.00512641273163738));
#390=CARTESIAN_POINT('',(0.0128127331845462,0.,0.0199344419878906));
#391=CARTESIAN_POINT('',(0.0128127331845462,0.,0.00978324934840202));
#392=CARTESIAN_POINT('',(0.0154712244402617,0.,0.00978324934840202));
#393=CARTESIAN_POINT('',(0.0128127331845462,0.003,0.0199344419878906));
#394=CARTESIAN_POINT('',(0.0128127331845462,0.003,0.00978324934840202));
#395=CARTESIAN_POINT('',(0.0128127331845462,0.003,0.00978324934840202));
#396=CARTESIAN_POINT('',(0.0128127331845462,0.003,0.0199344419878906));
#397=CARTESIAN_POINT('',(0.0154712244402617,0.003,0.00978324934840202));
#398=CARTESIAN_POINT('',(0.0154712244402617,0.003,0.00978324934840202));
#399=CARTESIAN_POINT('',(0.0128127331845462,0.003,0.0118705953618068));
#400=CARTESIAN_POINT('',(0.0137832798063755,0.003,0.0206180187878197));
#401=CARTESIAN_POINT('',(0.0137832798063755,0.003,0.0111504029482603));
#402=CARTESIAN_POINT('',(0.0159564977511764,0.003,0.0111504029482603));
#403=CARTESIAN_POINT('',(0.0137832798063755,0.,0.0206180187878197));
#404=CARTESIAN_POINT('',(0.0137832798063755,0.,0.0111504029482603));
#405=CARTESIAN_POINT('',(0.0137832798063755,0.,0.0111504029482603));
#406=CARTESIAN_POINT('',(0.0137832798063755,0.,0.0206180187878197));
#407=CARTESIAN_POINT('',(0.0159564977511764,0.,0.0111504029482603));
#408=CARTESIAN_POINT('',(0.0159564977511764,0.,0.0111504029482603));
#409=CARTESIAN_POINT('',(0.0154712244402617,0.,0.0199344419878906));
#410=CARTESIAN_POINT('',(0.0162441581487656,-0.001,0.00622864812612534));
#411=CARTESIAN_POINT('',(0.0162441581487656,-0.001,0.00622864812612534));
#412=CARTESIAN_POINT('',(0.0162441581487656,-0.001,0.00512641273163738));
#413=CARTESIAN_POINT('',(0.0128127331845462,-0.001,0.0118705953618068));
#414=MECHANICAL_DESIGN_GEOMETRIC_PRESENTATION_REPRESENTATION('',(#253),
#415);
#415=(
GEOMETRIC_REPRESENTATION_CONTEXT(3)
GLOBAL_UNCERTAINTY_ASSIGNED_CONTEXT((#416))
GLOBAL_UNIT_ASSIGNED_CONTEXT((#419,#418,#417))
REPRESENTATION_CONTEXT('Part 2','TOP_LEVEL_ASSEMBLY_PART')
);
#416=UNCERTAINTY_MEASURE_WITH_UNIT(LENGTH_MEASURE(1.E-8),#419,
'DISTANCE_ACCURACY_VALUE','Maximum Tolerance applied to model');
#417=(
NAMED_UNIT(*)
SI_UNIT($,.STERADIAN.)
SOLID_ANGLE_UNIT()
);
#418=(
NAMED_UNIT(*)
PLANE_ANGLE_UNIT()
SI_UNIT($,.RADIAN.)
);
#419=(
LENGTH_UNIT()
NAMED_UNIT(*)
SI_UNIT($,.METRE.)
);
#420=PRODUCT_DEFINITION_SHAPE('','',#421);
#421=PRODUCT_DEFINITION('','',#423,#422);
#422=PRODUCT_DEFINITION_CONTEXT('',#429,'design');
#423=PRODUCT_DEFINITION_FORMATION_WITH_SPECIFIED_SOURCE('','',#425,
 .NOT_KNOWN.);
#424=PRODUCT_RELATED_PRODUCT_CATEGORY('','',(#425));
#425=PRODUCT('Part 2','Part 2','Part 2',(#427));
#426=PRODUCT_CATEGORY('','');
#427=PRODUCT_CONTEXT('',#429,'mechanical');
#428=APPLICATION_PROTOCOL_DEFINITION('international standard',
'ap242_managed_model_based_3d_engineering',2020,#429);
#429=APPLICATION_CONTEXT('managed model based 3d engineering');
ENDSEC;
END-ISO-10303-21;
