ISO-10303-21;
HEADER;
/*Generated by software containing ST-Developer
 * from STEP Tools, Inc. (www.steptools.com) 
 */
/*OPTION: using custom renumber hook */
/*description */
/*implementation_level */
FILE_DESCRIPTION(('STEP AP242 Edition 2','STEP AP242 Edition 2''CAx-IF Rec.Pracs.---Representation and Presentation of Product Manufa
cturing Information (PMI)---4.0---2014-10-13','STEP AP242 Edition 2''CAx-IF Rec.Pracs.---Representation and Presentation of Product Manufa
cturing Information (PMI)---4.0---2014-10-13''CAx-IF Rec.Pracs.---3D Tessellated Geometry---0.4---2014-09-14','STEP AP242 Edition 2''CAx-IF Rec.Pracs.---Representation and Presentation of Product Manufa
cturing Information (PMI)---4.0---2014-10-13''CAx-IF Rec.Pracs.---3D Tessellated Geometry---0.4---2014-09-14''2;1','STEP AP242 Edition 2''CAx-IF Rec.Pracs.---Representation and Presentation of Product Manufa
cturing Information (PMI)---4.0---2014-10-13''CAx-IF Rec.Pracs.---3D Tessellated Geometry---0.4---2014-09-14''2;1''CAx-IF Rec.Pracs.---User Defined Attributes---1.5---2016-08-15'),'2;1');
/*name */
/*time_stamp */
/*author */
/*organization */
/*preprocessor_version */
/*originating_system */
/*authorisation */
FILE_NAME('/vol/tmp/translate-9021769610207916538/Decor Wall - Side Wall_Decor.step','2026-08-29T04:15:11',(''),(''),'ST-DEVELOPER v20','ONSHAPE BY PTC INC, 1.220','  ');
FILE_SCHEMA(('AP242_MANAGED_MODEL_BASED_3D_ENGINEERING_MIM_LF { 1 0 10303 442 3 1 4 }'));
ENDSEC;
DATA;
#10=SHAPE_REPRESENTATION_RELATIONSHIP('','',#423,#11);
#11=ADVANCED_BREP_SHAPE_REPRESENTATION('',(#421),#673);
#12=CYLINDRICAL_SURFACE('',#435,0.0110847450575664);
#13=CYLINDRICAL_SURFACE('',#444,0.0101324361728031);
#14=CIRCLE('',#426,0.0110847450575664);
#15=CIRCLE('',#427,0.0101324361728031);
#16=CIRCLE('',#436,0.0110847450575664);
#17=CIRCLE('',#445,0.0101324361728031);
#18=ORIENTED_EDGE('',*,*,#126,.F.);
#19=ORIENTED_EDGE('',*,*,#127,.F.);
#20=ORIENTED_EDGE('',*,*,#128,.T.);
#21=ORIENTED_EDGE('',*,*,#129,.T.);
#22=ORIENTED_EDGE('',*,*,#130,.F.);
#23=ORIENTED_EDGE('',*,*,#131,.F.);
#24=ORIENTED_EDGE('',*,*,#132,.T.);
#25=ORIENTED_EDGE('',*,*,#133,.T.);
#26=ORIENTED_EDGE('',*,*,#134,.T.);
#27=ORIENTED_EDGE('',*,*,#135,.T.);
#28=ORIENTED_EDGE('',*,*,#136,.F.);
#29=ORIENTED_EDGE('',*,*,#137,.F.);
#30=ORIENTED_EDGE('',*,*,#138,.T.);
#31=ORIENTED_EDGE('',*,*,#139,.F.);
#32=ORIENTED_EDGE('',*,*,#140,.T.);
#33=ORIENTED_EDGE('',*,*,#141,.T.);
#34=ORIENTED_EDGE('',*,*,#142,.F.);
#35=ORIENTED_EDGE('',*,*,#143,.F.);
#36=ORIENTED_EDGE('',*,*,#134,.F.);
#37=ORIENTED_EDGE('',*,*,#144,.F.);
#38=ORIENTED_EDGE('',*,*,#145,.T.);
#39=ORIENTED_EDGE('',*,*,#146,.T.);
#40=ORIENTED_EDGE('',*,*,#137,.T.);
#41=ORIENTED_EDGE('',*,*,#147,.F.);
#42=ORIENTED_EDGE('',*,*,#148,.F.);
#43=ORIENTED_EDGE('',*,*,#144,.T.);
#44=ORIENTED_EDGE('',*,*,#136,.T.);
#45=ORIENTED_EDGE('',*,*,#149,.F.);
#46=ORIENTED_EDGE('',*,*,#150,.F.);
#47=ORIENTED_EDGE('',*,*,#147,.T.);
#48=ORIENTED_EDGE('',*,*,#135,.F.);
#49=ORIENTED_EDGE('',*,*,#146,.F.);
#50=ORIENTED_EDGE('',*,*,#151,.T.);
#51=ORIENTED_EDGE('',*,*,#149,.T.);
#52=ORIENTED_EDGE('',*,*,#145,.F.);
#53=ORIENTED_EDGE('',*,*,#148,.T.);
#54=ORIENTED_EDGE('',*,*,#150,.T.);
#55=ORIENTED_EDGE('',*,*,#151,.F.);
#56=ORIENTED_EDGE('',*,*,#131,.T.);
#57=ORIENTED_EDGE('',*,*,#152,.F.);
#58=ORIENTED_EDGE('',*,*,#153,.F.);
#59=ORIENTED_EDGE('',*,*,#154,.T.);
#60=ORIENTED_EDGE('',*,*,#132,.F.);
#61=ORIENTED_EDGE('',*,*,#154,.F.);
#62=ORIENTED_EDGE('',*,*,#155,.T.);
#63=ORIENTED_EDGE('',*,*,#156,.T.);
#64=ORIENTED_EDGE('',*,*,#133,.F.);
#65=ORIENTED_EDGE('',*,*,#156,.F.);
#66=ORIENTED_EDGE('',*,*,#157,.T.);
#67=ORIENTED_EDGE('',*,*,#158,.T.);
#68=ORIENTED_EDGE('',*,*,#130,.T.);
#69=ORIENTED_EDGE('',*,*,#158,.F.);
#70=ORIENTED_EDGE('',*,*,#159,.F.);
#71=ORIENTED_EDGE('',*,*,#152,.T.);
#72=ORIENTED_EDGE('',*,*,#153,.T.);
#73=ORIENTED_EDGE('',*,*,#159,.T.);
#74=ORIENTED_EDGE('',*,*,#157,.F.);
#75=ORIENTED_EDGE('',*,*,#155,.F.);
#76=ORIENTED_EDGE('',*,*,#139,.T.);
#77=ORIENTED_EDGE('',*,*,#160,.F.);
#78=ORIENTED_EDGE('',*,*,#161,.F.);
#79=ORIENTED_EDGE('',*,*,#162,.T.);
#80=ORIENTED_EDGE('',*,*,#140,.F.);
#81=ORIENTED_EDGE('',*,*,#162,.F.);
#82=ORIENTED_EDGE('',*,*,#163,.T.);
#83=ORIENTED_EDGE('',*,*,#164,.T.);
#84=ORIENTED_EDGE('',*,*,#141,.F.);
#85=ORIENTED_EDGE('',*,*,#164,.F.);
#86=ORIENTED_EDGE('',*,*,#165,.T.);
#87=ORIENTED_EDGE('',*,*,#166,.T.);
#88=ORIENTED_EDGE('',*,*,#142,.T.);
#89=ORIENTED_EDGE('',*,*,#166,.F.);
#90=ORIENTED_EDGE('',*,*,#167,.F.);
#91=ORIENTED_EDGE('',*,*,#168,.T.);
#92=ORIENTED_EDGE('',*,*,#143,.T.);
#93=ORIENTED_EDGE('',*,*,#168,.F.);
#94=ORIENTED_EDGE('',*,*,#169,.F.);
#95=ORIENTED_EDGE('',*,*,#170,.T.);
#96=ORIENTED_EDGE('',*,*,#138,.F.);
#97=ORIENTED_EDGE('',*,*,#170,.F.);
#98=ORIENTED_EDGE('',*,*,#171,.T.);
#99=ORIENTED_EDGE('',*,*,#160,.T.);
#100=ORIENTED_EDGE('',*,*,#161,.T.);
#101=ORIENTED_EDGE('',*,*,#171,.F.);
#102=ORIENTED_EDGE('',*,*,#169,.T.);
#103=ORIENTED_EDGE('',*,*,#167,.T.);
#104=ORIENTED_EDGE('',*,*,#165,.F.);
#105=ORIENTED_EDGE('',*,*,#163,.F.);
#106=ORIENTED_EDGE('',*,*,#127,.T.);
#107=ORIENTED_EDGE('',*,*,#172,.F.);
#108=ORIENTED_EDGE('',*,*,#173,.F.);
#109=ORIENTED_EDGE('',*,*,#174,.T.);
#110=ORIENTED_EDGE('',*,*,#128,.F.);
#111=ORIENTED_EDGE('',*,*,#174,.F.);
#112=ORIENTED_EDGE('',*,*,#175,.T.);
#113=ORIENTED_EDGE('',*,*,#176,.T.);
#114=ORIENTED_EDGE('',*,*,#129,.F.);
#115=ORIENTED_EDGE('',*,*,#176,.F.);
#116=ORIENTED_EDGE('',*,*,#177,.T.);
#117=ORIENTED_EDGE('',*,*,#178,.T.);
#118=ORIENTED_EDGE('',*,*,#126,.T.);
#119=ORIENTED_EDGE('',*,*,#178,.F.);
#120=ORIENTED_EDGE('',*,*,#179,.F.);
#121=ORIENTED_EDGE('',*,*,#172,.T.);
#122=ORIENTED_EDGE('',*,*,#173,.T.);
#123=ORIENTED_EDGE('',*,*,#179,.T.);
#124=ORIENTED_EDGE('',*,*,#177,.F.);
#125=ORIENTED_EDGE('',*,*,#175,.F.);
#126=EDGE_CURVE('',#180,#181,#216,.T.);
#127=EDGE_CURVE('',#182,#180,#217,.T.);
#128=EDGE_CURVE('',#182,#183,#218,.T.);
#129=EDGE_CURVE('',#183,#181,#219,.T.);
#130=EDGE_CURVE('',#184,#185,#220,.T.);
#131=EDGE_CURVE('',#186,#184,#221,.T.);
#132=EDGE_CURVE('',#186,#187,#222,.T.);
#133=EDGE_CURVE('',#187,#185,#14,.T.);
#134=EDGE_CURVE('',#188,#189,#223,.T.);
#135=EDGE_CURVE('',#189,#190,#224,.T.);
#136=EDGE_CURVE('',#191,#190,#225,.T.);
#137=EDGE_CURVE('',#188,#191,#226,.T.);
#138=EDGE_CURVE('',#192,#193,#15,.T.);
#139=EDGE_CURVE('',#194,#193,#227,.T.);
#140=EDGE_CURVE('',#194,#195,#228,.T.);
#141=EDGE_CURVE('',#195,#196,#229,.T.);
#142=EDGE_CURVE('',#197,#196,#230,.T.);
#143=EDGE_CURVE('',#192,#197,#231,.T.);
#144=EDGE_CURVE('',#198,#188,#232,.T.);
#145=EDGE_CURVE('',#198,#199,#233,.T.);
#146=EDGE_CURVE('',#199,#189,#234,.T.);
#147=EDGE_CURVE('',#200,#191,#235,.T.);
#148=EDGE_CURVE('',#198,#200,#236,.T.);
#149=EDGE_CURVE('',#201,#190,#237,.T.);
#150=EDGE_CURVE('',#200,#201,#238,.T.);
#151=EDGE_CURVE('',#199,#201,#239,.T.);
#152=EDGE_CURVE('',#202,#184,#240,.T.);
#153=EDGE_CURVE('',#203,#202,#241,.T.);
#154=EDGE_CURVE('',#203,#186,#242,.T.);
#155=EDGE_CURVE('',#203,#204,#243,.T.);
#156=EDGE_CURVE('',#204,#187,#244,.T.);
#157=EDGE_CURVE('',#204,#205,#16,.T.);
#158=EDGE_CURVE('',#205,#185,#245,.T.);
#159=EDGE_CURVE('',#202,#205,#246,.T.);
#160=EDGE_CURVE('',#206,#193,#247,.T.);
#161=EDGE_CURVE('',#207,#206,#248,.T.);
#162=EDGE_CURVE('',#207,#194,#249,.T.);
#163=EDGE_CURVE('',#207,#208,#250,.T.);
#164=EDGE_CURVE('',#208,#195,#251,.T.);
#165=EDGE_CURVE('',#208,#209,#252,.T.);
#166=EDGE_CURVE('',#209,#196,#253,.T.);
#167=EDGE_CURVE('',#210,#209,#254,.T.);
#168=EDGE_CURVE('',#210,#197,#255,.T.);
#169=EDGE_CURVE('',#211,#210,#256,.T.);
#170=EDGE_CURVE('',#211,#192,#257,.T.);
#171=EDGE_CURVE('',#211,#206,#17,.T.);
#172=EDGE_CURVE('',#212,#180,#258,.T.);
#173=EDGE_CURVE('',#213,#212,#259,.T.);
#174=EDGE_CURVE('',#213,#182,#260,.T.);
#175=EDGE_CURVE('',#213,#214,#261,.T.);
#176=EDGE_CURVE('',#214,#183,#262,.T.);
#177=EDGE_CURVE('',#214,#215,#263,.T.);
#178=EDGE_CURVE('',#215,#181,#264,.T.);
#179=EDGE_CURVE('',#212,#215,#265,.T.);
#180=VERTEX_POINT('',#561);
#181=VERTEX_POINT('',#562);
#182=VERTEX_POINT('',#564);
#183=VERTEX_POINT('',#566);
#184=VERTEX_POINT('',#569);
#185=VERTEX_POINT('',#570);
#186=VERTEX_POINT('',#572);
#187=VERTEX_POINT('',#574);
#188=VERTEX_POINT('',#577);
#189=VERTEX_POINT('',#578);
#190=VERTEX_POINT('',#580);
#191=VERTEX_POINT('',#582);
#192=VERTEX_POINT('',#585);
#193=VERTEX_POINT('',#586);
#194=VERTEX_POINT('',#588);
#195=VERTEX_POINT('',#590);
#196=VERTEX_POINT('',#592);
#197=VERTEX_POINT('',#594);
#198=VERTEX_POINT('',#598);
#199=VERTEX_POINT('',#600);
#200=VERTEX_POINT('',#604);
#201=VERTEX_POINT('',#608);
#202=VERTEX_POINT('',#615);
#203=VERTEX_POINT('',#617);
#204=VERTEX_POINT('',#621);
#205=VERTEX_POINT('',#625);
#206=VERTEX_POINT('',#632);
#207=VERTEX_POINT('',#634);
#208=VERTEX_POINT('',#638);
#209=VERTEX_POINT('',#642);
#210=VERTEX_POINT('',#646);
#211=VERTEX_POINT('',#650);
#212=VERTEX_POINT('',#657);
#213=VERTEX_POINT('',#659);
#214=VERTEX_POINT('',#663);
#215=VERTEX_POINT('',#667);
#216=LINE('',#560,#266);
#217=LINE('',#563,#267);
#218=LINE('',#565,#268);
#219=LINE('',#567,#269);
#220=LINE('',#568,#270);
#221=LINE('',#571,#271);
#222=LINE('',#573,#272);
#223=LINE('',#576,#273);
#224=LINE('',#579,#274);
#225=LINE('',#581,#275);
#226=LINE('',#583,#276);
#227=LINE('',#587,#277);
#228=LINE('',#589,#278);
#229=LINE('',#591,#279);
#230=LINE('',#593,#280);
#231=LINE('',#595,#281);
#232=LINE('',#597,#282);
#233=LINE('',#599,#283);
#234=LINE('',#601,#284);
#235=LINE('',#603,#285);
#236=LINE('',#605,#286);
#237=LINE('',#607,#287);
#238=LINE('',#609,#288);
#239=LINE('',#611,#289);
#240=LINE('',#614,#290);
#241=LINE('',#616,#291);
#242=LINE('',#618,#292);
#243=LINE('',#620,#293);
#244=LINE('',#622,#294);
#245=LINE('',#626,#295);
#246=LINE('',#628,#296);
#247=LINE('',#631,#297);
#248=LINE('',#633,#298);
#249=LINE('',#635,#299);
#250=LINE('',#637,#300);
#251=LINE('',#639,#301);
#252=LINE('',#641,#302);
#253=LINE('',#643,#303);
#254=LINE('',#645,#304);
#255=LINE('',#647,#305);
#256=LINE('',#649,#306);
#257=LINE('',#651,#307);
#258=LINE('',#656,#308);
#259=LINE('',#658,#309);
#260=LINE('',#660,#310);
#261=LINE('',#662,#311);
#262=LINE('',#664,#312);
#263=LINE('',#666,#313);
#264=LINE('',#668,#314);
#265=LINE('',#670,#315);
#266=VECTOR('',#456,1.);
#267=VECTOR('',#457,1.);
#268=VECTOR('',#458,1.);
#269=VECTOR('',#459,1.);
#270=VECTOR('',#460,1.);
#271=VECTOR('',#461,1.);
#272=VECTOR('',#462,1.);
#273=VECTOR('',#465,1.);
#274=VECTOR('',#466,1.);
#275=VECTOR('',#467,1.);
#276=VECTOR('',#468,1.);
#277=VECTOR('',#471,1.);
#278=VECTOR('',#472,1.);
#279=VECTOR('',#473,1.);
#280=VECTOR('',#474,1.);
#281=VECTOR('',#475,1.);
#282=VECTOR('',#478,1.);
#283=VECTOR('',#479,1.);
#284=VECTOR('',#480,1.);
#285=VECTOR('',#483,1.);
#286=VECTOR('',#484,1.);
#287=VECTOR('',#487,1.);
#288=VECTOR('',#488,1.);
#289=VECTOR('',#491,1.);
#290=VECTOR('',#496,1.);
#291=VECTOR('',#497,1.);
#292=VECTOR('',#498,1.);
#293=VECTOR('',#501,1.);
#294=VECTOR('',#502,1.);
#295=VECTOR('',#507,1.);
#296=VECTOR('',#510,1.);
#297=VECTOR('',#515,1.);
#298=VECTOR('',#516,1.);
#299=VECTOR('',#517,1.);
#300=VECTOR('',#520,1.);
#301=VECTOR('',#521,1.);
#302=VECTOR('',#524,1.);
#303=VECTOR('',#525,1.);
#304=VECTOR('',#528,1.);
#305=VECTOR('',#529,1.);
#306=VECTOR('',#532,1.);
#307=VECTOR('',#533,1.);
#308=VECTOR('',#542,1.);
#309=VECTOR('',#543,1.);
#310=VECTOR('',#544,1.);
#311=VECTOR('',#547,1.);
#312=VECTOR('',#548,1.);
#313=VECTOR('',#551,1.);
#314=VECTOR('',#552,1.);
#315=VECTOR('',#555,1.);
#316=EDGE_LOOP('',(#18,#19,#20,#21));
#317=EDGE_LOOP('',(#22,#23,#24,#25));
#318=EDGE_LOOP('',(#26,#27,#28,#29));
#319=EDGE_LOOP('',(#30,#31,#32,#33,#34,#35));
#320=EDGE_LOOP('',(#36,#37,#38,#39));
#321=EDGE_LOOP('',(#40,#41,#42,#43));
#322=EDGE_LOOP('',(#44,#45,#46,#47));
#323=EDGE_LOOP('',(#48,#49,#50,#51));
#324=EDGE_LOOP('',(#52,#53,#54,#55));
#325=EDGE_LOOP('',(#56,#57,#58,#59));
#326=EDGE_LOOP('',(#60,#61,#62,#63));
#327=EDGE_LOOP('',(#64,#65,#66,#67));
#328=EDGE_LOOP('',(#68,#69,#70,#71));
#329=EDGE_LOOP('',(#72,#73,#74,#75));
#330=EDGE_LOOP('',(#76,#77,#78,#79));
#331=EDGE_LOOP('',(#80,#81,#82,#83));
#332=EDGE_LOOP('',(#84,#85,#86,#87));
#333=EDGE_LOOP('',(#88,#89,#90,#91));
#334=EDGE_LOOP('',(#92,#93,#94,#95));
#335=EDGE_LOOP('',(#96,#97,#98,#99));
#336=EDGE_LOOP('',(#100,#101,#102,#103,#104,#105));
#337=EDGE_LOOP('',(#106,#107,#108,#109));
#338=EDGE_LOOP('',(#110,#111,#112,#113));
#339=EDGE_LOOP('',(#114,#115,#116,#117));
#340=EDGE_LOOP('',(#118,#119,#120,#121));
#341=EDGE_LOOP('',(#122,#123,#124,#125));
#342=FACE_BOUND('',#316,.T.);
#343=FACE_BOUND('',#317,.T.);
#344=FACE_BOUND('',#318,.T.);
#345=FACE_BOUND('',#319,.T.);
#346=FACE_BOUND('',#320,.T.);
#347=FACE_BOUND('',#321,.T.);
#348=FACE_BOUND('',#322,.T.);
#349=FACE_BOUND('',#323,.T.);
#350=FACE_BOUND('',#324,.T.);
#351=FACE_BOUND('',#325,.T.);
#352=FACE_BOUND('',#326,.T.);
#353=FACE_BOUND('',#327,.T.);
#354=FACE_BOUND('',#328,.T.);
#355=FACE_BOUND('',#329,.T.);
#356=FACE_BOUND('',#330,.T.);
#357=FACE_BOUND('',#331,.T.);
#358=FACE_BOUND('',#332,.T.);
#359=FACE_BOUND('',#333,.T.);
#360=FACE_BOUND('',#334,.T.);
#361=FACE_BOUND('',#335,.T.);
#362=FACE_BOUND('',#336,.T.);
#363=FACE_BOUND('',#337,.T.);
#364=FACE_BOUND('',#338,.T.);
#365=FACE_BOUND('',#339,.T.);
#366=FACE_BOUND('',#340,.T.);
#367=FACE_BOUND('',#341,.T.);
#368=PLANE('',#425);
#369=PLANE('',#428);
#370=PLANE('',#429);
#371=PLANE('',#430);
#372=PLANE('',#431);
#373=PLANE('',#432);
#374=PLANE('',#433);
#375=PLANE('',#434);
#376=PLANE('',#437);
#377=PLANE('',#438);
#378=PLANE('',#439);
#379=PLANE('',#440);
#380=PLANE('',#441);
#381=PLANE('',#442);
#382=PLANE('',#443);
#383=PLANE('',#446);
#384=PLANE('',#447);
#385=PLANE('',#448);
#386=PLANE('',#449);
#387=PLANE('',#450);
#388=PLANE('',#451);
#389=ADVANCED_FACE('',(#342,#343,#344,#345),#368,.F.);
#390=ADVANCED_FACE('',(#346),#369,.T.);
#391=ADVANCED_FACE('',(#347),#370,.F.);
#392=ADVANCED_FACE('',(#348),#371,.F.);
#393=ADVANCED_FACE('',(#349),#372,.T.);
#394=ADVANCED_FACE('',(#350),#373,.T.);
#395=ADVANCED_FACE('',(#351),#374,.F.);
#396=ADVANCED_FACE('',(#352),#375,.T.);
#397=ADVANCED_FACE('',(#353),#12,.F.);
#398=ADVANCED_FACE('',(#354),#376,.F.);
#399=ADVANCED_FACE('',(#355),#377,.F.);
#400=ADVANCED_FACE('',(#356),#378,.F.);
#401=ADVANCED_FACE('',(#357),#379,.T.);
#402=ADVANCED_FACE('',(#358),#380,.T.);
#403=ADVANCED_FACE('',(#359),#381,.F.);
#404=ADVANCED_FACE('',(#360),#382,.F.);
#405=ADVANCED_FACE('',(#361),#13,.F.);
#406=ADVANCED_FACE('',(#362),#383,.F.);
#407=ADVANCED_FACE('',(#363),#384,.F.);
#408=ADVANCED_FACE('',(#364),#385,.T.);
#409=ADVANCED_FACE('',(#365),#386,.T.);
#410=ADVANCED_FACE('',(#366),#387,.F.);
#411=ADVANCED_FACE('',(#367),#388,.F.);
#412=CLOSED_SHELL('',(#389,#390,#391,#392,#393,#394,#395,#396,#397,#398,#399,#400,#401,#402,#403,#404,#405,#406,#407,#408,#409,#410,#411));
#413=STYLED_ITEM('',(#414),#421);
#414=PRESENTATION_STYLE_ASSIGNMENT((#415));
#415=SURFACE_STYLE_USAGE(.BOTH.,#416);
#416=SURFACE_SIDE_STYLE('',(#417));
#417=SURFACE_STYLE_FILL_AREA(#418);
#418=FILL_AREA_STYLE('',(#419));
#419=FILL_AREA_STYLE_COLOUR('',#420);
#420=COLOUR_RGB('',0.27843137254902,0.168627450980392,0.384313725490196);
#421=MANIFOLD_SOLID_BREP('Side Wall_Decor',#412);
#422=SHAPE_DEFINITION_REPRESENTATION(#678,#423);
#423=SHAPE_REPRESENTATION('Side Wall_Decor',(#424),#673);
#424=AXIS2_PLACEMENT_3D('',#558,#452,#453);
#425=AXIS2_PLACEMENT_3D('',#559,#454,#455);
#426=AXIS2_PLACEMENT_3D('',#575,#463,#464);
#427=AXIS2_PLACEMENT_3D('',#584,#469,#470);
#428=AXIS2_PLACEMENT_3D('',#596,#476,#477);
#429=AXIS2_PLACEMENT_3D('',#602,#481,#482);
#430=AXIS2_PLACEMENT_3D('',#606,#485,#486);
#431=AXIS2_PLACEMENT_3D('',#610,#489,#490);
#432=AXIS2_PLACEMENT_3D('',#612,#492,#493);
#433=AXIS2_PLACEMENT_3D('',#613,#494,#495);
#434=AXIS2_PLACEMENT_3D('',#619,#499,#500);
#435=AXIS2_PLACEMENT_3D('',#623,#503,#504);
#436=AXIS2_PLACEMENT_3D('',#624,#505,#506);
#437=AXIS2_PLACEMENT_3D('',#627,#508,#509);
#438=AXIS2_PLACEMENT_3D('',#629,#511,#512);
#439=AXIS2_PLACEMENT_3D('',#630,#513,#514);
#440=AXIS2_PLACEMENT_3D('',#636,#518,#519);
#441=AXIS2_PLACEMENT_3D('',#640,#522,#523);
#442=AXIS2_PLACEMENT_3D('',#644,#526,#527);
#443=AXIS2_PLACEMENT_3D('',#648,#530,#531);
#444=AXIS2_PLACEMENT_3D('',#652,#534,#535);
#445=AXIS2_PLACEMENT_3D('',#653,#536,#537);
#446=AXIS2_PLACEMENT_3D('',#654,#538,#539);
#447=AXIS2_PLACEMENT_3D('',#655,#540,#541);
#448=AXIS2_PLACEMENT_3D('',#661,#545,#546);
#449=AXIS2_PLACEMENT_3D('',#665,#549,#550);
#450=AXIS2_PLACEMENT_3D('',#669,#553,#554);
#451=AXIS2_PLACEMENT_3D('',#671,#556,#557);
#452=DIRECTION('',(0.,0.,1.));
#453=DIRECTION('',(1.,0.,0.));
#454=DIRECTION('',(0.,-1.,0.));
#455=DIRECTION('',(1.,0.,0.));
#456=DIRECTION('',(0.,0.,-1.));
#457=DIRECTION('',(1.,0.,0.));
#458=DIRECTION('',(0.,0.,-1.));
#459=DIRECTION('',(1.,0.,0.));
#460=DIRECTION('',(0.,0.,1.));
#461=DIRECTION('',(-1.,0.,0.));
#462=DIRECTION('',(0.,0.,1.));
#463=DIRECTION('',(0.,-1.,0.));
#464=DIRECTION('',(0.,0.,-1.));
#465=DIRECTION('',(1.,0.,0.));
#466=DIRECTION('',(-2.01858731750028E-16,0.,-1.));
#467=DIRECTION('',(1.,0.,0.));
#468=DIRECTION('',(-2.01858731750028E-16,0.,-1.));
#469=DIRECTION('',(0.,-1.,0.));
#470=DIRECTION('',(0.,0.,-1.));
#471=DIRECTION('',(1.,0.,0.));
#472=DIRECTION('',(0.,0.,-1.));
#473=DIRECTION('',(1.,0.,0.));
#474=DIRECTION('',(0.,0.,-1.));
#475=DIRECTION('',(1.,0.,0.));
#476=DIRECTION('',(0.,0.,1.));
#477=DIRECTION('',(1.,0.,0.));
#478=DIRECTION('',(0.,1.,0.));
#479=DIRECTION('',(1.,0.,0.));
#480=DIRECTION('',(0.,1.,0.));
#481=DIRECTION('',(1.,0.,-2.01858731750028E-16));
#482=DIRECTION('',(-2.01858731750028E-16,0.,-1.));
#483=DIRECTION('',(0.,1.,0.));
#484=DIRECTION('',(-2.01858731750028E-16,0.,-1.));
#485=DIRECTION('',(0.,0.,1.));
#486=DIRECTION('',(1.,0.,0.));
#487=DIRECTION('',(0.,1.,0.));
#488=DIRECTION('',(1.,0.,0.));
#489=DIRECTION('',(1.,0.,-2.01858731750028E-16));
#490=DIRECTION('',(-2.01858731750028E-16,0.,-1.));
#491=DIRECTION('',(-2.01858731750028E-16,0.,-1.));
#492=DIRECTION('',(0.,-1.,0.));
#493=DIRECTION('',(1.,0.,0.));
#494=DIRECTION('',(0.,0.,-1.));
#495=DIRECTION('',(-1.,0.,0.));
#496=DIRECTION('',(0.,1.,0.));
#497=DIRECTION('',(-1.,0.,0.));
#498=DIRECTION('',(0.,1.,0.));
#499=DIRECTION('',(-1.,0.,0.));
#500=DIRECTION('',(0.,0.,1.));
#501=DIRECTION('',(0.,0.,1.));
#502=DIRECTION('',(0.,1.,0.));
#503=DIRECTION('',(0.,1.,0.));
#504=DIRECTION('',(0.,0.,1.));
#505=DIRECTION('',(0.,-1.,0.));
#506=DIRECTION('',(0.,0.,-1.));
#507=DIRECTION('',(0.,1.,0.));
#508=DIRECTION('',(-1.,0.,0.));
#509=DIRECTION('',(0.,0.,1.));
#510=DIRECTION('',(0.,0.,1.));
#511=DIRECTION('',(0.,-1.,0.));
#512=DIRECTION('',(1.,0.,0.));
#513=DIRECTION('',(0.,0.,1.));
#514=DIRECTION('',(1.,0.,0.));
#515=DIRECTION('',(0.,1.,0.));
#516=DIRECTION('',(1.,0.,0.));
#517=DIRECTION('',(0.,1.,0.));
#518=DIRECTION('',(1.,0.,0.));
#519=DIRECTION('',(0.,0.,-1.));
#520=DIRECTION('',(0.,0.,-1.));
#521=DIRECTION('',(0.,1.,0.));
#522=DIRECTION('',(0.,0.,1.));
#523=DIRECTION('',(1.,0.,0.));
#524=DIRECTION('',(1.,0.,0.));
#525=DIRECTION('',(0.,1.,0.));
#526=DIRECTION('',(1.,0.,0.));
#527=DIRECTION('',(0.,0.,-1.));
#528=DIRECTION('',(0.,0.,-1.));
#529=DIRECTION('',(0.,1.,0.));
#530=DIRECTION('',(0.,0.,1.));
#531=DIRECTION('',(1.,0.,0.));
#532=DIRECTION('',(1.,0.,0.));
#533=DIRECTION('',(0.,1.,0.));
#534=DIRECTION('',(0.,1.,0.));
#535=DIRECTION('',(0.,0.,1.));
#536=DIRECTION('',(0.,-1.,0.));
#537=DIRECTION('',(0.,0.,-1.));
#538=DIRECTION('',(0.,-1.,0.));
#539=DIRECTION('',(1.,0.,0.));
#540=DIRECTION('',(0.,0.,1.));
#541=DIRECTION('',(1.,0.,0.));
#542=DIRECTION('',(0.,1.,0.));
#543=DIRECTION('',(1.,0.,0.));
#544=DIRECTION('',(0.,1.,0.));
#545=DIRECTION('',(1.,0.,0.));
#546=DIRECTION('',(0.,0.,-1.));
#547=DIRECTION('',(0.,0.,-1.));
#548=DIRECTION('',(0.,1.,0.));
#549=DIRECTION('',(0.,0.,1.));
#550=DIRECTION('',(1.,0.,0.));
#551=DIRECTION('',(1.,0.,0.));
#552=DIRECTION('',(0.,1.,0.));
#553=DIRECTION('',(1.,0.,0.));
#554=DIRECTION('',(0.,0.,-1.));
#555=DIRECTION('',(0.,0.,-1.));
#556=DIRECTION('',(0.,-1.,0.));
#557=DIRECTION('',(1.,0.,0.));
#558=CARTESIAN_POINT('',(0.,0.,0.));
#559=CARTESIAN_POINT('',(0.,0.,0.));
#560=CARTESIAN_POINT('',(0.0224178843200207,0.,0.0265565700829029));
#561=CARTESIAN_POINT('',(0.0224178843200207,0.,0.0531131401658058));
#562=CARTESIAN_POINT('',(0.0224178843200207,0.,0.));
#563=CARTESIAN_POINT('',(-0.0213832128793001,0.,0.0531131401658058));
#564=CARTESIAN_POINT('',(-0.0651843100786209,0.,0.0531131401658058));
#565=CARTESIAN_POINT('',(-0.0651843100786209,0.,0.0265565700829029));
#566=CARTESIAN_POINT('',(-0.0651843100786209,0.,0.));
#567=CARTESIAN_POINT('',(-0.0213832128793001,0.,0.));
#568=CARTESIAN_POINT('',(0.0295932203459647,0.,0.006));
#569=CARTESIAN_POINT('',(0.0295932203459647,0.,0.));
#570=CARTESIAN_POINT('',(0.0295932203459647,0.,0.012));
#571=CARTESIAN_POINT('',(0.0406779654035311,0.,0.));
#572=CARTESIAN_POINT('',(0.0517627104610975,0.,0.));
#573=CARTESIAN_POINT('',(0.0517627104610975,0.,0.006));
#574=CARTESIAN_POINT('',(0.0517627104610975,0.,0.012));
#575=CARTESIAN_POINT('',(0.0406779654035311,0.,0.012));
#576=CARTESIAN_POINT('',(1.38777878078145E-17,0.,0.06875));
#577=CARTESIAN_POINT('',(-0.06875,0.,0.06875));
#578=CARTESIAN_POINT('',(0.06875,0.,0.06875));
#579=CARTESIAN_POINT('',(0.06875,0.,-1.38777878078145E-17));
#580=CARTESIAN_POINT('',(0.06875,0.,-0.06875));
#581=CARTESIAN_POINT('',(-1.38777878078145E-17,0.,-0.06875));
#582=CARTESIAN_POINT('',(-0.06875,0.,-0.06875));
#583=CARTESIAN_POINT('',(-0.06875,0.,-1.38777878078145E-17));
#584=CARTESIAN_POINT('',(0.0395474471151829,0.,0.0443759113550186));
#585=CARTESIAN_POINT('',(0.049679883287986,0.,0.0443759113550186));
#586=CARTESIAN_POINT('',(0.0294150109423798,0.,0.0443759113550186));
#587=CARTESIAN_POINT('',(0.0293653530544838,0.,0.0443759113550186));
#588=CARTESIAN_POINT('',(0.0293156951665879,0.,0.0443759113550186));
#589=CARTESIAN_POINT('',(0.0293156951665879,0.,0.036328467540443));
#590=CARTESIAN_POINT('',(0.0293156951665879,0.,0.0282810237258673));
#591=CARTESIAN_POINT('',(0.0395474471151829,0.,0.0282810237258673));
#592=CARTESIAN_POINT('',(0.0497791990637779,0.,0.0282810237258673));
#593=CARTESIAN_POINT('',(0.0497791990637779,0.,0.036328467540443));
#594=CARTESIAN_POINT('',(0.0497791990637779,0.,0.0443759113550186));
#595=CARTESIAN_POINT('',(0.049729541175882,0.,0.0443759113550186));
#596=CARTESIAN_POINT('',(1.38777878078145E-17,-0.0025,0.06875));
#597=CARTESIAN_POINT('',(-0.06875,-0.0025,0.06875));
#598=CARTESIAN_POINT('',(-0.06875,-0.0025,0.06875));
#599=CARTESIAN_POINT('',(1.38777878078145E-17,-0.0025,0.06875));
#600=CARTESIAN_POINT('',(0.06875,-0.0025,0.06875));
#601=CARTESIAN_POINT('',(0.06875,-0.0025,0.06875));
#602=CARTESIAN_POINT('',(-0.06875,-0.0025,-1.38777878078145E-17));
#603=CARTESIAN_POINT('',(-0.06875,-0.0025,-0.06875));
#604=CARTESIAN_POINT('',(-0.06875,-0.0025,-0.06875));
#605=CARTESIAN_POINT('',(-0.06875,-0.0025,-1.38777878078145E-17));
#606=CARTESIAN_POINT('',(-1.38777878078145E-17,-0.0025,-0.06875));
#607=CARTESIAN_POINT('',(0.06875,-0.0025,-0.06875));
#608=CARTESIAN_POINT('',(0.06875,-0.0025,-0.06875));
#609=CARTESIAN_POINT('',(-1.38777878078145E-17,-0.0025,-0.06875));
#610=CARTESIAN_POINT('',(0.06875,-0.0025,-1.38777878078145E-17));
#611=CARTESIAN_POINT('',(0.06875,-0.0025,-1.38777878078145E-17));
#612=CARTESIAN_POINT('',(0.,-0.0025,0.));
#613=CARTESIAN_POINT('',(0.0406779654035311,-0.0015,0.));
#614=CARTESIAN_POINT('',(0.0295932203459647,-0.0015,0.));
#615=CARTESIAN_POINT('',(0.0295932203459647,-0.0015,0.));
#616=CARTESIAN_POINT('',(0.0406779654035311,-0.0015,0.));
#617=CARTESIAN_POINT('',(0.0517627104610975,-0.0015,0.));
#618=CARTESIAN_POINT('',(0.0517627104610975,-0.0015,0.));
#619=CARTESIAN_POINT('',(0.0517627104610975,-0.0015,0.006));
#620=CARTESIAN_POINT('',(0.0517627104610975,-0.0015,0.006));
#621=CARTESIAN_POINT('',(0.0517627104610975,-0.0015,0.012));
#622=CARTESIAN_POINT('',(0.0517627104610975,-0.0015,0.012));
#623=CARTESIAN_POINT('',(0.0406779654035311,-0.0015,0.012));
#624=CARTESIAN_POINT('',(0.0406779654035311,-0.0015,0.012));
#625=CARTESIAN_POINT('',(0.0295932203459647,-0.0015,0.012));
#626=CARTESIAN_POINT('',(0.0295932203459647,-0.0015,0.012));
#627=CARTESIAN_POINT('',(0.0295932203459647,-0.0015,0.006));
#628=CARTESIAN_POINT('',(0.0295932203459647,-0.0015,0.006));
#629=CARTESIAN_POINT('',(0.0406779654035311,-0.0015,0.0115423725287832));
#630=CARTESIAN_POINT('',(0.0293653530544838,-0.0015,0.0443759113550186));
#631=CARTESIAN_POINT('',(0.0294150109423798,-0.0015,0.0443759113550186));
#632=CARTESIAN_POINT('',(0.0294150109423798,-0.0015,0.0443759113550186));
#633=CARTESIAN_POINT('',(0.0293653530544838,-0.0015,0.0443759113550186));
#634=CARTESIAN_POINT('',(0.0293156951665879,-0.0015,0.0443759113550186));
#635=CARTESIAN_POINT('',(0.0293156951665879,-0.0015,0.0443759113550186));
#636=CARTESIAN_POINT('',(0.0293156951665879,-0.0015,0.036328467540443));
#637=CARTESIAN_POINT('',(0.0293156951665879,-0.0015,0.036328467540443));
#638=CARTESIAN_POINT('',(0.0293156951665879,-0.0015,0.0282810237258673));
#639=CARTESIAN_POINT('',(0.0293156951665879,-0.0015,0.0282810237258673));
#640=CARTESIAN_POINT('',(0.0395474471151829,-0.0015,0.0282810237258673));
#641=CARTESIAN_POINT('',(0.0395474471151829,-0.0015,0.0282810237258673));
#642=CARTESIAN_POINT('',(0.0497791990637779,-0.0015,0.0282810237258673));
#643=CARTESIAN_POINT('',(0.0497791990637779,-0.0015,0.0282810237258673));
#644=CARTESIAN_POINT('',(0.0497791990637779,-0.0015,0.036328467540443));
#645=CARTESIAN_POINT('',(0.0497791990637779,-0.0015,0.036328467540443));
#646=CARTESIAN_POINT('',(0.0497791990637779,-0.0015,0.0443759113550186));
#647=CARTESIAN_POINT('',(0.0497791990637779,-0.0015,0.0443759113550186));
#648=CARTESIAN_POINT('',(0.049729541175882,-0.0015,0.0443759113550186));
#649=CARTESIAN_POINT('',(0.049729541175882,-0.0015,0.0443759113550186));
#650=CARTESIAN_POINT('',(0.049679883287986,-0.0015,0.0443759113550186));
#651=CARTESIAN_POINT('',(0.049679883287986,-0.0015,0.0443759113550186));
#652=CARTESIAN_POINT('',(0.0395474471151829,-0.0015,0.0443759113550186));
#653=CARTESIAN_POINT('',(0.0395474471151829,-0.0015,0.0443759113550186));
#654=CARTESIAN_POINT('',(0.0395474471151829,-0.0015,0.0413946856268445));
#655=CARTESIAN_POINT('',(-0.0213832128793001,-0.0015,0.0531131401658058));
#656=CARTESIAN_POINT('',(0.0224178843200207,-0.0015,0.0531131401658058));
#657=CARTESIAN_POINT('',(0.0224178843200207,-0.0015,0.0531131401658058));
#658=CARTESIAN_POINT('',(-0.0213832128793001,-0.0015,0.0531131401658058));
#659=CARTESIAN_POINT('',(-0.0651843100786209,-0.0015,0.0531131401658058));
#660=CARTESIAN_POINT('',(-0.0651843100786209,-0.0015,0.0531131401658058));
#661=CARTESIAN_POINT('',(-0.0651843100786209,-0.0015,0.0265565700829029));
#662=CARTESIAN_POINT('',(-0.0651843100786209,-0.0015,0.0265565700829029));
#663=CARTESIAN_POINT('',(-0.0651843100786209,-0.0015,0.));
#664=CARTESIAN_POINT('',(-0.0651843100786209,-0.0015,0.));
#665=CARTESIAN_POINT('',(-0.0213832128793001,-0.0015,0.));
#666=CARTESIAN_POINT('',(-0.0213832128793001,-0.0015,0.));
#667=CARTESIAN_POINT('',(0.0224178843200207,-0.0015,0.));
#668=CARTESIAN_POINT('',(0.0224178843200207,-0.0015,0.));
#669=CARTESIAN_POINT('',(0.0224178843200207,-0.0015,0.0265565700829029));
#670=CARTESIAN_POINT('',(0.0224178843200207,-0.0015,0.0265565700829029));
#671=CARTESIAN_POINT('',(-0.0213832128793001,-0.0015,0.0265565700829029));
#672=MECHANICAL_DESIGN_GEOMETRIC_PRESENTATION_REPRESENTATION('',(#413),#673);
#673=(
GEOMETRIC_REPRESENTATION_CONTEXT(3)
GLOBAL_UNCERTAINTY_ASSIGNED_CONTEXT((#674))
GLOBAL_UNIT_ASSIGNED_CONTEXT((#677,#676,#675))
REPRESENTATION_CONTEXT('Side Wall_Decor','TOP_LEVEL_ASSEMBLY_PART')
);
#674=UNCERTAINTY_MEASURE_WITH_UNIT(LENGTH_MEASURE(1.E-08),#677,'DISTANCE_ACCURACY_VALUE','Maximum Tolerance applied to model');
#675=(
NAMED_UNIT(*)
SI_UNIT($,.STERADIAN.)
SOLID_ANGLE_UNIT()
);
#676=(
NAMED_UNIT(*)
PLANE_ANGLE_UNIT()
SI_UNIT($,.RADIAN.)
);
#677=(
LENGTH_UNIT()
NAMED_UNIT(*)
SI_UNIT($,.METRE.)
);
#678=PRODUCT_DEFINITION_SHAPE('','',#679);
#679=PRODUCT_DEFINITION('','',#681,#680);
#680=PRODUCT_DEFINITION_CONTEXT('',#687,'design');
#681=PRODUCT_DEFINITION_FORMATION_WITH_SPECIFIED_SOURCE('','',#683,.NOT_KNOWN.);
#682=PRODUCT_RELATED_PRODUCT_CATEGORY('','',(#683));
#683=PRODUCT('Side Wall_Decor','Side Wall_Decor','Side Wall_Decor',(#685));
#684=PRODUCT_CATEGORY('','');
#685=PRODUCT_CONTEXT('',#687,'mechanical');
#686=APPLICATION_PROTOCOL_DEFINITION('international standard','ap242_managed_model_based_3d_engineering',2020,#687);
#687=APPLICATION_CONTEXT('managed model based 3d engineering');
#688=SHAPE_ASPECT('DISTANCE.F1fIgrWZMXld5ld_2',$,#678,.T.);
#689=GEOMETRIC_ITEM_SPECIFIC_USAGE('','',#688,#11,#389);
#690=COMPOSITE_SHAPE_ASPECT('DISTANCE.F1fIgrWZMXld5ld_2',$,#678,$);
#691=SHAPE_ASPECT('DISTANCE.F1fIgrWZMXld5ld_2',$,#678,.T.);
#692=GEOMETRIC_ITEM_SPECIFIC_USAGE('','',#691,#11,#399);
#693=SHAPE_ASPECT_RELATIONSHIP('','',#690,#691);
#694=SHAPE_ASPECT('DISTANCE.F1fIgrWZMXld5ld_2',$,#678,.T.);
#695=GEOMETRIC_ITEM_SPECIFIC_USAGE('','',#694,#11,#406);
#696=SHAPE_ASPECT_RELATIONSHIP('','',#690,#694);
#697=SHAPE_ASPECT('DISTANCE.F1fIgrWZMXld5ld_2',$,#678,.T.);
#698=GEOMETRIC_ITEM_SPECIFIC_USAGE('','',#697,#11,#411);
#699=SHAPE_ASPECT_RELATIONSHIP('','',#690,#697);
#700=DIMENSIONAL_LOCATION('linear distance','DISTANCE.F1fIgrWZMXld5ld_2',#688,#690);
#702=(
LENGTH_UNIT()
NAMED_UNIT(*)
SI_UNIT(.CENTI.,.METRE.)
);
#703=PRECISION_QUALIFIER(3);
#701=(
LENGTH_MEASURE_WITH_UNIT()
MEASURE_REPRESENTATION_ITEM()
MEASURE_WITH_UNIT(POSITIVE_LENGTH_MEASURE(0.15),#702)
QUALIFIED_REPRESENTATION_ITEM((#703))
REPRESENTATION_ITEM('nominal value')
);
#704=SHAPE_DIMENSION_REPRESENTATION('',(#701),#673);
#705=DIMENSIONAL_CHARACTERISTIC_REPRESENTATION(#700,#704);
#706=PRESENTATION_STYLE_ASSIGNMENT((NULL_STYLE(.NULL.)));
#707=CARTESIAN_POINT('',(0.0240508478171815,-0.00075,0.0115423725287832));
#708=DIRECTION('',(0.,0.,-1.));
#709=DIRECTION('',(0.,-1.,0.));
#710=AXIS2_PLACEMENT_3D('',#707,#708,#709);
#711=PLANE('',#710);
#712=ANNOTATION_PLANE('',(#706),#711,(#739));
#713=CARTESIAN_POINT('',(0.,0.,0.));
#714=DIRECTION('',(0.,0.,1.));
#715=DIRECTION('',(1.,0.,0.));
#716=AXIS2_PLACEMENT_3D('',#713,#714,#715);
#717=CARTESIAN_POINT('',(0.,0.,0.));
#718=DIRECTION('',(0.,0.,1.));
#719=DIRECTION('',(1.,0.,0.));
#720=AXIS2_PLACEMENT_3D('',#717,#718,#719);
#721=SHAPE_REPRESENTATION('',(#720,#421),#673);
#722=REPRESENTATION_MAP(#716,#721);
#723=MAPPED_ITEM('',#722,#716);
#724=PRESENTATION_STYLE_ASSIGNMENT((NULL_STYLE(.NULL.)));
#725=STYLED_ITEM('',(#724),#723);
#726=DRAUGHTING_MODEL('',(#712,#716,#723,#725,#759,#763,#770,#772),#673);
#727=DRAUGHTING_PRE_DEFINED_CURVE_FONT('continuous');
#728=COLOUR_RGB('',0.,0.,0.);
#729=CURVE_STYLE('',#727,POSITIVE_LENGTH_MEASURE(0.02),#728);
#730=PRESENTATION_STYLE_ASSIGNMENT((#729));
#731=COORDINATES_LIST('coordinates',801,((0.0231564,-0.0026833,0.0115424),(0.0240508,0.,0.0115424),(0.0249453,-0.0026833,0.0115424),(0.0249453,0.0011833,0.0115424),(0.0240508,-0.0015000,0.0115424),(0.0231564,0.0011833,0.0115424),(0.0249426,0.0013646,0.0115424),(0.0248102,0.0013593,0.0115424),(0.0231200,0.0013593,0.0115424),(0.0249426,0.0013646,0.0115424),(0.0231200,0.0013593,0.0115424),(0.0229894,0.0013646,0.0115424),(0.0249426,0.0013646,0.0115424),(0.0229894,0.0013646,0.0115424),(0.0228648,0.0013805,0.0115424),(0.0249426,0.0013646,0.0115424),(0.0228648,0.0013805,0.0115424),(0.0227461,0.0014070,0.0115424),(0.0249426,0.0013646,0.0115424),(0.0227461,0.0014070,0.0115424),(0.0226335,0.0014442,0.0115424),(0.0249426,0.0013646,0.0115424),(0.0226335,0.0014442,0.0115424),(0.0225268,0.0014920,0.0115424),(0.0249426,0.0013646,0.0115424),(0.0225268,0.0014920,0.0115424),(0.0224261,0.0015504,0.0115424),(0.0249426,0.0013646,0.0115424),(0.0224261,0.0015504,0.0115424),(0.0223314,0.0016194,0.0115424),(0.0249426,0.0013646,0.0115424),(0.0223314,0.0016194,0.0115424),(0.0222427,0.0016990,0.0115424),(0.0249426,0.0013646,0.0115424),(0.0222427,0.0016990,0.0115424),(0.0221710,0.0017757,0.0115424),(0.0249426,0.0013646,0.0115424),(0.0221710,0.0017757,0.0115424),(0.0221089,0.0018554,0.0115424),(0.0249426,0.0013646,0.0115424),(0.0221089,0.0018554,0.0115424),(0.0220563,0.0019382,0.0115424),(0.0220563,0.0019382,0.0115424),(0.0220133,0.0020242,0.0115424),(0.0219798,0.0021131,0.0115424),(0.0220563,0.0019382,0.0115424),(0.0219798,0.0021131,0.0115424),(0.0219559,0.0022052,0.0115424),(0.0220563,0.0019382,0.0115424),(0.0219559,0.0022052,0.0115424),(0.0219416,0.0023003,0.0115424),(0.0220563,0.0019382,0.0115424),(0.0219416,0.0023003,0.0115424),(0.0219368,0.0023985,0.0115424),(0.0220563,0.0019382,0.0115424),(0.0219368,0.0023985,0.0115424),(0.0219416,0.0024956,0.0115424),(0.0220563,0.0019382,0.0115424),(0.0219416,0.0024956,0.0115424),(0.0219559,0.0025900,0.0115424),(0.0220563,0.0019382,0.0115424),(0.0219559,0.0025900,0.0115424),(0.0219798,0.0026818,0.0115424),(0.0220563,0.0019382,0.0115424),(0.0219798,0.0026818,0.0115424),(0.0220133,0.0027708,0.0115424),(0.0220563,0.0019382,0.0115424),(0.0220133,0.0027708,0.0115424),(0.0220563,0.0028572,0.0115424),(0.0220563,0.0019382,0.0115424),(0.0220563,0.0028572,0.0115424),(0.0221089,0.0029409,0.0115424),(0.0220563,0.0019382,0.0115424),(0.0221089,0.0029409,0.0115424),(0.0221710,0.0030219,0.0115424),(0.0220563,0.0019382,0.0115424),(0.0221710,0.0030219,0.0115424),(0.0222427,0.0031002,0.0115424),(0.0220563,0.0019382,0.0115424),(0.0222427,0.0031002,0.0115424),(0.0223297,0.0031798,0.0115424),(0.0220563,0.0019382,0.0115424),(0.0223297,0.0031798,0.0115424),(0.0224229,0.0032488,0.0115424),(0.0220563,0.0019382,0.0115424),(0.0224229,0.0032488,0.0115424),(0.0225223,0.0033072,0.0115424),(0.0220563,0.0019382,0.0115424),(0.0225223,0.0033072,0.0115424),(0.0226279,0.0033550,0.0115424),(0.0220563,0.0019382,0.0115424),(0.0226279,0.0033550,0.0115424),(0.0227398,0.0033922,0.0115424),(0.0227398,0.0033922,0.0115424),(0.0228578,0.0034187,0.0115424),(0.0229821,0.0034346,0.0115424),(0.0227398,0.0033922,0.0115424),(0.0229821,0.0034346,0.0115424),(0.0231126,0.0034399,0.0115424),(0.0227398,0.0033922,0.0115424),(0.0231126,0.0034399,0.0115424),(0.0231200,0.0034399,0.0115424),(0.0227398,0.0033922,0.0115424),(0.0231200,0.0034399,0.0115424),(0.0248144,0.0034399,0.0115424),(0.0227398,0.0033922,0.0115424),(0.0248144,0.0034399,0.0115424),(0.0249458,0.0034346,0.0115424),(0.0227398,0.0033922,0.0115424),(0.0249458,0.0034346,0.0115424),(0.0250709,0.0034187,0.0115424),(0.0227398,0.0033922,0.0115424),(0.0250709,0.0034187,0.0115424),(0.0251898,0.0033922,0.0115424),(0.0227398,0.0033922,0.0115424),(0.0251898,0.0033922,0.0115424),(0.0253026,0.0033550,0.0115424),(0.0227398,0.0033922,0.0115424),(0.0253026,0.0033550,0.0115424),(0.0254092,0.0033072,0.0115424),(0.0227398,0.0033922,0.0115424),(0.0254092,0.0033072,0.0115424),(0.0255096,0.0032488,0.0115424),(0.0227398,0.0033922,0.0115424),(0.0255096,0.0032488,0.0115424),(0.0256038,0.0031798,0.0115424),(0.0227398,0.0033922,0.0115424),(0.0256038,0.0031798,0.0115424),(0.0256918,0.0031002,0.0115424),(0.0256918,0.0031002,0.0115424),(0.0253955,0.0027965,0.0115424),(0.0252791,0.0028905,0.0115424),(0.0256918,0.0031002,0.0115424),(0.0252791,0.0028905,0.0115424),(0.0251428,0.0029576,0.0115424),(0.0256918,0.0031002,0.0115424),(0.0251428,0.0029576,0.0115424),(0.0249865,0.0029979,0.0115424),(0.0227398,0.0033922,0.0115424),(0.0256918,0.0031002,0.0115424),(0.0249865,0.0029979,0.0115424),(0.0227398,0.0033922,0.0115424),(0.0249865,0.0029979,0.0115424),(0.0249008,0.0030080,0.0115424),(0.0227398,0.0033922,0.0115424),(0.0249008,0.0030080,0.0115424),(0.0248102,0.0030113,0.0115424),(0.0227398,0.0033922,0.0115424),(0.0248102,0.0030113,0.0115424),(0.0231126,0.0030113,0.0115424),(0.0227398,0.0033922,0.0115424),(0.0231126,0.0030113,0.0115424),(0.0230243,0.0030080,0.0115424),(0.0227398,0.0033922,0.0115424),(0.0230243,0.0030080,0.0115424),(0.0229409,0.0029980,0.0115424),(0.0227398,0.0033922,0.0115424),(0.0229409,0.0029980,0.0115424),(0.0228624,0.0029814,0.0115424),(0.0227398,0.0033922,0.0115424),(0.0228624,0.0029814,0.0115424),(0.0227888,0.0029581,0.0115424),(0.0227398,0.0033922,0.0115424),(0.0227888,0.0029581,0.0115424),(0.0226562,0.0028917,0.0115424),(0.0227398,0.0033922,0.0115424),(0.0226562,0.0028917,0.0115424),(0.0225433,0.0027986,0.0115424),(0.0227398,0.0033922,0.0115424),(0.0225433,0.0027986,0.0115424),(0.0224645,0.0027033,0.0115424),(0.0227398,0.0033922,0.0115424),(0.0224645,0.0027033,0.0115424),(0.0224083,0.0026049,0.0115424),(0.0220563,0.0019382,0.0115424),(0.0227398,0.0033922,0.0115424),(0.0224083,0.0026049,0.0115424),(0.0220563,0.0019382,0.0115424),(0.0224083,0.0026049,0.0115424),(0.0223746,0.0025033,0.0115424),(0.0220563,0.0019382,0.0115424),(0.0223746,0.0025033,0.0115424),(0.0223633,0.0023985,0.0115424),(0.0220563,0.0019382,0.0115424),(0.0223633,0.0023985,0.0115424),(0.0223746,0.0022895,0.0115424),(0.0220563,0.0019382,0.0115424),(0.0223746,0.0022895,0.0115424),(0.0224083,0.0021866,0.0115424),(0.0220563,0.0019382,0.0115424),(0.0224083,0.0021866,0.0115424),(0.0224645,0.0020900,0.0115424),(0.0220563,0.0019382,0.0115424),(0.0224645,0.0020900,0.0115424),(0.0225433,0.0019996,0.0115424),(0.0220563,0.0019382,0.0115424),(0.0225433,0.0019996,0.0115424),(0.0226619,0.0019065,0.0115424),(0.0220563,0.0019382,0.0115424),(0.0226619,0.0019065,0.0115424),(0.0227975,0.0018400,0.0115424),(0.0220563,0.0019382,0.0115424),(0.0227975,0.0018400,0.0115424),(0.0229502,0.0018001,0.0115424),(0.0249426,0.0013646,0.0115424),(0.0220563,0.0019382,0.0115424),(0.0229502,0.0018001,0.0115424),(0.0249426,0.0013646,0.0115424),(0.0229502,0.0018001,0.0115424),(0.0230330,0.0017901,0.0115424),(0.0249426,0.0013646,0.0115424),(0.0230330,0.0017901,0.0115424),(0.0231200,0.0017868,0.0115424),(0.0249426,0.0013646,0.0115424),(0.0231200,0.0017868,0.0115424),(0.0248102,0.0017868,0.0115424),(0.0249426,0.0013646,0.0115424),(0.0248102,0.0017868,0.0115424),(0.0248998,0.0017901,0.0115424),(0.0249426,0.0013646,0.0115424),(0.0248998,0.0017901,0.0115424),(0.0249846,0.0018001,0.0115424),(0.0249426,0.0013646,0.0115424),(0.0249846,0.0018001,0.0115424),(0.0250645,0.0018167,0.0115424),(0.0249426,0.0013646,0.0115424),(0.0250645,0.0018167,0.0115424),(0.0251396,0.0018400,0.0115424),(0.0249426,0.0013646,0.0115424),(0.0251396,0.0018400,0.0115424),(0.0252751,0.0019065,0.0115424),(0.0249426,0.0013646,0.0115424),(0.0252751,0.0019065,0.0115424),(0.0253912,0.0019996,0.0115424),(0.0249426,0.0013646,0.0115424),(0.0253912,0.0019996,0.0115424),(0.0254690,0.0020908,0.0115424),(0.0254714,0.0027049,0.0115424),(0.0253955,0.0027965,0.0115424),(0.0256918,0.0031002,0.0115424),(0.0255256,0.0026081,0.0115424),(0.0254714,0.0027049,0.0115424),(0.0256918,0.0031002,0.0115424),(0.0255582,0.0025060,0.0115424),(0.0255256,0.0026081,0.0115424),(0.0256918,0.0031002,0.0115424),(0.0255690,0.0023985,0.0115424),(0.0255582,0.0025060,0.0115424),(0.0256918,0.0031002,0.0115424),(0.0255579,0.0022903,0.0115424),(0.0255690,0.0023985,0.0115424),(0.0256918,0.0031002,0.0115424),(0.0255579,0.0022903,0.0115424),(0.0256918,0.0031002,0.0115424),(0.0257625,0.0030233,0.0115424),(0.0255579,0.0022903,0.0115424),(0.0257625,0.0030233,0.0115424),(0.0258238,0.0029435,0.0115424),(0.0255246,0.0021877,0.0115424),(0.0255579,0.0022903,0.0115424),(0.0258238,0.0029435,0.0115424),(0.0255246,0.0021877,0.0115424),(0.0258238,0.0029435,0.0115424),(0.0258756,0.0028608,0.0115424),(0.0255246,0.0021877,0.0115424),(0.0258756,0.0028608,0.0115424),(0.0259180,0.0027750,0.0115424),(0.0254690,0.0020908,0.0115424),(0.0255246,0.0021877,0.0115424),(0.0259180,0.0027750,0.0115424),(0.0254690,0.0020908,0.0115424),(0.0259180,0.0027750,0.0115424),(0.0259510,0.0026864,0.0115424),(0.0249426,0.0013646,0.0115424),(0.0254690,0.0020908,0.0115424),(0.0259510,0.0026864,0.0115424),(0.0249426,0.0013646,0.0115424),(0.0259510,0.0026864,0.0115424),(0.0259746,0.0025948,0.0115424),(0.0249426,0.0013646,0.0115424),(0.0259746,0.0025948,0.0115424),(0.0259887,0.0025003,0.0115424),(0.0249426,0.0013646,0.0115424),(0.0259887,0.0025003,0.0115424),(0.0259934,0.0024028,0.0115424),(0.0249426,0.0013646,0.0115424),(0.0259934,0.0024028,0.0115424),(0.0259888,0.0023036,0.0115424),(0.0249426,0.0013646,0.0115424),(0.0259888,0.0023036,0.0115424),(0.0259749,0.0022077,0.0115424),(0.0249426,0.0013646,0.0115424),(0.0259749,0.0022077,0.0115424),(0.0259517,0.0021151,0.0115424),(0.0249426,0.0013646,0.0115424),(0.0259517,0.0021151,0.0115424),(0.0259193,0.0020257,0.0115424),(0.0249426,0.0013646,0.0115424),(0.0259193,0.0020257,0.0115424),(0.0258777,0.0019397,0.0115424),(0.0249426,0.0013646,0.0115424),(0.0258777,0.0019397,0.0115424),(0.0258267,0.0018569,0.0115424),(0.0249426,0.0013646,0.0115424),(0.0258267,0.0018569,0.0115424),(0.0257665,0.0017773,0.0115424),(0.0249426,0.0013646,0.0115424),(0.0257665,0.0017773,0.0115424),(0.0256971,0.0017011,0.0115424),(0.0249426,0.0013646,0.0115424),(0.0256971,0.0017011,0.0115424),(0.0256078,0.0016210,0.0115424),(0.0249426,0.0013646,0.0115424),(0.0256078,0.0016210,0.0115424),(0.0255123,0.0015515,0.0115424),(0.0249426,0.0013646,0.0115424),(0.0255123,0.0015515,0.0115424),(0.0254106,0.0014928,0.0115424),(0.0249426,0.0013646,0.0115424),(0.0254106,0.0014928,0.0115424),(0.0253029,0.0014447,0.0115424),(0.0249426,0.0013646,0.0115424),(0.0253029,0.0014447,0.0115424),(0.0251889,0.0014073,0.0115424),(0.0249426,0.0013646,0.0115424),(0.0251889,0.0014073,0.0115424),(0.0250688,0.0013806,0.0115424),(0.0250737,-0.0028984,0.0115424),(0.0251224,-0.0029005,0.0115424),(0.0252145,-0.0029245,0.0115424),(0.0250737,-0.0028984,0.0115424),(0.0252145,-0.0029245,0.0115424),(0.0253008,-0.0029523,0.0115424),(0.0250737,-0.0028984,0.0115424),(0.0253008,-0.0029523,0.0115424),(0.0253813,-0.0029841,0.0115424),(0.0250737,-0.0028984,0.0115424),(0.0253813,-0.0029841,0.0115424),(0.0254560,-0.0030199,0.0115424),(0.0250737,-0.0028984,0.0115424),(0.0254560,-0.0030199,0.0115424),(0.0255250,-0.0030595,0.0115424),(0.0250737,-0.0028984,0.0115424),(0.0255250,-0.0030595,0.0115424),(0.0255881,-0.0031031,0.0115424),(0.0250737,-0.0028984,0.0115424),(0.0255881,-0.0031031,0.0115424),(0.0256971,-0.0032022,0.0115424),(0.0250737,-0.0028984,0.0115424),(0.0256971,-0.0032022,0.0115424),(0.0257665,-0.0032831,0.0115424),(0.0250737,-0.0028984,0.0115424),(0.0257665,-0.0032831,0.0115424),(0.0258267,-0.0033663,0.0115424),(0.0250737,-0.0028984,0.0115424),(0.0258267,-0.0033663,0.0115424),(0.0258777,-0.0034515,0.0115424),(0.0250737,-0.0028984,0.0115424),(0.0258777,-0.0034515,0.0115424),(0.0259193,-0.0035390,0.0115424),(0.0250737,-0.0028984,0.0115424),(0.0259193,-0.0035390,0.0115424),(0.0259517,-0.0036286,0.0115424),(0.0250737,-0.0028984,0.0115424),(0.0259517,-0.0036286,0.0115424),(0.0259749,-0.0037203,0.0115424),(0.0250737,-0.0028984,0.0115424),(0.0259749,-0.0037203,0.0115424),(0.0259888,-0.0038142,0.0115424),(0.0250737,-0.0028984,0.0115424),(0.0259888,-0.0038142,0.0115424),(0.0259934,-0.0039102,0.0115424),(0.0250737,-0.0028984,0.0115424),(0.0259934,-0.0039102,0.0115424),(0.0259887,-0.0040054,0.0115424),(0.0250737,-0.0028984,0.0115424),(0.0259887,-0.0040054,0.0115424),(0.0259746,-0.0040980,0.0115424),(0.0250737,-0.0028984,0.0115424),(0.0259746,-0.0040980,0.0115424),(0.0259510,-0.0041880,0.0115424),(0.0250737,-0.0028984,0.0115424),(0.0259510,-0.0041880,0.0115424),(0.0259180,-0.0042753,0.0115424),(0.0259180,-0.0042753,0.0115424),(0.0258756,-0.0043600,0.0115424),(0.0258238,-0.0044420,0.0115424),(0.0259180,-0.0042753,0.0115424),(0.0258238,-0.0044420,0.0115424),(0.0257625,-0.0045214,0.0115424),(0.0259180,-0.0042753,0.0115424),(0.0257625,-0.0045214,0.0115424),(0.0256918,-0.0045981,0.0115424),(0.0259180,-0.0042753,0.0115424),(0.0256918,-0.0045981,0.0115424),(0.0256036,-0.0046782,0.0115424),(0.0259180,-0.0042753,0.0115424),(0.0256036,-0.0046782,0.0115424),(0.0255087,-0.0047477,0.0115424),(0.0259180,-0.0042753,0.0115424),(0.0255087,-0.0047477,0.0115424),(0.0254072,-0.0048064,0.0115424),(0.0259180,-0.0042753,0.0115424),(0.0254072,-0.0048064,0.0115424),(0.0252992,-0.0048545,0.0115424),(0.0259180,-0.0042753,0.0115424),(0.0252992,-0.0048545,0.0115424),(0.0251845,-0.0048919,0.0115424),(0.0259180,-0.0042753,0.0115424),(0.0251845,-0.0048919,0.0115424),(0.0250631,-0.0049186,0.0115424),(0.0259180,-0.0042753,0.0115424),(0.0250631,-0.0049186,0.0115424),(0.0249352,-0.0049346,0.0115424),(0.0259180,-0.0042753,0.0115424),(0.0249352,-0.0049346,0.0115424),(0.0248007,-0.0049399,0.0115424),(0.0259180,-0.0042753,0.0115424),(0.0248007,-0.0049399,0.0115424),(0.0246974,-0.0049387,0.0115424),(0.0259180,-0.0042753,0.0115424),(0.0246974,-0.0049387,0.0115424),(0.0245982,-0.0049348,0.0115424),(0.0259180,-0.0042753,0.0115424),(0.0245982,-0.0049348,0.0115424),(0.0245030,-0.0049283,0.0115424),(0.0259180,-0.0042753,0.0115424),(0.0245030,-0.0049283,0.0115424),(0.0244118,-0.0049193,0.0115424),(0.0259180,-0.0042753,0.0115424),(0.0244118,-0.0049193,0.0115424),(0.0243247,-0.0049077,0.0115424),(0.0259180,-0.0042753,0.0115424),(0.0243247,-0.0049077,0.0115424),(0.0242416,-0.0048935,0.0115424),(0.0259180,-0.0042753,0.0115424),(0.0242416,-0.0048935,0.0115424),(0.0241626,-0.0048767,0.0115424),(0.0259180,-0.0042753,0.0115424),(0.0241626,-0.0048767,0.0115424),(0.0240876,-0.0048574,0.0115424),(0.0259180,-0.0042753,0.0115424),(0.0240876,-0.0048574,0.0115424),(0.0239498,-0.0048110,0.0115424),(0.0239498,-0.0048110,0.0115424),(0.0238281,-0.0047542,0.0115424),(0.0237226,-0.0046871,0.0115424),(0.0239498,-0.0048110,0.0115424),(0.0237226,-0.0046871,0.0115424),(0.0236333,-0.0046097,0.0115424),(0.0239498,-0.0048110,0.0115424),(0.0236333,-0.0046097,0.0115424),(0.0235639,-0.0045303,0.0115424),(0.0239498,-0.0048110,0.0115424),(0.0235639,-0.0045303,0.0115424),(0.0235037,-0.0044484,0.0115424),(0.0239498,-0.0048110,0.0115424),(0.0235037,-0.0044484,0.0115424),(0.0234528,-0.0043642,0.0115424),(0.0239498,-0.0048110,0.0115424),(0.0234528,-0.0043642,0.0115424),(0.0234111,-0.0042777,0.0115424),(0.0239498,-0.0048110,0.0115424),(0.0234111,-0.0042777,0.0115424),(0.0233787,-0.0041888,0.0115424),(0.0239498,-0.0048110,0.0115424),(0.0233787,-0.0041888,0.0115424),(0.0233555,-0.0040976,0.0115424),(0.0239498,-0.0048110,0.0115424),(0.0233555,-0.0040976,0.0115424),(0.0233416,-0.0040040,0.0115424),(0.0239498,-0.0048110,0.0115424),(0.0233416,-0.0040040,0.0115424),(0.0233370,-0.0039081,0.0115424),(0.0239498,-0.0048110,0.0115424),(0.0233370,-0.0039081,0.0115424),(0.0233403,-0.0038228,0.0115424),(0.0239498,-0.0048110,0.0115424),(0.0233403,-0.0038228,0.0115424),(0.0233500,-0.0037404,0.0115424),(0.0239498,-0.0048110,0.0115424),(0.0233500,-0.0037404,0.0115424),(0.0233663,-0.0036610,0.0115424),(0.0239498,-0.0048110,0.0115424),(0.0233663,-0.0036610,0.0115424),(0.0233891,-0.0035845,0.0115424),(0.0239498,-0.0048110,0.0115424),(0.0233891,-0.0035845,0.0115424),(0.0234543,-0.0034403,0.0115424),(0.0239498,-0.0048110,0.0115424),(0.0234543,-0.0034403,0.0115424),(0.0235455,-0.0033080,0.0115424),(0.0223676,-0.0033503,0.0115424),(0.0223676,-0.0046256,0.0115424),(0.0223517,-0.0047071,0.0115424),(0.0223676,-0.0033503,0.0115424),(0.0223517,-0.0047071,0.0115424),(0.0223041,-0.0047759,0.0115424),(0.0223676,-0.0033503,0.0115424),(0.0223041,-0.0047759,0.0115424),(0.0222347,-0.0048227,0.0115424),(0.0223676,-0.0033503,0.0115424),(0.0222347,-0.0048227,0.0115424),(0.0221538,-0.0048383,0.0115424),(0.0223676,-0.0033503,0.0115424),(0.0221538,-0.0048383,0.0115424),(0.0220731,-0.0048227,0.0115424),(0.0223676,-0.0033503,0.0115424),(0.0220731,-0.0048227,0.0115424),(0.0220046,-0.0047759,0.0115424),(0.0223676,-0.0033503,0.0115424),(0.0220046,-0.0047759,0.0115424),(0.0219569,-0.0047071,0.0115424),(0.0223676,-0.0033503,0.0115424),(0.0219569,-0.0047071,0.0115424),(0.0219411,-0.0046256,0.0115424),(0.0223676,-0.0033503,0.0115424),(0.0219411,-0.0046256,0.0115424),(0.0219411,-0.0031535,0.0115424),(0.0235455,-0.0033080,0.0115424),(0.0223676,-0.0033503,0.0115424),(0.0219411,-0.0031535,0.0115424),(0.0235455,-0.0033080,0.0115424),(0.0219411,-0.0031535,0.0115424),(0.0219551,-0.0030730,0.0115424),(0.0235455,-0.0033080,0.0115424),(0.0219551,-0.0030730,0.0115424),(0.0219972,-0.0030032,0.0115424),(0.0235455,-0.0033080,0.0115424),(0.0219972,-0.0030032,0.0115424),(0.0220622,-0.0029556,0.0115424),(0.0235455,-0.0033080,0.0115424),(0.0220622,-0.0029556,0.0115424),(0.0221411,-0.0029397,0.0115424),(0.0235455,-0.0033080,0.0115424),(0.0221411,-0.0029397,0.0115424),(0.0242059,-0.0028593,0.0115424),(0.0235455,-0.0033080,0.0115424),(0.0242059,-0.0028593,0.0115424),(0.0242853,-0.0028725,0.0115424),(0.0235455,-0.0033080,0.0115424),(0.0242853,-0.0028725,0.0115424),(0.0243562,-0.0029122,0.0115424),(0.0235455,-0.0033080,0.0115424),(0.0243562,-0.0029122,0.0115424),(0.0244102,-0.0029773,0.0115424),(0.0235455,-0.0033080,0.0115424),(0.0244102,-0.0029773,0.0115424),(0.0244281,-0.0030603,0.0115424),(0.0235455,-0.0033080,0.0115424),(0.0244281,-0.0030603,0.0115424),(0.0244146,-0.0031416,0.0115424),(0.0235455,-0.0033080,0.0115424),(0.0244146,-0.0031416,0.0115424),(0.0243742,-0.0032138,0.0115424),(0.0235455,-0.0033080,0.0115424),(0.0243742,-0.0032138,0.0115424),(0.0242726,-0.0032762,0.0115424),(0.0235455,-0.0033080,0.0115424),(0.0242726,-0.0032762,0.0115424),(0.0241874,-0.0033102,0.0115424),(0.0235455,-0.0033080,0.0115424),(0.0241874,-0.0033102,0.0115424),(0.0241035,-0.0033593,0.0115424),(0.0235455,-0.0033080,0.0115424),(0.0241035,-0.0033593,0.0115424),(0.0240208,-0.0034235,0.0115424),(0.0235455,-0.0033080,0.0115424),(0.0240208,-0.0034235,0.0115424),(0.0239392,-0.0035027,0.0115424),(0.0235455,-0.0033080,0.0115424),(0.0239392,-0.0035027,0.0115424),(0.0238614,-0.0035983,0.0115424),(0.0235455,-0.0033080,0.0115424),(0.0238614,-0.0035983,0.0115424),(0.0238058,-0.0036977,0.0115424),(0.0235455,-0.0033080,0.0115424),(0.0238058,-0.0036977,0.0115424),(0.0237725,-0.0038010,0.0115424),(0.0235455,-0.0033080,0.0115424),(0.0237725,-0.0038010,0.0115424),(0.0237614,-0.0039081,0.0115424),(0.0235455,-0.0033080,0.0115424),(0.0237614,-0.0039081,0.0115424),(0.0237725,-0.0040146,0.0115424),(0.0239498,-0.0048110,0.0115424),(0.0235455,-0.0033080,0.0115424),(0.0237725,-0.0040146,0.0115424),(0.0239498,-0.0048110,0.0115424),(0.0237725,-0.0040146,0.0115424),(0.0238058,-0.0041171,0.0115424),(0.0239498,-0.0048110,0.0115424),(0.0238058,-0.0041171,0.0115424),(0.0238614,-0.0042156,0.0115424),(0.0239498,-0.0048110,0.0115424),(0.0238614,-0.0042156,0.0115424),(0.0239392,-0.0043102,0.0115424),(0.0239498,-0.0048110,0.0115424),(0.0239392,-0.0043102,0.0115424),(0.0240678,-0.0044005,0.0115424),(0.0239498,-0.0048110,0.0115424),(0.0240678,-0.0044005,0.0115424),(0.0241539,-0.0044360,0.0115424),(0.0239498,-0.0048110,0.0115424),(0.0241539,-0.0044360,0.0115424),(0.0242546,-0.0044650,0.0115424),(0.0239498,-0.0048110,0.0115424),(0.0242546,-0.0044650,0.0115424),(0.0243698,-0.0044876,0.0115424),(0.0239498,-0.0048110,0.0115424),(0.0243698,-0.0044876,0.0115424),(0.0244996,-0.0045037,0.0115424),(0.0239498,-0.0048110,0.0115424),(0.0244996,-0.0045037,0.0115424),(0.0246439,-0.0045134,0.0115424),(0.0239498,-0.0048110,0.0115424),(0.0246439,-0.0045134,0.0115424),(0.0248028,-0.0045166,0.0115424),(0.0239498,-0.0048110,0.0115424),(0.0248028,-0.0045166,0.0115424),(0.0248942,-0.0045132,0.0115424),(0.0239498,-0.0048110,0.0115424),(0.0248942,-0.0045132,0.0115424),(0.0249807,-0.0045028,0.0115424),(0.0239498,-0.0048110,0.0115424),(0.0249807,-0.0045028,0.0115424),(0.0250623,-0.0044857,0.0115424),(0.0259180,-0.0042753,0.0115424),(0.0239498,-0.0048110,0.0115424),(0.0250623,-0.0044857,0.0115424),(0.0259180,-0.0042753,0.0115424),(0.0250623,-0.0044857,0.0115424),(0.0251388,-0.0044616,0.0115424),(0.0259180,-0.0042753,0.0115424),(0.0251388,-0.0044616,0.0115424),(0.0252771,-0.0043928,0.0115424),(0.0259180,-0.0042753,0.0115424),(0.0252771,-0.0043928,0.0115424),(0.0253955,-0.0042965,0.0115424),(0.0259180,-0.0042753,0.0115424),(0.0253955,-0.0042965,0.0115424),(0.0254714,-0.0042052,0.0115424),(0.0259180,-0.0042753,0.0115424),(0.0254714,-0.0042052,0.0115424),(0.0255256,-0.0041092,0.0115424),(0.0259180,-0.0042753,0.0115424),(0.0255256,-0.0041092,0.0115424),(0.0255582,-0.0040083,0.0115424),(0.0259180,-0.0042753,0.0115424),(0.0255582,-0.0040083,0.0115424),(0.0255690,-0.0039028,0.0115424),(0.0259180,-0.0042753,0.0115424),(0.0255690,-0.0039028,0.0115424),(0.0255578,-0.0038002,0.0115424),(0.0259180,-0.0042753,0.0115424),(0.0255578,-0.0038002,0.0115424),(0.0255240,-0.0036977,0.0115424),(0.0259180,-0.0042753,0.0115424),(0.0255240,-0.0036977,0.0115424),(0.0254678,-0.0035954,0.0115424),(0.0250737,-0.0028984,0.0115424),(0.0259180,-0.0042753,0.0115424),(0.0254678,-0.0035954,0.0115424),(0.0250737,-0.0028984,0.0115424),(0.0254678,-0.0035954,0.0115424),(0.0253891,-0.0034932,0.0115424),(0.0250737,-0.0028984,0.0115424),(0.0253891,-0.0034932,0.0115424),(0.0252462,-0.0033911,0.0115424),(0.0250737,-0.0028984,0.0115424),(0.0252462,-0.0033911,0.0115424),(0.0251462,-0.0033515,0.0115424),(0.0250737,-0.0028984,0.0115424),(0.0251462,-0.0033515,0.0115424),(0.0250272,-0.0033196,0.0115424),(0.0250737,-0.0028984,0.0115424),(0.0250272,-0.0033196,0.0115424),(0.0249545,-0.0032756,0.0115424),(0.0250737,-0.0028984,0.0115424),(0.0249545,-0.0032756,0.0115424),(0.0249025,-0.0032270,0.0115424),(0.0250737,-0.0028984,0.0115424),(0.0249025,-0.0032270,0.0115424),(0.0248610,-0.0031164,0.0115424),(0.0250737,-0.0028984,0.0115424),(0.0248610,-0.0031164,0.0115424),(0.0248610,-0.0031090,0.0115424),(0.0250737,-0.0028984,0.0115424),(0.0248610,-0.0031090,0.0115424),(0.0248767,-0.0030351,0.0115424),(0.0250737,-0.0028984,0.0115424),(0.0248767,-0.0030351,0.0115424),(0.0249174,-0.0029754,0.0115424),(0.0219347,-0.0014855,0.0115424),(0.0219813,-0.0013681,0.0115424),(0.0224829,-0.0007606,0.0115424),(0.0219347,-0.0014855,0.0115424),(0.0224829,-0.0007606,0.0115424),(0.0225507,-0.0007029,0.0115424),(0.0219347,-0.0014855,0.0115424),(0.0225507,-0.0007029,0.0115424),(0.0226226,-0.0006780,0.0115424),(0.0219347,-0.0014855,0.0115424),(0.0226226,-0.0006780,0.0115424),(0.0226565,-0.0006780,0.0115424),(0.0219347,-0.0014855,0.0115424),(0.0226565,-0.0006780,0.0115424),(0.0227846,-0.0007119,0.0115424),(0.0219347,-0.0014855,0.0115424),(0.0227846,-0.0007119,0.0115424),(0.0228414,-0.0007712,0.0115424),(0.0219347,-0.0014855,0.0115424),(0.0228414,-0.0007712,0.0115424),(0.0228703,-0.0008516,0.0115424),(0.0219347,-0.0014855,0.0115424),(0.0228703,-0.0008516,0.0115424),(0.0228724,-0.0008929,0.0115424),(0.0219347,-0.0014855,0.0115424),(0.0228724,-0.0008929,0.0115424),(0.0228354,-0.0010082,0.0115424),(0.0219347,-0.0014855,0.0115424),(0.0228354,-0.0010082,0.0115424),(0.0225962,-0.0012792,0.0115424),(0.0219347,-0.0014855,0.0115424),(0.0225962,-0.0012792,0.0115424),(0.0257818,-0.0012792,0.0115424),(0.0219347,-0.0014855,0.0115424),(0.0257818,-0.0012792,0.0115424),(0.0258638,-0.0012945,0.0115424),(0.0219347,-0.0014855,0.0115424),(0.0258638,-0.0012945,0.0115424),(0.0259320,-0.0013406,0.0115424),(0.0219347,-0.0014855,0.0115424),(0.0259320,-0.0013406,0.0115424),(0.0259781,-0.0014088,0.0115424),(0.0219347,-0.0014855,0.0115424),(0.0259781,-0.0014088,0.0115424),(0.0259934,-0.0014908,0.0115424),(0.0219347,-0.0014855,0.0115424),(0.0259934,-0.0014908,0.0115424),(0.0259781,-0.0015736,0.0115424),(0.0219347,-0.0014855,0.0115424),(0.0259781,-0.0015736,0.0115424),(0.0259320,-0.0016422,0.0115424),(0.0219347,-0.0014855,0.0115424),(0.0259320,-0.0016422,0.0115424),(0.0258638,-0.0016882,0.0115424),(0.0219347,-0.0014855,0.0115424),(0.0258638,-0.0016882,0.0115424),(0.0257818,-0.0017036,0.0115424),(0.0219347,-0.0014855,0.0115424),(0.0257818,-0.0017036,0.0115424),(0.0221548,-0.0017036,0.0115424),(0.0219347,-0.0014855,0.0115424),(0.0221548,-0.0017036,0.0115424),(0.0220416,-0.0016752,0.0115424),(0.0219347,-0.0014855,0.0115424),(0.0220416,-0.0016752,0.0115424),(0.0219665,-0.0015903,0.0115424),(0.0259630,0.0009010,0.0115424),(0.0260696,0.0008280,0.0115424),(0.0261426,0.0007213,0.0115424),(0.0259630,0.0009010,0.0115424),(0.0261426,0.0007213,0.0115424),(0.0261670,0.0005962,0.0115424),(0.0259630,0.0009010,0.0115424),(0.0261670,0.0005962,0.0115424),(0.0261426,0.0004713,0.0115424),(0.0259630,0.0009010,0.0115424),(0.0261426,0.0004713,0.0115424),(0.0260696,0.0003655,0.0115424),(0.0259630,0.0009010,0.0115424),(0.0260696,0.0003655,0.0115424),(0.0259630,0.0002925,0.0115424),(0.0259630,0.0009010,0.0115424),(0.0259630,0.0002925,0.0115424),(0.0258378,0.0002681,0.0115424),(0.0259630,0.0009010,0.0115424),(0.0258378,0.0002681,0.0115424),(0.0257127,0.0002925,0.0115424),(0.0259630,0.0009010,0.0115424),(0.0257127,0.0002925,0.0115424),(0.0256061,0.0003655,0.0115424),(0.0259630,0.0009010,0.0115424),(0.0256061,0.0003655,0.0115424),(0.0255330,0.0004713,0.0115424),(0.0259630,0.0009010,0.0115424),(0.0255330,0.0004713,0.0115424),(0.0255087,0.0005962,0.0115424),(0.0259630,0.0009010,0.0115424),(0.0255087,0.0005962,0.0115424),(0.0255330,0.0007213,0.0115424),(0.0259630,0.0009010,0.0115424),(0.0255330,0.0007213,0.0115424),(0.0256061,0.0008280,0.0115424),(0.0259630,0.0009010,0.0115424),(0.0256061,0.0008280,0.0115424),(0.0257127,0.0009010,0.0115424),(0.0259630,0.0009010,0.0115424),(0.0257127,0.0009010,0.0115424),(0.0258378,0.0009253,0.0115424)));
#732=COMPLEX_TRIANGULATED_SURFACE_SET('surface set',#731,801,(),(),(),((1,2,3),(4,5,6),(7,8,9),(10,11,12),(13,14,15),(16,17,18),(19,20,21),(22,23,24),(25,26,27),(28,29,30),(31,32,33),(34,35,36),(37,38,39),(40,41,42),(43,44,45),(46,47,48),(49,50,51),(52,53,54),(55,56,57),(58,59,60),(61,62,63),(64,65,66),(67,68,69),(70,71,72),(73,74,75),(76,77,78),(79,80,81),(82,83,84),(85,86,87),(88,89,90),(91,92,93),(94,95,96),(97,98,99),(100,101,102),(103,104,105),(106,107,108),(109,110,111),(112,113,114),(115,116,117),(118,119,120),(121,122,123),(124,125,126),(127,128,129),(130,131,132),(133,134,135),(136,137,138),(139,140,141),(142,143,144),(145,146,147),(148,149,150),(151,152,153),(154,155,156),(157,158,159),(160,161,162),(163,164,165),(166,167,168),(169,170,171),(172,173,174),(175,176,177),(178,179,180),(181,182,183),(184,185,186),(187,188,189),(190,191,192),(193,194,195),(196,197,198),(199,200,201),(202,203,204),(205,206,207),(208,209,210),(211,212,213),(214,215,216),(217,218,219),(220,221,222),(223,224,225),(226,227,228),(229,230,231),(232,233,234),(235,236,237),(238,239,240),(241,242,243),(244,245,246),(247,248,249),(250,251,252),(253,254,255),(256,257,258),(259,260,261),(262,263,264),(265,266,267),(268,269,270),(271,272,273),(274,275,276),(277,278,279),(280,281,282),(283,284,285),(286,287,288),(289,290,291),(292,293,294),(295,296,297),(298,299,300),(301,302,303),(304,305,306),(307,308,309),(310,311,312),(313,314,315),(316,317,318),(319,320,321),(322,323,324),(325,326,327),(328,329,330),(331,332,333),(334,335,336),(337,338,339),(340,341,342),(343,344,345),(346,347,348),(349,350,351),(352,353,354),(355,356,357),(358,359,360),(361,362,363),(364,365,366),(367,368,369),(370,371,372),(373,374,375),(376,377,378),(379,380,381),(382,383,384),(385,386,387),(388,389,390),(391,392,393),(394,395,396),(397,398,399),(400,401,402),(403,404,405),(406,407,408),(409,410,411),(412,413,414),(415,416,417),(418,419,420),(421,422,423),(424,425,426),(427,428,429),(430,431,432),(433,434,435),(436,437,438),(439,440,441),(442,443,444),(445,446,447),(448,449,450),(451,452,453),(454,455,456),(457,458,459),(460,461,462),(463,464,465),(466,467,468),(469,470,471),(472,473,474),(475,476,477),(478,479,480),(481,482,483),(484,485,486),(487,488,489),(490,491,492),(493,494,495),(496,497,498),(499,500,501),(502,503,504),(505,506,507),(508,509,510),(511,512,513),(514,515,516),(517,518,519),(520,521,522),(523,524,525),(526,527,528),(529,530,531),(532,533,534),(535,536,537),(538,539,540),(541,542,543),(544,545,546),(547,548,549),(550,551,552),(553,554,555),(556,557,558),(559,560,561),(562,563,564),(565,566,567),(568,569,570),(571,572,573),(574,575,576),(577,578,579),(580,581,582),(583,584,585),(586,587,588),(589,590,591),(592,593,594),(595,596,597),(598,599,600),(601,602,603),(604,605,606),(607,608,609),(610,611,612),(613,614,615),(616,617,618),(619,620,621),(622,623,624),(625,626,627),(628,629,630),(631,632,633),(634,635,636),(637,638,639),(640,641,642),(643,644,645),(646,647,648),(649,650,651),(652,653,654),(655,656,657),(658,659,660),(661,662,663),(664,665,666),(667,668,669),(670,671,672),(673,674,675),(676,677,678),(679,680,681),(682,683,684),(685,686,687),(688,689,690),(691,692,693),(694,695,696),(697,698,699),(700,701,702),(703,704,705),(706,707,708),(709,710,711),(712,713,714),(715,716,717),(718,719,720),(721,722,723),(724,725,726),(727,728,729),(730,731,732),(733,734,735),(736,737,738),(739,740,741),(742,743,744),(745,746,747),(748,749,750),(751,752,753),(754,755,756),(757,758,759),(760,761,762),(763,764,765),(766,767,768),(769,770,771),(772,773,774),(775,776,777),(778,779,780),(781,782,783),(784,785,786),(787,788,789),(790,791,792),(793,794,795),(796,797,798),(799,800,801)));
#733=TESSELLATED_GEOMETRIC_SET('linear dimension',(#732));
#734=COORDINATES_LIST('coordinates',8,((0.0240508,0.,0.0115424),(0.0240508,0.,0.0115424),(0.0295932,-0.0015000,0.0115424),(0.0240508,-0.0015000,0.0115424),(0.0240508,0.0044399,0.0115424),(0.0240508,0.0044399,0.0115424),(0.0240508,-0.0059399,0.0115424),(0.0240508,-0.0059399,0.0115424)));
#735=TESSELLATED_CURVE_SET('curve set',#734,((1,2),(3,4),(5,6),(7,8)));
#736=TESSELLATED_GEOMETRIC_SET('linear dimension',(#735));
#737=TESSELLATED_ANNOTATION_OCCURRENCE('linear dimension',(#730),#733);
#738=TESSELLATED_ANNOTATION_OCCURRENCE('linear dimension',(#730),#736);
#739=DRAUGHTING_CALLOUT('linear dimension',(#737,#738));
#740=DRAUGHTING_MODEL_ITEM_ASSOCIATION('','',#688,#726,#739);
#741=DRAUGHTING_MODEL_ITEM_ASSOCIATION('','',#690,#726,#739);
#742=DRAUGHTING_MODEL_ITEM_ASSOCIATION('','',#700,#726,#739);
#743=SHAPE_ASPECT('DISTANCE.FERTcwPWWsFI5n2_2',$,#678,.T.);
#744=GEOMETRIC_ITEM_SPECIFIC_USAGE('','',#743,#11,#389);
#745=SHAPE_ASPECT('DISTANCE.FERTcwPWWsFI5n2_2',$,#678,.T.);
#746=GEOMETRIC_ITEM_SPECIFIC_USAGE('','',#745,#11,#399);
#747=DIMENSIONAL_LOCATION('linear distance','DISTANCE.FERTcwPWWsFI5n2_2',#743,#745);
#749=(
LENGTH_UNIT()
NAMED_UNIT(*)
SI_UNIT(.CENTI.,.METRE.)
);
#750=PRECISION_QUALIFIER(3);
#748=(
LENGTH_MEASURE_WITH_UNIT()
MEASURE_REPRESENTATION_ITEM()
MEASURE_WITH_UNIT(POSITIVE_LENGTH_MEASURE(0.15),#749)
QUALIFIED_REPRESENTATION_ITEM((#750))
REPRESENTATION_ITEM('nominal value')
);
#751=SHAPE_DIMENSION_REPRESENTATION('',(#748),#673);
#752=DIMENSIONAL_CHARACTERISTIC_REPRESENTATION(#747,#751);
#753=PRESENTATION_STYLE_ASSIGNMENT((NULL_STYLE(.NULL.)));
#754=CARTESIAN_POINT('',(0.0240508478171815,-0.00075,0.0115423725287832));
#755=DIRECTION('',(0.,0.,-1.));
#756=DIRECTION('',(0.,-1.,0.));
#757=AXIS2_PLACEMENT_3D('',#754,#755,#756);
#758=PLANE('',#757);
#759=ANNOTATION_PLANE('',(#753),#758,(#785));
#760=CARTESIAN_POINT('',(0.,0.,0.));
#761=DIRECTION('',(0.,0.,1.));
#762=DIRECTION('',(1.,0.,0.));
#763=AXIS2_PLACEMENT_3D('',#760,#761,#762);
#764=CARTESIAN_POINT('',(0.,0.,0.));
#765=DIRECTION('',(0.,0.,1.));
#766=DIRECTION('',(1.,0.,0.));
#767=AXIS2_PLACEMENT_3D('',#764,#765,#766);
#768=SHAPE_REPRESENTATION('',(#767,#421),#673);
#769=REPRESENTATION_MAP(#763,#768);
#770=MAPPED_ITEM('',#769,#763);
#771=PRESENTATION_STYLE_ASSIGNMENT((NULL_STYLE(.NULL.)));
#772=STYLED_ITEM('',(#771),#770);
#773=DRAUGHTING_PRE_DEFINED_CURVE_FONT('continuous');
#774=COLOUR_RGB('',0.,0.,0.);
#775=CURVE_STYLE('',#773,POSITIVE_LENGTH_MEASURE(0.02),#774);
#776=PRESENTATION_STYLE_ASSIGNMENT((#775));
#777=COORDINATES_LIST('coordinates',801,((0.0231564,-0.0026833,0.0115424),(0.0240508,0.,0.0115424),(0.0249453,-0.0026833,0.0115424),(0.0249453,0.0011833,0.0115424),(0.0240508,-0.0015000,0.0115424),(0.0231564,0.0011833,0.0115424),(0.0249426,0.0013646,0.0115424),(0.0248102,0.0013593,0.0115424),(0.0231200,0.0013593,0.0115424),(0.0249426,0.0013646,0.0115424),(0.0231200,0.0013593,0.0115424),(0.0229894,0.0013646,0.0115424),(0.0249426,0.0013646,0.0115424),(0.0229894,0.0013646,0.0115424),(0.0228648,0.0013805,0.0115424),(0.0249426,0.0013646,0.0115424),(0.0228648,0.0013805,0.0115424),(0.0227461,0.0014070,0.0115424),(0.0249426,0.0013646,0.0115424),(0.0227461,0.0014070,0.0115424),(0.0226335,0.0014442,0.0115424),(0.0249426,0.0013646,0.0115424),(0.0226335,0.0014442,0.0115424),(0.0225268,0.0014920,0.0115424),(0.0249426,0.0013646,0.0115424),(0.0225268,0.0014920,0.0115424),(0.0224261,0.0015504,0.0115424),(0.0249426,0.0013646,0.0115424),(0.0224261,0.0015504,0.0115424),(0.0223314,0.0016194,0.0115424),(0.0249426,0.0013646,0.0115424),(0.0223314,0.0016194,0.0115424),(0.0222427,0.0016990,0.0115424),(0.0249426,0.0013646,0.0115424),(0.0222427,0.0016990,0.0115424),(0.0221710,0.0017757,0.0115424),(0.0249426,0.0013646,0.0115424),(0.0221710,0.0017757,0.0115424),(0.0221089,0.0018554,0.0115424),(0.0249426,0.0013646,0.0115424),(0.0221089,0.0018554,0.0115424),(0.0220563,0.0019382,0.0115424),(0.0220563,0.0019382,0.0115424),(0.0220133,0.0020242,0.0115424),(0.0219798,0.0021131,0.0115424),(0.0220563,0.0019382,0.0115424),(0.0219798,0.0021131,0.0115424),(0.0219559,0.0022052,0.0115424),(0.0220563,0.0019382,0.0115424),(0.0219559,0.0022052,0.0115424),(0.0219416,0.0023003,0.0115424),(0.0220563,0.0019382,0.0115424),(0.0219416,0.0023003,0.0115424),(0.0219368,0.0023985,0.0115424),(0.0220563,0.0019382,0.0115424),(0.0219368,0.0023985,0.0115424),(0.0219416,0.0024956,0.0115424),(0.0220563,0.0019382,0.0115424),(0.0219416,0.0024956,0.0115424),(0.0219559,0.0025900,0.0115424),(0.0220563,0.0019382,0.0115424),(0.0219559,0.0025900,0.0115424),(0.0219798,0.0026818,0.0115424),(0.0220563,0.0019382,0.0115424),(0.0219798,0.0026818,0.0115424),(0.0220133,0.0027708,0.0115424),(0.0220563,0.0019382,0.0115424),(0.0220133,0.0027708,0.0115424),(0.0220563,0.0028572,0.0115424),(0.0220563,0.0019382,0.0115424),(0.0220563,0.0028572,0.0115424),(0.0221089,0.0029409,0.0115424),(0.0220563,0.0019382,0.0115424),(0.0221089,0.0029409,0.0115424),(0.0221710,0.0030219,0.0115424),(0.0220563,0.0019382,0.0115424),(0.0221710,0.0030219,0.0115424),(0.0222427,0.0031002,0.0115424),(0.0220563,0.0019382,0.0115424),(0.0222427,0.0031002,0.0115424),(0.0223297,0.0031798,0.0115424),(0.0220563,0.0019382,0.0115424),(0.0223297,0.0031798,0.0115424),(0.0224229,0.0032488,0.0115424),(0.0220563,0.0019382,0.0115424),(0.0224229,0.0032488,0.0115424),(0.0225223,0.0033072,0.0115424),(0.0220563,0.0019382,0.0115424),(0.0225223,0.0033072,0.0115424),(0.0226279,0.0033550,0.0115424),(0.0220563,0.0019382,0.0115424),(0.0226279,0.0033550,0.0115424),(0.0227398,0.0033922,0.0115424),(0.0227398,0.0033922,0.0115424),(0.0228578,0.0034187,0.0115424),(0.0229821,0.0034346,0.0115424),(0.0227398,0.0033922,0.0115424),(0.0229821,0.0034346,0.0115424),(0.0231126,0.0034399,0.0115424),(0.0227398,0.0033922,0.0115424),(0.0231126,0.0034399,0.0115424),(0.0231200,0.0034399,0.0115424),(0.0227398,0.0033922,0.0115424),(0.0231200,0.0034399,0.0115424),(0.0248144,0.0034399,0.0115424),(0.0227398,0.0033922,0.0115424),(0.0248144,0.0034399,0.0115424),(0.0249458,0.0034346,0.0115424),(0.0227398,0.0033922,0.0115424),(0.0249458,0.0034346,0.0115424),(0.0250709,0.0034187,0.0115424),(0.0227398,0.0033922,0.0115424),(0.0250709,0.0034187,0.0115424),(0.0251898,0.0033922,0.0115424),(0.0227398,0.0033922,0.0115424),(0.0251898,0.0033922,0.0115424),(0.0253026,0.0033550,0.0115424),(0.0227398,0.0033922,0.0115424),(0.0253026,0.0033550,0.0115424),(0.0254092,0.0033072,0.0115424),(0.0227398,0.0033922,0.0115424),(0.0254092,0.0033072,0.0115424),(0.0255096,0.0032488,0.0115424),(0.0227398,0.0033922,0.0115424),(0.0255096,0.0032488,0.0115424),(0.0256038,0.0031798,0.0115424),(0.0227398,0.0033922,0.0115424),(0.0256038,0.0031798,0.0115424),(0.0256918,0.0031002,0.0115424),(0.0256918,0.0031002,0.0115424),(0.0253955,0.0027965,0.0115424),(0.0252791,0.0028905,0.0115424),(0.0256918,0.0031002,0.0115424),(0.0252791,0.0028905,0.0115424),(0.0251428,0.0029576,0.0115424),(0.0256918,0.0031002,0.0115424),(0.0251428,0.0029576,0.0115424),(0.0249865,0.0029979,0.0115424),(0.0227398,0.0033922,0.0115424),(0.0256918,0.0031002,0.0115424),(0.0249865,0.0029979,0.0115424),(0.0227398,0.0033922,0.0115424),(0.0249865,0.0029979,0.0115424),(0.0249008,0.0030080,0.0115424),(0.0227398,0.0033922,0.0115424),(0.0249008,0.0030080,0.0115424),(0.0248102,0.0030113,0.0115424),(0.0227398,0.0033922,0.0115424),(0.0248102,0.0030113,0.0115424),(0.0231126,0.0030113,0.0115424),(0.0227398,0.0033922,0.0115424),(0.0231126,0.0030113,0.0115424),(0.0230243,0.0030080,0.0115424),(0.0227398,0.0033922,0.0115424),(0.0230243,0.0030080,0.0115424),(0.0229409,0.0029980,0.0115424),(0.0227398,0.0033922,0.0115424),(0.0229409,0.0029980,0.0115424),(0.0228624,0.0029814,0.0115424),(0.0227398,0.0033922,0.0115424),(0.0228624,0.0029814,0.0115424),(0.0227888,0.0029581,0.0115424),(0.0227398,0.0033922,0.0115424),(0.0227888,0.0029581,0.0115424),(0.0226562,0.0028917,0.0115424),(0.0227398,0.0033922,0.0115424),(0.0226562,0.0028917,0.0115424),(0.0225433,0.0027986,0.0115424),(0.0227398,0.0033922,0.0115424),(0.0225433,0.0027986,0.0115424),(0.0224645,0.0027033,0.0115424),(0.0227398,0.0033922,0.0115424),(0.0224645,0.0027033,0.0115424),(0.0224083,0.0026049,0.0115424),(0.0220563,0.0019382,0.0115424),(0.0227398,0.0033922,0.0115424),(0.0224083,0.0026049,0.0115424),(0.0220563,0.0019382,0.0115424),(0.0224083,0.0026049,0.0115424),(0.0223746,0.0025033,0.0115424),(0.0220563,0.0019382,0.0115424),(0.0223746,0.0025033,0.0115424),(0.0223633,0.0023985,0.0115424),(0.0220563,0.0019382,0.0115424),(0.0223633,0.0023985,0.0115424),(0.0223746,0.0022895,0.0115424),(0.0220563,0.0019382,0.0115424),(0.0223746,0.0022895,0.0115424),(0.0224083,0.0021866,0.0115424),(0.0220563,0.0019382,0.0115424),(0.0224083,0.0021866,0.0115424),(0.0224645,0.0020900,0.0115424),(0.0220563,0.0019382,0.0115424),(0.0224645,0.0020900,0.0115424),(0.0225433,0.0019996,0.0115424),(0.0220563,0.0019382,0.0115424),(0.0225433,0.0019996,0.0115424),(0.0226619,0.0019065,0.0115424),(0.0220563,0.0019382,0.0115424),(0.0226619,0.0019065,0.0115424),(0.0227975,0.0018400,0.0115424),(0.0220563,0.0019382,0.0115424),(0.0227975,0.0018400,0.0115424),(0.0229502,0.0018001,0.0115424),(0.0249426,0.0013646,0.0115424),(0.0220563,0.0019382,0.0115424),(0.0229502,0.0018001,0.0115424),(0.0249426,0.0013646,0.0115424),(0.0229502,0.0018001,0.0115424),(0.0230330,0.0017901,0.0115424),(0.0249426,0.0013646,0.0115424),(0.0230330,0.0017901,0.0115424),(0.0231200,0.0017868,0.0115424),(0.0249426,0.0013646,0.0115424),(0.0231200,0.0017868,0.0115424),(0.0248102,0.0017868,0.0115424),(0.0249426,0.0013646,0.0115424),(0.0248102,0.0017868,0.0115424),(0.0248998,0.0017901,0.0115424),(0.0249426,0.0013646,0.0115424),(0.0248998,0.0017901,0.0115424),(0.0249846,0.0018001,0.0115424),(0.0249426,0.0013646,0.0115424),(0.0249846,0.0018001,0.0115424),(0.0250645,0.0018167,0.0115424),(0.0249426,0.0013646,0.0115424),(0.0250645,0.0018167,0.0115424),(0.0251396,0.0018400,0.0115424),(0.0249426,0.0013646,0.0115424),(0.0251396,0.0018400,0.0115424),(0.0252751,0.0019065,0.0115424),(0.0249426,0.0013646,0.0115424),(0.0252751,0.0019065,0.0115424),(0.0253912,0.0019996,0.0115424),(0.0249426,0.0013646,0.0115424),(0.0253912,0.0019996,0.0115424),(0.0254690,0.0020908,0.0115424),(0.0254714,0.0027049,0.0115424),(0.0253955,0.0027965,0.0115424),(0.0256918,0.0031002,0.0115424),(0.0255256,0.0026081,0.0115424),(0.0254714,0.0027049,0.0115424),(0.0256918,0.0031002,0.0115424),(0.0255582,0.0025060,0.0115424),(0.0255256,0.0026081,0.0115424),(0.0256918,0.0031002,0.0115424),(0.0255690,0.0023985,0.0115424),(0.0255582,0.0025060,0.0115424),(0.0256918,0.0031002,0.0115424),(0.0255579,0.0022903,0.0115424),(0.0255690,0.0023985,0.0115424),(0.0256918,0.0031002,0.0115424),(0.0255579,0.0022903,0.0115424),(0.0256918,0.0031002,0.0115424),(0.0257625,0.0030233,0.0115424),(0.0255579,0.0022903,0.0115424),(0.0257625,0.0030233,0.0115424),(0.0258238,0.0029435,0.0115424),(0.0255246,0.0021877,0.0115424),(0.0255579,0.0022903,0.0115424),(0.0258238,0.0029435,0.0115424),(0.0255246,0.0021877,0.0115424),(0.0258238,0.0029435,0.0115424),(0.0258756,0.0028608,0.0115424),(0.0255246,0.0021877,0.0115424),(0.0258756,0.0028608,0.0115424),(0.0259180,0.0027750,0.0115424),(0.0254690,0.0020908,0.0115424),(0.0255246,0.0021877,0.0115424),(0.0259180,0.0027750,0.0115424),(0.0254690,0.0020908,0.0115424),(0.0259180,0.0027750,0.0115424),(0.0259510,0.0026864,0.0115424),(0.0249426,0.0013646,0.0115424),(0.0254690,0.0020908,0.0115424),(0.0259510,0.0026864,0.0115424),(0.0249426,0.0013646,0.0115424),(0.0259510,0.0026864,0.0115424),(0.0259746,0.0025948,0.0115424),(0.0249426,0.0013646,0.0115424),(0.0259746,0.0025948,0.0115424),(0.0259887,0.0025003,0.0115424),(0.0249426,0.0013646,0.0115424),(0.0259887,0.0025003,0.0115424),(0.0259934,0.0024028,0.0115424),(0.0249426,0.0013646,0.0115424),(0.0259934,0.0024028,0.0115424),(0.0259888,0.0023036,0.0115424),(0.0249426,0.0013646,0.0115424),(0.0259888,0.0023036,0.0115424),(0.0259749,0.0022077,0.0115424),(0.0249426,0.0013646,0.0115424),(0.0259749,0.0022077,0.0115424),(0.0259517,0.0021151,0.0115424),(0.0249426,0.0013646,0.0115424),(0.0259517,0.0021151,0.0115424),(0.0259193,0.0020257,0.0115424),(0.0249426,0.0013646,0.0115424),(0.0259193,0.0020257,0.0115424),(0.0258777,0.0019397,0.0115424),(0.0249426,0.0013646,0.0115424),(0.0258777,0.0019397,0.0115424),(0.0258267,0.0018569,0.0115424),(0.0249426,0.0013646,0.0115424),(0.0258267,0.0018569,0.0115424),(0.0257665,0.0017773,0.0115424),(0.0249426,0.0013646,0.0115424),(0.0257665,0.0017773,0.0115424),(0.0256971,0.0017011,0.0115424),(0.0249426,0.0013646,0.0115424),(0.0256971,0.0017011,0.0115424),(0.0256078,0.0016210,0.0115424),(0.0249426,0.0013646,0.0115424),(0.0256078,0.0016210,0.0115424),(0.0255123,0.0015515,0.0115424),(0.0249426,0.0013646,0.0115424),(0.0255123,0.0015515,0.0115424),(0.0254106,0.0014928,0.0115424),(0.0249426,0.0013646,0.0115424),(0.0254106,0.0014928,0.0115424),(0.0253029,0.0014447,0.0115424),(0.0249426,0.0013646,0.0115424),(0.0253029,0.0014447,0.0115424),(0.0251889,0.0014073,0.0115424),(0.0249426,0.0013646,0.0115424),(0.0251889,0.0014073,0.0115424),(0.0250688,0.0013806,0.0115424),(0.0250737,-0.0028984,0.0115424),(0.0251224,-0.0029005,0.0115424),(0.0252145,-0.0029245,0.0115424),(0.0250737,-0.0028984,0.0115424),(0.0252145,-0.0029245,0.0115424),(0.0253008,-0.0029523,0.0115424),(0.0250737,-0.0028984,0.0115424),(0.0253008,-0.0029523,0.0115424),(0.0253813,-0.0029841,0.0115424),(0.0250737,-0.0028984,0.0115424),(0.0253813,-0.0029841,0.0115424),(0.0254560,-0.0030199,0.0115424),(0.0250737,-0.0028984,0.0115424),(0.0254560,-0.0030199,0.0115424),(0.0255250,-0.0030595,0.0115424),(0.0250737,-0.0028984,0.0115424),(0.0255250,-0.0030595,0.0115424),(0.0255881,-0.0031031,0.0115424),(0.0250737,-0.0028984,0.0115424),(0.0255881,-0.0031031,0.0115424),(0.0256971,-0.0032022,0.0115424),(0.0250737,-0.0028984,0.0115424),(0.0256971,-0.0032022,0.0115424),(0.0257665,-0.0032831,0.0115424),(0.0250737,-0.0028984,0.0115424),(0.0257665,-0.0032831,0.0115424),(0.0258267,-0.0033663,0.0115424),(0.0250737,-0.0028984,0.0115424),(0.0258267,-0.0033663,0.0115424),(0.0258777,-0.0034515,0.0115424),(0.0250737,-0.0028984,0.0115424),(0.0258777,-0.0034515,0.0115424),(0.0259193,-0.0035390,0.0115424),(0.0250737,-0.0028984,0.0115424),(0.0259193,-0.0035390,0.0115424),(0.0259517,-0.0036286,0.0115424),(0.0250737,-0.0028984,0.0115424),(0.0259517,-0.0036286,0.0115424),(0.0259749,-0.0037203,0.0115424),(0.0250737,-0.0028984,0.0115424),(0.0259749,-0.0037203,0.0115424),(0.0259888,-0.0038142,0.0115424),(0.0250737,-0.0028984,0.0115424),(0.0259888,-0.0038142,0.0115424),(0.0259934,-0.0039102,0.0115424),(0.0250737,-0.0028984,0.0115424),(0.0259934,-0.0039102,0.0115424),(0.0259887,-0.0040054,0.0115424),(0.0250737,-0.0028984,0.0115424),(0.0259887,-0.0040054,0.0115424),(0.0259746,-0.0040980,0.0115424),(0.0250737,-0.0028984,0.0115424),(0.0259746,-0.0040980,0.0115424),(0.0259510,-0.0041880,0.0115424),(0.0250737,-0.0028984,0.0115424),(0.0259510,-0.0041880,0.0115424),(0.0259180,-0.0042753,0.0115424),(0.0259180,-0.0042753,0.0115424),(0.0258756,-0.0043600,0.0115424),(0.0258238,-0.0044420,0.0115424),(0.0259180,-0.0042753,0.0115424),(0.0258238,-0.0044420,0.0115424),(0.0257625,-0.0045214,0.0115424),(0.0259180,-0.0042753,0.0115424),(0.0257625,-0.0045214,0.0115424),(0.0256918,-0.0045981,0.0115424),(0.0259180,-0.0042753,0.0115424),(0.0256918,-0.0045981,0.0115424),(0.0256036,-0.0046782,0.0115424),(0.0259180,-0.0042753,0.0115424),(0.0256036,-0.0046782,0.0115424),(0.0255087,-0.0047477,0.0115424),(0.0259180,-0.0042753,0.0115424),(0.0255087,-0.0047477,0.0115424),(0.0254072,-0.0048064,0.0115424),(0.0259180,-0.0042753,0.0115424),(0.0254072,-0.0048064,0.0115424),(0.0252992,-0.0048545,0.0115424),(0.0259180,-0.0042753,0.0115424),(0.0252992,-0.0048545,0.0115424),(0.0251845,-0.0048919,0.0115424),(0.0259180,-0.0042753,0.0115424),(0.0251845,-0.0048919,0.0115424),(0.0250631,-0.0049186,0.0115424),(0.0259180,-0.0042753,0.0115424),(0.0250631,-0.0049186,0.0115424),(0.0249352,-0.0049346,0.0115424),(0.0259180,-0.0042753,0.0115424),(0.0249352,-0.0049346,0.0115424),(0.0248007,-0.0049399,0.0115424),(0.0259180,-0.0042753,0.0115424),(0.0248007,-0.0049399,0.0115424),(0.0246974,-0.0049387,0.0115424),(0.0259180,-0.0042753,0.0115424),(0.0246974,-0.0049387,0.0115424),(0.0245982,-0.0049348,0.0115424),(0.0259180,-0.0042753,0.0115424),(0.0245982,-0.0049348,0.0115424),(0.0245030,-0.0049283,0.0115424),(0.0259180,-0.0042753,0.0115424),(0.0245030,-0.0049283,0.0115424),(0.0244118,-0.0049193,0.0115424),(0.0259180,-0.0042753,0.0115424),(0.0244118,-0.0049193,0.0115424),(0.0243247,-0.0049077,0.0115424),(0.0259180,-0.0042753,0.0115424),(0.0243247,-0.0049077,0.0115424),(0.0242416,-0.0048935,0.0115424),(0.0259180,-0.0042753,0.0115424),(0.0242416,-0.0048935,0.0115424),(0.0241626,-0.0048767,0.0115424),(0.0259180,-0.0042753,0.0115424),(0.0241626,-0.0048767,0.0115424),(0.0240876,-0.0048574,0.0115424),(0.0259180,-0.0042753,0.0115424),(0.0240876,-0.0048574,0.0115424),(0.0239498,-0.0048110,0.0115424),(0.0239498,-0.0048110,0.0115424),(0.0238281,-0.0047542,0.0115424),(0.0237226,-0.0046871,0.0115424),(0.0239498,-0.0048110,0.0115424),(0.0237226,-0.0046871,0.0115424),(0.0236333,-0.0046097,0.0115424),(0.0239498,-0.0048110,0.0115424),(0.0236333,-0.0046097,0.0115424),(0.0235639,-0.0045303,0.0115424),(0.0239498,-0.0048110,0.0115424),(0.0235639,-0.0045303,0.0115424),(0.0235037,-0.0044484,0.0115424),(0.0239498,-0.0048110,0.0115424),(0.0235037,-0.0044484,0.0115424),(0.0234528,-0.0043642,0.0115424),(0.0239498,-0.0048110,0.0115424),(0.0234528,-0.0043642,0.0115424),(0.0234111,-0.0042777,0.0115424),(0.0239498,-0.0048110,0.0115424),(0.0234111,-0.0042777,0.0115424),(0.0233787,-0.0041888,0.0115424),(0.0239498,-0.0048110,0.0115424),(0.0233787,-0.0041888,0.0115424),(0.0233555,-0.0040976,0.0115424),(0.0239498,-0.0048110,0.0115424),(0.0233555,-0.0040976,0.0115424),(0.0233416,-0.0040040,0.0115424),(0.0239498,-0.0048110,0.0115424),(0.0233416,-0.0040040,0.0115424),(0.0233370,-0.0039081,0.0115424),(0.0239498,-0.0048110,0.0115424),(0.0233370,-0.0039081,0.0115424),(0.0233403,-0.0038228,0.0115424),(0.0239498,-0.0048110,0.0115424),(0.0233403,-0.0038228,0.0115424),(0.0233500,-0.0037404,0.0115424),(0.0239498,-0.0048110,0.0115424),(0.0233500,-0.0037404,0.0115424),(0.0233663,-0.0036610,0.0115424),(0.0239498,-0.0048110,0.0115424),(0.0233663,-0.0036610,0.0115424),(0.0233891,-0.0035845,0.0115424),(0.0239498,-0.0048110,0.0115424),(0.0233891,-0.0035845,0.0115424),(0.0234543,-0.0034403,0.0115424),(0.0239498,-0.0048110,0.0115424),(0.0234543,-0.0034403,0.0115424),(0.0235455,-0.0033080,0.0115424),(0.0223676,-0.0033503,0.0115424),(0.0223676,-0.0046256,0.0115424),(0.0223517,-0.0047071,0.0115424),(0.0223676,-0.0033503,0.0115424),(0.0223517,-0.0047071,0.0115424),(0.0223041,-0.0047759,0.0115424),(0.0223676,-0.0033503,0.0115424),(0.0223041,-0.0047759,0.0115424),(0.0222347,-0.0048227,0.0115424),(0.0223676,-0.0033503,0.0115424),(0.0222347,-0.0048227,0.0115424),(0.0221538,-0.0048383,0.0115424),(0.0223676,-0.0033503,0.0115424),(0.0221538,-0.0048383,0.0115424),(0.0220731,-0.0048227,0.0115424),(0.0223676,-0.0033503,0.0115424),(0.0220731,-0.0048227,0.0115424),(0.0220046,-0.0047759,0.0115424),(0.0223676,-0.0033503,0.0115424),(0.0220046,-0.0047759,0.0115424),(0.0219569,-0.0047071,0.0115424),(0.0223676,-0.0033503,0.0115424),(0.0219569,-0.0047071,0.0115424),(0.0219411,-0.0046256,0.0115424),(0.0223676,-0.0033503,0.0115424),(0.0219411,-0.0046256,0.0115424),(0.0219411,-0.0031535,0.0115424),(0.0235455,-0.0033080,0.0115424),(0.0223676,-0.0033503,0.0115424),(0.0219411,-0.0031535,0.0115424),(0.0235455,-0.0033080,0.0115424),(0.0219411,-0.0031535,0.0115424),(0.0219551,-0.0030730,0.0115424),(0.0235455,-0.0033080,0.0115424),(0.0219551,-0.0030730,0.0115424),(0.0219972,-0.0030032,0.0115424),(0.0235455,-0.0033080,0.0115424),(0.0219972,-0.0030032,0.0115424),(0.0220622,-0.0029556,0.0115424),(0.0235455,-0.0033080,0.0115424),(0.0220622,-0.0029556,0.0115424),(0.0221411,-0.0029397,0.0115424),(0.0235455,-0.0033080,0.0115424),(0.0221411,-0.0029397,0.0115424),(0.0242059,-0.0028593,0.0115424),(0.0235455,-0.0033080,0.0115424),(0.0242059,-0.0028593,0.0115424),(0.0242853,-0.0028725,0.0115424),(0.0235455,-0.0033080,0.0115424),(0.0242853,-0.0028725,0.0115424),(0.0243562,-0.0029122,0.0115424),(0.0235455,-0.0033080,0.0115424),(0.0243562,-0.0029122,0.0115424),(0.0244102,-0.0029773,0.0115424),(0.0235455,-0.0033080,0.0115424),(0.0244102,-0.0029773,0.0115424),(0.0244281,-0.0030603,0.0115424),(0.0235455,-0.0033080,0.0115424),(0.0244281,-0.0030603,0.0115424),(0.0244146,-0.0031416,0.0115424),(0.0235455,-0.0033080,0.0115424),(0.0244146,-0.0031416,0.0115424),(0.0243742,-0.0032138,0.0115424),(0.0235455,-0.0033080,0.0115424),(0.0243742,-0.0032138,0.0115424),(0.0242726,-0.0032762,0.0115424),(0.0235455,-0.0033080,0.0115424),(0.0242726,-0.0032762,0.0115424),(0.0241874,-0.0033102,0.0115424),(0.0235455,-0.0033080,0.0115424),(0.0241874,-0.0033102,0.0115424),(0.0241035,-0.0033593,0.0115424),(0.0235455,-0.0033080,0.0115424),(0.0241035,-0.0033593,0.0115424),(0.0240208,-0.0034235,0.0115424),(0.0235455,-0.0033080,0.0115424),(0.0240208,-0.0034235,0.0115424),(0.0239392,-0.0035027,0.0115424),(0.0235455,-0.0033080,0.0115424),(0.0239392,-0.0035027,0.0115424),(0.0238614,-0.0035983,0.0115424),(0.0235455,-0.0033080,0.0115424),(0.0238614,-0.0035983,0.0115424),(0.0238058,-0.0036977,0.0115424),(0.0235455,-0.0033080,0.0115424),(0.0238058,-0.0036977,0.0115424),(0.0237725,-0.0038010,0.0115424),(0.0235455,-0.0033080,0.0115424),(0.0237725,-0.0038010,0.0115424),(0.0237614,-0.0039081,0.0115424),(0.0235455,-0.0033080,0.0115424),(0.0237614,-0.0039081,0.0115424),(0.0237725,-0.0040146,0.0115424),(0.0239498,-0.0048110,0.0115424),(0.0235455,-0.0033080,0.0115424),(0.0237725,-0.0040146,0.0115424),(0.0239498,-0.0048110,0.0115424),(0.0237725,-0.0040146,0.0115424),(0.0238058,-0.0041171,0.0115424),(0.0239498,-0.0048110,0.0115424),(0.0238058,-0.0041171,0.0115424),(0.0238614,-0.0042156,0.0115424),(0.0239498,-0.0048110,0.0115424),(0.0238614,-0.0042156,0.0115424),(0.0239392,-0.0043102,0.0115424),(0.0239498,-0.0048110,0.0115424),(0.0239392,-0.0043102,0.0115424),(0.0240678,-0.0044005,0.0115424),(0.0239498,-0.0048110,0.0115424),(0.0240678,-0.0044005,0.0115424),(0.0241539,-0.0044360,0.0115424),(0.0239498,-0.0048110,0.0115424),(0.0241539,-0.0044360,0.0115424),(0.0242546,-0.0044650,0.0115424),(0.0239498,-0.0048110,0.0115424),(0.0242546,-0.0044650,0.0115424),(0.0243698,-0.0044876,0.0115424),(0.0239498,-0.0048110,0.0115424),(0.0243698,-0.0044876,0.0115424),(0.0244996,-0.0045037,0.0115424),(0.0239498,-0.0048110,0.0115424),(0.0244996,-0.0045037,0.0115424),(0.0246439,-0.0045134,0.0115424),(0.0239498,-0.0048110,0.0115424),(0.0246439,-0.0045134,0.0115424),(0.0248028,-0.0045166,0.0115424),(0.0239498,-0.0048110,0.0115424),(0.0248028,-0.0045166,0.0115424),(0.0248942,-0.0045132,0.0115424),(0.0239498,-0.0048110,0.0115424),(0.0248942,-0.0045132,0.0115424),(0.0249807,-0.0045028,0.0115424),(0.0239498,-0.0048110,0.0115424),(0.0249807,-0.0045028,0.0115424),(0.0250623,-0.0044857,0.0115424),(0.0259180,-0.0042753,0.0115424),(0.0239498,-0.0048110,0.0115424),(0.0250623,-0.0044857,0.0115424),(0.0259180,-0.0042753,0.0115424),(0.0250623,-0.0044857,0.0115424),(0.0251388,-0.0044616,0.0115424),(0.0259180,-0.0042753,0.0115424),(0.0251388,-0.0044616,0.0115424),(0.0252771,-0.0043928,0.0115424),(0.0259180,-0.0042753,0.0115424),(0.0252771,-0.0043928,0.0115424),(0.0253955,-0.0042965,0.0115424),(0.0259180,-0.0042753,0.0115424),(0.0253955,-0.0042965,0.0115424),(0.0254714,-0.0042052,0.0115424),(0.0259180,-0.0042753,0.0115424),(0.0254714,-0.0042052,0.0115424),(0.0255256,-0.0041092,0.0115424),(0.0259180,-0.0042753,0.0115424),(0.0255256,-0.0041092,0.0115424),(0.0255582,-0.0040083,0.0115424),(0.0259180,-0.0042753,0.0115424),(0.0255582,-0.0040083,0.0115424),(0.0255690,-0.0039028,0.0115424),(0.0259180,-0.0042753,0.0115424),(0.0255690,-0.0039028,0.0115424),(0.0255578,-0.0038002,0.0115424),(0.0259180,-0.0042753,0.0115424),(0.0255578,-0.0038002,0.0115424),(0.0255240,-0.0036977,0.0115424),(0.0259180,-0.0042753,0.0115424),(0.0255240,-0.0036977,0.0115424),(0.0254678,-0.0035954,0.0115424),(0.0250737,-0.0028984,0.0115424),(0.0259180,-0.0042753,0.0115424),(0.0254678,-0.0035954,0.0115424),(0.0250737,-0.0028984,0.0115424),(0.0254678,-0.0035954,0.0115424),(0.0253891,-0.0034932,0.0115424),(0.0250737,-0.0028984,0.0115424),(0.0253891,-0.0034932,0.0115424),(0.0252462,-0.0033911,0.0115424),(0.0250737,-0.0028984,0.0115424),(0.0252462,-0.0033911,0.0115424),(0.0251462,-0.0033515,0.0115424),(0.0250737,-0.0028984,0.0115424),(0.0251462,-0.0033515,0.0115424),(0.0250272,-0.0033196,0.0115424),(0.0250737,-0.0028984,0.0115424),(0.0250272,-0.0033196,0.0115424),(0.0249545,-0.0032756,0.0115424),(0.0250737,-0.0028984,0.0115424),(0.0249545,-0.0032756,0.0115424),(0.0249025,-0.0032270,0.0115424),(0.0250737,-0.0028984,0.0115424),(0.0249025,-0.0032270,0.0115424),(0.0248610,-0.0031164,0.0115424),(0.0250737,-0.0028984,0.0115424),(0.0248610,-0.0031164,0.0115424),(0.0248610,-0.0031090,0.0115424),(0.0250737,-0.0028984,0.0115424),(0.0248610,-0.0031090,0.0115424),(0.0248767,-0.0030351,0.0115424),(0.0250737,-0.0028984,0.0115424),(0.0248767,-0.0030351,0.0115424),(0.0249174,-0.0029754,0.0115424),(0.0219347,-0.0014855,0.0115424),(0.0219813,-0.0013681,0.0115424),(0.0224829,-0.0007606,0.0115424),(0.0219347,-0.0014855,0.0115424),(0.0224829,-0.0007606,0.0115424),(0.0225507,-0.0007029,0.0115424),(0.0219347,-0.0014855,0.0115424),(0.0225507,-0.0007029,0.0115424),(0.0226226,-0.0006780,0.0115424),(0.0219347,-0.0014855,0.0115424),(0.0226226,-0.0006780,0.0115424),(0.0226565,-0.0006780,0.0115424),(0.0219347,-0.0014855,0.0115424),(0.0226565,-0.0006780,0.0115424),(0.0227846,-0.0007119,0.0115424),(0.0219347,-0.0014855,0.0115424),(0.0227846,-0.0007119,0.0115424),(0.0228414,-0.0007712,0.0115424),(0.0219347,-0.0014855,0.0115424),(0.0228414,-0.0007712,0.0115424),(0.0228703,-0.0008516,0.0115424),(0.0219347,-0.0014855,0.0115424),(0.0228703,-0.0008516,0.0115424),(0.0228724,-0.0008929,0.0115424),(0.0219347,-0.0014855,0.0115424),(0.0228724,-0.0008929,0.0115424),(0.0228354,-0.0010082,0.0115424),(0.0219347,-0.0014855,0.0115424),(0.0228354,-0.0010082,0.0115424),(0.0225962,-0.0012792,0.0115424),(0.0219347,-0.0014855,0.0115424),(0.0225962,-0.0012792,0.0115424),(0.0257818,-0.0012792,0.0115424),(0.0219347,-0.0014855,0.0115424),(0.0257818,-0.0012792,0.0115424),(0.0258638,-0.0012945,0.0115424),(0.0219347,-0.0014855,0.0115424),(0.0258638,-0.0012945,0.0115424),(0.0259320,-0.0013406,0.0115424),(0.0219347,-0.0014855,0.0115424),(0.0259320,-0.0013406,0.0115424),(0.0259781,-0.0014088,0.0115424),(0.0219347,-0.0014855,0.0115424),(0.0259781,-0.0014088,0.0115424),(0.0259934,-0.0014908,0.0115424),(0.0219347,-0.0014855,0.0115424),(0.0259934,-0.0014908,0.0115424),(0.0259781,-0.0015736,0.0115424),(0.0219347,-0.0014855,0.0115424),(0.0259781,-0.0015736,0.0115424),(0.0259320,-0.0016422,0.0115424),(0.0219347,-0.0014855,0.0115424),(0.0259320,-0.0016422,0.0115424),(0.0258638,-0.0016882,0.0115424),(0.0219347,-0.0014855,0.0115424),(0.0258638,-0.0016882,0.0115424),(0.0257818,-0.0017036,0.0115424),(0.0219347,-0.0014855,0.0115424),(0.0257818,-0.0017036,0.0115424),(0.0221548,-0.0017036,0.0115424),(0.0219347,-0.0014855,0.0115424),(0.0221548,-0.0017036,0.0115424),(0.0220416,-0.0016752,0.0115424),(0.0219347,-0.0014855,0.0115424),(0.0220416,-0.0016752,0.0115424),(0.0219665,-0.0015903,0.0115424),(0.0259630,0.0009010,0.0115424),(0.0260696,0.0008280,0.0115424),(0.0261426,0.0007213,0.0115424),(0.0259630,0.0009010,0.0115424),(0.0261426,0.0007213,0.0115424),(0.0261670,0.0005962,0.0115424),(0.0259630,0.0009010,0.0115424),(0.0261670,0.0005962,0.0115424),(0.0261426,0.0004713,0.0115424),(0.0259630,0.0009010,0.0115424),(0.0261426,0.0004713,0.0115424),(0.0260696,0.0003655,0.0115424),(0.0259630,0.0009010,0.0115424),(0.0260696,0.0003655,0.0115424),(0.0259630,0.0002925,0.0115424),(0.0259630,0.0009010,0.0115424),(0.0259630,0.0002925,0.0115424),(0.0258378,0.0002681,0.0115424),(0.0259630,0.0009010,0.0115424),(0.0258378,0.0002681,0.0115424),(0.0257127,0.0002925,0.0115424),(0.0259630,0.0009010,0.0115424),(0.0257127,0.0002925,0.0115424),(0.0256061,0.0003655,0.0115424),(0.0259630,0.0009010,0.0115424),(0.0256061,0.0003655,0.0115424),(0.0255330,0.0004713,0.0115424),(0.0259630,0.0009010,0.0115424),(0.0255330,0.0004713,0.0115424),(0.0255087,0.0005962,0.0115424),(0.0259630,0.0009010,0.0115424),(0.0255087,0.0005962,0.0115424),(0.0255330,0.0007213,0.0115424),(0.0259630,0.0009010,0.0115424),(0.0255330,0.0007213,0.0115424),(0.0256061,0.0008280,0.0115424),(0.0259630,0.0009010,0.0115424),(0.0256061,0.0008280,0.0115424),(0.0257127,0.0009010,0.0115424),(0.0259630,0.0009010,0.0115424),(0.0257127,0.0009010,0.0115424),(0.0258378,0.0009253,0.0115424)));
#778=COMPLEX_TRIANGULATED_SURFACE_SET('surface set',#777,801,(),(),(),((1,2,3),(4,5,6),(7,8,9),(10,11,12),(13,14,15),(16,17,18),(19,20,21),(22,23,24),(25,26,27),(28,29,30),(31,32,33),(34,35,36),(37,38,39),(40,41,42),(43,44,45),(46,47,48),(49,50,51),(52,53,54),(55,56,57),(58,59,60),(61,62,63),(64,65,66),(67,68,69),(70,71,72),(73,74,75),(76,77,78),(79,80,81),(82,83,84),(85,86,87),(88,89,90),(91,92,93),(94,95,96),(97,98,99),(100,101,102),(103,104,105),(106,107,108),(109,110,111),(112,113,114),(115,116,117),(118,119,120),(121,122,123),(124,125,126),(127,128,129),(130,131,132),(133,134,135),(136,137,138),(139,140,141),(142,143,144),(145,146,147),(148,149,150),(151,152,153),(154,155,156),(157,158,159),(160,161,162),(163,164,165),(166,167,168),(169,170,171),(172,173,174),(175,176,177),(178,179,180),(181,182,183),(184,185,186),(187,188,189),(190,191,192),(193,194,195),(196,197,198),(199,200,201),(202,203,204),(205,206,207),(208,209,210),(211,212,213),(214,215,216),(217,218,219),(220,221,222),(223,224,225),(226,227,228),(229,230,231),(232,233,234),(235,236,237),(238,239,240),(241,242,243),(244,245,246),(247,248,249),(250,251,252),(253,254,255),(256,257,258),(259,260,261),(262,263,264),(265,266,267),(268,269,270),(271,272,273),(274,275,276),(277,278,279),(280,281,282),(283,284,285),(286,287,288),(289,290,291),(292,293,294),(295,296,297),(298,299,300),(301,302,303),(304,305,306),(307,308,309),(310,311,312),(313,314,315),(316,317,318),(319,320,321),(322,323,324),(325,326,327),(328,329,330),(331,332,333),(334,335,336),(337,338,339),(340,341,342),(343,344,345),(346,347,348),(349,350,351),(352,353,354),(355,356,357),(358,359,360),(361,362,363),(364,365,366),(367,368,369),(370,371,372),(373,374,375),(376,377,378),(379,380,381),(382,383,384),(385,386,387),(388,389,390),(391,392,393),(394,395,396),(397,398,399),(400,401,402),(403,404,405),(406,407,408),(409,410,411),(412,413,414),(415,416,417),(418,419,420),(421,422,423),(424,425,426),(427,428,429),(430,431,432),(433,434,435),(436,437,438),(439,440,441),(442,443,444),(445,446,447),(448,449,450),(451,452,453),(454,455,456),(457,458,459),(460,461,462),(463,464,465),(466,467,468),(469,470,471),(472,473,474),(475,476,477),(478,479,480),(481,482,483),(484,485,486),(487,488,489),(490,491,492),(493,494,495),(496,497,498),(499,500,501),(502,503,504),(505,506,507),(508,509,510),(511,512,513),(514,515,516),(517,518,519),(520,521,522),(523,524,525),(526,527,528),(529,530,531),(532,533,534),(535,536,537),(538,539,540),(541,542,543),(544,545,546),(547,548,549),(550,551,552),(553,554,555),(556,557,558),(559,560,561),(562,563,564),(565,566,567),(568,569,570),(571,572,573),(574,575,576),(577,578,579),(580,581,582),(583,584,585),(586,587,588),(589,590,591),(592,593,594),(595,596,597),(598,599,600),(601,602,603),(604,605,606),(607,608,609),(610,611,612),(613,614,615),(616,617,618),(619,620,621),(622,623,624),(625,626,627),(628,629,630),(631,632,633),(634,635,636),(637,638,639),(640,641,642),(643,644,645),(646,647,648),(649,650,651),(652,653,654),(655,656,657),(658,659,660),(661,662,663),(664,665,666),(667,668,669),(670,671,672),(673,674,675),(676,677,678),(679,680,681),(682,683,684),(685,686,687),(688,689,690),(691,692,693),(694,695,696),(697,698,699),(700,701,702),(703,704,705),(706,707,708),(709,710,711),(712,713,714),(715,716,717),(718,719,720),(721,722,723),(724,725,726),(727,728,729),(730,731,732),(733,734,735),(736,737,738),(739,740,741),(742,743,744),(745,746,747),(748,749,750),(751,752,753),(754,755,756),(757,758,759),(760,761,762),(763,764,765),(766,767,768),(769,770,771),(772,773,774),(775,776,777),(778,779,780),(781,782,783),(784,785,786),(787,788,789),(790,791,792),(793,794,795),(796,797,798),(799,800,801)));
#779=TESSELLATED_GEOMETRIC_SET('linear dimension',(#778));
#780=COORDINATES_LIST('coordinates',8,((0.0240508,0.,0.0115424),(0.0240508,0.,0.0115424),(0.0295932,-0.0015000,0.0115424),(0.0240508,-0.0015000,0.0115424),(0.0240508,0.0044399,0.0115424),(0.0240508,0.0044399,0.0115424),(0.0240508,-0.0059399,0.0115424),(0.0240508,-0.0059399,0.0115424)));
#781=TESSELLATED_CURVE_SET('curve set',#780,((1,2),(3,4),(5,6),(7,8)));
#782=TESSELLATED_GEOMETRIC_SET('linear dimension',(#781));
#783=TESSELLATED_ANNOTATION_OCCURRENCE('linear dimension',(#776),#779);
#784=TESSELLATED_ANNOTATION_OCCURRENCE('linear dimension',(#776),#782);
#785=DRAUGHTING_CALLOUT('linear dimension',(#783,#784));
#786=DRAUGHTING_MODEL_ITEM_ASSOCIATION('','',#743,#726,#785);
#787=DRAUGHTING_MODEL_ITEM_ASSOCIATION('','',#745,#726,#785);
#788=DRAUGHTING_MODEL_ITEM_ASSOCIATION('','',#747,#726,#785);
ENDSEC;
END-ISO-10303-21;
