ISO-10303-21;
HEADER;
/* Generated by software containing ST-Developer
 * from STEP Tools, Inc. (www.steptools.com) 
 */
/* OPTION: using custom renumber hook */

FILE_DESCRIPTION(
/* description */ ('STEP AP242 Edition 2',
'CAx-IF Rec.Pracs.---Representation and Presentation of Product Manufa
cturing Information (PMI)---4.0---2014-10-13',
'CAx-IF Rec.Pracs.---3D Tessellated Geometry---0.4---2014-09-14','2;1',
'CAx-IF Rec.Pracs.---User Defined Attributes---1.5---2016-08-15'),
/* implementation_level */ '2;1');

FILE_NAME(
/* name */ 'desk+chair - Part 1',
/* time_stamp */ '2026-08-29T04:47:58Z',
/* author */ (''),
/* organization */ (''),
/* preprocessor_version */ 'ST-DEVELOPER v20',
/* originating_system */ 'ONSHAPE BY PTC INC, 1.220',
/* authorisation */ '  ');

FILE_SCHEMA (('AP242_MANAGED_MODEL_BASED_3D_ENGINEERING_MIM_LF { 1 0 10303 442 3 1 4 }'));
ENDSEC;

DATA;
#10=SHAPE_REPRESENTATION_RELATIONSHIP('','',#829,#11);
#11=ADVANCED_BREP_SHAPE_REPRESENTATION('',(#827),#1411);
#12=B_SPLINE_SURFACE_WITH_KNOTS('',5,1,((#1302,#1303),(#1304,#1305),(#1306,
#1307),(#1308,#1309),(#1310,#1311),(#1312,#1313),(#1314,#1315),(#1316,#1317)),
 .SURF_OF_LINEAR_EXTRUSION.,.F.,.F.,.F.,(6,2,6),(2,2),(0.,0.5,1.),(0.,1.),
 .UNSPECIFIED.);
#13=B_SPLINE_SURFACE_WITH_KNOTS('',5,1,((#1340,#1341),(#1342,#1343),(#1344,
#1345),(#1346,#1347),(#1348,#1349),(#1350,#1351),(#1352,#1353),(#1354,#1355)),
 .SURF_OF_LINEAR_EXTRUSION.,.F.,.F.,.F.,(6,2,6),(2,2),(0.,0.5,1.),(0.,1.),
 .UNSPECIFIED.);
#14=B_SPLINE_SURFACE_WITH_KNOTS('',5,1,((#1367,#1368),(#1369,#1370),(#1371,
#1372),(#1373,#1374),(#1375,#1376),(#1377,#1378),(#1379,#1380),(#1381,#1382)),
 .SURF_OF_LINEAR_EXTRUSION.,.F.,.F.,.F.,(6,2,6),(2,2),(0.,0.5,1.),(0.,1.),
 .UNSPECIFIED.);
#15=B_SPLINE_SURFACE_WITH_KNOTS('',5,1,((#1394,#1395),(#1396,#1397),(#1398,
#1399),(#1400,#1401),(#1402,#1403),(#1404,#1405),(#1406,#1407),(#1408,#1409)),
 .SURF_OF_LINEAR_EXTRUSION.,.F.,.F.,.F.,(6,2,6),(2,2),(0.,0.5,1.),(0.,1.),
 .UNSPECIFIED.);
#16=B_SPLINE_CURVE_WITH_KNOTS('',3,(#1062,#1063,#1064,#1065),
 .UNSPECIFIED.,.F.,.F.,(4,4),(0.,1.),.UNSPECIFIED.);
#17=B_SPLINE_CURVE_WITH_KNOTS('',3,(#1112,#1113,#1114,#1115),
 .UNSPECIFIED.,.F.,.F.,(4,4),(0.,1.),.UNSPECIFIED.);
#18=B_SPLINE_CURVE_WITH_KNOTS('',3,(#1121,#1122,#1123,#1124),
 .UNSPECIFIED.,.F.,.F.,(4,4),(0.,1.),.UNSPECIFIED.);
#19=B_SPLINE_CURVE_WITH_KNOTS('',3,(#1135,#1136,#1137,#1138),
 .UNSPECIFIED.,.F.,.F.,(4,4),(0.,1.),.UNSPECIFIED.);
#20=B_SPLINE_CURVE_WITH_KNOTS('',3,(#1141,#1142,#1143,#1144),
 .UNSPECIFIED.,.F.,.F.,(4,4),(0.,1.),.UNSPECIFIED.);
#21=B_SPLINE_CURVE_WITH_KNOTS('',3,(#1147,#1148,#1149,#1150),
 .UNSPECIFIED.,.F.,.F.,(4,4),(0.,1.),.UNSPECIFIED.);
#22=B_SPLINE_CURVE_WITH_KNOTS('',3,(#1152,#1153,#1154,#1155),
 .UNSPECIFIED.,.F.,.F.,(4,4),(0.,1.),.UNSPECIFIED.);
#23=B_SPLINE_CURVE_WITH_KNOTS('',3,(#1157,#1158,#1159,#1160),
 .UNSPECIFIED.,.F.,.F.,(4,4),(0.,1.),.UNSPECIFIED.);
#24=B_SPLINE_CURVE_WITH_KNOTS('',3,(#1318,#1319,#1320,#1321,#1322,#1323,
#1324,#1325,#1326,#1327,#1328),.UNSPECIFIED.,.F.,.F.,(4,1,1,1,1,1,1,1,4),
(0.,0.25,0.375,0.4375,0.5,0.5625,0.625,0.75,1.),.UNSPECIFIED.);
#25=B_SPLINE_CURVE_WITH_KNOTS('',3,(#1329,#1330,#1331,#1332,#1333,#1334,
#1335,#1336,#1337,#1338,#1339),.UNSPECIFIED.,.F.,.F.,(4,1,1,1,1,1,1,1,4),
(0.,0.25,0.375,0.4375,0.5,0.5625,0.625,0.75,1.),.UNSPECIFIED.);
#26=B_SPLINE_CURVE_WITH_KNOTS('',3,(#1356,#1357,#1358,#1359,#1360,#1361,
#1362,#1363,#1364,#1365,#1366),.UNSPECIFIED.,.F.,.F.,(4,1,1,1,1,1,1,1,4),
(0.,0.25,0.375,0.4375,0.5,0.5625,0.625,0.75,1.),.UNSPECIFIED.);
#27=B_SPLINE_CURVE_WITH_KNOTS('',3,(#1383,#1384,#1385,#1386,#1387,#1388,
#1389,#1390,#1391,#1392,#1393),.UNSPECIFIED.,.F.,.F.,(4,1,1,1,1,1,1,1,4),
(0.,0.25,0.375,0.4375,0.5,0.5625,0.625,0.75,1.),.UNSPECIFIED.);
#28=ORIENTED_EDGE('',*,*,#248,.T.);
#29=ORIENTED_EDGE('',*,*,#249,.T.);
#30=ORIENTED_EDGE('',*,*,#250,.F.);
#31=ORIENTED_EDGE('',*,*,#251,.T.);
#32=ORIENTED_EDGE('',*,*,#252,.T.);
#33=ORIENTED_EDGE('',*,*,#253,.T.);
#34=ORIENTED_EDGE('',*,*,#254,.F.);
#35=ORIENTED_EDGE('',*,*,#255,.T.);
#36=ORIENTED_EDGE('',*,*,#256,.F.);
#37=ORIENTED_EDGE('',*,*,#257,.T.);
#38=ORIENTED_EDGE('',*,*,#258,.T.);
#39=ORIENTED_EDGE('',*,*,#259,.F.);
#40=ORIENTED_EDGE('',*,*,#260,.F.);
#41=ORIENTED_EDGE('',*,*,#261,.T.);
#42=ORIENTED_EDGE('',*,*,#262,.T.);
#43=ORIENTED_EDGE('',*,*,#263,.F.);
#44=ORIENTED_EDGE('',*,*,#264,.F.);
#45=ORIENTED_EDGE('',*,*,#265,.T.);
#46=ORIENTED_EDGE('',*,*,#266,.T.);
#47=ORIENTED_EDGE('',*,*,#267,.F.);
#48=ORIENTED_EDGE('',*,*,#268,.F.);
#49=ORIENTED_EDGE('',*,*,#269,.T.);
#50=ORIENTED_EDGE('',*,*,#270,.T.);
#51=ORIENTED_EDGE('',*,*,#271,.F.);
#52=ORIENTED_EDGE('',*,*,#250,.T.);
#53=ORIENTED_EDGE('',*,*,#272,.T.);
#54=ORIENTED_EDGE('',*,*,#273,.F.);
#55=ORIENTED_EDGE('',*,*,#274,.F.);
#56=ORIENTED_EDGE('',*,*,#273,.T.);
#57=ORIENTED_EDGE('',*,*,#275,.T.);
#58=ORIENTED_EDGE('',*,*,#276,.F.);
#59=ORIENTED_EDGE('',*,*,#277,.F.);
#60=ORIENTED_EDGE('',*,*,#278,.T.);
#61=ORIENTED_EDGE('',*,*,#270,.F.);
#62=ORIENTED_EDGE('',*,*,#279,.F.);
#63=ORIENTED_EDGE('',*,*,#280,.F.);
#64=ORIENTED_EDGE('',*,*,#276,.T.);
#65=ORIENTED_EDGE('',*,*,#281,.T.);
#66=ORIENTED_EDGE('',*,*,#248,.F.);
#67=ORIENTED_EDGE('',*,*,#282,.T.);
#68=ORIENTED_EDGE('',*,*,#283,.T.);
#69=ORIENTED_EDGE('',*,*,#284,.T.);
#70=ORIENTED_EDGE('',*,*,#285,.T.);
#71=ORIENTED_EDGE('',*,*,#286,.T.);
#72=ORIENTED_EDGE('',*,*,#287,.F.);
#73=ORIENTED_EDGE('',*,*,#288,.F.);
#74=ORIENTED_EDGE('',*,*,#252,.F.);
#75=ORIENTED_EDGE('',*,*,#289,.T.);
#76=ORIENTED_EDGE('',*,*,#279,.T.);
#77=ORIENTED_EDGE('',*,*,#269,.F.);
#78=ORIENTED_EDGE('',*,*,#289,.F.);
#79=ORIENTED_EDGE('',*,*,#251,.F.);
#80=ORIENTED_EDGE('',*,*,#274,.T.);
#81=ORIENTED_EDGE('',*,*,#280,.T.);
#82=ORIENTED_EDGE('',*,*,#254,.T.);
#83=ORIENTED_EDGE('',*,*,#290,.T.);
#84=ORIENTED_EDGE('',*,*,#291,.T.);
#85=ORIENTED_EDGE('',*,*,#271,.T.);
#86=ORIENTED_EDGE('',*,*,#278,.F.);
#87=ORIENTED_EDGE('',*,*,#292,.F.);
#88=ORIENTED_EDGE('',*,*,#255,.F.);
#89=ORIENTED_EDGE('',*,*,#292,.T.);
#90=ORIENTED_EDGE('',*,*,#277,.T.);
#91=ORIENTED_EDGE('',*,*,#282,.F.);
#92=ORIENTED_EDGE('',*,*,#257,.F.);
#93=ORIENTED_EDGE('',*,*,#293,.F.);
#94=ORIENTED_EDGE('',*,*,#294,.T.);
#95=ORIENTED_EDGE('',*,*,#295,.T.);
#96=ORIENTED_EDGE('',*,*,#256,.T.);
#97=ORIENTED_EDGE('',*,*,#296,.F.);
#98=ORIENTED_EDGE('',*,*,#297,.F.);
#99=ORIENTED_EDGE('',*,*,#293,.T.);
#100=ORIENTED_EDGE('',*,*,#259,.T.);
#101=ORIENTED_EDGE('',*,*,#298,.F.);
#102=ORIENTED_EDGE('',*,*,#299,.F.);
#103=ORIENTED_EDGE('',*,*,#296,.T.);
#104=ORIENTED_EDGE('',*,*,#258,.F.);
#105=ORIENTED_EDGE('',*,*,#295,.F.);
#106=ORIENTED_EDGE('',*,*,#300,.T.);
#107=ORIENTED_EDGE('',*,*,#298,.T.);
#108=ORIENTED_EDGE('',*,*,#301,.T.);
#109=ORIENTED_EDGE('',*,*,#302,.T.);
#110=ORIENTED_EDGE('',*,*,#303,.F.);
#111=ORIENTED_EDGE('',*,*,#304,.F.);
#112=ORIENTED_EDGE('',*,*,#294,.F.);
#113=ORIENTED_EDGE('',*,*,#297,.T.);
#114=ORIENTED_EDGE('',*,*,#299,.T.);
#115=ORIENTED_EDGE('',*,*,#300,.F.);
#116=ORIENTED_EDGE('',*,*,#261,.F.);
#117=ORIENTED_EDGE('',*,*,#305,.F.);
#118=ORIENTED_EDGE('',*,*,#306,.T.);
#119=ORIENTED_EDGE('',*,*,#307,.T.);
#120=ORIENTED_EDGE('',*,*,#260,.T.);
#121=ORIENTED_EDGE('',*,*,#308,.F.);
#122=ORIENTED_EDGE('',*,*,#309,.F.);
#123=ORIENTED_EDGE('',*,*,#305,.T.);
#124=ORIENTED_EDGE('',*,*,#263,.T.);
#125=ORIENTED_EDGE('',*,*,#310,.F.);
#126=ORIENTED_EDGE('',*,*,#311,.F.);
#127=ORIENTED_EDGE('',*,*,#308,.T.);
#128=ORIENTED_EDGE('',*,*,#262,.F.);
#129=ORIENTED_EDGE('',*,*,#307,.F.);
#130=ORIENTED_EDGE('',*,*,#312,.T.);
#131=ORIENTED_EDGE('',*,*,#310,.T.);
#132=ORIENTED_EDGE('',*,*,#313,.T.);
#133=ORIENTED_EDGE('',*,*,#314,.T.);
#134=ORIENTED_EDGE('',*,*,#315,.F.);
#135=ORIENTED_EDGE('',*,*,#316,.F.);
#136=ORIENTED_EDGE('',*,*,#306,.F.);
#137=ORIENTED_EDGE('',*,*,#309,.T.);
#138=ORIENTED_EDGE('',*,*,#311,.T.);
#139=ORIENTED_EDGE('',*,*,#312,.F.);
#140=ORIENTED_EDGE('',*,*,#313,.F.);
#141=ORIENTED_EDGE('',*,*,#317,.F.);
#142=ORIENTED_EDGE('',*,*,#318,.T.);
#143=ORIENTED_EDGE('',*,*,#319,.T.);
#144=ORIENTED_EDGE('',*,*,#316,.T.);
#145=ORIENTED_EDGE('',*,*,#320,.F.);
#146=ORIENTED_EDGE('',*,*,#321,.F.);
#147=ORIENTED_EDGE('',*,*,#317,.T.);
#148=ORIENTED_EDGE('',*,*,#315,.T.);
#149=ORIENTED_EDGE('',*,*,#322,.F.);
#150=ORIENTED_EDGE('',*,*,#323,.F.);
#151=ORIENTED_EDGE('',*,*,#320,.T.);
#152=ORIENTED_EDGE('',*,*,#314,.F.);
#153=ORIENTED_EDGE('',*,*,#319,.F.);
#154=ORIENTED_EDGE('',*,*,#324,.T.);
#155=ORIENTED_EDGE('',*,*,#322,.T.);
#156=ORIENTED_EDGE('',*,*,#318,.F.);
#157=ORIENTED_EDGE('',*,*,#321,.T.);
#158=ORIENTED_EDGE('',*,*,#323,.T.);
#159=ORIENTED_EDGE('',*,*,#324,.F.);
#160=ORIENTED_EDGE('',*,*,#301,.F.);
#161=ORIENTED_EDGE('',*,*,#325,.F.);
#162=ORIENTED_EDGE('',*,*,#326,.T.);
#163=ORIENTED_EDGE('',*,*,#327,.T.);
#164=ORIENTED_EDGE('',*,*,#304,.T.);
#165=ORIENTED_EDGE('',*,*,#328,.F.);
#166=ORIENTED_EDGE('',*,*,#329,.F.);
#167=ORIENTED_EDGE('',*,*,#325,.T.);
#168=ORIENTED_EDGE('',*,*,#303,.T.);
#169=ORIENTED_EDGE('',*,*,#330,.F.);
#170=ORIENTED_EDGE('',*,*,#331,.F.);
#171=ORIENTED_EDGE('',*,*,#328,.T.);
#172=ORIENTED_EDGE('',*,*,#302,.F.);
#173=ORIENTED_EDGE('',*,*,#327,.F.);
#174=ORIENTED_EDGE('',*,*,#332,.T.);
#175=ORIENTED_EDGE('',*,*,#330,.T.);
#176=ORIENTED_EDGE('',*,*,#326,.F.);
#177=ORIENTED_EDGE('',*,*,#329,.T.);
#178=ORIENTED_EDGE('',*,*,#331,.T.);
#179=ORIENTED_EDGE('',*,*,#332,.F.);
#180=ORIENTED_EDGE('',*,*,#268,.T.);
#181=ORIENTED_EDGE('',*,*,#291,.F.);
#182=ORIENTED_EDGE('',*,*,#333,.F.);
#183=ORIENTED_EDGE('',*,*,#287,.T.);
#184=ORIENTED_EDGE('',*,*,#288,.T.);
#185=ORIENTED_EDGE('',*,*,#333,.T.);
#186=ORIENTED_EDGE('',*,*,#290,.F.);
#187=ORIENTED_EDGE('',*,*,#253,.F.);
#188=ORIENTED_EDGE('',*,*,#265,.F.);
#189=ORIENTED_EDGE('',*,*,#334,.F.);
#190=ORIENTED_EDGE('',*,*,#335,.T.);
#191=ORIENTED_EDGE('',*,*,#336,.T.);
#192=ORIENTED_EDGE('',*,*,#264,.T.);
#193=ORIENTED_EDGE('',*,*,#337,.F.);
#194=ORIENTED_EDGE('',*,*,#338,.F.);
#195=ORIENTED_EDGE('',*,*,#334,.T.);
#196=ORIENTED_EDGE('',*,*,#267,.T.);
#197=ORIENTED_EDGE('',*,*,#339,.F.);
#198=ORIENTED_EDGE('',*,*,#340,.F.);
#199=ORIENTED_EDGE('',*,*,#337,.T.);
#200=ORIENTED_EDGE('',*,*,#266,.F.);
#201=ORIENTED_EDGE('',*,*,#336,.F.);
#202=ORIENTED_EDGE('',*,*,#341,.T.);
#203=ORIENTED_EDGE('',*,*,#339,.T.);
#204=ORIENTED_EDGE('',*,*,#342,.T.);
#205=ORIENTED_EDGE('',*,*,#343,.T.);
#206=ORIENTED_EDGE('',*,*,#344,.F.);
#207=ORIENTED_EDGE('',*,*,#345,.F.);
#208=ORIENTED_EDGE('',*,*,#335,.F.);
#209=ORIENTED_EDGE('',*,*,#338,.T.);
#210=ORIENTED_EDGE('',*,*,#340,.T.);
#211=ORIENTED_EDGE('',*,*,#341,.F.);
#212=ORIENTED_EDGE('',*,*,#342,.F.);
#213=ORIENTED_EDGE('',*,*,#346,.F.);
#214=ORIENTED_EDGE('',*,*,#347,.T.);
#215=ORIENTED_EDGE('',*,*,#348,.T.);
#216=ORIENTED_EDGE('',*,*,#345,.T.);
#217=ORIENTED_EDGE('',*,*,#349,.F.);
#218=ORIENTED_EDGE('',*,*,#350,.F.);
#219=ORIENTED_EDGE('',*,*,#346,.T.);
#220=ORIENTED_EDGE('',*,*,#344,.T.);
#221=ORIENTED_EDGE('',*,*,#351,.F.);
#222=ORIENTED_EDGE('',*,*,#352,.F.);
#223=ORIENTED_EDGE('',*,*,#349,.T.);
#224=ORIENTED_EDGE('',*,*,#343,.F.);
#225=ORIENTED_EDGE('',*,*,#348,.F.);
#226=ORIENTED_EDGE('',*,*,#353,.T.);
#227=ORIENTED_EDGE('',*,*,#351,.T.);
#228=ORIENTED_EDGE('',*,*,#347,.F.);
#229=ORIENTED_EDGE('',*,*,#350,.T.);
#230=ORIENTED_EDGE('',*,*,#352,.T.);
#231=ORIENTED_EDGE('',*,*,#353,.F.);
#232=ORIENTED_EDGE('',*,*,#354,.F.);
#233=ORIENTED_EDGE('',*,*,#272,.F.);
#234=ORIENTED_EDGE('',*,*,#355,.F.);
#235=ORIENTED_EDGE('',*,*,#286,.F.);
#236=ORIENTED_EDGE('',*,*,#355,.T.);
#237=ORIENTED_EDGE('',*,*,#249,.F.);
#238=ORIENTED_EDGE('',*,*,#356,.F.);
#239=ORIENTED_EDGE('',*,*,#283,.F.);
#240=ORIENTED_EDGE('',*,*,#354,.T.);
#241=ORIENTED_EDGE('',*,*,#285,.F.);
#242=ORIENTED_EDGE('',*,*,#357,.F.);
#243=ORIENTED_EDGE('',*,*,#275,.F.);
#244=ORIENTED_EDGE('',*,*,#356,.T.);
#245=ORIENTED_EDGE('',*,*,#281,.F.);
#246=ORIENTED_EDGE('',*,*,#357,.T.);
#247=ORIENTED_EDGE('',*,*,#284,.F.);
#248=EDGE_CURVE('',#358,#359,#430,.T.);
#249=EDGE_CURVE('',#359,#360,#16,.T.);
#250=EDGE_CURVE('',#361,#360,#431,.T.);
#251=EDGE_CURVE('',#361,#362,#432,.T.);
#252=EDGE_CURVE('',#362,#363,#433,.T.);
#253=EDGE_CURVE('',#363,#364,#434,.T.);
#254=EDGE_CURVE('',#365,#364,#435,.T.);
#255=EDGE_CURVE('',#365,#358,#436,.T.);
#256=EDGE_CURVE('',#366,#367,#437,.T.);
#257=EDGE_CURVE('',#366,#368,#438,.T.);
#258=EDGE_CURVE('',#368,#369,#439,.T.);
#259=EDGE_CURVE('',#367,#369,#440,.T.);
#260=EDGE_CURVE('',#370,#371,#441,.T.);
#261=EDGE_CURVE('',#370,#372,#442,.T.);
#262=EDGE_CURVE('',#372,#373,#443,.T.);
#263=EDGE_CURVE('',#371,#373,#444,.T.);
#264=EDGE_CURVE('',#374,#375,#445,.T.);
#265=EDGE_CURVE('',#374,#376,#446,.T.);
#266=EDGE_CURVE('',#376,#377,#447,.T.);
#267=EDGE_CURVE('',#375,#377,#448,.T.);
#268=EDGE_CURVE('',#378,#379,#449,.T.);
#269=EDGE_CURVE('',#378,#380,#450,.T.);
#270=EDGE_CURVE('',#380,#381,#451,.T.);
#271=EDGE_CURVE('',#379,#381,#452,.T.);
#272=EDGE_CURVE('',#360,#382,#17,.T.);
#273=EDGE_CURVE('',#383,#382,#453,.T.);
#274=EDGE_CURVE('',#361,#383,#454,.T.);
#275=EDGE_CURVE('',#382,#384,#18,.T.);
#276=EDGE_CURVE('',#385,#384,#455,.T.);
#277=EDGE_CURVE('',#386,#385,#456,.T.);
#278=EDGE_CURVE('',#386,#381,#457,.T.);
#279=EDGE_CURVE('',#387,#380,#458,.T.);
#280=EDGE_CURVE('',#383,#387,#459,.T.);
#281=EDGE_CURVE('',#384,#359,#19,.T.);
#282=EDGE_CURVE('',#358,#385,#460,.T.);
#283=EDGE_CURVE('',#388,#389,#20,.T.);
#284=EDGE_CURVE('',#389,#390,#21,.T.);
#285=EDGE_CURVE('',#390,#391,#22,.T.);
#286=EDGE_CURVE('',#391,#388,#23,.T.);
#287=EDGE_CURVE('',#392,#378,#461,.T.);
#288=EDGE_CURVE('',#363,#392,#462,.T.);
#289=EDGE_CURVE('',#362,#387,#463,.T.);
#290=EDGE_CURVE('',#364,#393,#464,.T.);
#291=EDGE_CURVE('',#393,#379,#465,.T.);
#292=EDGE_CURVE('',#365,#386,#466,.T.);
#293=EDGE_CURVE('',#394,#366,#467,.T.);
#294=EDGE_CURVE('',#394,#395,#468,.T.);
#295=EDGE_CURVE('',#395,#368,#469,.T.);
#296=EDGE_CURVE('',#396,#367,#470,.T.);
#297=EDGE_CURVE('',#394,#396,#471,.T.);
#298=EDGE_CURVE('',#397,#369,#472,.T.);
#299=EDGE_CURVE('',#396,#397,#473,.T.);
#300=EDGE_CURVE('',#395,#397,#474,.T.);
#301=EDGE_CURVE('',#398,#399,#475,.T.);
#302=EDGE_CURVE('',#399,#400,#476,.T.);
#303=EDGE_CURVE('',#401,#400,#477,.T.);
#304=EDGE_CURVE('',#398,#401,#478,.T.);
#305=EDGE_CURVE('',#402,#370,#479,.T.);
#306=EDGE_CURVE('',#402,#403,#480,.T.);
#307=EDGE_CURVE('',#403,#372,#481,.T.);
#308=EDGE_CURVE('',#404,#371,#482,.T.);
#309=EDGE_CURVE('',#402,#404,#483,.T.);
#310=EDGE_CURVE('',#405,#373,#484,.T.);
#311=EDGE_CURVE('',#404,#405,#485,.T.);
#312=EDGE_CURVE('',#403,#405,#486,.T.);
#313=EDGE_CURVE('',#406,#407,#487,.T.);
#314=EDGE_CURVE('',#407,#408,#488,.T.);
#315=EDGE_CURVE('',#409,#408,#489,.T.);
#316=EDGE_CURVE('',#406,#409,#490,.T.);
#317=EDGE_CURVE('',#410,#406,#491,.T.);
#318=EDGE_CURVE('',#410,#411,#492,.T.);
#319=EDGE_CURVE('',#411,#407,#493,.T.);
#320=EDGE_CURVE('',#412,#409,#494,.T.);
#321=EDGE_CURVE('',#410,#412,#495,.T.);
#322=EDGE_CURVE('',#413,#408,#496,.T.);
#323=EDGE_CURVE('',#412,#413,#497,.T.);
#324=EDGE_CURVE('',#411,#413,#498,.T.);
#325=EDGE_CURVE('',#414,#398,#499,.T.);
#326=EDGE_CURVE('',#414,#415,#500,.T.);
#327=EDGE_CURVE('',#415,#399,#501,.T.);
#328=EDGE_CURVE('',#416,#401,#502,.T.);
#329=EDGE_CURVE('',#414,#416,#503,.T.);
#330=EDGE_CURVE('',#417,#400,#504,.T.);
#331=EDGE_CURVE('',#416,#417,#505,.T.);
#332=EDGE_CURVE('',#415,#417,#506,.T.);
#333=EDGE_CURVE('',#392,#393,#507,.T.);
#334=EDGE_CURVE('',#418,#374,#508,.T.);
#335=EDGE_CURVE('',#418,#419,#509,.T.);
#336=EDGE_CURVE('',#419,#376,#510,.T.);
#337=EDGE_CURVE('',#420,#375,#511,.T.);
#338=EDGE_CURVE('',#418,#420,#512,.T.);
#339=EDGE_CURVE('',#421,#377,#513,.T.);
#340=EDGE_CURVE('',#420,#421,#514,.T.);
#341=EDGE_CURVE('',#419,#421,#515,.T.);
#342=EDGE_CURVE('',#422,#423,#516,.T.);
#343=EDGE_CURVE('',#423,#424,#517,.T.);
#344=EDGE_CURVE('',#425,#424,#518,.T.);
#345=EDGE_CURVE('',#422,#425,#519,.T.);
#346=EDGE_CURVE('',#426,#422,#520,.T.);
#347=EDGE_CURVE('',#426,#427,#521,.T.);
#348=EDGE_CURVE('',#427,#423,#522,.T.);
#349=EDGE_CURVE('',#428,#425,#523,.T.);
#350=EDGE_CURVE('',#426,#428,#524,.T.);
#351=EDGE_CURVE('',#429,#424,#525,.T.);
#352=EDGE_CURVE('',#428,#429,#526,.T.);
#353=EDGE_CURVE('',#427,#429,#527,.T.);
#354=EDGE_CURVE('',#382,#391,#24,.F.);
#355=EDGE_CURVE('',#388,#360,#25,.F.);
#356=EDGE_CURVE('',#389,#359,#26,.F.);
#357=EDGE_CURVE('',#384,#390,#27,.F.);
#358=VERTEX_POINT('',#1060);
#359=VERTEX_POINT('',#1061);
#360=VERTEX_POINT('',#1066);
#361=VERTEX_POINT('',#1068);
#362=VERTEX_POINT('',#1070);
#363=VERTEX_POINT('',#1072);
#364=VERTEX_POINT('',#1074);
#365=VERTEX_POINT('',#1076);
#366=VERTEX_POINT('',#1079);
#367=VERTEX_POINT('',#1080);
#368=VERTEX_POINT('',#1082);
#369=VERTEX_POINT('',#1084);
#370=VERTEX_POINT('',#1087);
#371=VERTEX_POINT('',#1088);
#372=VERTEX_POINT('',#1090);
#373=VERTEX_POINT('',#1092);
#374=VERTEX_POINT('',#1095);
#375=VERTEX_POINT('',#1096);
#376=VERTEX_POINT('',#1098);
#377=VERTEX_POINT('',#1100);
#378=VERTEX_POINT('',#1104);
#379=VERTEX_POINT('',#1105);
#380=VERTEX_POINT('',#1107);
#381=VERTEX_POINT('',#1109);
#382=VERTEX_POINT('',#1116);
#383=VERTEX_POINT('',#1118);
#384=VERTEX_POINT('',#1125);
#385=VERTEX_POINT('',#1127);
#386=VERTEX_POINT('',#1129);
#387=VERTEX_POINT('',#1132);
#388=VERTEX_POINT('',#1145);
#389=VERTEX_POINT('',#1146);
#390=VERTEX_POINT('',#1151);
#391=VERTEX_POINT('',#1156);
#392=VERTEX_POINT('',#1163);
#393=VERTEX_POINT('',#1169);
#394=VERTEX_POINT('',#1175);
#395=VERTEX_POINT('',#1177);
#396=VERTEX_POINT('',#1181);
#397=VERTEX_POINT('',#1185);
#398=VERTEX_POINT('',#1191);
#399=VERTEX_POINT('',#1192);
#400=VERTEX_POINT('',#1194);
#401=VERTEX_POINT('',#1196);
#402=VERTEX_POINT('',#1200);
#403=VERTEX_POINT('',#1202);
#404=VERTEX_POINT('',#1206);
#405=VERTEX_POINT('',#1210);
#406=VERTEX_POINT('',#1216);
#407=VERTEX_POINT('',#1217);
#408=VERTEX_POINT('',#1219);
#409=VERTEX_POINT('',#1221);
#410=VERTEX_POINT('',#1225);
#411=VERTEX_POINT('',#1227);
#412=VERTEX_POINT('',#1231);
#413=VERTEX_POINT('',#1235);
#414=VERTEX_POINT('',#1242);
#415=VERTEX_POINT('',#1244);
#416=VERTEX_POINT('',#1248);
#417=VERTEX_POINT('',#1252);
#418=VERTEX_POINT('',#1262);
#419=VERTEX_POINT('',#1264);
#420=VERTEX_POINT('',#1268);
#421=VERTEX_POINT('',#1272);
#422=VERTEX_POINT('',#1278);
#423=VERTEX_POINT('',#1279);
#424=VERTEX_POINT('',#1281);
#425=VERTEX_POINT('',#1283);
#426=VERTEX_POINT('',#1287);
#427=VERTEX_POINT('',#1289);
#428=VERTEX_POINT('',#1293);
#429=VERTEX_POINT('',#1297);
#430=LINE('',#1059,#528);
#431=LINE('',#1067,#529);
#432=LINE('',#1069,#530);
#433=LINE('',#1071,#531);
#434=LINE('',#1073,#532);
#435=LINE('',#1075,#533);
#436=LINE('',#1077,#534);
#437=LINE('',#1078,#535);
#438=LINE('',#1081,#536);
#439=LINE('',#1083,#537);
#440=LINE('',#1085,#538);
#441=LINE('',#1086,#539);
#442=LINE('',#1089,#540);
#443=LINE('',#1091,#541);
#444=LINE('',#1093,#542);
#445=LINE('',#1094,#543);
#446=LINE('',#1097,#544);
#447=LINE('',#1099,#545);
#448=LINE('',#1101,#546);
#449=LINE('',#1103,#547);
#450=LINE('',#1106,#548);
#451=LINE('',#1108,#549);
#452=LINE('',#1110,#550);
#453=LINE('',#1117,#551);
#454=LINE('',#1119,#552);
#455=LINE('',#1126,#553);
#456=LINE('',#1128,#554);
#457=LINE('',#1130,#555);
#458=LINE('',#1131,#556);
#459=LINE('',#1133,#557);
#460=LINE('',#1139,#558);
#461=LINE('',#1162,#559);
#462=LINE('',#1164,#560);
#463=LINE('',#1165,#561);
#464=LINE('',#1168,#562);
#465=LINE('',#1170,#563);
#466=LINE('',#1171,#564);
#467=LINE('',#1174,#565);
#468=LINE('',#1176,#566);
#469=LINE('',#1178,#567);
#470=LINE('',#1180,#568);
#471=LINE('',#1182,#569);
#472=LINE('',#1184,#570);
#473=LINE('',#1186,#571);
#474=LINE('',#1188,#572);
#475=LINE('',#1190,#573);
#476=LINE('',#1193,#574);
#477=LINE('',#1195,#575);
#478=LINE('',#1197,#576);
#479=LINE('',#1199,#577);
#480=LINE('',#1201,#578);
#481=LINE('',#1203,#579);
#482=LINE('',#1205,#580);
#483=LINE('',#1207,#581);
#484=LINE('',#1209,#582);
#485=LINE('',#1211,#583);
#486=LINE('',#1213,#584);
#487=LINE('',#1215,#585);
#488=LINE('',#1218,#586);
#489=LINE('',#1220,#587);
#490=LINE('',#1222,#588);
#491=LINE('',#1224,#589);
#492=LINE('',#1226,#590);
#493=LINE('',#1228,#591);
#494=LINE('',#1230,#592);
#495=LINE('',#1232,#593);
#496=LINE('',#1234,#594);
#497=LINE('',#1236,#595);
#498=LINE('',#1238,#596);
#499=LINE('',#1241,#597);
#500=LINE('',#1243,#598);
#501=LINE('',#1245,#599);
#502=LINE('',#1247,#600);
#503=LINE('',#1249,#601);
#504=LINE('',#1251,#602);
#505=LINE('',#1253,#603);
#506=LINE('',#1255,#604);
#507=LINE('',#1258,#605);
#508=LINE('',#1261,#606);
#509=LINE('',#1263,#607);
#510=LINE('',#1265,#608);
#511=LINE('',#1267,#609);
#512=LINE('',#1269,#610);
#513=LINE('',#1271,#611);
#514=LINE('',#1273,#612);
#515=LINE('',#1275,#613);
#516=LINE('',#1277,#614);
#517=LINE('',#1280,#615);
#518=LINE('',#1282,#616);
#519=LINE('',#1284,#617);
#520=LINE('',#1286,#618);
#521=LINE('',#1288,#619);
#522=LINE('',#1290,#620);
#523=LINE('',#1292,#621);
#524=LINE('',#1294,#622);
#525=LINE('',#1296,#623);
#526=LINE('',#1298,#624);
#527=LINE('',#1300,#625);
#528=VECTOR('',#877,1.);
#529=VECTOR('',#878,1.);
#530=VECTOR('',#879,1.);
#531=VECTOR('',#880,1.);
#532=VECTOR('',#881,1.);
#533=VECTOR('',#882,1.);
#534=VECTOR('',#883,1.);
#535=VECTOR('',#884,1.);
#536=VECTOR('',#885,1.);
#537=VECTOR('',#886,1.);
#538=VECTOR('',#887,1.);
#539=VECTOR('',#888,1.);
#540=VECTOR('',#889,1.);
#541=VECTOR('',#890,1.);
#542=VECTOR('',#891,1.);
#543=VECTOR('',#892,1.);
#544=VECTOR('',#893,1.);
#545=VECTOR('',#894,1.);
#546=VECTOR('',#895,1.);
#547=VECTOR('',#898,1.);
#548=VECTOR('',#899,1.);
#549=VECTOR('',#900,1.);
#550=VECTOR('',#901,1.);
#551=VECTOR('',#904,1.);
#552=VECTOR('',#905,1.);
#553=VECTOR('',#908,1.);
#554=VECTOR('',#909,1.);
#555=VECTOR('',#910,1.);
#556=VECTOR('',#911,1.);
#557=VECTOR('',#912,1.);
#558=VECTOR('',#915,1.);
#559=VECTOR('',#920,1.);
#560=VECTOR('',#921,1.);
#561=VECTOR('',#922,1.);
#562=VECTOR('',#927,1.);
#563=VECTOR('',#928,1.);
#564=VECTOR('',#929,1.);
#565=VECTOR('',#934,1.);
#566=VECTOR('',#935,1.);
#567=VECTOR('',#936,1.);
#568=VECTOR('',#939,1.);
#569=VECTOR('',#940,1.);
#570=VECTOR('',#943,1.);
#571=VECTOR('',#944,1.);
#572=VECTOR('',#947,1.);
#573=VECTOR('',#950,1.);
#574=VECTOR('',#951,1.);
#575=VECTOR('',#952,1.);
#576=VECTOR('',#953,1.);
#577=VECTOR('',#956,1.);
#578=VECTOR('',#957,1.);
#579=VECTOR('',#958,1.);
#580=VECTOR('',#961,1.);
#581=VECTOR('',#962,1.);
#582=VECTOR('',#965,1.);
#583=VECTOR('',#966,1.);
#584=VECTOR('',#969,1.);
#585=VECTOR('',#972,1.);
#586=VECTOR('',#973,1.);
#587=VECTOR('',#974,1.);
#588=VECTOR('',#975,1.);
#589=VECTOR('',#978,1.);
#590=VECTOR('',#979,1.);
#591=VECTOR('',#980,1.);
#592=VECTOR('',#983,1.);
#593=VECTOR('',#984,1.);
#594=VECTOR('',#987,1.);
#595=VECTOR('',#988,1.);
#596=VECTOR('',#991,1.);
#597=VECTOR('',#996,1.);
#598=VECTOR('',#997,1.);
#599=VECTOR('',#998,1.);
#600=VECTOR('',#1001,1.);
#601=VECTOR('',#1002,1.);
#602=VECTOR('',#1005,1.);
#603=VECTOR('',#1006,1.);
#604=VECTOR('',#1009,1.);
#605=VECTOR('',#1014,1.);
#606=VECTOR('',#1019,1.);
#607=VECTOR('',#1020,1.);
#608=VECTOR('',#1021,1.);
#609=VECTOR('',#1024,1.);
#610=VECTOR('',#1025,1.);
#611=VECTOR('',#1028,1.);
#612=VECTOR('',#1029,1.);
#613=VECTOR('',#1032,1.);
#614=VECTOR('',#1035,1.);
#615=VECTOR('',#1036,1.);
#616=VECTOR('',#1037,1.);
#617=VECTOR('',#1038,1.);
#618=VECTOR('',#1041,1.);
#619=VECTOR('',#1042,1.);
#620=VECTOR('',#1043,1.);
#621=VECTOR('',#1046,1.);
#622=VECTOR('',#1047,1.);
#623=VECTOR('',#1050,1.);
#624=VECTOR('',#1051,1.);
#625=VECTOR('',#1054,1.);
#626=EDGE_LOOP('',(#28,#29,#30,#31,#32,#33,#34,#35));
#627=EDGE_LOOP('',(#36,#37,#38,#39));
#628=EDGE_LOOP('',(#40,#41,#42,#43));
#629=EDGE_LOOP('',(#44,#45,#46,#47));
#630=EDGE_LOOP('',(#48,#49,#50,#51));
#631=EDGE_LOOP('',(#52,#53,#54,#55));
#632=EDGE_LOOP('',(#56,#57,#58,#59,#60,#61,#62,#63));
#633=EDGE_LOOP('',(#64,#65,#66,#67));
#634=EDGE_LOOP('',(#68,#69,#70,#71));
#635=EDGE_LOOP('',(#72,#73,#74,#75,#76,#77));
#636=EDGE_LOOP('',(#78,#79,#80,#81));
#637=EDGE_LOOP('',(#82,#83,#84,#85,#86,#87));
#638=EDGE_LOOP('',(#88,#89,#90,#91));
#639=EDGE_LOOP('',(#92,#93,#94,#95));
#640=EDGE_LOOP('',(#96,#97,#98,#99));
#641=EDGE_LOOP('',(#100,#101,#102,#103));
#642=EDGE_LOOP('',(#104,#105,#106,#107));
#643=EDGE_LOOP('',(#108,#109,#110,#111));
#644=EDGE_LOOP('',(#112,#113,#114,#115));
#645=EDGE_LOOP('',(#116,#117,#118,#119));
#646=EDGE_LOOP('',(#120,#121,#122,#123));
#647=EDGE_LOOP('',(#124,#125,#126,#127));
#648=EDGE_LOOP('',(#128,#129,#130,#131));
#649=EDGE_LOOP('',(#132,#133,#134,#135));
#650=EDGE_LOOP('',(#136,#137,#138,#139));
#651=EDGE_LOOP('',(#140,#141,#142,#143));
#652=EDGE_LOOP('',(#144,#145,#146,#147));
#653=EDGE_LOOP('',(#148,#149,#150,#151));
#654=EDGE_LOOP('',(#152,#153,#154,#155));
#655=EDGE_LOOP('',(#156,#157,#158,#159));
#656=EDGE_LOOP('',(#160,#161,#162,#163));
#657=EDGE_LOOP('',(#164,#165,#166,#167));
#658=EDGE_LOOP('',(#168,#169,#170,#171));
#659=EDGE_LOOP('',(#172,#173,#174,#175));
#660=EDGE_LOOP('',(#176,#177,#178,#179));
#661=EDGE_LOOP('',(#180,#181,#182,#183));
#662=EDGE_LOOP('',(#184,#185,#186,#187));
#663=EDGE_LOOP('',(#188,#189,#190,#191));
#664=EDGE_LOOP('',(#192,#193,#194,#195));
#665=EDGE_LOOP('',(#196,#197,#198,#199));
#666=EDGE_LOOP('',(#200,#201,#202,#203));
#667=EDGE_LOOP('',(#204,#205,#206,#207));
#668=EDGE_LOOP('',(#208,#209,#210,#211));
#669=EDGE_LOOP('',(#212,#213,#214,#215));
#670=EDGE_LOOP('',(#216,#217,#218,#219));
#671=EDGE_LOOP('',(#220,#221,#222,#223));
#672=EDGE_LOOP('',(#224,#225,#226,#227));
#673=EDGE_LOOP('',(#228,#229,#230,#231));
#674=EDGE_LOOP('',(#232,#233,#234,#235));
#675=EDGE_LOOP('',(#236,#237,#238,#239));
#676=EDGE_LOOP('',(#240,#241,#242,#243));
#677=EDGE_LOOP('',(#244,#245,#246,#247));
#678=FACE_BOUND('',#626,.T.);
#679=FACE_BOUND('',#627,.T.);
#680=FACE_BOUND('',#628,.T.);
#681=FACE_BOUND('',#629,.T.);
#682=FACE_BOUND('',#630,.T.);
#683=FACE_BOUND('',#631,.T.);
#684=FACE_BOUND('',#632,.T.);
#685=FACE_BOUND('',#633,.T.);
#686=FACE_BOUND('',#634,.T.);
#687=FACE_BOUND('',#635,.T.);
#688=FACE_BOUND('',#636,.T.);
#689=FACE_BOUND('',#637,.T.);
#690=FACE_BOUND('',#638,.T.);
#691=FACE_BOUND('',#639,.T.);
#692=FACE_BOUND('',#640,.T.);
#693=FACE_BOUND('',#641,.T.);
#694=FACE_BOUND('',#642,.T.);
#695=FACE_BOUND('',#643,.T.);
#696=FACE_BOUND('',#644,.T.);
#697=FACE_BOUND('',#645,.T.);
#698=FACE_BOUND('',#646,.T.);
#699=FACE_BOUND('',#647,.T.);
#700=FACE_BOUND('',#648,.T.);
#701=FACE_BOUND('',#649,.T.);
#702=FACE_BOUND('',#650,.T.);
#703=FACE_BOUND('',#651,.T.);
#704=FACE_BOUND('',#652,.T.);
#705=FACE_BOUND('',#653,.T.);
#706=FACE_BOUND('',#654,.T.);
#707=FACE_BOUND('',#655,.T.);
#708=FACE_BOUND('',#656,.T.);
#709=FACE_BOUND('',#657,.T.);
#710=FACE_BOUND('',#658,.T.);
#711=FACE_BOUND('',#659,.T.);
#712=FACE_BOUND('',#660,.T.);
#713=FACE_BOUND('',#661,.T.);
#714=FACE_BOUND('',#662,.T.);
#715=FACE_BOUND('',#663,.T.);
#716=FACE_BOUND('',#664,.T.);
#717=FACE_BOUND('',#665,.T.);
#718=FACE_BOUND('',#666,.T.);
#719=FACE_BOUND('',#667,.T.);
#720=FACE_BOUND('',#668,.T.);
#721=FACE_BOUND('',#669,.T.);
#722=FACE_BOUND('',#670,.T.);
#723=FACE_BOUND('',#671,.T.);
#724=FACE_BOUND('',#672,.T.);
#725=FACE_BOUND('',#673,.T.);
#726=FACE_BOUND('',#674,.T.);
#727=FACE_BOUND('',#675,.T.);
#728=FACE_BOUND('',#676,.T.);
#729=FACE_BOUND('',#677,.T.);
#730=PLANE('',#831);
#731=PLANE('',#832);
#732=PLANE('',#833);
#733=PLANE('',#834);
#734=PLANE('',#835);
#735=PLANE('',#836);
#736=PLANE('',#837);
#737=PLANE('',#838);
#738=PLANE('',#839);
#739=PLANE('',#840);
#740=PLANE('',#841);
#741=PLANE('',#842);
#742=PLANE('',#843);
#743=PLANE('',#844);
#744=PLANE('',#845);
#745=PLANE('',#846);
#746=PLANE('',#847);
#747=PLANE('',#848);
#748=PLANE('',#849);
#749=PLANE('',#850);
#750=PLANE('',#851);
#751=PLANE('',#852);
#752=PLANE('',#853);
#753=PLANE('',#854);
#754=PLANE('',#855);
#755=PLANE('',#856);
#756=PLANE('',#857);
#757=PLANE('',#858);
#758=PLANE('',#859);
#759=PLANE('',#860);
#760=PLANE('',#861);
#761=PLANE('',#862);
#762=PLANE('',#863);
#763=PLANE('',#864);
#764=PLANE('',#865);
#765=PLANE('',#866);
#766=PLANE('',#867);
#767=PLANE('',#868);
#768=PLANE('',#869);
#769=PLANE('',#870);
#770=PLANE('',#871);
#771=PLANE('',#872);
#772=ADVANCED_FACE('',(#678,#679,#680,#681),#730,.T.);
#773=ADVANCED_FACE('',(#682),#731,.T.);
#774=ADVANCED_FACE('',(#683),#732,.F.);
#775=ADVANCED_FACE('',(#684),#733,.F.);
#776=ADVANCED_FACE('',(#685),#734,.T.);
#777=ADVANCED_FACE('',(#686),#735,.F.);
#778=ADVANCED_FACE('',(#687),#736,.T.);
#779=ADVANCED_FACE('',(#688),#737,.T.);
#780=ADVANCED_FACE('',(#689),#738,.F.);
#781=ADVANCED_FACE('',(#690),#739,.T.);
#782=ADVANCED_FACE('',(#691),#740,.T.);
#783=ADVANCED_FACE('',(#692),#741,.F.);
#784=ADVANCED_FACE('',(#693),#742,.F.);
#785=ADVANCED_FACE('',(#694),#743,.T.);
#786=ADVANCED_FACE('',(#695,#696),#744,.T.);
#787=ADVANCED_FACE('',(#697),#745,.T.);
#788=ADVANCED_FACE('',(#698),#746,.F.);
#789=ADVANCED_FACE('',(#699),#747,.F.);
#790=ADVANCED_FACE('',(#700),#748,.T.);
#791=ADVANCED_FACE('',(#701,#702),#749,.T.);
#792=ADVANCED_FACE('',(#703),#750,.T.);
#793=ADVANCED_FACE('',(#704),#751,.F.);
#794=ADVANCED_FACE('',(#705),#752,.F.);
#795=ADVANCED_FACE('',(#706),#753,.T.);
#796=ADVANCED_FACE('',(#707),#754,.T.);
#797=ADVANCED_FACE('',(#708),#755,.T.);
#798=ADVANCED_FACE('',(#709),#756,.F.);
#799=ADVANCED_FACE('',(#710),#757,.F.);
#800=ADVANCED_FACE('',(#711),#758,.T.);
#801=ADVANCED_FACE('',(#712),#759,.T.);
#802=ADVANCED_FACE('',(#713),#760,.F.);
#803=ADVANCED_FACE('',(#714),#761,.T.);
#804=ADVANCED_FACE('',(#715),#762,.T.);
#805=ADVANCED_FACE('',(#716),#763,.F.);
#806=ADVANCED_FACE('',(#717),#764,.F.);
#807=ADVANCED_FACE('',(#718),#765,.T.);
#808=ADVANCED_FACE('',(#719,#720),#766,.T.);
#809=ADVANCED_FACE('',(#721),#767,.T.);
#810=ADVANCED_FACE('',(#722),#768,.F.);
#811=ADVANCED_FACE('',(#723),#769,.F.);
#812=ADVANCED_FACE('',(#724),#770,.T.);
#813=ADVANCED_FACE('',(#725),#771,.T.);
#814=ADVANCED_FACE('',(#726),#12,.T.);
#815=ADVANCED_FACE('',(#727),#13,.T.);
#816=ADVANCED_FACE('',(#728),#14,.T.);
#817=ADVANCED_FACE('',(#729),#15,.T.);
#818=CLOSED_SHELL('',(#772,#773,#774,#775,#776,#777,#778,#779,#780,#781,
#782,#783,#784,#785,#786,#787,#788,#789,#790,#791,#792,#793,#794,#795,#796,
#797,#798,#799,#800,#801,#802,#803,#804,#805,#806,#807,#808,#809,#810,#811,
#812,#813,#814,#815,#816,#817));
#819=STYLED_ITEM('',(#820),#827);
#820=PRESENTATION_STYLE_ASSIGNMENT((#821));
#821=SURFACE_STYLE_USAGE(.BOTH.,#822);
#822=SURFACE_SIDE_STYLE('',(#823));
#823=SURFACE_STYLE_FILL_AREA(#824);
#824=FILL_AREA_STYLE('',(#825));
#825=FILL_AREA_STYLE_COLOUR('',#826);
#826=COLOUR_RGB('',0.96078431372549,0.901960784313726,0.862745098039216);
#827=MANIFOLD_SOLID_BREP('Part 1',#818);
#828=SHAPE_DEFINITION_REPRESENTATION(#1416,#829);
#829=SHAPE_REPRESENTATION('Part 1',(#830),#1411);
#830=AXIS2_PLACEMENT_3D('',#1057,#873,#874);
#831=AXIS2_PLACEMENT_3D('',#1058,#875,#876);
#832=AXIS2_PLACEMENT_3D('',#1102,#896,#897);
#833=AXIS2_PLACEMENT_3D('',#1111,#902,#903);
#834=AXIS2_PLACEMENT_3D('',#1120,#906,#907);
#835=AXIS2_PLACEMENT_3D('',#1134,#913,#914);
#836=AXIS2_PLACEMENT_3D('',#1140,#916,#917);
#837=AXIS2_PLACEMENT_3D('',#1161,#918,#919);
#838=AXIS2_PLACEMENT_3D('',#1166,#923,#924);
#839=AXIS2_PLACEMENT_3D('',#1167,#925,#926);
#840=AXIS2_PLACEMENT_3D('',#1172,#930,#931);
#841=AXIS2_PLACEMENT_3D('',#1173,#932,#933);
#842=AXIS2_PLACEMENT_3D('',#1179,#937,#938);
#843=AXIS2_PLACEMENT_3D('',#1183,#941,#942);
#844=AXIS2_PLACEMENT_3D('',#1187,#945,#946);
#845=AXIS2_PLACEMENT_3D('',#1189,#948,#949);
#846=AXIS2_PLACEMENT_3D('',#1198,#954,#955);
#847=AXIS2_PLACEMENT_3D('',#1204,#959,#960);
#848=AXIS2_PLACEMENT_3D('',#1208,#963,#964);
#849=AXIS2_PLACEMENT_3D('',#1212,#967,#968);
#850=AXIS2_PLACEMENT_3D('',#1214,#970,#971);
#851=AXIS2_PLACEMENT_3D('',#1223,#976,#977);
#852=AXIS2_PLACEMENT_3D('',#1229,#981,#982);
#853=AXIS2_PLACEMENT_3D('',#1233,#985,#986);
#854=AXIS2_PLACEMENT_3D('',#1237,#989,#990);
#855=AXIS2_PLACEMENT_3D('',#1239,#992,#993);
#856=AXIS2_PLACEMENT_3D('',#1240,#994,#995);
#857=AXIS2_PLACEMENT_3D('',#1246,#999,#1000);
#858=AXIS2_PLACEMENT_3D('',#1250,#1003,#1004);
#859=AXIS2_PLACEMENT_3D('',#1254,#1007,#1008);
#860=AXIS2_PLACEMENT_3D('',#1256,#1010,#1011);
#861=AXIS2_PLACEMENT_3D('',#1257,#1012,#1013);
#862=AXIS2_PLACEMENT_3D('',#1259,#1015,#1016);
#863=AXIS2_PLACEMENT_3D('',#1260,#1017,#1018);
#864=AXIS2_PLACEMENT_3D('',#1266,#1022,#1023);
#865=AXIS2_PLACEMENT_3D('',#1270,#1026,#1027);
#866=AXIS2_PLACEMENT_3D('',#1274,#1030,#1031);
#867=AXIS2_PLACEMENT_3D('',#1276,#1033,#1034);
#868=AXIS2_PLACEMENT_3D('',#1285,#1039,#1040);
#869=AXIS2_PLACEMENT_3D('',#1291,#1044,#1045);
#870=AXIS2_PLACEMENT_3D('',#1295,#1048,#1049);
#871=AXIS2_PLACEMENT_3D('',#1299,#1052,#1053);
#872=AXIS2_PLACEMENT_3D('',#1301,#1055,#1056);
#873=DIRECTION('',(0.,0.,1.));
#874=DIRECTION('',(1.,0.,0.));
#875=DIRECTION('',(0.,1.,0.));
#876=DIRECTION('',(0.,0.,1.));
#877=DIRECTION('',(0.,0.,-1.));
#878=DIRECTION('',(0.,0.,-1.));
#879=DIRECTION('',(1.,0.,0.));
#880=DIRECTION('',(0.,0.,-1.));
#881=DIRECTION('',(1.,0.,0.));
#882=DIRECTION('',(0.,0.,-1.));
#883=DIRECTION('',(1.,0.,0.));
#884=DIRECTION('',(0.,0.,1.));
#885=DIRECTION('',(1.,0.,0.));
#886=DIRECTION('',(0.,0.,1.));
#887=DIRECTION('',(1.,0.,0.));
#888=DIRECTION('',(0.,0.,1.));
#889=DIRECTION('',(1.,0.,0.));
#890=DIRECTION('',(0.,0.,1.));
#891=DIRECTION('',(1.,0.,0.));
#892=DIRECTION('',(0.,0.,1.));
#893=DIRECTION('',(1.,0.,0.));
#894=DIRECTION('',(0.,0.,1.));
#895=DIRECTION('',(1.,0.,0.));
#896=DIRECTION('',(0.,0.,1.));
#897=DIRECTION('',(1.,0.,0.));
#898=DIRECTION('',(1.,0.,0.));
#899=DIRECTION('',(0.,-1.,0.));
#900=DIRECTION('',(1.,0.,0.));
#901=DIRECTION('',(0.,-1.,0.));
#902=DIRECTION('',(1.,0.,0.));
#903=DIRECTION('',(0.,0.,-1.));
#904=DIRECTION('',(0.,0.,-1.));
#905=DIRECTION('',(0.,-1.,0.));
#906=DIRECTION('',(0.,1.,0.));
#907=DIRECTION('',(0.,0.,1.));
#908=DIRECTION('',(0.,0.,-1.));
#909=DIRECTION('',(1.,0.,0.));
#910=DIRECTION('',(0.,0.,-1.));
#911=DIRECTION('',(0.,0.,-1.));
#912=DIRECTION('',(1.,0.,0.));
#913=DIRECTION('',(1.,0.,0.));
#914=DIRECTION('',(0.,0.,-1.));
#915=DIRECTION('',(0.,-1.,0.));
#916=DIRECTION('',(0.,0.,1.));
#917=DIRECTION('',(1.,0.,0.));
#918=DIRECTION('',(1.,0.,0.));
#919=DIRECTION('',(0.,0.,-1.));
#920=DIRECTION('',(0.,0.,-1.));
#921=DIRECTION('',(0.,-1.,0.));
#922=DIRECTION('',(0.,-1.,0.));
#923=DIRECTION('',(0.,0.,1.));
#924=DIRECTION('',(1.,0.,0.));
#925=DIRECTION('',(1.,0.,0.));
#926=DIRECTION('',(0.,0.,-1.));
#927=DIRECTION('',(0.,-1.,0.));
#928=DIRECTION('',(0.,0.,-1.));
#929=DIRECTION('',(0.,-1.,0.));
#930=DIRECTION('',(0.,0.,1.));
#931=DIRECTION('',(1.,0.,0.));
#932=DIRECTION('',(0.,0.,1.));
#933=DIRECTION('',(1.,0.,0.));
#934=DIRECTION('',(0.,1.,0.));
#935=DIRECTION('',(1.,0.,0.));
#936=DIRECTION('',(0.,1.,0.));
#937=DIRECTION('',(-1.,0.,0.));
#938=DIRECTION('',(0.,0.,1.));
#939=DIRECTION('',(0.,1.,0.));
#940=DIRECTION('',(0.,0.,1.));
#941=DIRECTION('',(0.,0.,1.));
#942=DIRECTION('',(1.,0.,0.));
#943=DIRECTION('',(0.,1.,0.));
#944=DIRECTION('',(1.,0.,0.));
#945=DIRECTION('',(-1.,0.,0.));
#946=DIRECTION('',(0.,0.,1.));
#947=DIRECTION('',(0.,0.,1.));
#948=DIRECTION('',(0.,1.,0.));
#949=DIRECTION('',(-1.,0.,0.));
#950=DIRECTION('',(-1.,0.,0.));
#951=DIRECTION('',(0.,0.,-1.));
#952=DIRECTION('',(-1.,0.,0.));
#953=DIRECTION('',(0.,0.,-1.));
#954=DIRECTION('',(0.,0.,1.));
#955=DIRECTION('',(1.,0.,0.));
#956=DIRECTION('',(0.,1.,0.));
#957=DIRECTION('',(1.,0.,0.));
#958=DIRECTION('',(0.,1.,0.));
#959=DIRECTION('',(-1.,0.,0.));
#960=DIRECTION('',(0.,0.,1.));
#961=DIRECTION('',(0.,1.,0.));
#962=DIRECTION('',(0.,0.,1.));
#963=DIRECTION('',(0.,0.,1.));
#964=DIRECTION('',(1.,0.,0.));
#965=DIRECTION('',(0.,1.,0.));
#966=DIRECTION('',(1.,0.,0.));
#967=DIRECTION('',(-1.,0.,0.));
#968=DIRECTION('',(0.,0.,1.));
#969=DIRECTION('',(0.,0.,1.));
#970=DIRECTION('',(0.,1.,0.));
#971=DIRECTION('',(-1.,0.,0.));
#972=DIRECTION('',(-1.,0.,0.));
#973=DIRECTION('',(0.,0.,-1.));
#974=DIRECTION('',(-1.,0.,0.));
#975=DIRECTION('',(0.,0.,-1.));
#976=DIRECTION('',(0.,0.,1.));
#977=DIRECTION('',(1.,0.,0.));
#978=DIRECTION('',(0.,-1.,0.));
#979=DIRECTION('',(-1.,0.,0.));
#980=DIRECTION('',(0.,-1.,0.));
#981=DIRECTION('',(-1.,0.,0.));
#982=DIRECTION('',(0.,0.,1.));
#983=DIRECTION('',(0.,-1.,0.));
#984=DIRECTION('',(0.,0.,-1.));
#985=DIRECTION('',(0.,0.,1.));
#986=DIRECTION('',(1.,0.,0.));
#987=DIRECTION('',(0.,-1.,0.));
#988=DIRECTION('',(-1.,0.,0.));
#989=DIRECTION('',(-1.,0.,0.));
#990=DIRECTION('',(0.,0.,1.));
#991=DIRECTION('',(0.,0.,-1.));
#992=DIRECTION('',(0.,1.,0.));
#993=DIRECTION('',(-1.,0.,0.));
#994=DIRECTION('',(0.,0.,1.));
#995=DIRECTION('',(1.,0.,0.));
#996=DIRECTION('',(0.,-1.,0.));
#997=DIRECTION('',(-1.,0.,0.));
#998=DIRECTION('',(0.,-1.,0.));
#999=DIRECTION('',(-1.,0.,0.));
#1000=DIRECTION('',(0.,0.,1.));
#1001=DIRECTION('',(0.,-1.,0.));
#1002=DIRECTION('',(0.,0.,-1.));
#1003=DIRECTION('',(0.,0.,1.));
#1004=DIRECTION('',(1.,0.,0.));
#1005=DIRECTION('',(0.,-1.,0.));
#1006=DIRECTION('',(-1.,0.,0.));
#1007=DIRECTION('',(-1.,0.,0.));
#1008=DIRECTION('',(0.,0.,1.));
#1009=DIRECTION('',(0.,0.,-1.));
#1010=DIRECTION('',(0.,1.,0.));
#1011=DIRECTION('',(-1.,0.,0.));
#1012=DIRECTION('',(0.,1.,0.));
#1013=DIRECTION('',(0.,0.,1.));
#1014=DIRECTION('',(1.,0.,0.));
#1015=DIRECTION('',(0.,0.,1.));
#1016=DIRECTION('',(1.,0.,0.));
#1017=DIRECTION('',(0.,0.,1.));
#1018=DIRECTION('',(1.,0.,0.));
#1019=DIRECTION('',(0.,1.,0.));
#1020=DIRECTION('',(1.,0.,0.));
#1021=DIRECTION('',(0.,1.,0.));
#1022=DIRECTION('',(-1.,0.,0.));
#1023=DIRECTION('',(0.,0.,1.));
#1024=DIRECTION('',(0.,1.,0.));
#1025=DIRECTION('',(0.,0.,1.));
#1026=DIRECTION('',(0.,0.,1.));
#1027=DIRECTION('',(1.,0.,0.));
#1028=DIRECTION('',(0.,1.,0.));
#1029=DIRECTION('',(1.,0.,0.));
#1030=DIRECTION('',(-1.,0.,0.));
#1031=DIRECTION('',(0.,0.,1.));
#1032=DIRECTION('',(0.,0.,1.));
#1033=DIRECTION('',(0.,1.,0.));
#1034=DIRECTION('',(-1.,0.,0.));
#1035=DIRECTION('',(1.,0.,0.));
#1036=DIRECTION('',(0.,0.,1.));
#1037=DIRECTION('',(1.,0.,0.));
#1038=DIRECTION('',(0.,0.,1.));
#1039=DIRECTION('',(0.,0.,-1.));
#1040=DIRECTION('',(-1.,0.,0.));
#1041=DIRECTION('',(0.,-1.,0.));
#1042=DIRECTION('',(1.,0.,0.));
#1043=DIRECTION('',(0.,-1.,0.));
#1044=DIRECTION('',(1.,0.,0.));
#1045=DIRECTION('',(0.,0.,-1.));
#1046=DIRECTION('',(0.,-1.,0.));
#1047=DIRECTION('',(0.,0.,1.));
#1048=DIRECTION('',(0.,0.,-1.));
#1049=DIRECTION('',(-1.,0.,0.));
#1050=DIRECTION('',(0.,-1.,0.));
#1051=DIRECTION('',(1.,0.,0.));
#1052=DIRECTION('',(1.,0.,0.));
#1053=DIRECTION('',(0.,0.,-1.));
#1054=DIRECTION('',(0.,0.,1.));
#1055=DIRECTION('',(0.,1.,0.));
#1056=DIRECTION('',(-1.,0.,0.));
#1057=CARTESIAN_POINT('',(0.,0.,0.));
#1058=CARTESIAN_POINT('',(-0.000229928642511375,0.0172445271164179,0.0025));
#1059=CARTESIAN_POINT('',(0.0347700713574886,0.0172445271164179,0.0025));
#1060=CARTESIAN_POINT('',(0.0347700713574886,0.0172445271164179,0.0375));
#1061=CARTESIAN_POINT('',(0.0347700713574886,0.0172445271164179,0.001));
#1062=CARTESIAN_POINT('',(0.0347700713574886,0.0172445271164179,0.001));
#1063=CARTESIAN_POINT('',(0.0114367380241553,0.0172445271164179,0.001));
#1064=CARTESIAN_POINT('',(-0.011896595309178,0.0172445271164179,0.001));
#1065=CARTESIAN_POINT('',(-0.0352299286425114,0.0172445271164179,0.001));
#1066=CARTESIAN_POINT('',(-0.0352299286425114,0.0172445271164179,0.001));
#1067=CARTESIAN_POINT('',(-0.0352299286425114,0.0172445271164179,0.0025));
#1068=CARTESIAN_POINT('',(-0.0352299286425114,0.0172445271164179,0.0375));
#1069=CARTESIAN_POINT('',(-0.000229928642511375,0.0172445271164179,0.0375));
#1070=CARTESIAN_POINT('',(-0.0306952558457852,0.0172445271164179,0.0375));
#1071=CARTESIAN_POINT('',(-0.0306952558457852,0.0172445271164179,0.0375));
#1072=CARTESIAN_POINT('',(-0.0306952558457852,0.0172445271164179,0.0125));
#1073=CARTESIAN_POINT('',(-0.000229928642511375,0.0172445271164179,0.0125));
#1074=CARTESIAN_POINT('',(0.0167700713574886,0.0172445271164179,0.0125));
#1075=CARTESIAN_POINT('',(0.0167700713574886,0.0172445271164179,0.0375));
#1076=CARTESIAN_POINT('',(0.0167700713574886,0.0172445271164179,0.0375));
#1077=CARTESIAN_POINT('',(-0.000229928642511375,0.0172445271164179,0.0375));
#1078=CARTESIAN_POINT('',(0.0187390521168709,0.0172445271164179,0.0228777388110757));
#1079=CARTESIAN_POINT('',(0.0187390521168709,0.0172445271164179,0.0172445271164179));
#1080=CARTESIAN_POINT('',(0.0187390521168709,0.0172445271164179,0.0285109505057335));
#1081=CARTESIAN_POINT('',(0.0256368629634381,0.0172445271164179,0.0172445271164179));
#1082=CARTESIAN_POINT('',(0.0325346738100052,0.0172445271164179,0.0172445271164179));
#1083=CARTESIAN_POINT('',(0.0325346738100052,0.0172445271164179,0.0228777388110757));
#1084=CARTESIAN_POINT('',(0.0325346738100052,0.0172445271164179,0.0285109505057335));
#1085=CARTESIAN_POINT('',(0.0256368629634381,0.0172445271164179,0.0285109505057335));
#1086=CARTESIAN_POINT('',(0.0187390521168709,0.0172445271164179,0.00826277423650026));
#1087=CARTESIAN_POINT('',(0.0187390521168709,0.0172445271164179,0.0025));
#1088=CARTESIAN_POINT('',(0.0187390521168709,0.0172445271164179,0.0140255484730005));
#1089=CARTESIAN_POINT('',(0.0256368629634381,0.0172445271164179,0.0025));
#1090=CARTESIAN_POINT('',(0.0325346738100052,0.0172445271164179,0.0025));
#1091=CARTESIAN_POINT('',(0.0325346738100052,0.0172445271164179,0.00826277423650026));
#1092=CARTESIAN_POINT('',(0.0325346738100052,0.0172445271164179,0.0140255484730005));
#1093=CARTESIAN_POINT('',(0.0256368629634381,0.0172445271164179,0.0140255484730005));
#1094=CARTESIAN_POINT('',(-0.0291106589138508,0.0172445271164179,0.00748070321115634));
#1095=CARTESIAN_POINT('',(-0.0291106589138508,0.0172445271164179,0.00415455537411538));
#1096=CARTESIAN_POINT('',(-0.0291106589138508,0.0172445271164179,0.0108068510481973));
#1097=CARTESIAN_POINT('',(-0.00689440313726664,0.0172445271164179,0.00415455537411538));
#1098=CARTESIAN_POINT('',(0.0153218526393175,0.0172445271164179,0.00415455537411538));
#1099=CARTESIAN_POINT('',(0.0153218526393175,0.0172445271164179,0.00748070321115634));
#1100=CARTESIAN_POINT('',(0.0153218526393175,0.0172445271164179,0.0108068510481973));
#1101=CARTESIAN_POINT('',(-0.00689440313726664,0.0172445271164179,0.0108068510481973));
#1102=CARTESIAN_POINT('',(-0.000229928642511368,0.00224452711641789,0.0025));
#1103=CARTESIAN_POINT('',(-0.00696259224414825,0.00666788360103965,0.0025));
#1104=CARTESIAN_POINT('',(-0.0306952558457852,0.00666788360103965,0.0025));
#1105=CARTESIAN_POINT('',(0.0167700713574886,0.00666788360103965,0.0025));
#1106=CARTESIAN_POINT('',(-0.0306952558457852,0.00224452711641789,0.0025));
#1107=CARTESIAN_POINT('',(-0.0306952558457852,-0.0127554728835821,0.0025));
#1108=CARTESIAN_POINT('',(-0.000229928642511375,-0.0127554728835821,0.0025));
#1109=CARTESIAN_POINT('',(0.0167700713574886,-0.0127554728835821,0.0025));
#1110=CARTESIAN_POINT('',(0.0167700713574886,0.00224452711641789,0.0025));
#1111=CARTESIAN_POINT('',(-0.0352299286425114,0.00224452711641789,0.0025));
#1112=CARTESIAN_POINT('',(-0.0352299286425114,0.0172445271164179,0.001));
#1113=CARTESIAN_POINT('',(-0.0352299286425114,0.00724452711641789,0.001));
#1114=CARTESIAN_POINT('',(-0.0352299286425114,-0.00275547288358211,0.001));
#1115=CARTESIAN_POINT('',(-0.0352299286425114,-0.0127554728835821,0.001));
#1116=CARTESIAN_POINT('',(-0.0352299286425114,-0.0127554728835821,0.001));
#1117=CARTESIAN_POINT('',(-0.0352299286425114,-0.0127554728835821,0.0025));
#1118=CARTESIAN_POINT('',(-0.0352299286425114,-0.0127554728835821,0.0375));
#1119=CARTESIAN_POINT('',(-0.0352299286425114,0.00224452711641789,0.0375));
#1120=CARTESIAN_POINT('',(-0.000229928642511375,-0.0127554728835821,0.0025));
#1121=CARTESIAN_POINT('',(-0.0352299286425114,-0.0127554728835821,0.001));
#1122=CARTESIAN_POINT('',(-0.011896595309178,-0.0127554728835821,0.001));
#1123=CARTESIAN_POINT('',(0.0114367380241553,-0.0127554728835821,0.001));
#1124=CARTESIAN_POINT('',(0.0347700713574886,-0.0127554728835821,0.001));
#1125=CARTESIAN_POINT('',(0.0347700713574886,-0.0127554728835821,0.001));
#1126=CARTESIAN_POINT('',(0.0347700713574886,-0.0127554728835821,0.0025));
#1127=CARTESIAN_POINT('',(0.0347700713574886,-0.0127554728835821,0.0375));
#1128=CARTESIAN_POINT('',(-0.000229928642511375,-0.0127554728835821,0.0375));
#1129=CARTESIAN_POINT('',(0.0167700713574886,-0.0127554728835821,0.0375));
#1130=CARTESIAN_POINT('',(0.0167700713574886,-0.0127554728835821,0.0375));
#1131=CARTESIAN_POINT('',(-0.0306952558457852,-0.0127554728835821,0.0375));
#1132=CARTESIAN_POINT('',(-0.0306952558457852,-0.0127554728835821,0.0375));
#1133=CARTESIAN_POINT('',(-0.000229928642511375,-0.0127554728835821,0.0375));
#1134=CARTESIAN_POINT('',(0.0347700713574886,0.00224452711641789,0.0025));
#1135=CARTESIAN_POINT('',(0.0347700713574886,-0.0127554728835821,0.001));
#1136=CARTESIAN_POINT('',(0.0347700713574886,-0.00275547288357708,0.001));
#1137=CARTESIAN_POINT('',(0.0347700713574886,0.00724452711642796,0.001));
#1138=CARTESIAN_POINT('',(0.0347700713574886,0.017244527116433,0.001));
#1139=CARTESIAN_POINT('',(0.0347700713574886,0.00224452711641789,0.0375));
#1140=CARTESIAN_POINT('',(-0.000229928642511368,0.00224452711641789,0.));
#1141=CARTESIAN_POINT('',(-0.0342299286425114,0.0162445271164179,0.));
#1142=CARTESIAN_POINT('',(-0.0115632619758447,0.0162445271164179,0.));
#1143=CARTESIAN_POINT('',(0.011103404690822,0.0162445271164179,0.));
#1144=CARTESIAN_POINT('',(0.0337700713574886,0.0162445271164179,0.));
#1145=CARTESIAN_POINT('',(-0.0342299286425114,0.0162445271164178,0.));
#1146=CARTESIAN_POINT('',(0.0337700713574887,0.0162445271164179,0.));
#1147=CARTESIAN_POINT('',(0.0337700713574886,0.0162445271164489,0.));
#1148=CARTESIAN_POINT('',(0.0337700713574886,0.00691119378310621,0.));
#1149=CARTESIAN_POINT('',(0.0337700713574886,-0.00242213955023645,0.));
#1150=CARTESIAN_POINT('',(0.0337700713574886,-0.0117554728835791,0.));
#1151=CARTESIAN_POINT('',(0.0337700713574888,-0.0117554728835821,0.));
#1152=CARTESIAN_POINT('',(0.0337700713574886,-0.0117554728835821,0.));
#1153=CARTESIAN_POINT('',(0.011103404690822,-0.0117554728835821,0.));
#1154=CARTESIAN_POINT('',(-0.0115632619758447,-0.0117554728835821,0.));
#1155=CARTESIAN_POINT('',(-0.0342299286425114,-0.0117554728835821,0.));
#1156=CARTESIAN_POINT('',(-0.0342299286425114,-0.0117554728835821,0.));
#1157=CARTESIAN_POINT('',(-0.0342299286425114,-0.0117554728835821,0.));
#1158=CARTESIAN_POINT('',(-0.0342299286425114,-0.00242213955024878,0.));
#1159=CARTESIAN_POINT('',(-0.0342299286425114,0.00691119378308456,0.));
#1160=CARTESIAN_POINT('',(-0.0342299286425114,0.0162445271164179,0.));
#1161=CARTESIAN_POINT('',(-0.0306952558457852,0.00224452711641789,0.0375));
#1162=CARTESIAN_POINT('',(-0.0306952558457852,0.00666788360103965,0.0125));
#1163=CARTESIAN_POINT('',(-0.0306952558457852,0.00666788360103965,0.0125));
#1164=CARTESIAN_POINT('',(-0.0306952558457852,0.00224452711641789,0.0125));
#1165=CARTESIAN_POINT('',(-0.0306952558457852,0.00224452711641789,0.0375));
#1166=CARTESIAN_POINT('',(-0.000229928642511375,0.00224452711641789,0.0375));
#1167=CARTESIAN_POINT('',(0.0167700713574886,0.00224452711641789,0.0375));
#1168=CARTESIAN_POINT('',(0.0167700713574886,0.00224452711641789,0.0125));
#1169=CARTESIAN_POINT('',(0.0167700713574886,0.00666788360103965,0.0125));
#1170=CARTESIAN_POINT('',(0.0167700713574886,0.00666788360103965,0.0125));
#1171=CARTESIAN_POINT('',(0.0167700713574886,0.00224452711641789,0.0375));
#1172=CARTESIAN_POINT('',(-0.000229928642511375,0.00224452711641789,0.0375));
#1173=CARTESIAN_POINT('',(0.0256368629634381,0.0132445271164179,0.0172445271164179));
#1174=CARTESIAN_POINT('',(0.0187390521168709,0.0132445271164179,0.0172445271164179));
#1175=CARTESIAN_POINT('',(0.0187390521168709,0.0132445271164179,0.0172445271164179));
#1176=CARTESIAN_POINT('',(0.0256368629634381,0.0132445271164179,0.0172445271164179));
#1177=CARTESIAN_POINT('',(0.0325346738100052,0.0132445271164179,0.0172445271164179));
#1178=CARTESIAN_POINT('',(0.0325346738100052,0.0132445271164179,0.0172445271164179));
#1179=CARTESIAN_POINT('',(0.0187390521168709,0.0132445271164179,0.0228777388110757));
#1180=CARTESIAN_POINT('',(0.0187390521168709,0.0132445271164179,0.0285109505057335));
#1181=CARTESIAN_POINT('',(0.0187390521168709,0.0132445271164179,0.0285109505057335));
#1182=CARTESIAN_POINT('',(0.0187390521168709,0.0132445271164179,0.0228777388110757));
#1183=CARTESIAN_POINT('',(0.0256368629634381,0.0132445271164179,0.0285109505057335));
#1184=CARTESIAN_POINT('',(0.0325346738100052,0.0132445271164179,0.0285109505057335));
#1185=CARTESIAN_POINT('',(0.0325346738100052,0.0132445271164179,0.0285109505057335));
#1186=CARTESIAN_POINT('',(0.0256368629634381,0.0132445271164179,0.0285109505057335));
#1187=CARTESIAN_POINT('',(0.0325346738100052,0.0132445271164179,0.0228777388110757));
#1188=CARTESIAN_POINT('',(0.0325346738100052,0.0132445271164179,0.0228777388110757));
#1189=CARTESIAN_POINT('',(-0.000229928642511375,0.0132445271164179,0.01875));
#1190=CARTESIAN_POINT('',(0.0256053768098354,0.0132445271164179,0.0277586113661527));
#1191=CARTESIAN_POINT('',(0.0317428819835186,0.0132445271164179,0.0277586113661527));
#1192=CARTESIAN_POINT('',(0.0194678716361523,0.0132445271164179,0.0277586113661527));
#1193=CARTESIAN_POINT('',(0.0194678716361523,0.0132445271164179,0.0229624146595598));
#1194=CARTESIAN_POINT('',(0.0194678716361523,0.0132445271164179,0.0181662179529667));
#1195=CARTESIAN_POINT('',(0.0256053768098354,0.0132445271164179,0.0181662179529667));
#1196=CARTESIAN_POINT('',(0.0317428819835186,0.0132445271164179,0.0181662179529667));
#1197=CARTESIAN_POINT('',(0.0317428819835186,0.0132445271164179,0.0229624146595598));
#1198=CARTESIAN_POINT('',(0.0256368629634381,0.0132445271164179,0.0025));
#1199=CARTESIAN_POINT('',(0.0187390521168709,0.0132445271164179,0.0025));
#1200=CARTESIAN_POINT('',(0.0187390521168709,0.0132445271164179,0.0025));
#1201=CARTESIAN_POINT('',(0.0256368629634381,0.0132445271164179,0.0025));
#1202=CARTESIAN_POINT('',(0.0325346738100052,0.0132445271164179,0.0025));
#1203=CARTESIAN_POINT('',(0.0325346738100052,0.0132445271164179,0.0025));
#1204=CARTESIAN_POINT('',(0.0187390521168709,0.0132445271164179,0.00826277423650026));
#1205=CARTESIAN_POINT('',(0.0187390521168709,0.0132445271164179,0.0140255484730005));
#1206=CARTESIAN_POINT('',(0.0187390521168709,0.0132445271164179,0.0140255484730005));
#1207=CARTESIAN_POINT('',(0.0187390521168709,0.0132445271164179,0.00826277423650026));
#1208=CARTESIAN_POINT('',(0.0256368629634381,0.0132445271164179,0.0140255484730005));
#1209=CARTESIAN_POINT('',(0.0325346738100052,0.0132445271164179,0.0140255484730005));
#1210=CARTESIAN_POINT('',(0.0325346738100052,0.0132445271164179,0.0140255484730005));
#1211=CARTESIAN_POINT('',(0.0256368629634381,0.0132445271164179,0.0140255484730005));
#1212=CARTESIAN_POINT('',(0.0325346738100052,0.0132445271164179,0.00826277423650026));
#1213=CARTESIAN_POINT('',(0.0325346738100052,0.0132445271164179,0.00826277423650026));
#1214=CARTESIAN_POINT('',(-0.000229928642511375,0.0132445271164179,0.01875));
#1215=CARTESIAN_POINT('',(0.0256460225209594,0.0132445271164179,0.0132074374705553));
#1216=CARTESIAN_POINT('',(0.0317428819835186,0.0132445271164179,0.0132074374705553));
#1217=CARTESIAN_POINT('',(0.0195491630584001,0.0132445271164179,0.0132074374705553));
#1218=CARTESIAN_POINT('',(0.0195491630584001,0.0132445271164179,0.0083299488760531));
#1219=CARTESIAN_POINT('',(0.0195491630584001,0.0132445271164179,0.00345246028155088));
#1220=CARTESIAN_POINT('',(0.0256460225209594,0.0132445271164179,0.00345246028155088));
#1221=CARTESIAN_POINT('',(0.0317428819835186,0.0132445271164179,0.00345246028155088));
#1222=CARTESIAN_POINT('',(0.0317428819835186,0.0132445271164179,0.0083299488760531));
#1223=CARTESIAN_POINT('',(0.0256460225209594,0.0172445271164179,0.0132074374705553));
#1224=CARTESIAN_POINT('',(0.0317428819835186,0.0172445271164179,0.0132074374705553));
#1225=CARTESIAN_POINT('',(0.0317428819835186,0.0172445271164179,0.0132074374705553));
#1226=CARTESIAN_POINT('',(0.0256460225209594,0.0172445271164179,0.0132074374705553));
#1227=CARTESIAN_POINT('',(0.0195491630584001,0.0172445271164179,0.0132074374705553));
#1228=CARTESIAN_POINT('',(0.0195491630584001,0.0172445271164179,0.0132074374705553));
#1229=CARTESIAN_POINT('',(0.0317428819835186,0.0172445271164179,0.0083299488760531));
#1230=CARTESIAN_POINT('',(0.0317428819835186,0.0172445271164179,0.00345246028155088));
#1231=CARTESIAN_POINT('',(0.0317428819835186,0.0172445271164179,0.00345246028155088));
#1232=CARTESIAN_POINT('',(0.0317428819835186,0.0172445271164179,0.0083299488760531));
#1233=CARTESIAN_POINT('',(0.0256460225209594,0.0172445271164179,0.00345246028155088));
#1234=CARTESIAN_POINT('',(0.0195491630584001,0.0172445271164179,0.00345246028155088));
#1235=CARTESIAN_POINT('',(0.0195491630584001,0.0172445271164179,0.00345246028155088));
#1236=CARTESIAN_POINT('',(0.0256460225209594,0.0172445271164179,0.00345246028155088));
#1237=CARTESIAN_POINT('',(0.0195491630584001,0.0172445271164179,0.0083299488760531));
#1238=CARTESIAN_POINT('',(0.0195491630584001,0.0172445271164179,0.0083299488760531));
#1239=CARTESIAN_POINT('',(0.0256368629634381,0.0172445271164179,0.0159817053936422));
#1240=CARTESIAN_POINT('',(0.0256053768098354,0.0172445271164179,0.0277586113661527));
#1241=CARTESIAN_POINT('',(0.0317428819835186,0.0172445271164179,0.0277586113661527));
#1242=CARTESIAN_POINT('',(0.0317428819835186,0.0172445271164179,0.0277586113661527));
#1243=CARTESIAN_POINT('',(0.0256053768098354,0.0172445271164179,0.0277586113661527));
#1244=CARTESIAN_POINT('',(0.0194678716361523,0.0172445271164179,0.0277586113661527));
#1245=CARTESIAN_POINT('',(0.0194678716361523,0.0172445271164179,0.0277586113661527));
#1246=CARTESIAN_POINT('',(0.0317428819835186,0.0172445271164179,0.0229624146595598));
#1247=CARTESIAN_POINT('',(0.0317428819835186,0.0172445271164179,0.0181662179529667));
#1248=CARTESIAN_POINT('',(0.0317428819835186,0.0172445271164179,0.0181662179529667));
#1249=CARTESIAN_POINT('',(0.0317428819835186,0.0172445271164179,0.0229624146595598));
#1250=CARTESIAN_POINT('',(0.0256053768098354,0.0172445271164179,0.0181662179529667));
#1251=CARTESIAN_POINT('',(0.0194678716361523,0.0172445271164179,0.0181662179529667));
#1252=CARTESIAN_POINT('',(0.0194678716361523,0.0172445271164179,0.0181662179529667));
#1253=CARTESIAN_POINT('',(0.0256053768098354,0.0172445271164179,0.0181662179529667));
#1254=CARTESIAN_POINT('',(0.0194678716361523,0.0172445271164179,0.0229624146595598));
#1255=CARTESIAN_POINT('',(0.0194678716361523,0.0172445271164179,0.0229624146595598));
#1256=CARTESIAN_POINT('',(0.0256368629634381,0.0172445271164179,0.0159817053936422));
#1257=CARTESIAN_POINT('',(-0.00696259224414825,0.00666788360103965,0.0125));
#1258=CARTESIAN_POINT('',(-0.00696259224414825,0.00666788360103965,0.0125));
#1259=CARTESIAN_POINT('',(-0.00696259224414825,0.00224452711641789,0.0125));
#1260=CARTESIAN_POINT('',(-0.00689440313726664,0.0132445271164179,0.00415455537411538));
#1261=CARTESIAN_POINT('',(-0.0291106589138508,0.0132445271164179,0.00415455537411538));
#1262=CARTESIAN_POINT('',(-0.0291106589138508,0.0132445271164179,0.00415455537411538));
#1263=CARTESIAN_POINT('',(-0.00689440313726664,0.0132445271164179,0.00415455537411538));
#1264=CARTESIAN_POINT('',(0.0153218526393175,0.0132445271164179,0.00415455537411538));
#1265=CARTESIAN_POINT('',(0.0153218526393175,0.0132445271164179,0.00415455537411538));
#1266=CARTESIAN_POINT('',(-0.0291106589138508,0.0132445271164179,0.00748070321115634));
#1267=CARTESIAN_POINT('',(-0.0291106589138508,0.0132445271164179,0.0108068510481973));
#1268=CARTESIAN_POINT('',(-0.0291106589138508,0.0132445271164179,0.0108068510481973));
#1269=CARTESIAN_POINT('',(-0.0291106589138508,0.0132445271164179,0.00748070321115634));
#1270=CARTESIAN_POINT('',(-0.00689440313726664,0.0132445271164179,0.0108068510481973));
#1271=CARTESIAN_POINT('',(0.0153218526393175,0.0132445271164179,0.0108068510481973));
#1272=CARTESIAN_POINT('',(0.0153218526393175,0.0132445271164179,0.0108068510481973));
#1273=CARTESIAN_POINT('',(-0.00689440313726664,0.0132445271164179,0.0108068510481973));
#1274=CARTESIAN_POINT('',(0.0153218526393175,0.0132445271164179,0.00748070321115634));
#1275=CARTESIAN_POINT('',(0.0153218526393175,0.0132445271164179,0.00748070321115634));
#1276=CARTESIAN_POINT('',(-0.00696259224414825,0.0132445271164179,0.0075));
#1277=CARTESIAN_POINT('',(-0.00692858127877116,0.0132445271164179,0.00471652997657657));
#1278=CARTESIAN_POINT('',(-0.0285637974739074,0.0132445271164179,0.00471652997657657));
#1279=CARTESIAN_POINT('',(0.0147066349163651,0.0132445271164179,0.00471652997657657));
#1280=CARTESIAN_POINT('',(0.0147066349163651,0.0132445271164179,0.00727994390763342));
#1281=CARTESIAN_POINT('',(0.0147066349163651,0.0132445271164179,0.00984335783869028));
#1282=CARTESIAN_POINT('',(-0.00692858127877116,0.0132445271164179,0.00984335783869028));
#1283=CARTESIAN_POINT('',(-0.0285637974739074,0.0132445271164179,0.00984335783869028));
#1284=CARTESIAN_POINT('',(-0.0285637974739074,0.0132445271164179,0.00727994390763342));
#1285=CARTESIAN_POINT('',(-0.00692858127877116,0.0172445271164179,0.00471652997657657));
#1286=CARTESIAN_POINT('',(-0.0285637974739074,0.0172445271164179,0.00471652997657657));
#1287=CARTESIAN_POINT('',(-0.0285637974739074,0.0172445271164179,0.00471652997657657));
#1288=CARTESIAN_POINT('',(-0.00692858127877116,0.0172445271164179,0.00471652997657657));
#1289=CARTESIAN_POINT('',(0.0147066349163651,0.0172445271164179,0.00471652997657657));
#1290=CARTESIAN_POINT('',(0.0147066349163651,0.0172445271164179,0.00471652997657657));
#1291=CARTESIAN_POINT('',(-0.0285637974739074,0.0172445271164179,0.00727994390763342));
#1292=CARTESIAN_POINT('',(-0.0285637974739074,0.0172445271164179,0.00984335783869028));
#1293=CARTESIAN_POINT('',(-0.0285637974739074,0.0172445271164179,0.00984335783869028));
#1294=CARTESIAN_POINT('',(-0.0285637974739074,0.0172445271164179,0.00727994390763342));
#1295=CARTESIAN_POINT('',(-0.00692858127877116,0.0172445271164179,0.00984335783869028));
#1296=CARTESIAN_POINT('',(0.0147066349163651,0.0172445271164179,0.00984335783869028));
#1297=CARTESIAN_POINT('',(0.0147066349163651,0.0172445271164179,0.00984335783869028));
#1298=CARTESIAN_POINT('',(-0.00692858127877116,0.0172445271164179,0.00984335783869028));
#1299=CARTESIAN_POINT('',(0.0147066349163651,0.0172445271164179,0.00727994390763342));
#1300=CARTESIAN_POINT('',(0.0147066349163651,0.0172445271164179,0.00727994390763342));
#1301=CARTESIAN_POINT('',(-0.00689440313726664,0.0172445271164179,0.00748070321115634));
#1302=CARTESIAN_POINT('',(-0.0352299286425116,0.0174245271164179,0.001));
#1303=CARTESIAN_POINT('',(-0.0352299286425116,-0.0129354728835821,0.001));
#1304=CARTESIAN_POINT('',(-0.0352299286425116,0.0174245271164179,0.00085));
#1305=CARTESIAN_POINT('',(-0.0352299286425116,-0.0129354728835821,0.00085));
#1306=CARTESIAN_POINT('',(-0.0352299286425116,0.0174245271164179,0.0007));
#1307=CARTESIAN_POINT('',(-0.0352299286425116,-0.0129354728835821,0.0007));
#1308=CARTESIAN_POINT('',(-0.0351299286425115,0.0174245271164179,0.00033333333333333));
#1309=CARTESIAN_POINT('',(-0.0351299286425115,-0.0129354728835821,0.00033333333333333));
#1310=CARTESIAN_POINT('',(-0.0348965953091781,0.0174245271164179,9.99999999999943E-5));
#1311=CARTESIAN_POINT('',(-0.0348965953091781,-0.0129354728835821,9.99999999999943E-5));
#1312=CARTESIAN_POINT('',(-0.0345299286425114,0.0174245271164179,-1.84297022088191E-18));
#1313=CARTESIAN_POINT('',(-0.0345299286425114,-0.0129354728835821,-1.84297022088191E-18));
#1314=CARTESIAN_POINT('',(-0.0343799286425115,0.0174245271164179,-4.17749288570534E-30));
#1315=CARTESIAN_POINT('',(-0.0343799286425115,-0.0129354728835821,-4.17749288570534E-30));
#1316=CARTESIAN_POINT('',(-0.0342299286425114,0.0174245271164179,1.53979899725673E-43));
#1317=CARTESIAN_POINT('',(-0.0342299286425114,-0.0129354728835821,1.53979899725673E-43));
#1318=CARTESIAN_POINT('',(-0.0342299286425114,-0.0117554728835821,0.));
#1319=CARTESIAN_POINT('',(-0.03433606946818,-0.0118616137092493,-2.95601696075441E-30));
#1320=CARTESIAN_POINT('',(-0.0344957447437567,-0.0120225102243026,-3.12159063757586E-6));
#1321=CARTESIAN_POINT('',(-0.0347563269470595,-0.0122802428688304,8.99145488684166E-5));
#1322=CARTESIAN_POINT('',(-0.0348560108600529,-0.012380981298449,0.000149762987233454));
#1323=CARTESIAN_POINT('',(-0.0348992681543943,-0.01242498004671,0.000178047076511729));
#1324=CARTESIAN_POINT('',(-0.0349922460363353,-0.0125176934751005,0.000257758568341592));
#1325=CARTESIAN_POINT('',(-0.0350789899791907,-0.0126045341798869,0.000364219251425346));
#1326=CARTESIAN_POINT('',(-0.0351993442171284,-0.0127248884884798,0.000582892200124737));
#1327=CARTESIAN_POINT('',(-0.0352299286425116,-0.0127554728835821,0.000814883499912357));
#1328=CARTESIAN_POINT('',(-0.0352299286425116,-0.0127554728835821,0.001));
#1329=CARTESIAN_POINT('',(-0.0352299286425116,0.0172445271164179,0.001));
#1330=CARTESIAN_POINT('',(-0.0352299286425116,0.0172445271164179,0.000814935041608202));
#1331=CARTESIAN_POINT('',(-0.0351993132193614,0.0172139058040022,0.000582827920258453));
#1332=CARTESIAN_POINT('',(-0.0350790313095467,0.0170936376358073,0.000364289924919089));
#1333=CARTESIAN_POINT('',(-0.0349922925843587,0.0170067879864419,0.000257800710445032));
#1334=CARTESIAN_POINT('',(-0.0348992491833113,0.0169140158069391,0.000178031285148398));
#1335=CARTESIAN_POINT('',(-0.0348560401963615,0.0168700691432061,0.000149784010583319));
#1336=CARTESIAN_POINT('',(-0.0347563647407061,0.0167693366739581,8.99298116320185E-5));
#1337=CARTESIAN_POINT('',(-0.0344957152884605,0.0165115336678577,-3.13303771026542E-6));
#1338=CARTESIAN_POINT('',(-0.034336074542746,0.0163506730166532,-2.95615828717779E-30));
#1339=CARTESIAN_POINT('',(-0.0342299286425114,0.0162445271164179,0.));
#1340=CARTESIAN_POINT('',(0.0351900713574886,0.0172445271164178,0.001));
#1341=CARTESIAN_POINT('',(-0.0356499286425116,0.0172445271164178,0.001));
#1342=CARTESIAN_POINT('',(0.0351900713574886,0.0172445271164178,0.000849999999999998));
#1343=CARTESIAN_POINT('',(-0.0356499286425116,0.0172445271164178,0.000849999999999998));
#1344=CARTESIAN_POINT('',(0.0351900713574886,0.0172445271164178,0.000699999999999997));
#1345=CARTESIAN_POINT('',(-0.0356499286425116,0.0172445271164178,0.000699999999999997));
#1346=CARTESIAN_POINT('',(0.0351900713574886,0.0171445271164178,0.000333333333333362));
#1347=CARTESIAN_POINT('',(-0.0356499286425116,0.0171445271164178,0.000333333333333362));
#1348=CARTESIAN_POINT('',(0.0351900713574886,0.0169111937830845,0.000100000000000019));
#1349=CARTESIAN_POINT('',(-0.0356499286425116,0.0169111937830845,0.000100000000000019));
#1350=CARTESIAN_POINT('',(0.0351900713574886,0.0165445271164179,8.32667268468861E-18));
#1351=CARTESIAN_POINT('',(-0.0356499286425116,0.0165445271164179,8.32667268468861E-18));
#1352=CARTESIAN_POINT('',(0.0351900713574886,0.0163945271164179,0.));
#1353=CARTESIAN_POINT('',(-0.0356499286425116,0.0163945271164179,0.));
#1354=CARTESIAN_POINT('',(0.0351900713574886,0.0162445271164178,0.));
#1355=CARTESIAN_POINT('',(-0.0356499286425116,0.0162445271164178,0.));
#1356=CARTESIAN_POINT('',(0.0347700713574886,0.0172445271164178,0.00100000000000001));
#1357=CARTESIAN_POINT('',(0.0347700713574886,0.0172445271164178,0.000814935041638867));
#1358=CARTESIAN_POINT('',(0.034739450045054,0.0172139116932535,0.000582827920231642));
#1359=CARTESIAN_POINT('',(0.0346191818769064,0.0170936297834751,0.000364289924953967));
#1360=CARTESIAN_POINT('',(0.0345323322275316,0.0170068910582846,0.000257800710464907));
#1361=CARTESIAN_POINT('',(0.0344395600480201,0.0169138476572281,0.000178031285151304));
#1362=CARTESIAN_POINT('',(0.0343956133842427,0.0168706386702329,0.000149784010571865));
#1363=CARTESIAN_POINT('',(0.0342948809151109,0.0167709632146808,8.99298116193815E-5));
#1364=CARTESIAN_POINT('',(0.0340370779077381,0.0165103137612616,-3.13303769729907E-6));
#1365=CARTESIAN_POINT('',(0.0338762172629485,0.0163506730215363,1.41298074389289E-25));
#1366=CARTESIAN_POINT('',(0.0337700713574886,0.0162445271164371,8.58567626756379E-36));
#1367=CARTESIAN_POINT('',(-0.0356499286425116,-0.012755472883582,0.001));
#1368=CARTESIAN_POINT('',(0.0351900713574887,-0.012755472883582,0.001));
#1369=CARTESIAN_POINT('',(-0.0356499286425116,-0.012755472883582,0.000849999999999998));
#1370=CARTESIAN_POINT('',(0.0351900713574887,-0.012755472883582,0.000849999999999998));
#1371=CARTESIAN_POINT('',(-0.0356499286425116,-0.012755472883582,0.000699999999999997));
#1372=CARTESIAN_POINT('',(0.0351900713574887,-0.012755472883582,0.000699999999999997));
#1373=CARTESIAN_POINT('',(-0.0356499286425116,-0.012655472883582,0.000333333333332952));
#1374=CARTESIAN_POINT('',(0.0351900713574887,-0.012655472883582,0.000333333333332952));
#1375=CARTESIAN_POINT('',(-0.0356499286425116,-0.0124221395502485,9.99999999997576E-5));
#1376=CARTESIAN_POINT('',(0.0351900713574887,-0.0124221395502485,9.99999999997576E-5));
#1377=CARTESIAN_POINT('',(-0.0356499286425116,-0.0120554728835817,-1.03085595615225E-16));
#1378=CARTESIAN_POINT('',(0.0351900713574887,-0.0120554728835817,-1.03085595615225E-16));
#1379=CARTESIAN_POINT('',(-0.0356499286425116,-0.0119054728835818,2.60208521395981E-19));
#1380=CARTESIAN_POINT('',(0.0351900713574887,-0.0119054728835818,2.60208521395981E-19));
#1381=CARTESIAN_POINT('',(-0.0356499286425116,-0.0117554728835818,-5.39183347230648E-31));
#1382=CARTESIAN_POINT('',(0.0351900713574887,-0.0117554728835818,-5.39183347230648E-31));
#1383=CARTESIAN_POINT('',(0.0337700713574887,-0.0117554728835805,-2.69591674060175E-30));
#1384=CARTESIAN_POINT('',(0.0338762346240843,-0.0118616361502037,1.84163911806542E-19));
#1385=CARTESIAN_POINT('',(0.0340342570718581,-0.0120184316919721,-3.49784467017156E-6));
#1386=CARTESIAN_POINT('',(0.0342929184294095,-0.0122799558301347,8.90248283322876E-5));
#1387=CARTESIAN_POINT('',(0.034393519463984,-0.0123794969023626,0.000148462418066884));
#1388=CARTESIAN_POINT('',(0.0344371734637422,-0.012422404785616,0.000176284860414585));
#1389=CARTESIAN_POINT('',(0.0345301612647319,-0.012515667695419,0.000255560601971375));
#1390=CARTESIAN_POINT('',(0.0346172412365032,-0.0126026449805004,0.0003614453596429));
#1391=CARTESIAN_POINT('',(0.0347381384673013,-0.0127235383299669,0.000578282411711254));
#1392=CARTESIAN_POINT('',(0.0347700713574886,-0.012755472883582,0.000813652052973133));
#1393=CARTESIAN_POINT('',(0.0347700713574886,-0.012755472883582,0.00100000000000001));
#1394=CARTESIAN_POINT('',(0.0347700713574886,-0.0129354728835822,0.001));
#1395=CARTESIAN_POINT('',(0.0347700713574886,0.0174245271164331,0.001));
#1396=CARTESIAN_POINT('',(0.0347700713574886,-0.0129354728835822,0.000850000000000003));
#1397=CARTESIAN_POINT('',(0.0347700713574886,0.0174245271164331,0.000850000000000003));
#1398=CARTESIAN_POINT('',(0.0347700713574886,-0.0129354728835822,0.000700000000000004));
#1399=CARTESIAN_POINT('',(0.0347700713574886,0.0174245271164331,0.000700000000000004));
#1400=CARTESIAN_POINT('',(0.0346700713574886,-0.0129354728835822,0.000333333333333328));
#1401=CARTESIAN_POINT('',(0.0346700713574886,0.0174245271164331,0.000333333333333328));
#1402=CARTESIAN_POINT('',(0.0344367380241554,-0.0129354728835822,9.9999999999993E-5));
#1403=CARTESIAN_POINT('',(0.0344367380241554,0.0174245271164331,9.9999999999993E-5));
#1404=CARTESIAN_POINT('',(0.0340700713574887,-0.0129354728835822,-2.7755575615587E-18));
#1405=CARTESIAN_POINT('',(0.0340700713574887,0.0174245271164331,-2.7755575615587E-18));
#1406=CARTESIAN_POINT('',(0.0339200713574887,-0.0129354728835822,4.18099425320379E-30));
#1407=CARTESIAN_POINT('',(0.0339200713574887,0.0174245271164331,4.18099425320379E-30));
#1408=CARTESIAN_POINT('',(0.0337700713574887,-0.0129354728835822,-2.32091804286616E-43));
#1409=CARTESIAN_POINT('',(0.0337700713574887,0.0174245271164331,-2.32091804286616E-43));
#1410=MECHANICAL_DESIGN_GEOMETRIC_PRESENTATION_REPRESENTATION('',(#819),
#1411);
#1411=(
GEOMETRIC_REPRESENTATION_CONTEXT(3)
GLOBAL_UNCERTAINTY_ASSIGNED_CONTEXT((#1412))
GLOBAL_UNIT_ASSIGNED_CONTEXT((#1415,#1414,#1413))
REPRESENTATION_CONTEXT('Part 1','TOP_LEVEL_ASSEMBLY_PART')
);
#1412=UNCERTAINTY_MEASURE_WITH_UNIT(LENGTH_MEASURE(2.E-5),#1415,
'DISTANCE_ACCURACY_VALUE','Maximum Tolerance applied to model');
#1413=(
NAMED_UNIT(*)
SI_UNIT($,.STERADIAN.)
SOLID_ANGLE_UNIT()
);
#1414=(
NAMED_UNIT(*)
PLANE_ANGLE_UNIT()
SI_UNIT($,.RADIAN.)
);
#1415=(
LENGTH_UNIT()
NAMED_UNIT(*)
SI_UNIT($,.METRE.)
);
#1416=PRODUCT_DEFINITION_SHAPE('','',#1417);
#1417=PRODUCT_DEFINITION('','',#1419,#1418);
#1418=PRODUCT_DEFINITION_CONTEXT('',#1425,'design');
#1419=PRODUCT_DEFINITION_FORMATION_WITH_SPECIFIED_SOURCE('','',#1421,
 .NOT_KNOWN.);
#1420=PRODUCT_RELATED_PRODUCT_CATEGORY('','',(#1421));
#1421=PRODUCT('Part 1','Part 1','Part 1',(#1423));
#1422=PRODUCT_CATEGORY('','');
#1423=PRODUCT_CONTEXT('',#1425,'mechanical');
#1424=APPLICATION_PROTOCOL_DEFINITION('international standard',
'ap242_managed_model_based_3d_engineering',2020,#1425);
#1425=APPLICATION_CONTEXT('managed model based 3d engineering');
ENDSEC;
END-ISO-10303-21;
