ISO-10303-21;
HEADER;
/* Generated by software containing ST-Developer
 * from STEP Tools, Inc. (www.steptools.com) 
 */
/* OPTION: using custom renumber hook */

FILE_DESCRIPTION(
/* description */ ('STEP AP242 Edition 2',
'CAx-IF Rec.Pracs.---Representation and Presentation of Product Manufa
cturing Information (PMI)---4.0---2014-10-13',
'CAx-IF Rec.Pracs.---3D Tessellated Geometry---0.4---2014-09-14','2;1',
'CAx-IF Rec.Pracs.---User Defined Attributes---1.5---2016-08-15'),
/* implementation_level */ '2;1');

FILE_NAME(
/* name */ 'ottoman - Part 1',
/* time_stamp */ '2026-08-29T04:45:06Z',
/* author */ (''),
/* organization */ (''),
/* preprocessor_version */ 'ST-DEVELOPER v20',
/* originating_system */ 'ONSHAPE BY PTC INC, 1.220',
/* authorisation */ '  ');

FILE_SCHEMA (('AP242_MANAGED_MODEL_BASED_3D_ENGINEERING_MIM_LF { 1 0 10303 442 3 1 4 }'));
ENDSEC;

DATA;
#10=SHAPE_REPRESENTATION_RELATIONSHIP('','',#130,#11);
#11=ADVANCED_BREP_SHAPE_REPRESENTATION('',(#128),#217);
#12=CYLINDRICAL_SURFACE('',#136,0.0095);
#13=CYLINDRICAL_SURFACE('',#139,0.00661389909841138);
#14=CYLINDRICAL_SURFACE('',#142,0.00932608875686653);
#15=LINE('',#189,#23);
#16=LINE('',#194,#24);
#17=LINE('',#200,#25);
#18=LINE('',#204,#26);
#19=LINE('',#206,#27);
#20=LINE('',#208,#28);
#21=LINE('',#212,#29);
#22=LINE('',#214,#30);
#23=VECTOR('',#152,1.);
#24=VECTOR('',#157,1.);
#25=VECTOR('',#166,1.);
#26=VECTOR('',#169,1.);
#27=VECTOR('',#172,1.);
#28=VECTOR('',#173,1.);
#29=VECTOR('',#178,1.);
#30=VECTOR('',#181,1.);
#31=ORIENTED_EDGE('',*,*,#59,.F.);
#32=ORIENTED_EDGE('',*,*,#60,.T.);
#33=ORIENTED_EDGE('',*,*,#61,.F.);
#34=ORIENTED_EDGE('',*,*,#62,.T.);
#35=ORIENTED_EDGE('',*,*,#63,.F.);
#36=ORIENTED_EDGE('',*,*,#64,.F.);
#37=ORIENTED_EDGE('',*,*,#61,.T.);
#38=ORIENTED_EDGE('',*,*,#64,.T.);
#39=ORIENTED_EDGE('',*,*,#59,.T.);
#40=ORIENTED_EDGE('',*,*,#65,.F.);
#41=ORIENTED_EDGE('',*,*,#66,.F.);
#42=ORIENTED_EDGE('',*,*,#67,.T.);
#43=ORIENTED_EDGE('',*,*,#60,.F.);
#44=ORIENTED_EDGE('',*,*,#67,.F.);
#45=ORIENTED_EDGE('',*,*,#68,.T.);
#46=ORIENTED_EDGE('',*,*,#69,.T.);
#47=ORIENTED_EDGE('',*,*,#62,.F.);
#48=ORIENTED_EDGE('',*,*,#69,.F.);
#49=ORIENTED_EDGE('',*,*,#70,.T.);
#50=ORIENTED_EDGE('',*,*,#71,.T.);
#51=ORIENTED_EDGE('',*,*,#63,.T.);
#52=ORIENTED_EDGE('',*,*,#71,.F.);
#53=ORIENTED_EDGE('',*,*,#72,.F.);
#54=ORIENTED_EDGE('',*,*,#65,.T.);
#55=ORIENTED_EDGE('',*,*,#66,.T.);
#56=ORIENTED_EDGE('',*,*,#72,.T.);
#57=ORIENTED_EDGE('',*,*,#70,.F.);
#58=ORIENTED_EDGE('',*,*,#68,.F.);
#59=EDGE_CURVE('',#73,#74,#82,.T.);
#60=EDGE_CURVE('',#73,#75,#15,.T.);
#61=EDGE_CURVE('',#75,#75,#83,.T.);
#62=EDGE_CURVE('',#75,#76,#84,.T.);
#63=EDGE_CURVE('',#74,#76,#16,.T.);
#64=EDGE_CURVE('',#77,#77,#85,.T.);
#65=EDGE_CURVE('',#78,#74,#17,.T.);
#66=EDGE_CURVE('',#79,#78,#86,.T.);
#67=EDGE_CURVE('',#79,#73,#18,.T.);
#68=EDGE_CURVE('',#79,#80,#19,.T.);
#69=EDGE_CURVE('',#80,#75,#20,.T.);
#70=EDGE_CURVE('',#80,#81,#87,.T.);
#71=EDGE_CURVE('',#81,#76,#21,.T.);
#72=EDGE_CURVE('',#78,#81,#22,.T.);
#73=VERTEX_POINT('',#187);
#74=VERTEX_POINT('',#188);
#75=VERTEX_POINT('',#190);
#76=VERTEX_POINT('',#193);
#77=VERTEX_POINT('',#197);
#78=VERTEX_POINT('',#201);
#79=VERTEX_POINT('',#203);
#80=VERTEX_POINT('',#207);
#81=VERTEX_POINT('',#211);
#82=CIRCLE('',#133,0.00661389909841138);
#83=CIRCLE('',#134,0.0095);
#84=CIRCLE('',#135,0.00932608875686653);
#85=CIRCLE('',#137,0.0095);
#86=CIRCLE('',#140,0.00661389909841138);
#87=CIRCLE('',#143,0.00932608875686653);
#88=EDGE_LOOP('',(#31,#32,#33,#34,#35));
#89=EDGE_LOOP('',(#36));
#90=EDGE_LOOP('',(#37));
#91=EDGE_LOOP('',(#38));
#92=EDGE_LOOP('',(#39,#40,#41,#42));
#93=EDGE_LOOP('',(#43,#44,#45,#46));
#94=EDGE_LOOP('',(#47,#48,#49,#50));
#95=EDGE_LOOP('',(#51,#52,#53,#54));
#96=EDGE_LOOP('',(#55,#56,#57,#58));
#97=FACE_BOUND('',#88,.T.);
#98=FACE_BOUND('',#89,.T.);
#99=FACE_BOUND('',#90,.T.);
#100=FACE_BOUND('',#91,.T.);
#101=FACE_BOUND('',#92,.T.);
#102=FACE_BOUND('',#93,.T.);
#103=FACE_BOUND('',#94,.T.);
#104=FACE_BOUND('',#95,.T.);
#105=FACE_BOUND('',#96,.T.);
#106=PLANE('',#132);
#107=PLANE('',#138);
#108=PLANE('',#141);
#109=PLANE('',#144);
#110=PLANE('',#145);
#111=ADVANCED_FACE('',(#97),#106,.F.);
#112=ADVANCED_FACE('',(#98,#99),#12,.T.);
#113=ADVANCED_FACE('',(#100),#107,.T.);
#114=ADVANCED_FACE('',(#101),#13,.F.);
#115=ADVANCED_FACE('',(#102),#108,.T.);
#116=ADVANCED_FACE('',(#103),#14,.T.);
#117=ADVANCED_FACE('',(#104),#109,.F.);
#118=ADVANCED_FACE('',(#105),#110,.F.);
#119=CLOSED_SHELL('',(#111,#112,#113,#114,#115,#116,#117,#118));
#120=STYLED_ITEM('',(#121),#128);
#121=PRESENTATION_STYLE_ASSIGNMENT((#122));
#122=SURFACE_STYLE_USAGE(.BOTH.,#123);
#123=SURFACE_SIDE_STYLE('',(#124));
#124=SURFACE_STYLE_FILL_AREA(#125);
#125=FILL_AREA_STYLE('',(#126));
#126=FILL_AREA_STYLE_COLOUR('',#127);
#127=COLOUR_RGB('',0.917647058823529,0.643137254901961,0.568627450980392);
#128=MANIFOLD_SOLID_BREP('Part 1',#119);
#129=SHAPE_DEFINITION_REPRESENTATION(#222,#130);
#130=SHAPE_REPRESENTATION('Part 1',(#131),#217);
#131=AXIS2_PLACEMENT_3D('',#184,#146,#147);
#132=AXIS2_PLACEMENT_3D('',#185,#148,#149);
#133=AXIS2_PLACEMENT_3D('',#186,#150,#151);
#134=AXIS2_PLACEMENT_3D('',#191,#153,#154);
#135=AXIS2_PLACEMENT_3D('',#192,#155,#156);
#136=AXIS2_PLACEMENT_3D('',#195,#158,#159);
#137=AXIS2_PLACEMENT_3D('',#196,#160,#161);
#138=AXIS2_PLACEMENT_3D('',#198,#162,#163);
#139=AXIS2_PLACEMENT_3D('',#199,#164,#165);
#140=AXIS2_PLACEMENT_3D('',#202,#167,#168);
#141=AXIS2_PLACEMENT_3D('',#205,#170,#171);
#142=AXIS2_PLACEMENT_3D('',#209,#174,#175);
#143=AXIS2_PLACEMENT_3D('',#210,#176,#177);
#144=AXIS2_PLACEMENT_3D('',#213,#179,#180);
#145=AXIS2_PLACEMENT_3D('',#215,#182,#183);
#146=DIRECTION('',(0.,0.,1.));
#147=DIRECTION('',(1.,0.,0.));
#148=DIRECTION('',(0.,0.,1.));
#149=DIRECTION('',(1.,0.,0.));
#150=DIRECTION('',(0.,0.,1.));
#151=DIRECTION('',(1.,0.,0.));
#152=DIRECTION('',(-0.478452953590575,0.878113188148575,0.));
#153=DIRECTION('',(0.,0.,1.));
#154=DIRECTION('',(1.,0.,0.));
#155=DIRECTION('',(0.,0.,1.));
#156=DIRECTION('',(1.,0.,0.));
#157=DIRECTION('',(0.891102370095505,0.453802342446768,0.));
#158=DIRECTION('',(0.,0.,-1.));
#159=DIRECTION('',(-1.,0.,0.));
#160=DIRECTION('',(0.,0.,1.));
#161=DIRECTION('',(1.,0.,0.));
#162=DIRECTION('',(0.,0.,1.));
#163=DIRECTION('',(1.,0.,0.));
#164=DIRECTION('',(0.,0.,1.));
#165=DIRECTION('',(1.,0.,0.));
#166=DIRECTION('',(0.,0.,1.));
#167=DIRECTION('',(0.,0.,1.));
#168=DIRECTION('',(1.,0.,0.));
#169=DIRECTION('',(0.,0.,1.));
#170=DIRECTION('',(0.878113188148575,0.478452953590575,0.));
#171=DIRECTION('',(-0.478452953590575,0.878113188148575,0.));
#172=DIRECTION('',(-0.478452953590575,0.878113188148575,0.));
#173=DIRECTION('',(0.,0.,1.));
#174=DIRECTION('',(0.,0.,1.));
#175=DIRECTION('',(1.,0.,0.));
#176=DIRECTION('',(0.,0.,1.));
#177=DIRECTION('',(1.,0.,0.));
#178=DIRECTION('',(0.,0.,1.));
#179=DIRECTION('',(0.453802342446768,-0.891102370095505,0.));
#180=DIRECTION('',(0.891102370095505,0.453802342446768,0.));
#181=DIRECTION('',(0.891102370095505,0.453802342446768,0.));
#182=DIRECTION('',(0.,0.,1.));
#183=DIRECTION('',(1.,0.,0.));
#184=CARTESIAN_POINT('',(0.,0.,0.));
#185=CARTESIAN_POINT('',(-0.0355117060244083,-0.0220899494257688,0.));
#186=CARTESIAN_POINT('',(-0.0359587561963145,-0.0222280125095361,0.));
#187=CARTESIAN_POINT('',(-0.0420835642669154,-0.0197319381151582,0.));
#188=CARTESIAN_POINT('',(-0.0298339481257135,-0.024724086903914,0.));
#189=CARTESIAN_POINT('',(-0.0428175512947389,-0.018384838710243,0.));
#190=CARTESIAN_POINT('',(-0.043554029115184,-0.0170331679094704,0.));
#191=CARTESIAN_POINT('',(-0.0355117060244083,-0.0220899494257688,0.));
#192=CARTESIAN_POINT('',(-0.0356029881242478,-0.0219159030219144,0.));
#193=CARTESIAN_POINT('',(-0.0263334557652201,-0.0229414279342844,0.));
#194=CARTESIAN_POINT('',(-0.0280837019454668,-0.0238327574190992,0.));
#195=CARTESIAN_POINT('',(-0.0355117060244083,-0.0220899494257688,0.013));
#196=CARTESIAN_POINT('',(-0.0355117060244083,-0.0220899494257688,0.013));
#197=CARTESIAN_POINT('',(-0.0260117060244083,-0.0220899494257688,0.013));
#198=CARTESIAN_POINT('',(-0.0355117060244083,-0.0220899494257688,0.013));
#199=CARTESIAN_POINT('',(-0.0359587561963145,-0.0222280125095361,-0.004));
#200=CARTESIAN_POINT('',(-0.0298339481257135,-0.024724086903914,-0.004));
#201=CARTESIAN_POINT('',(-0.0298339481257135,-0.024724086903914,-0.004));
#202=CARTESIAN_POINT('',(-0.0359587561963145,-0.0222280125095361,-0.004));
#203=CARTESIAN_POINT('',(-0.0420835642669154,-0.0197319381151582,-0.004));
#204=CARTESIAN_POINT('',(-0.0420835642669154,-0.0197319381151582,-0.004));
#205=CARTESIAN_POINT('',(-0.0428175512947389,-0.018384838710243,-0.004));
#206=CARTESIAN_POINT('',(-0.0428175512947389,-0.018384838710243,-0.004));
#207=CARTESIAN_POINT('',(-0.0435515383225624,-0.0170377393053277,-0.004));
#208=CARTESIAN_POINT('',(-0.0435515383225624,-0.0170377393053277,-0.004));
#209=CARTESIAN_POINT('',(-0.0356029881242478,-0.0219159030219144,-0.004));
#210=CARTESIAN_POINT('',(-0.0356029881242478,-0.0219159030219144,-0.004));
#211=CARTESIAN_POINT('',(-0.0263334557652201,-0.0229414279342844,-0.004));
#212=CARTESIAN_POINT('',(-0.0263334557652201,-0.0229414279342844,-0.004));
#213=CARTESIAN_POINT('',(-0.0280837019454668,-0.0238327574190992,-0.004));
#214=CARTESIAN_POINT('',(-0.0280837019454668,-0.0238327574190992,-0.004));
#215=CARTESIAN_POINT('',(-0.0356312663231672,-0.0241398655420543,-0.004));
#216=MECHANICAL_DESIGN_GEOMETRIC_PRESENTATION_REPRESENTATION('',(#120),
#217);
#217=(
GEOMETRIC_REPRESENTATION_CONTEXT(3)
GLOBAL_UNCERTAINTY_ASSIGNED_CONTEXT((#218))
GLOBAL_UNIT_ASSIGNED_CONTEXT((#221,#220,#219))
REPRESENTATION_CONTEXT('Part 1','TOP_LEVEL_ASSEMBLY_PART')
);
#218=UNCERTAINTY_MEASURE_WITH_UNIT(LENGTH_MEASURE(2.E-5),#221,
'DISTANCE_ACCURACY_VALUE','Maximum Tolerance applied to model');
#219=(
NAMED_UNIT(*)
SI_UNIT($,.STERADIAN.)
SOLID_ANGLE_UNIT()
);
#220=(
NAMED_UNIT(*)
PLANE_ANGLE_UNIT()
SI_UNIT($,.RADIAN.)
);
#221=(
LENGTH_UNIT()
NAMED_UNIT(*)
SI_UNIT($,.METRE.)
);
#222=PRODUCT_DEFINITION_SHAPE('','',#223);
#223=PRODUCT_DEFINITION('','',#225,#224);
#224=PRODUCT_DEFINITION_CONTEXT('',#231,'design');
#225=PRODUCT_DEFINITION_FORMATION_WITH_SPECIFIED_SOURCE('','',#227,
 .NOT_KNOWN.);
#226=PRODUCT_RELATED_PRODUCT_CATEGORY('','',(#227));
#227=PRODUCT('Part 1','Part 1','Part 1',(#229));
#228=PRODUCT_CATEGORY('','');
#229=PRODUCT_CONTEXT('',#231,'mechanical');
#230=APPLICATION_PROTOCOL_DEFINITION('international standard',
'ap242_managed_model_based_3d_engineering',2020,#231);
#231=APPLICATION_CONTEXT('managed model based 3d engineering');
ENDSEC;
END-ISO-10303-21;
