ISO-10303-21;
HEADER;
/* Generated by software containing ST-Developer
 * from STEP Tools, Inc. (www.steptools.com) 
 */
/* OPTION: using custom renumber hook */

FILE_DESCRIPTION(
/* description */ ('STEP AP242 Edition 2',
'CAx-IF Rec.Pracs.---Representation and Presentation of Product Manufa
cturing Information (PMI)---4.0---2014-10-13',
'CAx-IF Rec.Pracs.---3D Tessellated Geometry---0.4---2014-09-14','2;1',
'CAx-IF Rec.Pracs.---User Defined Attributes---1.5---2016-08-15'),
/* implementation_level */ '2;1');

FILE_NAME(
/* name */ 'side Table - Part 1',
/* time_stamp */ '2026-08-29T04:44:24Z',
/* author */ (''),
/* organization */ (''),
/* preprocessor_version */ 'ST-DEVELOPER v20',
/* originating_system */ 'ONSHAPE BY PTC INC, 1.220',
/* authorisation */ '  ');

FILE_SCHEMA (('AP242_MANAGED_MODEL_BASED_3D_ENGINEERING_MIM_LF { 1 0 10303 442 3 1 4 }'));
ENDSEC;

DATA;
#10=SHAPE_REPRESENTATION_RELATIONSHIP('','',#421,#11);
#11=ADVANCED_BREP_SHAPE_REPRESENTATION('',(#419),#767);
#12=B_SPLINE_SURFACE_WITH_KNOTS('',5,1,((#658,#659),(#660,#661),(#662,#663),
(#664,#665),(#666,#667),(#668,#669),(#670,#671),(#672,#673)),
 .SURF_OF_LINEAR_EXTRUSION.,.F.,.F.,.F.,(6,2,6),(2,2),(0.,0.5,1.),(0.,1.),
 .UNSPECIFIED.);
#13=B_SPLINE_SURFACE_WITH_KNOTS('',5,1,((#696,#697),(#698,#699),(#700,#701),
(#702,#703),(#704,#705),(#706,#707),(#708,#709),(#710,#711)),
 .SURF_OF_LINEAR_EXTRUSION.,.F.,.F.,.F.,(6,2,6),(2,2),(0.,0.5,1.),(0.,1.),
 .UNSPECIFIED.);
#14=B_SPLINE_SURFACE_WITH_KNOTS('',5,1,((#723,#724),(#725,#726),(#727,#728),
(#729,#730),(#731,#732),(#733,#734),(#735,#736),(#737,#738)),
 .SURF_OF_LINEAR_EXTRUSION.,.F.,.F.,.F.,(6,2,6),(2,2),(0.,0.5,1.),(0.,1.),
 .UNSPECIFIED.);
#15=B_SPLINE_SURFACE_WITH_KNOTS('',5,1,((#750,#751),(#752,#753),(#754,#755),
(#756,#757),(#758,#759),(#760,#761),(#762,#763),(#764,#765)),
 .SURF_OF_LINEAR_EXTRUSION.,.F.,.F.,.F.,(6,2,6),(2,2),(0.,0.5,1.),(0.,1.),
 .UNSPECIFIED.);
#16=B_SPLINE_CURVE_WITH_KNOTS('',3,(#531,#532,#533,#534),.UNSPECIFIED.,
 .F.,.F.,(4,4),(0.,1.),.UNSPECIFIED.);
#17=B_SPLINE_CURVE_WITH_KNOTS('',3,(#573,#574,#575,#576),.UNSPECIFIED.,
 .F.,.F.,(4,4),(0.,1.),.UNSPECIFIED.);
#18=B_SPLINE_CURVE_WITH_KNOTS('',3,(#626,#627,#628,#629),.UNSPECIFIED.,
 .F.,.F.,(4,4),(0.,1.),.UNSPECIFIED.);
#19=B_SPLINE_CURVE_WITH_KNOTS('',3,(#632,#633,#634,#635),.UNSPECIFIED.,
 .F.,.F.,(4,4),(0.,1.),.UNSPECIFIED.);
#20=B_SPLINE_CURVE_WITH_KNOTS('',3,(#637,#638,#639,#640),.UNSPECIFIED.,
 .F.,.F.,(4,4),(0.,1.),.UNSPECIFIED.);
#21=B_SPLINE_CURVE_WITH_KNOTS('',3,(#642,#643,#644,#645),.UNSPECIFIED.,
 .F.,.F.,(4,4),(0.,1.),.UNSPECIFIED.);
#22=B_SPLINE_CURVE_WITH_KNOTS('',3,(#647,#648,#649,#650),.UNSPECIFIED.,
 .F.,.F.,(4,4),(0.,1.),.UNSPECIFIED.);
#23=B_SPLINE_CURVE_WITH_KNOTS('',3,(#654,#655,#656,#657),.UNSPECIFIED.,
 .F.,.F.,(4,4),(0.,1.),.UNSPECIFIED.);
#24=B_SPLINE_CURVE_WITH_KNOTS('',3,(#674,#675,#676,#677,#678,#679,#680,
#681,#682,#683,#684),.UNSPECIFIED.,.F.,.F.,(4,1,1,1,1,1,1,1,4),(0.,0.25,
0.375,0.4375,0.5,0.5625,0.625,0.75,1.),.UNSPECIFIED.);
#25=B_SPLINE_CURVE_WITH_KNOTS('',3,(#685,#686,#687,#688,#689,#690,#691,
#692,#693,#694,#695),.UNSPECIFIED.,.F.,.F.,(4,1,1,1,1,1,1,1,4),(0.,0.25,
0.375,0.4375,0.5,0.5625,0.625,0.75,1.),.UNSPECIFIED.);
#26=B_SPLINE_CURVE_WITH_KNOTS('',3,(#712,#713,#714,#715,#716,#717,#718,
#719,#720,#721,#722),.UNSPECIFIED.,.F.,.F.,(4,1,1,1,1,1,1,1,4),(0.,0.25,
0.375,0.4375,0.5,0.5625,0.625,0.75,1.),.UNSPECIFIED.);
#27=B_SPLINE_CURVE_WITH_KNOTS('',3,(#739,#740,#741,#742,#743,#744,#745,
#746,#747,#748,#749),.UNSPECIFIED.,.F.,.F.,(4,1,1,1,1,1,1,1,4),(0.,0.25,
0.375,0.4375,0.5,0.5625,0.625,0.75,1.),.UNSPECIFIED.);
#28=ORIENTED_EDGE('',*,*,#140,.F.);
#29=ORIENTED_EDGE('',*,*,#141,.T.);
#30=ORIENTED_EDGE('',*,*,#142,.T.);
#31=ORIENTED_EDGE('',*,*,#143,.T.);
#32=ORIENTED_EDGE('',*,*,#144,.T.);
#33=ORIENTED_EDGE('',*,*,#145,.T.);
#34=ORIENTED_EDGE('',*,*,#146,.F.);
#35=ORIENTED_EDGE('',*,*,#147,.T.);
#36=ORIENTED_EDGE('',*,*,#148,.T.);
#37=ORIENTED_EDGE('',*,*,#149,.T.);
#38=ORIENTED_EDGE('',*,*,#150,.F.);
#39=ORIENTED_EDGE('',*,*,#151,.T.);
#40=ORIENTED_EDGE('',*,*,#152,.F.);
#41=ORIENTED_EDGE('',*,*,#153,.T.);
#42=ORIENTED_EDGE('',*,*,#154,.T.);
#43=ORIENTED_EDGE('',*,*,#155,.F.);
#44=ORIENTED_EDGE('',*,*,#156,.T.);
#45=ORIENTED_EDGE('',*,*,#157,.F.);
#46=ORIENTED_EDGE('',*,*,#147,.F.);
#47=ORIENTED_EDGE('',*,*,#158,.T.);
#48=ORIENTED_EDGE('',*,*,#159,.F.);
#49=ORIENTED_EDGE('',*,*,#160,.T.);
#50=ORIENTED_EDGE('',*,*,#161,.T.);
#51=ORIENTED_EDGE('',*,*,#162,.F.);
#52=ORIENTED_EDGE('',*,*,#163,.T.);
#53=ORIENTED_EDGE('',*,*,#164,.F.);
#54=ORIENTED_EDGE('',*,*,#165,.F.);
#55=ORIENTED_EDGE('',*,*,#156,.F.);
#56=ORIENTED_EDGE('',*,*,#166,.T.);
#57=ORIENTED_EDGE('',*,*,#167,.F.);
#58=ORIENTED_EDGE('',*,*,#168,.F.);
#59=ORIENTED_EDGE('',*,*,#169,.F.);
#60=ORIENTED_EDGE('',*,*,#153,.F.);
#61=ORIENTED_EDGE('',*,*,#170,.F.);
#62=ORIENTED_EDGE('',*,*,#171,.T.);
#63=ORIENTED_EDGE('',*,*,#172,.T.);
#64=ORIENTED_EDGE('',*,*,#152,.T.);
#65=ORIENTED_EDGE('',*,*,#173,.F.);
#66=ORIENTED_EDGE('',*,*,#174,.F.);
#67=ORIENTED_EDGE('',*,*,#170,.T.);
#68=ORIENTED_EDGE('',*,*,#155,.T.);
#69=ORIENTED_EDGE('',*,*,#175,.F.);
#70=ORIENTED_EDGE('',*,*,#176,.F.);
#71=ORIENTED_EDGE('',*,*,#173,.T.);
#72=ORIENTED_EDGE('',*,*,#154,.F.);
#73=ORIENTED_EDGE('',*,*,#172,.F.);
#74=ORIENTED_EDGE('',*,*,#177,.T.);
#75=ORIENTED_EDGE('',*,*,#175,.T.);
#76=ORIENTED_EDGE('',*,*,#171,.F.);
#77=ORIENTED_EDGE('',*,*,#174,.T.);
#78=ORIENTED_EDGE('',*,*,#176,.T.);
#79=ORIENTED_EDGE('',*,*,#177,.F.);
#80=ORIENTED_EDGE('',*,*,#158,.F.);
#81=ORIENTED_EDGE('',*,*,#146,.T.);
#82=ORIENTED_EDGE('',*,*,#178,.T.);
#83=ORIENTED_EDGE('',*,*,#166,.F.);
#84=ORIENTED_EDGE('',*,*,#148,.F.);
#85=ORIENTED_EDGE('',*,*,#157,.T.);
#86=ORIENTED_EDGE('',*,*,#165,.T.);
#87=ORIENTED_EDGE('',*,*,#179,.F.);
#88=ORIENTED_EDGE('',*,*,#168,.T.);
#89=ORIENTED_EDGE('',*,*,#180,.F.);
#90=ORIENTED_EDGE('',*,*,#144,.F.);
#91=ORIENTED_EDGE('',*,*,#181,.T.);
#92=ORIENTED_EDGE('',*,*,#167,.T.);
#93=ORIENTED_EDGE('',*,*,#178,.F.);
#94=ORIENTED_EDGE('',*,*,#145,.F.);
#95=ORIENTED_EDGE('',*,*,#180,.T.);
#96=ORIENTED_EDGE('',*,*,#164,.T.);
#97=ORIENTED_EDGE('',*,*,#182,.F.);
#98=ORIENTED_EDGE('',*,*,#149,.F.);
#99=ORIENTED_EDGE('',*,*,#179,.T.);
#100=ORIENTED_EDGE('',*,*,#163,.F.);
#101=ORIENTED_EDGE('',*,*,#183,.F.);
#102=ORIENTED_EDGE('',*,*,#150,.T.);
#103=ORIENTED_EDGE('',*,*,#182,.T.);
#104=ORIENTED_EDGE('',*,*,#151,.F.);
#105=ORIENTED_EDGE('',*,*,#183,.T.);
#106=ORIENTED_EDGE('',*,*,#162,.T.);
#107=ORIENTED_EDGE('',*,*,#184,.F.);
#108=ORIENTED_EDGE('',*,*,#185,.T.);
#109=ORIENTED_EDGE('',*,*,#186,.T.);
#110=ORIENTED_EDGE('',*,*,#187,.T.);
#111=ORIENTED_EDGE('',*,*,#188,.T.);
#112=ORIENTED_EDGE('',*,*,#142,.F.);
#113=ORIENTED_EDGE('',*,*,#189,.T.);
#114=ORIENTED_EDGE('',*,*,#159,.T.);
#115=ORIENTED_EDGE('',*,*,#190,.F.);
#116=ORIENTED_EDGE('',*,*,#181,.F.);
#117=ORIENTED_EDGE('',*,*,#143,.F.);
#118=ORIENTED_EDGE('',*,*,#190,.T.);
#119=ORIENTED_EDGE('',*,*,#169,.T.);
#120=ORIENTED_EDGE('',*,*,#161,.F.);
#121=ORIENTED_EDGE('',*,*,#191,.T.);
#122=ORIENTED_EDGE('',*,*,#140,.T.);
#123=ORIENTED_EDGE('',*,*,#184,.T.);
#124=ORIENTED_EDGE('',*,*,#192,.F.);
#125=ORIENTED_EDGE('',*,*,#160,.F.);
#126=ORIENTED_EDGE('',*,*,#193,.F.);
#127=ORIENTED_EDGE('',*,*,#188,.F.);
#128=ORIENTED_EDGE('',*,*,#193,.T.);
#129=ORIENTED_EDGE('',*,*,#189,.F.);
#130=ORIENTED_EDGE('',*,*,#194,.F.);
#131=ORIENTED_EDGE('',*,*,#185,.F.);
#132=ORIENTED_EDGE('',*,*,#192,.T.);
#133=ORIENTED_EDGE('',*,*,#187,.F.);
#134=ORIENTED_EDGE('',*,*,#195,.F.);
#135=ORIENTED_EDGE('',*,*,#191,.F.);
#136=ORIENTED_EDGE('',*,*,#194,.T.);
#137=ORIENTED_EDGE('',*,*,#141,.F.);
#138=ORIENTED_EDGE('',*,*,#195,.T.);
#139=ORIENTED_EDGE('',*,*,#186,.F.);
#140=EDGE_CURVE('',#196,#197,#232,.T.);
#141=EDGE_CURVE('',#196,#198,#16,.T.);
#142=EDGE_CURVE('',#198,#199,#233,.T.);
#143=EDGE_CURVE('',#199,#200,#234,.T.);
#144=EDGE_CURVE('',#200,#201,#235,.T.);
#145=EDGE_CURVE('',#201,#202,#236,.T.);
#146=EDGE_CURVE('',#203,#202,#237,.T.);
#147=EDGE_CURVE('',#203,#204,#238,.T.);
#148=EDGE_CURVE('',#204,#205,#239,.T.);
#149=EDGE_CURVE('',#205,#206,#240,.T.);
#150=EDGE_CURVE('',#207,#206,#241,.T.);
#151=EDGE_CURVE('',#207,#197,#242,.T.);
#152=EDGE_CURVE('',#208,#209,#243,.T.);
#153=EDGE_CURVE('',#208,#210,#244,.T.);
#154=EDGE_CURVE('',#210,#211,#245,.T.);
#155=EDGE_CURVE('',#209,#211,#246,.T.);
#156=EDGE_CURVE('',#212,#213,#247,.T.);
#157=EDGE_CURVE('',#204,#213,#248,.T.);
#158=EDGE_CURVE('',#203,#212,#249,.T.);
#159=EDGE_CURVE('',#214,#215,#250,.T.);
#160=EDGE_CURVE('',#214,#216,#17,.T.);
#161=EDGE_CURVE('',#216,#217,#251,.T.);
#162=EDGE_CURVE('',#218,#217,#252,.T.);
#163=EDGE_CURVE('',#218,#219,#253,.T.);
#164=EDGE_CURVE('',#220,#219,#254,.T.);
#165=EDGE_CURVE('',#213,#220,#255,.T.);
#166=EDGE_CURVE('',#212,#221,#256,.T.);
#167=EDGE_CURVE('',#222,#221,#257,.T.);
#168=EDGE_CURVE('',#223,#222,#258,.T.);
#169=EDGE_CURVE('',#215,#223,#259,.T.);
#170=EDGE_CURVE('',#224,#208,#260,.T.);
#171=EDGE_CURVE('',#224,#225,#261,.T.);
#172=EDGE_CURVE('',#225,#210,#262,.T.);
#173=EDGE_CURVE('',#226,#209,#263,.T.);
#174=EDGE_CURVE('',#224,#226,#264,.T.);
#175=EDGE_CURVE('',#227,#211,#265,.T.);
#176=EDGE_CURVE('',#226,#227,#266,.T.);
#177=EDGE_CURVE('',#225,#227,#267,.T.);
#178=EDGE_CURVE('',#202,#221,#268,.T.);
#179=EDGE_CURVE('',#205,#220,#269,.T.);
#180=EDGE_CURVE('',#201,#222,#270,.T.);
#181=EDGE_CURVE('',#200,#223,#271,.T.);
#182=EDGE_CURVE('',#206,#219,#272,.T.);
#183=EDGE_CURVE('',#207,#218,#273,.T.);
#184=EDGE_CURVE('',#197,#217,#274,.T.);
#185=EDGE_CURVE('',#228,#229,#18,.T.);
#186=EDGE_CURVE('',#229,#230,#19,.T.);
#187=EDGE_CURVE('',#230,#231,#20,.T.);
#188=EDGE_CURVE('',#231,#228,#21,.T.);
#189=EDGE_CURVE('',#198,#214,#22,.T.);
#190=EDGE_CURVE('',#199,#215,#275,.T.);
#191=EDGE_CURVE('',#216,#196,#23,.T.);
#192=EDGE_CURVE('',#216,#231,#24,.F.);
#193=EDGE_CURVE('',#228,#214,#25,.F.);
#194=EDGE_CURVE('',#229,#198,#26,.F.);
#195=EDGE_CURVE('',#196,#230,#27,.F.);
#196=VERTEX_POINT('',#529);
#197=VERTEX_POINT('',#530);
#198=VERTEX_POINT('',#535);
#199=VERTEX_POINT('',#537);
#200=VERTEX_POINT('',#539);
#201=VERTEX_POINT('',#541);
#202=VERTEX_POINT('',#543);
#203=VERTEX_POINT('',#545);
#204=VERTEX_POINT('',#547);
#205=VERTEX_POINT('',#549);
#206=VERTEX_POINT('',#551);
#207=VERTEX_POINT('',#553);
#208=VERTEX_POINT('',#556);
#209=VERTEX_POINT('',#557);
#210=VERTEX_POINT('',#559);
#211=VERTEX_POINT('',#561);
#212=VERTEX_POINT('',#565);
#213=VERTEX_POINT('',#566);
#214=VERTEX_POINT('',#571);
#215=VERTEX_POINT('',#572);
#216=VERTEX_POINT('',#577);
#217=VERTEX_POINT('',#579);
#218=VERTEX_POINT('',#581);
#219=VERTEX_POINT('',#583);
#220=VERTEX_POINT('',#585);
#221=VERTEX_POINT('',#588);
#222=VERTEX_POINT('',#590);
#223=VERTEX_POINT('',#592);
#224=VERTEX_POINT('',#596);
#225=VERTEX_POINT('',#598);
#226=VERTEX_POINT('',#602);
#227=VERTEX_POINT('',#606);
#228=VERTEX_POINT('',#630);
#229=VERTEX_POINT('',#631);
#230=VERTEX_POINT('',#636);
#231=VERTEX_POINT('',#641);
#232=LINE('',#528,#276);
#233=LINE('',#536,#277);
#234=LINE('',#538,#278);
#235=LINE('',#540,#279);
#236=LINE('',#542,#280);
#237=LINE('',#544,#281);
#238=LINE('',#546,#282);
#239=LINE('',#548,#283);
#240=LINE('',#550,#284);
#241=LINE('',#552,#285);
#242=LINE('',#554,#286);
#243=LINE('',#555,#287);
#244=LINE('',#558,#288);
#245=LINE('',#560,#289);
#246=LINE('',#562,#290);
#247=LINE('',#564,#291);
#248=LINE('',#567,#292);
#249=LINE('',#568,#293);
#250=LINE('',#570,#294);
#251=LINE('',#578,#295);
#252=LINE('',#580,#296);
#253=LINE('',#582,#297);
#254=LINE('',#584,#298);
#255=LINE('',#586,#299);
#256=LINE('',#587,#300);
#257=LINE('',#589,#301);
#258=LINE('',#591,#302);
#259=LINE('',#593,#303);
#260=LINE('',#595,#304);
#261=LINE('',#597,#305);
#262=LINE('',#599,#306);
#263=LINE('',#601,#307);
#264=LINE('',#603,#308);
#265=LINE('',#605,#309);
#266=LINE('',#607,#310);
#267=LINE('',#609,#311);
#268=LINE('',#612,#312);
#269=LINE('',#614,#313);
#270=LINE('',#616,#314);
#271=LINE('',#617,#315);
#272=LINE('',#620,#316);
#273=LINE('',#622,#317);
#274=LINE('',#624,#318);
#275=LINE('',#651,#319);
#276=VECTOR('',#446,1.);
#277=VECTOR('',#447,1.);
#278=VECTOR('',#448,1.);
#279=VECTOR('',#449,1.);
#280=VECTOR('',#450,1.);
#281=VECTOR('',#451,1.);
#282=VECTOR('',#452,1.);
#283=VECTOR('',#453,1.);
#284=VECTOR('',#454,1.);
#285=VECTOR('',#455,1.);
#286=VECTOR('',#456,1.);
#287=VECTOR('',#457,1.);
#288=VECTOR('',#458,1.);
#289=VECTOR('',#459,1.);
#290=VECTOR('',#460,1.);
#291=VECTOR('',#463,1.);
#292=VECTOR('',#464,1.);
#293=VECTOR('',#465,1.);
#294=VECTOR('',#468,1.);
#295=VECTOR('',#469,1.);
#296=VECTOR('',#470,1.);
#297=VECTOR('',#471,1.);
#298=VECTOR('',#472,1.);
#299=VECTOR('',#473,1.);
#300=VECTOR('',#474,1.);
#301=VECTOR('',#475,1.);
#302=VECTOR('',#476,1.);
#303=VECTOR('',#477,1.);
#304=VECTOR('',#480,1.);
#305=VECTOR('',#481,1.);
#306=VECTOR('',#482,1.);
#307=VECTOR('',#485,1.);
#308=VECTOR('',#486,1.);
#309=VECTOR('',#489,1.);
#310=VECTOR('',#490,1.);
#311=VECTOR('',#493,1.);
#312=VECTOR('',#498,1.);
#313=VECTOR('',#501,1.);
#314=VECTOR('',#504,1.);
#315=VECTOR('',#505,1.);
#316=VECTOR('',#510,1.);
#317=VECTOR('',#513,1.);
#318=VECTOR('',#516,1.);
#319=VECTOR('',#521,1.);
#320=EDGE_LOOP('',(#28,#29,#30,#31,#32,#33,#34,#35,#36,#37,#38,#39));
#321=EDGE_LOOP('',(#40,#41,#42,#43));
#322=EDGE_LOOP('',(#44,#45,#46,#47));
#323=EDGE_LOOP('',(#48,#49,#50,#51,#52,#53,#54,#55,#56,#57,#58,#59));
#324=EDGE_LOOP('',(#60,#61,#62,#63));
#325=EDGE_LOOP('',(#64,#65,#66,#67));
#326=EDGE_LOOP('',(#68,#69,#70,#71));
#327=EDGE_LOOP('',(#72,#73,#74,#75));
#328=EDGE_LOOP('',(#76,#77,#78,#79));
#329=EDGE_LOOP('',(#80,#81,#82,#83));
#330=EDGE_LOOP('',(#84,#85,#86,#87));
#331=EDGE_LOOP('',(#88,#89,#90,#91));
#332=EDGE_LOOP('',(#92,#93,#94,#95));
#333=EDGE_LOOP('',(#96,#97,#98,#99));
#334=EDGE_LOOP('',(#100,#101,#102,#103));
#335=EDGE_LOOP('',(#104,#105,#106,#107));
#336=EDGE_LOOP('',(#108,#109,#110,#111));
#337=EDGE_LOOP('',(#112,#113,#114,#115));
#338=EDGE_LOOP('',(#116,#117,#118,#119));
#339=EDGE_LOOP('',(#120,#121,#122,#123));
#340=EDGE_LOOP('',(#124,#125,#126,#127));
#341=EDGE_LOOP('',(#128,#129,#130,#131));
#342=EDGE_LOOP('',(#132,#133,#134,#135));
#343=EDGE_LOOP('',(#136,#137,#138,#139));
#344=FACE_BOUND('',#320,.T.);
#345=FACE_BOUND('',#321,.T.);
#346=FACE_BOUND('',#322,.T.);
#347=FACE_BOUND('',#323,.T.);
#348=FACE_BOUND('',#324,.T.);
#349=FACE_BOUND('',#325,.T.);
#350=FACE_BOUND('',#326,.T.);
#351=FACE_BOUND('',#327,.T.);
#352=FACE_BOUND('',#328,.T.);
#353=FACE_BOUND('',#329,.T.);
#354=FACE_BOUND('',#330,.T.);
#355=FACE_BOUND('',#331,.T.);
#356=FACE_BOUND('',#332,.T.);
#357=FACE_BOUND('',#333,.T.);
#358=FACE_BOUND('',#334,.T.);
#359=FACE_BOUND('',#335,.T.);
#360=FACE_BOUND('',#336,.T.);
#361=FACE_BOUND('',#337,.T.);
#362=FACE_BOUND('',#338,.T.);
#363=FACE_BOUND('',#339,.T.);
#364=FACE_BOUND('',#340,.T.);
#365=FACE_BOUND('',#341,.T.);
#366=FACE_BOUND('',#342,.T.);
#367=FACE_BOUND('',#343,.T.);
#368=PLANE('',#423);
#369=PLANE('',#424);
#370=PLANE('',#425);
#371=PLANE('',#426);
#372=PLANE('',#427);
#373=PLANE('',#428);
#374=PLANE('',#429);
#375=PLANE('',#430);
#376=PLANE('',#431);
#377=PLANE('',#432);
#378=PLANE('',#433);
#379=PLANE('',#434);
#380=PLANE('',#435);
#381=PLANE('',#436);
#382=PLANE('',#437);
#383=PLANE('',#438);
#384=PLANE('',#439);
#385=PLANE('',#440);
#386=PLANE('',#441);
#387=ADVANCED_FACE('',(#344,#345),#368,.T.);
#388=ADVANCED_FACE('',(#346),#369,.F.);
#389=ADVANCED_FACE('',(#347),#370,.F.);
#390=ADVANCED_FACE('',(#348),#371,.T.);
#391=ADVANCED_FACE('',(#349),#372,.F.);
#392=ADVANCED_FACE('',(#350),#373,.F.);
#393=ADVANCED_FACE('',(#351),#374,.T.);
#394=ADVANCED_FACE('',(#352),#375,.T.);
#395=ADVANCED_FACE('',(#353),#376,.T.);
#396=ADVANCED_FACE('',(#354),#377,.F.);
#397=ADVANCED_FACE('',(#355),#378,.F.);
#398=ADVANCED_FACE('',(#356),#379,.F.);
#399=ADVANCED_FACE('',(#357),#380,.F.);
#400=ADVANCED_FACE('',(#358),#381,.T.);
#401=ADVANCED_FACE('',(#359),#382,.F.);
#402=ADVANCED_FACE('',(#360),#383,.T.);
#403=ADVANCED_FACE('',(#361),#384,.F.);
#404=ADVANCED_FACE('',(#362),#385,.F.);
#405=ADVANCED_FACE('',(#363),#386,.T.);
#406=ADVANCED_FACE('',(#364),#12,.T.);
#407=ADVANCED_FACE('',(#365),#13,.T.);
#408=ADVANCED_FACE('',(#366),#14,.T.);
#409=ADVANCED_FACE('',(#367),#15,.T.);
#410=CLOSED_SHELL('',(#387,#388,#389,#390,#391,#392,#393,#394,#395,#396,
#397,#398,#399,#400,#401,#402,#403,#404,#405,#406,#407,#408,#409));
#411=STYLED_ITEM('',(#412),#419);
#412=PRESENTATION_STYLE_ASSIGNMENT((#413));
#413=SURFACE_STYLE_USAGE(.BOTH.,#414);
#414=SURFACE_SIDE_STYLE('',(#415));
#415=SURFACE_STYLE_FILL_AREA(#416);
#416=FILL_AREA_STYLE('',(#417));
#417=FILL_AREA_STYLE_COLOUR('',#418);
#418=COLOUR_RGB('',0.96078431372549,0.901960784313726,0.862745098039216);
#419=MANIFOLD_SOLID_BREP('Part 1',#410);
#420=SHAPE_DEFINITION_REPRESENTATION(#772,#421);
#421=SHAPE_REPRESENTATION('Part 1',(#422),#767);
#422=AXIS2_PLACEMENT_3D('',#526,#442,#443);
#423=AXIS2_PLACEMENT_3D('',#527,#444,#445);
#424=AXIS2_PLACEMENT_3D('',#563,#461,#462);
#425=AXIS2_PLACEMENT_3D('',#569,#466,#467);
#426=AXIS2_PLACEMENT_3D('',#594,#478,#479);
#427=AXIS2_PLACEMENT_3D('',#600,#483,#484);
#428=AXIS2_PLACEMENT_3D('',#604,#487,#488);
#429=AXIS2_PLACEMENT_3D('',#608,#491,#492);
#430=AXIS2_PLACEMENT_3D('',#610,#494,#495);
#431=AXIS2_PLACEMENT_3D('',#611,#496,#497);
#432=AXIS2_PLACEMENT_3D('',#613,#499,#500);
#433=AXIS2_PLACEMENT_3D('',#615,#502,#503);
#434=AXIS2_PLACEMENT_3D('',#618,#506,#507);
#435=AXIS2_PLACEMENT_3D('',#619,#508,#509);
#436=AXIS2_PLACEMENT_3D('',#621,#511,#512);
#437=AXIS2_PLACEMENT_3D('',#623,#514,#515);
#438=AXIS2_PLACEMENT_3D('',#625,#517,#518);
#439=AXIS2_PLACEMENT_3D('',#646,#519,#520);
#440=AXIS2_PLACEMENT_3D('',#652,#522,#523);
#441=AXIS2_PLACEMENT_3D('',#653,#524,#525);
#442=DIRECTION('',(0.,0.,1.));
#443=DIRECTION('',(1.,0.,0.));
#444=DIRECTION('',(0.,-1.,0.));
#445=DIRECTION('',(1.,0.,0.));
#446=DIRECTION('',(0.,0.,-1.));
#447=DIRECTION('',(0.,0.,-1.));
#448=DIRECTION('',(1.,0.,0.));
#449=DIRECTION('',(0.,0.,-1.));
#450=DIRECTION('',(1.,0.,0.));
#451=DIRECTION('',(0.,0.,-1.));
#452=DIRECTION('',(1.,0.,0.));
#453=DIRECTION('',(0.,0.,-1.));
#454=DIRECTION('',(1.,0.,0.));
#455=DIRECTION('',(6.93889390390723E-17,0.,-1.));
#456=DIRECTION('',(1.,0.,0.));
#457=DIRECTION('',(0.,0.,-1.));
#458=DIRECTION('',(1.,0.,0.));
#459=DIRECTION('',(0.,0.,-1.));
#460=DIRECTION('',(1.,0.,0.));
#461=DIRECTION('',(0.,0.,1.));
#462=DIRECTION('',(1.,0.,0.));
#463=DIRECTION('',(1.,0.,0.));
#464=DIRECTION('',(0.,1.,0.));
#465=DIRECTION('',(0.,1.,0.));
#466=DIRECTION('',(0.,-1.,0.));
#467=DIRECTION('',(1.,0.,0.));
#468=DIRECTION('',(0.,0.,-1.));
#469=DIRECTION('',(0.,0.,-1.));
#470=DIRECTION('',(1.,0.,0.));
#471=DIRECTION('',(6.93889390390723E-17,0.,-1.));
#472=DIRECTION('',(1.,0.,0.));
#473=DIRECTION('',(0.,0.,-1.));
#474=DIRECTION('',(0.,0.,-1.));
#475=DIRECTION('',(1.,0.,0.));
#476=DIRECTION('',(0.,0.,-1.));
#477=DIRECTION('',(1.,0.,0.));
#478=DIRECTION('',(0.,0.,-1.));
#479=DIRECTION('',(-1.,0.,0.));
#480=DIRECTION('',(0.,-1.,0.));
#481=DIRECTION('',(1.,0.,0.));
#482=DIRECTION('',(0.,-1.,0.));
#483=DIRECTION('',(-1.,0.,0.));
#484=DIRECTION('',(0.,0.,1.));
#485=DIRECTION('',(0.,-1.,0.));
#486=DIRECTION('',(0.,0.,-1.));
#487=DIRECTION('',(0.,0.,-1.));
#488=DIRECTION('',(-1.,0.,0.));
#489=DIRECTION('',(0.,-1.,0.));
#490=DIRECTION('',(1.,0.,0.));
#491=DIRECTION('',(-1.,0.,0.));
#492=DIRECTION('',(0.,0.,1.));
#493=DIRECTION('',(0.,0.,-1.));
#494=DIRECTION('',(0.,-1.,0.));
#495=DIRECTION('',(1.,0.,0.));
#496=DIRECTION('',(1.,0.,0.));
#497=DIRECTION('',(0.,0.,-1.));
#498=DIRECTION('',(0.,1.,0.));
#499=DIRECTION('',(1.,0.,0.));
#500=DIRECTION('',(0.,0.,-1.));
#501=DIRECTION('',(0.,1.,0.));
#502=DIRECTION('',(1.,0.,0.));
#503=DIRECTION('',(0.,0.,-1.));
#504=DIRECTION('',(0.,1.,0.));
#505=DIRECTION('',(0.,1.,0.));
#506=DIRECTION('',(0.,0.,1.));
#507=DIRECTION('',(1.,0.,0.));
#508=DIRECTION('',(0.,0.,1.));
#509=DIRECTION('',(1.,0.,0.));
#510=DIRECTION('',(0.,1.,0.));
#511=DIRECTION('',(1.,0.,6.93889390390723E-17));
#512=DIRECTION('',(6.93889390390723E-17,0.,-1.));
#513=DIRECTION('',(0.,1.,0.));
#514=DIRECTION('',(0.,0.,1.));
#515=DIRECTION('',(1.,0.,0.));
#516=DIRECTION('',(0.,1.,0.));
#517=DIRECTION('',(0.,0.,1.));
#518=DIRECTION('',(1.,0.,0.));
#519=DIRECTION('',(1.,0.,0.));
#520=DIRECTION('',(0.,0.,-1.));
#521=DIRECTION('',(0.,1.,0.));
#522=DIRECTION('',(0.,0.,1.));
#523=DIRECTION('',(1.,0.,0.));
#524=DIRECTION('',(1.,0.,0.));
#525=DIRECTION('',(0.,0.,-1.));
#526=CARTESIAN_POINT('',(0.,0.,0.));
#527=CARTESIAN_POINT('',(-0.0147751842349768,-0.018,-0.00302290708115171));
#528=CARTESIAN_POINT('',(0.00482481576502323,-0.018,0.00897709291884829));
#529=CARTESIAN_POINT('',(0.00482481576502323,-0.018,0.0094770929188483));
#530=CARTESIAN_POINT('',(0.00482481576502323,-0.018,0.00747709291884829));
#531=CARTESIAN_POINT('',(0.00482481576502324,-0.018,0.00947709291884829));
#532=CARTESIAN_POINT('',(-0.0085085175683101,-0.018,0.00947709291884829));
#533=CARTESIAN_POINT('',(-0.0218418509016434,-0.018,0.00947709291884829));
#534=CARTESIAN_POINT('',(-0.0351751842349768,-0.018,0.00947709291884829));
#535=CARTESIAN_POINT('',(-0.0351751842349768,-0.018,0.0094770929188483));
#536=CARTESIAN_POINT('',(-0.0351751842349768,-0.018,0.00897709291884829));
#537=CARTESIAN_POINT('',(-0.0351751842349768,-0.018,0.00747709291884829));
#538=CARTESIAN_POINT('',(-0.0151751842349767,-0.018,0.00747709291884829));
#539=CARTESIAN_POINT('',(-0.0342751842349768,-0.018,0.00747709291884829));
#540=CARTESIAN_POINT('',(-0.0342751842349768,-0.018,-0.00502290708115171));
#541=CARTESIAN_POINT('',(-0.0342751842349768,-0.018,-0.0175229070811517));
#542=CARTESIAN_POINT('',(-0.0332751842349768,-0.018,-0.0175229070811517));
#543=CARTESIAN_POINT('',(-0.0322751842349768,-0.018,-0.0175229070811517));
#544=CARTESIAN_POINT('',(-0.0322751842349768,-0.018,-0.00502290708115171));
#545=CARTESIAN_POINT('',(-0.0322751842349768,-0.018,-0.0135229070811517));
#546=CARTESIAN_POINT('',(-0.0147751842349768,-0.018,-0.0135229070811517));
#547=CARTESIAN_POINT('',(0.00272481576502324,-0.018,-0.0135229070811517));
#548=CARTESIAN_POINT('',(0.00272481576502324,-0.018,-0.00502290708115171));
#549=CARTESIAN_POINT('',(0.00272481576502324,-0.018,-0.0175229070811517));
#550=CARTESIAN_POINT('',(0.00362481576502324,-0.018,-0.0175229070811517));
#551=CARTESIAN_POINT('',(0.00452481576502325,-0.018,-0.0175229070811517));
#552=CARTESIAN_POINT('',(0.00452481576502324,-0.018,-0.00502290708115171));
#553=CARTESIAN_POINT('',(0.00452481576502324,-0.018,0.00747709291884829));
#554=CARTESIAN_POINT('',(-0.0151751842349767,-0.018,0.00747709291884829));
#555=CARTESIAN_POINT('',(-0.0285765608996153,-0.018,-0.00317146946152136));
#556=CARTESIAN_POINT('',(-0.0285765608996153,-0.018,0.00532853053847865));
#557=CARTESIAN_POINT('',(-0.0285765608996153,-0.018,-0.0116714694615213));
#558=CARTESIAN_POINT('',(-0.0150765608996153,-0.018,0.00532853053847865));
#559=CARTESIAN_POINT('',(-0.00157656089961528,-0.018,0.00532853053847865));
#560=CARTESIAN_POINT('',(-0.00157656089961528,-0.018,-0.00317146946152136));
#561=CARTESIAN_POINT('',(-0.00157656089961528,-0.018,-0.0116714694615214));
#562=CARTESIAN_POINT('',(-0.0150765608996153,-0.018,-0.0116714694615213));
#563=CARTESIAN_POINT('',(-0.0147751842349768,-0.018,-0.0135229070811517));
#564=CARTESIAN_POINT('',(-0.0147751842349768,0.,-0.0135229070811517));
#565=CARTESIAN_POINT('',(-0.0322751842349768,0.,-0.0135229070811517));
#566=CARTESIAN_POINT('',(0.00272481576502324,0.,-0.0135229070811517));
#567=CARTESIAN_POINT('',(0.00272481576502324,-0.018,-0.0135229070811517));
#568=CARTESIAN_POINT('',(-0.0322751842349768,-0.018,-0.0135229070811517));
#569=CARTESIAN_POINT('',(-0.0147751842349768,0.,-0.00302290708115171));
#570=CARTESIAN_POINT('',(-0.0351751842349768,0.,0.00897709291884829));
#571=CARTESIAN_POINT('',(-0.0351751842349768,0.,0.0094770929188483));
#572=CARTESIAN_POINT('',(-0.0351751842349768,0.,0.00747709291884829));
#573=CARTESIAN_POINT('',(-0.0351751842349768,0.,0.00947709291884829));
#574=CARTESIAN_POINT('',(-0.0218418509016434,0.,0.00947709291884829));
#575=CARTESIAN_POINT('',(-0.0085085175683101,0.,0.00947709291884829));
#576=CARTESIAN_POINT('',(0.00482481576502324,0.,0.00947709291884829));
#577=CARTESIAN_POINT('',(0.00482481576502323,0.,0.0094770929188483));
#578=CARTESIAN_POINT('',(0.00482481576502323,0.,0.00897709291884829));
#579=CARTESIAN_POINT('',(0.00482481576502323,0.,0.00747709291884829));
#580=CARTESIAN_POINT('',(-0.0151751842349767,0.,0.00747709291884829));
#581=CARTESIAN_POINT('',(0.00452481576502324,0.,0.00747709291884829));
#582=CARTESIAN_POINT('',(0.00452481576502324,0.,-0.00502290708115171));
#583=CARTESIAN_POINT('',(0.00452481576502325,0.,-0.0175229070811517));
#584=CARTESIAN_POINT('',(0.00362481576502324,0.,-0.0175229070811517));
#585=CARTESIAN_POINT('',(0.00272481576502324,0.,-0.0175229070811517));
#586=CARTESIAN_POINT('',(0.00272481576502324,0.,-0.00502290708115171));
#587=CARTESIAN_POINT('',(-0.0322751842349768,0.,-0.00502290708115171));
#588=CARTESIAN_POINT('',(-0.0322751842349768,0.,-0.0175229070811517));
#589=CARTESIAN_POINT('',(-0.0332751842349768,0.,-0.0175229070811517));
#590=CARTESIAN_POINT('',(-0.0342751842349768,0.,-0.0175229070811517));
#591=CARTESIAN_POINT('',(-0.0342751842349768,0.,-0.00502290708115171));
#592=CARTESIAN_POINT('',(-0.0342751842349768,0.,0.00747709291884829));
#593=CARTESIAN_POINT('',(-0.0151751842349767,0.,0.00747709291884829));
#594=CARTESIAN_POINT('',(-0.0150765608996153,-0.016,0.00532853053847865));
#595=CARTESIAN_POINT('',(-0.0285765608996153,-0.016,0.00532853053847865));
#596=CARTESIAN_POINT('',(-0.0285765608996153,-0.016,0.00532853053847865));
#597=CARTESIAN_POINT('',(-0.0150765608996153,-0.016,0.00532853053847865));
#598=CARTESIAN_POINT('',(-0.00157656089961528,-0.016,0.00532853053847865));
#599=CARTESIAN_POINT('',(-0.00157656089961528,-0.016,0.00532853053847865));
#600=CARTESIAN_POINT('',(-0.0285765608996153,-0.016,-0.00317146946152136));
#601=CARTESIAN_POINT('',(-0.0285765608996153,-0.016,-0.0116714694615213));
#602=CARTESIAN_POINT('',(-0.0285765608996153,-0.016,-0.0116714694615213));
#603=CARTESIAN_POINT('',(-0.0285765608996153,-0.016,-0.00317146946152136));
#604=CARTESIAN_POINT('',(-0.0150765608996153,-0.016,-0.0116714694615213));
#605=CARTESIAN_POINT('',(-0.00157656089961528,-0.016,-0.0116714694615214));
#606=CARTESIAN_POINT('',(-0.00157656089961528,-0.016,-0.0116714694615214));
#607=CARTESIAN_POINT('',(-0.0150765608996153,-0.016,-0.0116714694615213));
#608=CARTESIAN_POINT('',(-0.00157656089961528,-0.016,-0.00317146946152136));
#609=CARTESIAN_POINT('',(-0.00157656089961528,-0.016,-0.00317146946152136));
#610=CARTESIAN_POINT('',(-0.0147751842349768,-0.016,-0.00302290708115171));
#611=CARTESIAN_POINT('',(-0.0322751842349768,-0.018,-0.00502290708115171));
#612=CARTESIAN_POINT('',(-0.0322751842349768,-0.018,-0.0175229070811517));
#613=CARTESIAN_POINT('',(0.00272481576502324,-0.018,-0.00502290708115171));
#614=CARTESIAN_POINT('',(0.00272481576502324,-0.018,-0.0175229070811517));
#615=CARTESIAN_POINT('',(-0.0342751842349768,-0.018,-0.00502290708115171));
#616=CARTESIAN_POINT('',(-0.0342751842349768,-0.018,-0.0175229070811517));
#617=CARTESIAN_POINT('',(-0.0342751842349768,-0.018,0.00747709291884829));
#618=CARTESIAN_POINT('',(-0.0332751842349768,-0.018,-0.0175229070811517));
#619=CARTESIAN_POINT('',(0.00362481576502324,-0.018,-0.0175229070811517));
#620=CARTESIAN_POINT('',(0.00452481576502325,-0.018,-0.0175229070811517));
#621=CARTESIAN_POINT('',(0.00452481576502324,-0.018,-0.00502290708115171));
#622=CARTESIAN_POINT('',(0.00452481576502324,-0.018,0.00747709291884829));
#623=CARTESIAN_POINT('',(-0.0151751842349767,-0.018,0.00747709291884829));
#624=CARTESIAN_POINT('',(0.00482481576502323,-0.018,0.00747709291884829));
#625=CARTESIAN_POINT('',(-0.0151751842349767,-0.018,0.0104770929188483));
#626=CARTESIAN_POINT('',(-0.0341751842349768,-0.000999999999999997,0.0104770929188483));
#627=CARTESIAN_POINT('',(-0.0341751842349768,-0.00633333333333333,0.0104770929188483));
#628=CARTESIAN_POINT('',(-0.0341751842349768,-0.0116666666666667,0.0104770929188483));
#629=CARTESIAN_POINT('',(-0.0341751842349768,-0.017,0.0104770929188483));
#630=CARTESIAN_POINT('',(-0.0341751842349768,-0.00099999999999982,0.0104770929188483));
#631=CARTESIAN_POINT('',(-0.0341751842349768,-0.017,0.0104770929188483));
#632=CARTESIAN_POINT('',(-0.0341751842349768,-0.017,0.0104770929188483));
#633=CARTESIAN_POINT('',(-0.0215085175683101,-0.017,0.0104770929188483));
#634=CARTESIAN_POINT('',(-0.00884185090164342,-0.017,0.0104770929188483));
#635=CARTESIAN_POINT('',(0.00382481576502325,-0.017,0.0104770929188483));
#636=CARTESIAN_POINT('',(0.00382481576502323,-0.017,0.0104770929188483));
#637=CARTESIAN_POINT('',(0.00382481576502325,-0.017,0.0104770929188483));
#638=CARTESIAN_POINT('',(0.00382481576502325,-0.0116666666666666,0.0104770929188483));
#639=CARTESIAN_POINT('',(0.00382481576502325,-0.00633333333333316,0.0104770929188483));
#640=CARTESIAN_POINT('',(0.00382481576502325,-0.000999999999999748,0.0104770929188483));
#641=CARTESIAN_POINT('',(0.00382481576502321,-0.001,0.0104770929188483));
#642=CARTESIAN_POINT('',(0.00382481576502325,-0.000999999999999997,0.0104770929188483));
#643=CARTESIAN_POINT('',(-0.00884185090164342,-0.000999999999999997,0.0104770929188483));
#644=CARTESIAN_POINT('',(-0.0215085175683101,-0.000999999999999997,0.0104770929188483));
#645=CARTESIAN_POINT('',(-0.0341751842349768,-0.000999999999999997,0.0104770929188483));
#646=CARTESIAN_POINT('',(-0.0351751842349768,-0.018,0.00897709291884829));
#647=CARTESIAN_POINT('',(-0.0351751842349768,-0.0180000000000127,0.00947709291884829));
#648=CARTESIAN_POINT('',(-0.0351751842349768,-0.0120000000000085,0.00947709291884829));
#649=CARTESIAN_POINT('',(-0.0351751842349768,-0.00600000000000423,0.00947709291884829));
#650=CARTESIAN_POINT('',(-0.0351751842349768,0.,0.00947709291884829));
#651=CARTESIAN_POINT('',(-0.0351751842349768,-0.018,0.00747709291884829));
#652=CARTESIAN_POINT('',(-0.0151751842349767,-0.018,0.00747709291884829));
#653=CARTESIAN_POINT('',(0.00482481576502323,-0.018,0.00897709291884829));
#654=CARTESIAN_POINT('',(0.00482481576502323,0.,0.00947709291884829));
#655=CARTESIAN_POINT('',(0.00482481576502323,-0.00600000000000423,0.00947709291884829));
#656=CARTESIAN_POINT('',(0.00482481576502323,-0.0120000000000085,0.00947709291884829));
#657=CARTESIAN_POINT('',(0.00482481576502323,-0.0180000000000127,0.00947709291884829));
#658=CARTESIAN_POINT('',(0.00506481576502324,-0.001,0.0104770929188483));
#659=CARTESIAN_POINT('',(-0.0354151842349768,-0.001,0.0104770929188483));
#660=CARTESIAN_POINT('',(0.00506481576502324,-0.000850000000000001,0.0104770929188483));
#661=CARTESIAN_POINT('',(-0.0354151842349768,-0.000850000000000001,0.0104770929188483));
#662=CARTESIAN_POINT('',(0.00506481576502324,-0.000700000000000002,0.0104770929188483));
#663=CARTESIAN_POINT('',(-0.0354151842349768,-0.000700000000000002,0.0104770929188483));
#664=CARTESIAN_POINT('',(0.00506481576502324,-0.00033333333333334,0.0103770929188483));
#665=CARTESIAN_POINT('',(-0.0354151842349768,-0.00033333333333334,0.0103770929188483));
#666=CARTESIAN_POINT('',(0.00506481576502324,-0.000100000000000004,0.0101437595855149));
#667=CARTESIAN_POINT('',(-0.0354151842349768,-0.000100000000000004,0.0101437595855149));
#668=CARTESIAN_POINT('',(0.00506481576502324,-1.62092561595274E-18,0.00977709291884831));
#669=CARTESIAN_POINT('',(-0.0354151842349768,-1.62092561595274E-18,0.00977709291884831));
#670=CARTESIAN_POINT('',(0.00506481576502324,0.,0.00962709291884829));
#671=CARTESIAN_POINT('',(-0.0354151842349768,0.,0.00962709291884829));
#672=CARTESIAN_POINT('',(0.00506481576502324,0.,0.00947709291884828));
#673=CARTESIAN_POINT('',(-0.0354151842349768,0.,0.00947709291884828));
#674=CARTESIAN_POINT('',(0.00382481576502323,-0.001,0.0104770929188483));
#675=CARTESIAN_POINT('',(0.00393097903622503,-0.000893836729083524,0.0104770929188483));
#676=CARTESIAN_POINT('',(0.00408900147830908,-0.000737041192620504,0.0104805907635215));
#677=CARTESIAN_POINT('',(0.004347662837047,-0.000475517053351294,0.0103880680905116));
#678=CARTESIAN_POINT('',(0.00444826387150882,-0.000375975981229156,0.010328630500777));
#679=CARTESIAN_POINT('',(0.00449191787128151,-0.000333068097962168,0.0103008080584338));
#680=CARTESIAN_POINT('',(0.00458490567225962,-0.000239805188167058,0.0102215323168795));
#681=CARTESIAN_POINT('',(0.00467198564402989,-0.000152827903084461,0.0101156475592111));
#682=CARTESIAN_POINT('',(0.00479288287484199,-3.19345536129123E-5,0.00989881050712897));
#683=CARTESIAN_POINT('',(0.00482481576502324,-3.91688454850869E-31,0.0096634408658906));
#684=CARTESIAN_POINT('',(0.00482481576502324,-1.70352788967574E-44,0.0094770929188483));
#685=CARTESIAN_POINT('',(-0.0351751842349768,-3.57944340695624E-44,0.0094770929188483));
#686=CARTESIAN_POINT('',(-0.0351751842349768,-6.42388986790998E-31,0.00966338930357436));
#687=CARTESIAN_POINT('',(-0.0351432142375235,-3.19656826935719E-5,0.00989887447920725));
#688=CARTESIAN_POINT('',(-0.0350224035903461,-0.000152786397643585,0.0101155773021156));
#689=CARTESIAN_POINT('',(-0.034935314521147,-0.000239758663621615,0.0102214905366541));
#690=CARTESIAN_POINT('',(-0.034842268067347,-0.000333086856734116,0.0103008235809219));
#691=CARTESIAN_POINT('',(-0.0347986650580807,-0.000375947470687055,0.0103286101910504));
#692=CARTESIAN_POINT('',(-0.0346980697257554,-0.000475480516332769,0.0103880534736451));
#693=CARTESIAN_POINT('',(-0.0344393395552158,-0.000737070174364041,0.0104806017261714));
#694=CARTESIAN_POINT('',(-0.0342813547243758,-0.000893829510890867,0.0104770929188483));
#695=CARTESIAN_POINT('',(-0.0341751842349768,-0.001,0.0104770929188483));
#696=CARTESIAN_POINT('',(-0.0341751842349768,0.000108000000000077,0.0104770929188483));
#697=CARTESIAN_POINT('',(-0.0341751842349768,-0.0181080000000128,0.0104770929188483));
#698=CARTESIAN_POINT('',(-0.0343251842349769,0.000108000000000077,0.0104770929188483));
#699=CARTESIAN_POINT('',(-0.0343251842349769,-0.0181080000000128,0.0104770929188483));
#700=CARTESIAN_POINT('',(-0.0344751842349767,0.000108000000000077,0.0104770929188483));
#701=CARTESIAN_POINT('',(-0.0344751842349767,-0.0181080000000128,0.0104770929188483));
#702=CARTESIAN_POINT('',(-0.0348418509016434,0.000108000000000077,0.0103770929188483));
#703=CARTESIAN_POINT('',(-0.0348418509016434,-0.0181080000000128,0.0103770929188483));
#704=CARTESIAN_POINT('',(-0.0350751842349767,0.000108000000000077,0.010143759585515));
#705=CARTESIAN_POINT('',(-0.0350751842349767,-0.0181080000000128,0.010143759585515));
#706=CARTESIAN_POINT('',(-0.0351751842349768,0.000108000000000077,0.0097770929188483));
#707=CARTESIAN_POINT('',(-0.0351751842349768,-0.0181080000000128,0.0097770929188483));
#708=CARTESIAN_POINT('',(-0.0351751842349768,0.000108000000000077,0.00962709291884831));
#709=CARTESIAN_POINT('',(-0.0351751842349768,-0.0181080000000128,0.00962709291884831));
#710=CARTESIAN_POINT('',(-0.0351751842349768,0.000108000000000077,0.0094770929188483));
#711=CARTESIAN_POINT('',(-0.0351751842349768,-0.0181080000000128,0.0094770929188483));
#712=CARTESIAN_POINT('',(-0.0351751842349768,-0.018,0.0094770929188483));
#713=CARTESIAN_POINT('',(-0.0351751842349768,-0.018,0.00966215787723775));
#714=CARTESIAN_POINT('',(-0.0351445688118231,-0.0179693786875816,0.00989426499859856));
#715=CARTESIAN_POINT('',(-0.0350242869020168,-0.017849110519393,0.0101128029939182));
#716=CARTESIAN_POINT('',(-0.0349375481768339,-0.0177622608700316,0.0102192922083971));
#717=CARTESIAN_POINT('',(-0.0348445047757632,-0.017669488690507,0.0102990616337008));
#718=CARTESIAN_POINT('',(-0.0348012957888708,-0.0176255420268374,0.0103273089082674));
#719=CARTESIAN_POINT('',(-0.034701620332912,-0.0175248095572659,0.0103871631072192));
#720=CARTESIAN_POINT('',(-0.034440970883884,-0.0172670065546105,0.0104802259565563));
#721=CARTESIAN_POINT('',(-0.034281330122578,-0.0171061458866812,0.0104770929188483));
#722=CARTESIAN_POINT('',(-0.0341751842349768,-0.017,0.0104770929188483));
#723=CARTESIAN_POINT('',(0.00382481576502324,-0.0181080000000128,0.0104770929188483));
#724=CARTESIAN_POINT('',(0.00382481576502324,0.000108000000000073,0.0104770929188483));
#725=CARTESIAN_POINT('',(0.00397481576502323,-0.0181080000000128,0.0104770929188483));
#726=CARTESIAN_POINT('',(0.00397481576502323,0.000108000000000073,0.0104770929188483));
#727=CARTESIAN_POINT('',(0.00412481576502323,-0.0181080000000128,0.0104770929188483));
#728=CARTESIAN_POINT('',(0.00412481576502323,0.000108000000000077,0.0104770929188483));
#729=CARTESIAN_POINT('',(0.00449148243168991,-0.0181080000000128,0.0103770929188483));
#730=CARTESIAN_POINT('',(0.00449148243168991,0.000108000000000077,0.0103770929188483));
#731=CARTESIAN_POINT('',(0.00472481576502324,-0.0181080000000128,0.0101437595855149));
#732=CARTESIAN_POINT('',(0.00472481576502324,0.000108000000000077,0.0101437595855149));
#733=CARTESIAN_POINT('',(0.00482481576502324,-0.0181080000000128,0.00977709291884829));
#734=CARTESIAN_POINT('',(0.00482481576502324,0.000108000000000077,0.00977709291884829));
#735=CARTESIAN_POINT('',(0.00482481576502324,-0.0181080000000128,0.0096270929188483));
#736=CARTESIAN_POINT('',(0.00482481576502324,0.000108000000000077,0.0096270929188483));
#737=CARTESIAN_POINT('',(0.00482481576502324,-0.0181080000000128,0.0094770929188483));
#738=CARTESIAN_POINT('',(0.00482481576502324,0.000108000000000077,0.0094770929188483));
#739=CARTESIAN_POINT('',(0.00382481576502324,-0.017,0.0104770929188483));
#740=CARTESIAN_POINT('',(0.00393097903213789,-0.0171061632671147,0.0104770929188483));
#741=CARTESIAN_POINT('',(0.00408777457333221,-0.0172641857142754,0.0104805907635042));
#742=CARTESIAN_POINT('',(0.00434929871154148,-0.0175228470718964,0.0103880680905347));
#743=CARTESIAN_POINT('',(0.00444883978377187,-0.0176234481064661,0.0103286305008022));
#744=CARTESIAN_POINT('',(0.0044917476670679,-0.0176671021062645,0.0103008080584262));
#745=CARTESIAN_POINT('',(0.004585010576851,-0.0177600899072307,0.0102215323168845));
#746=CARTESIAN_POINT('',(0.00467198786193619,-0.0178471698790016,0.0101156475592159));
#747=CARTESIAN_POINT('',(0.00479288121141225,-0.0179680671098225,0.0098988105071235));
#748=CARTESIAN_POINT('',(0.00482481576502324,-0.018,0.00966344086589904));
#749=CARTESIAN_POINT('',(0.00482481576502324,-0.018,0.00947709291884831));
#750=CARTESIAN_POINT('',(-0.0354151842349768,-0.017,0.0104770929188483));
#751=CARTESIAN_POINT('',(0.00506481576502324,-0.017,0.0104770929188483));
#752=CARTESIAN_POINT('',(-0.0354151842349768,-0.01715,0.0104770929188483));
#753=CARTESIAN_POINT('',(0.00506481576502324,-0.01715,0.0104770929188483));
#754=CARTESIAN_POINT('',(-0.0354151842349768,-0.0173,0.0104770929188483));
#755=CARTESIAN_POINT('',(0.00506481576502324,-0.0173,0.0104770929188483));
#756=CARTESIAN_POINT('',(-0.0354151842349768,-0.0176666666666666,0.0103770929188483));
#757=CARTESIAN_POINT('',(0.00506481576502324,-0.0176666666666666,0.0103770929188483));
#758=CARTESIAN_POINT('',(-0.0354151842349768,-0.0179,0.010143759585515));
#759=CARTESIAN_POINT('',(0.00506481576502324,-0.0179,0.010143759585515));
#760=CARTESIAN_POINT('',(-0.0354151842349768,-0.018,0.00977709291884829));
#761=CARTESIAN_POINT('',(0.00506481576502324,-0.018,0.00977709291884829));
#762=CARTESIAN_POINT('',(-0.0354151842349768,-0.018,0.00962709291884826));
#763=CARTESIAN_POINT('',(0.00506481576502324,-0.018,0.00962709291884826));
#764=CARTESIAN_POINT('',(-0.0354151842349768,-0.018,0.00947709291884827));
#765=CARTESIAN_POINT('',(0.00506481576502324,-0.018,0.00947709291884827));
#766=MECHANICAL_DESIGN_GEOMETRIC_PRESENTATION_REPRESENTATION('',(#411),
#767);
#767=(
GEOMETRIC_REPRESENTATION_CONTEXT(3)
GLOBAL_UNCERTAINTY_ASSIGNED_CONTEXT((#768))
GLOBAL_UNIT_ASSIGNED_CONTEXT((#771,#770,#769))
REPRESENTATION_CONTEXT('Part 1','TOP_LEVEL_ASSEMBLY_PART')
);
#768=UNCERTAINTY_MEASURE_WITH_UNIT(LENGTH_MEASURE(2.E-5),#771,
'DISTANCE_ACCURACY_VALUE','Maximum Tolerance applied to model');
#769=(
NAMED_UNIT(*)
SI_UNIT($,.STERADIAN.)
SOLID_ANGLE_UNIT()
);
#770=(
NAMED_UNIT(*)
PLANE_ANGLE_UNIT()
SI_UNIT($,.RADIAN.)
);
#771=(
LENGTH_UNIT()
NAMED_UNIT(*)
SI_UNIT($,.METRE.)
);
#772=PRODUCT_DEFINITION_SHAPE('','',#773);
#773=PRODUCT_DEFINITION('','',#775,#774);
#774=PRODUCT_DEFINITION_CONTEXT('',#781,'design');
#775=PRODUCT_DEFINITION_FORMATION_WITH_SPECIFIED_SOURCE('','',#777,
 .NOT_KNOWN.);
#776=PRODUCT_RELATED_PRODUCT_CATEGORY('','',(#777));
#777=PRODUCT('Part 1','Part 1','Part 1',(#779));
#778=PRODUCT_CATEGORY('','');
#779=PRODUCT_CONTEXT('',#781,'mechanical');
#780=APPLICATION_PROTOCOL_DEFINITION('international standard',
'ap242_managed_model_based_3d_engineering',2020,#781);
#781=APPLICATION_CONTEXT('managed model based 3d engineering');
ENDSEC;
END-ISO-10303-21;
