ISO-10303-21;
HEADER;
/* Generated by software containing ST-Developer
 * from STEP Tools, Inc. (www.steptools.com) 
 */
/* OPTION: using custom renumber hook */

FILE_DESCRIPTION(
/* description */ ('STEP AP242 Edition 2',
'CAx-IF Rec.Pracs.---Representation and Presentation of Product Manufa
cturing Information (PMI)---4.0---2014-10-13',
'CAx-IF Rec.Pracs.---3D Tessellated Geometry---0.4---2014-09-14','2;1',
'CAx-IF Rec.Pracs.---User Defined Attributes---1.5---2016-08-15'),
/* implementation_level */ '2;1');

FILE_NAME(
/* name */ 'Back Wall - Part 3',
/* time_stamp */ '2026-08-29T04:29:04Z',
/* author */ (''),
/* organization */ (''),
/* preprocessor_version */ 'ST-DEVELOPER v20',
/* originating_system */ 'ONSHAPE BY PTC INC, 1.220',
/* authorisation */ '  ');

FILE_SCHEMA (('AP242_MANAGED_MODEL_BASED_3D_ENGINEERING_MIM_LF { 1 0 10303 442 3 1 4 }'));
ENDSEC;

DATA;
#10=SHAPE_REPRESENTATION_RELATIONSHIP('','',#283,#11);
#11=ADVANCED_BREP_SHAPE_REPRESENTATION('',(#281),#441);
#12=ORIENTED_EDGE('',*,*,#84,.F.);
#13=ORIENTED_EDGE('',*,*,#85,.T.);
#14=ORIENTED_EDGE('',*,*,#86,.T.);
#15=ORIENTED_EDGE('',*,*,#87,.F.);
#16=ORIENTED_EDGE('',*,*,#88,.F.);
#17=ORIENTED_EDGE('',*,*,#89,.T.);
#18=ORIENTED_EDGE('',*,*,#90,.T.);
#19=ORIENTED_EDGE('',*,*,#91,.F.);
#20=ORIENTED_EDGE('',*,*,#92,.F.);
#21=ORIENTED_EDGE('',*,*,#93,.F.);
#22=ORIENTED_EDGE('',*,*,#94,.T.);
#23=ORIENTED_EDGE('',*,*,#95,.T.);
#24=ORIENTED_EDGE('',*,*,#96,.T.);
#25=ORIENTED_EDGE('',*,*,#97,.F.);
#26=ORIENTED_EDGE('',*,*,#98,.F.);
#27=ORIENTED_EDGE('',*,*,#93,.T.);
#28=ORIENTED_EDGE('',*,*,#99,.F.);
#29=ORIENTED_EDGE('',*,*,#95,.F.);
#30=ORIENTED_EDGE('',*,*,#100,.T.);
#31=ORIENTED_EDGE('',*,*,#101,.T.);
#32=ORIENTED_EDGE('',*,*,#94,.F.);
#33=ORIENTED_EDGE('',*,*,#98,.T.);
#34=ORIENTED_EDGE('',*,*,#102,.T.);
#35=ORIENTED_EDGE('',*,*,#103,.F.);
#36=ORIENTED_EDGE('',*,*,#84,.T.);
#37=ORIENTED_EDGE('',*,*,#104,.T.);
#38=ORIENTED_EDGE('',*,*,#105,.T.);
#39=ORIENTED_EDGE('',*,*,#106,.F.);
#40=ORIENTED_EDGE('',*,*,#88,.T.);
#41=ORIENTED_EDGE('',*,*,#107,.T.);
#42=ORIENTED_EDGE('',*,*,#108,.T.);
#43=ORIENTED_EDGE('',*,*,#100,.F.);
#44=ORIENTED_EDGE('',*,*,#92,.T.);
#45=ORIENTED_EDGE('',*,*,#99,.T.);
#46=ORIENTED_EDGE('',*,*,#109,.F.);
#47=ORIENTED_EDGE('',*,*,#110,.F.);
#48=ORIENTED_EDGE('',*,*,#90,.F.);
#49=ORIENTED_EDGE('',*,*,#111,.T.);
#50=ORIENTED_EDGE('',*,*,#112,.F.);
#51=ORIENTED_EDGE('',*,*,#113,.F.);
#52=ORIENTED_EDGE('',*,*,#86,.F.);
#53=ORIENTED_EDGE('',*,*,#114,.T.);
#54=ORIENTED_EDGE('',*,*,#115,.F.);
#55=ORIENTED_EDGE('',*,*,#96,.F.);
#56=ORIENTED_EDGE('',*,*,#110,.T.);
#57=ORIENTED_EDGE('',*,*,#116,.F.);
#58=ORIENTED_EDGE('',*,*,#107,.F.);
#59=ORIENTED_EDGE('',*,*,#91,.T.);
#60=ORIENTED_EDGE('',*,*,#109,.T.);
#61=ORIENTED_EDGE('',*,*,#101,.F.);
#62=ORIENTED_EDGE('',*,*,#108,.F.);
#63=ORIENTED_EDGE('',*,*,#116,.T.);
#64=ORIENTED_EDGE('',*,*,#113,.T.);
#65=ORIENTED_EDGE('',*,*,#117,.F.);
#66=ORIENTED_EDGE('',*,*,#104,.F.);
#67=ORIENTED_EDGE('',*,*,#87,.T.);
#68=ORIENTED_EDGE('',*,*,#112,.T.);
#69=ORIENTED_EDGE('',*,*,#118,.F.);
#70=ORIENTED_EDGE('',*,*,#105,.F.);
#71=ORIENTED_EDGE('',*,*,#117,.T.);
#72=ORIENTED_EDGE('',*,*,#111,.F.);
#73=ORIENTED_EDGE('',*,*,#89,.F.);
#74=ORIENTED_EDGE('',*,*,#106,.T.);
#75=ORIENTED_EDGE('',*,*,#118,.T.);
#76=ORIENTED_EDGE('',*,*,#115,.T.);
#77=ORIENTED_EDGE('',*,*,#119,.F.);
#78=ORIENTED_EDGE('',*,*,#102,.F.);
#79=ORIENTED_EDGE('',*,*,#97,.T.);
#80=ORIENTED_EDGE('',*,*,#114,.F.);
#81=ORIENTED_EDGE('',*,*,#85,.F.);
#82=ORIENTED_EDGE('',*,*,#103,.T.);
#83=ORIENTED_EDGE('',*,*,#119,.T.);
#84=EDGE_CURVE('',#120,#121,#144,.T.);
#85=EDGE_CURVE('',#120,#122,#145,.T.);
#86=EDGE_CURVE('',#122,#123,#146,.T.);
#87=EDGE_CURVE('',#121,#123,#147,.T.);
#88=EDGE_CURVE('',#124,#125,#148,.T.);
#89=EDGE_CURVE('',#124,#126,#149,.T.);
#90=EDGE_CURVE('',#126,#127,#150,.T.);
#91=EDGE_CURVE('',#125,#127,#151,.T.);
#92=EDGE_CURVE('',#128,#129,#152,.T.);
#93=EDGE_CURVE('',#130,#128,#153,.T.);
#94=EDGE_CURVE('',#130,#131,#154,.T.);
#95=EDGE_CURVE('',#131,#129,#155,.T.);
#96=EDGE_CURVE('',#128,#132,#156,.T.);
#97=EDGE_CURVE('',#133,#132,#157,.T.);
#98=EDGE_CURVE('',#130,#133,#158,.T.);
#99=EDGE_CURVE('',#129,#134,#159,.T.);
#100=EDGE_CURVE('',#131,#135,#160,.T.);
#101=EDGE_CURVE('',#135,#134,#161,.T.);
#102=EDGE_CURVE('',#133,#136,#162,.T.);
#103=EDGE_CURVE('',#120,#136,#163,.T.);
#104=EDGE_CURVE('',#121,#137,#164,.T.);
#105=EDGE_CURVE('',#137,#138,#165,.T.);
#106=EDGE_CURVE('',#124,#138,#166,.T.);
#107=EDGE_CURVE('',#125,#139,#167,.T.);
#108=EDGE_CURVE('',#139,#135,#168,.T.);
#109=EDGE_CURVE('',#140,#134,#169,.T.);
#110=EDGE_CURVE('',#127,#140,#170,.T.);
#111=EDGE_CURVE('',#126,#141,#171,.T.);
#112=EDGE_CURVE('',#142,#141,#172,.T.);
#113=EDGE_CURVE('',#123,#142,#173,.T.);
#114=EDGE_CURVE('',#122,#143,#174,.T.);
#115=EDGE_CURVE('',#132,#143,#175,.T.);
#116=EDGE_CURVE('',#139,#140,#176,.T.);
#117=EDGE_CURVE('',#137,#142,#177,.T.);
#118=EDGE_CURVE('',#138,#141,#178,.T.);
#119=EDGE_CURVE('',#136,#143,#179,.T.);
#120=VERTEX_POINT('',#368);
#121=VERTEX_POINT('',#369);
#122=VERTEX_POINT('',#371);
#123=VERTEX_POINT('',#373);
#124=VERTEX_POINT('',#377);
#125=VERTEX_POINT('',#378);
#126=VERTEX_POINT('',#380);
#127=VERTEX_POINT('',#382);
#128=VERTEX_POINT('',#386);
#129=VERTEX_POINT('',#387);
#130=VERTEX_POINT('',#389);
#131=VERTEX_POINT('',#391);
#132=VERTEX_POINT('',#395);
#133=VERTEX_POINT('',#397);
#134=VERTEX_POINT('',#401);
#135=VERTEX_POINT('',#403);
#136=VERTEX_POINT('',#407);
#137=VERTEX_POINT('',#410);
#138=VERTEX_POINT('',#412);
#139=VERTEX_POINT('',#415);
#140=VERTEX_POINT('',#419);
#141=VERTEX_POINT('',#422);
#142=VERTEX_POINT('',#424);
#143=VERTEX_POINT('',#427);
#144=LINE('',#367,#180);
#145=LINE('',#370,#181);
#146=LINE('',#372,#182);
#147=LINE('',#374,#183);
#148=LINE('',#376,#184);
#149=LINE('',#379,#185);
#150=LINE('',#381,#186);
#151=LINE('',#383,#187);
#152=LINE('',#385,#188);
#153=LINE('',#388,#189);
#154=LINE('',#390,#190);
#155=LINE('',#392,#191);
#156=LINE('',#394,#192);
#157=LINE('',#396,#193);
#158=LINE('',#398,#194);
#159=LINE('',#400,#195);
#160=LINE('',#402,#196);
#161=LINE('',#404,#197);
#162=LINE('',#406,#198);
#163=LINE('',#408,#199);
#164=LINE('',#409,#200);
#165=LINE('',#411,#201);
#166=LINE('',#413,#202);
#167=LINE('',#414,#203);
#168=LINE('',#416,#204);
#169=LINE('',#418,#205);
#170=LINE('',#420,#206);
#171=LINE('',#421,#207);
#172=LINE('',#423,#208);
#173=LINE('',#425,#209);
#174=LINE('',#426,#210);
#175=LINE('',#428,#211);
#176=LINE('',#430,#212);
#177=LINE('',#433,#213);
#178=LINE('',#435,#214);
#179=LINE('',#438,#215);
#180=VECTOR('',#303,1.);
#181=VECTOR('',#304,1.);
#182=VECTOR('',#305,1.);
#183=VECTOR('',#306,1.);
#184=VECTOR('',#309,1.);
#185=VECTOR('',#310,1.);
#186=VECTOR('',#311,1.);
#187=VECTOR('',#312,1.);
#188=VECTOR('',#315,1.);
#189=VECTOR('',#316,1.);
#190=VECTOR('',#317,1.);
#191=VECTOR('',#318,1.);
#192=VECTOR('',#321,1.);
#193=VECTOR('',#322,1.);
#194=VECTOR('',#323,1.);
#195=VECTOR('',#326,1.);
#196=VECTOR('',#327,1.);
#197=VECTOR('',#328,1.);
#198=VECTOR('',#331,1.);
#199=VECTOR('',#332,1.);
#200=VECTOR('',#333,1.);
#201=VECTOR('',#334,1.);
#202=VECTOR('',#335,1.);
#203=VECTOR('',#336,1.);
#204=VECTOR('',#337,1.);
#205=VECTOR('',#340,1.);
#206=VECTOR('',#341,1.);
#207=VECTOR('',#342,1.);
#208=VECTOR('',#343,1.);
#209=VECTOR('',#344,1.);
#210=VECTOR('',#345,1.);
#211=VECTOR('',#346,1.);
#212=VECTOR('',#349,1.);
#213=VECTOR('',#354,1.);
#214=VECTOR('',#357,1.);
#215=VECTOR('',#362,1.);
#216=EDGE_LOOP('',(#12,#13,#14,#15));
#217=EDGE_LOOP('',(#16,#17,#18,#19));
#218=EDGE_LOOP('',(#20,#21,#22,#23));
#219=EDGE_LOOP('',(#24,#25,#26,#27));
#220=EDGE_LOOP('',(#28,#29,#30,#31));
#221=EDGE_LOOP('',(#32,#33,#34,#35,#36,#37,#38,#39,#40,#41,#42,#43));
#222=EDGE_LOOP('',(#44,#45,#46,#47,#48,#49,#50,#51,#52,#53,#54,#55));
#223=EDGE_LOOP('',(#56,#57,#58,#59));
#224=EDGE_LOOP('',(#60,#61,#62,#63));
#225=EDGE_LOOP('',(#64,#65,#66,#67));
#226=EDGE_LOOP('',(#68,#69,#70,#71));
#227=EDGE_LOOP('',(#72,#73,#74,#75));
#228=EDGE_LOOP('',(#76,#77,#78,#79));
#229=EDGE_LOOP('',(#80,#81,#82,#83));
#230=FACE_BOUND('',#216,.T.);
#231=FACE_BOUND('',#217,.T.);
#232=FACE_BOUND('',#218,.T.);
#233=FACE_BOUND('',#219,.T.);
#234=FACE_BOUND('',#220,.T.);
#235=FACE_BOUND('',#221,.T.);
#236=FACE_BOUND('',#222,.T.);
#237=FACE_BOUND('',#223,.T.);
#238=FACE_BOUND('',#224,.T.);
#239=FACE_BOUND('',#225,.T.);
#240=FACE_BOUND('',#226,.T.);
#241=FACE_BOUND('',#227,.T.);
#242=FACE_BOUND('',#228,.T.);
#243=FACE_BOUND('',#229,.T.);
#244=PLANE('',#285);
#245=PLANE('',#286);
#246=PLANE('',#287);
#247=PLANE('',#288);
#248=PLANE('',#289);
#249=PLANE('',#290);
#250=PLANE('',#291);
#251=PLANE('',#292);
#252=PLANE('',#293);
#253=PLANE('',#294);
#254=PLANE('',#295);
#255=PLANE('',#296);
#256=PLANE('',#297);
#257=PLANE('',#298);
#258=ADVANCED_FACE('',(#230),#244,.F.);
#259=ADVANCED_FACE('',(#231),#245,.F.);
#260=ADVANCED_FACE('',(#232),#246,.T.);
#261=ADVANCED_FACE('',(#233),#247,.F.);
#262=ADVANCED_FACE('',(#234),#248,.T.);
#263=ADVANCED_FACE('',(#235),#249,.T.);
#264=ADVANCED_FACE('',(#236),#250,.F.);
#265=ADVANCED_FACE('',(#237),#251,.F.);
#266=ADVANCED_FACE('',(#238),#252,.F.);
#267=ADVANCED_FACE('',(#239),#253,.F.);
#268=ADVANCED_FACE('',(#240),#254,.F.);
#269=ADVANCED_FACE('',(#241),#255,.T.);
#270=ADVANCED_FACE('',(#242),#256,.F.);
#271=ADVANCED_FACE('',(#243),#257,.T.);
#272=CLOSED_SHELL('',(#258,#259,#260,#261,#262,#263,#264,#265,#266,#267,
#268,#269,#270,#271));
#273=STYLED_ITEM('',(#274),#281);
#274=PRESENTATION_STYLE_ASSIGNMENT((#275));
#275=SURFACE_STYLE_USAGE(.BOTH.,#276);
#276=SURFACE_SIDE_STYLE('',(#277));
#277=SURFACE_STYLE_FILL_AREA(#278);
#278=FILL_AREA_STYLE('',(#279));
#279=FILL_AREA_STYLE_COLOUR('',#280);
#280=COLOUR_RGB('',0.96078431372549,0.901960784313726,0.862745098039216);
#281=MANIFOLD_SOLID_BREP('Part 3',#272);
#282=SHAPE_DEFINITION_REPRESENTATION(#446,#283);
#283=SHAPE_REPRESENTATION('Part 3',(#284),#441);
#284=AXIS2_PLACEMENT_3D('',#365,#299,#300);
#285=AXIS2_PLACEMENT_3D('',#366,#301,#302);
#286=AXIS2_PLACEMENT_3D('',#375,#307,#308);
#287=AXIS2_PLACEMENT_3D('',#384,#313,#314);
#288=AXIS2_PLACEMENT_3D('',#393,#319,#320);
#289=AXIS2_PLACEMENT_3D('',#399,#324,#325);
#290=AXIS2_PLACEMENT_3D('',#405,#329,#330);
#291=AXIS2_PLACEMENT_3D('',#417,#338,#339);
#292=AXIS2_PLACEMENT_3D('',#429,#347,#348);
#293=AXIS2_PLACEMENT_3D('',#431,#350,#351);
#294=AXIS2_PLACEMENT_3D('',#432,#352,#353);
#295=AXIS2_PLACEMENT_3D('',#434,#355,#356);
#296=AXIS2_PLACEMENT_3D('',#436,#358,#359);
#297=AXIS2_PLACEMENT_3D('',#437,#360,#361);
#298=AXIS2_PLACEMENT_3D('',#439,#363,#364);
#299=DIRECTION('',(0.,0.,1.));
#300=DIRECTION('',(1.,0.,0.));
#301=DIRECTION('',(0.,0.,1.));
#302=DIRECTION('',(1.,0.,0.));
#303=DIRECTION('',(1.,0.,0.));
#304=DIRECTION('',(0.,1.,0.));
#305=DIRECTION('',(1.,0.,0.));
#306=DIRECTION('',(0.,1.,0.));
#307=DIRECTION('',(0.,0.,1.));
#308=DIRECTION('',(1.,0.,0.));
#309=DIRECTION('',(1.,0.,0.));
#310=DIRECTION('',(0.,1.,0.));
#311=DIRECTION('',(1.,0.,0.));
#312=DIRECTION('',(0.,1.,0.));
#313=DIRECTION('',(0.,0.,1.));
#314=DIRECTION('',(1.,0.,0.));
#315=DIRECTION('',(1.,0.,0.));
#316=DIRECTION('',(0.,1.,0.));
#317=DIRECTION('',(1.,0.,0.));
#318=DIRECTION('',(0.,1.,0.));
#319=DIRECTION('',(1.,0.,0.));
#320=DIRECTION('',(0.,0.,-1.));
#321=DIRECTION('',(0.,0.,-1.));
#322=DIRECTION('',(0.,1.,0.));
#323=DIRECTION('',(0.,0.,-1.));
#324=DIRECTION('',(1.,0.,0.));
#325=DIRECTION('',(0.,0.,-1.));
#326=DIRECTION('',(0.,0.,-1.));
#327=DIRECTION('',(0.,0.,-1.));
#328=DIRECTION('',(0.,1.,0.));
#329=DIRECTION('',(0.,-1.,0.));
#330=DIRECTION('',(1.,0.,0.));
#331=DIRECTION('',(1.,0.,0.));
#332=DIRECTION('',(0.,0.,-1.));
#333=DIRECTION('',(0.,0.,-1.));
#334=DIRECTION('',(1.,0.,0.));
#335=DIRECTION('',(0.,0.,-1.));
#336=DIRECTION('',(0.,0.,-1.));
#337=DIRECTION('',(1.,0.,0.));
#338=DIRECTION('',(0.,-1.,0.));
#339=DIRECTION('',(1.,0.,0.));
#340=DIRECTION('',(1.,0.,0.));
#341=DIRECTION('',(0.,0.,-1.));
#342=DIRECTION('',(0.,0.,-1.));
#343=DIRECTION('',(1.,0.,0.));
#344=DIRECTION('',(0.,0.,-1.));
#345=DIRECTION('',(0.,0.,-1.));
#346=DIRECTION('',(1.,0.,0.));
#347=DIRECTION('',(1.,0.,0.));
#348=DIRECTION('',(0.,0.,-1.));
#349=DIRECTION('',(0.,1.,0.));
#350=DIRECTION('',(0.,0.,1.));
#351=DIRECTION('',(1.,0.,0.));
#352=DIRECTION('',(1.,0.,0.));
#353=DIRECTION('',(0.,0.,-1.));
#354=DIRECTION('',(0.,1.,0.));
#355=DIRECTION('',(0.,0.,1.));
#356=DIRECTION('',(1.,0.,0.));
#357=DIRECTION('',(0.,1.,0.));
#358=DIRECTION('',(1.,0.,0.));
#359=DIRECTION('',(0.,0.,-1.));
#360=DIRECTION('',(0.,0.,1.));
#361=DIRECTION('',(1.,0.,0.));
#362=DIRECTION('',(0.,1.,0.));
#363=DIRECTION('',(1.,0.,0.));
#364=DIRECTION('',(0.,0.,-1.));
#365=CARTESIAN_POINT('',(0.,0.,0.));
#366=CARTESIAN_POINT('',(-0.05175,-0.003,-0.03375));
#367=CARTESIAN_POINT('',(-0.05175,-0.003,-0.03375));
#368=CARTESIAN_POINT('',(-0.05875,-0.003,-0.03375));
#369=CARTESIAN_POINT('',(-0.05675,-0.003,-0.03375));
#370=CARTESIAN_POINT('',(-0.05875,-0.003,-0.03375));
#371=CARTESIAN_POINT('',(-0.05875,0.,-0.03375));
#372=CARTESIAN_POINT('',(-0.05175,0.,-0.03375));
#373=CARTESIAN_POINT('',(-0.05675,0.,-0.03375));
#374=CARTESIAN_POINT('',(-0.05675,-0.003,-0.03375));
#375=CARTESIAN_POINT('',(-0.05175,-0.003,-0.03375));
#376=CARTESIAN_POINT('',(-0.05175,-0.003,-0.03375));
#377=CARTESIAN_POINT('',(-0.04675,-0.003,-0.03375));
#378=CARTESIAN_POINT('',(-0.04475,-0.003,-0.03375));
#379=CARTESIAN_POINT('',(-0.04675,-0.003,-0.03375));
#380=CARTESIAN_POINT('',(-0.04675,0.,-0.03375));
#381=CARTESIAN_POINT('',(-0.05175,0.,-0.03375));
#382=CARTESIAN_POINT('',(-0.04475,0.,-0.03375));
#383=CARTESIAN_POINT('',(-0.04475,-0.003,-0.03375));
#384=CARTESIAN_POINT('',(-0.05175,-0.003,-0.02875));
#385=CARTESIAN_POINT('',(-0.05175,0.,-0.02875));
#386=CARTESIAN_POINT('',(-0.06875,0.,-0.02875));
#387=CARTESIAN_POINT('',(-0.03475,0.,-0.02875));
#388=CARTESIAN_POINT('',(-0.06875,-0.003,-0.02875));
#389=CARTESIAN_POINT('',(-0.06875,-0.003,-0.02875));
#390=CARTESIAN_POINT('',(-0.05175,-0.003,-0.02875));
#391=CARTESIAN_POINT('',(-0.03475,-0.003,-0.02875));
#392=CARTESIAN_POINT('',(-0.03475,-0.003,-0.02875));
#393=CARTESIAN_POINT('',(-0.06875,-0.003,-0.03125));
#394=CARTESIAN_POINT('',(-0.06875,0.,-0.03125));
#395=CARTESIAN_POINT('',(-0.06875,0.,-0.06875));
#396=CARTESIAN_POINT('',(-0.06875,-0.003,-0.06875));
#397=CARTESIAN_POINT('',(-0.06875,-0.003,-0.06875));
#398=CARTESIAN_POINT('',(-0.06875,-0.003,-0.03125));
#399=CARTESIAN_POINT('',(-0.03475,-0.003,-0.03125));
#400=CARTESIAN_POINT('',(-0.03475,0.,-0.03125));
#401=CARTESIAN_POINT('',(-0.03475,0.,-0.06875));
#402=CARTESIAN_POINT('',(-0.03475,-0.003,-0.03125));
#403=CARTESIAN_POINT('',(-0.03475,-0.003,-0.06875));
#404=CARTESIAN_POINT('',(-0.03475,-0.003,-0.06875));
#405=CARTESIAN_POINT('',(-0.05175,-0.003,-0.03125));
#406=CARTESIAN_POINT('',(-0.06375,-0.003,-0.06875));
#407=CARTESIAN_POINT('',(-0.05875,-0.003,-0.06875));
#408=CARTESIAN_POINT('',(-0.05875,-0.003,-0.05125));
#409=CARTESIAN_POINT('',(-0.05675,-0.003,-0.05125));
#410=CARTESIAN_POINT('',(-0.05675,-0.003,-0.06875));
#411=CARTESIAN_POINT('',(-0.05175,-0.003,-0.06875));
#412=CARTESIAN_POINT('',(-0.04675,-0.003,-0.06875));
#413=CARTESIAN_POINT('',(-0.04675,-0.003,-0.05125));
#414=CARTESIAN_POINT('',(-0.04475,-0.003,-0.05125));
#415=CARTESIAN_POINT('',(-0.04475,-0.003,-0.06875));
#416=CARTESIAN_POINT('',(-0.03975,-0.003,-0.06875));
#417=CARTESIAN_POINT('',(-0.05175,0.,-0.03125));
#418=CARTESIAN_POINT('',(-0.03975,0.,-0.06875));
#419=CARTESIAN_POINT('',(-0.04475,0.,-0.06875));
#420=CARTESIAN_POINT('',(-0.04475,0.,-0.05125));
#421=CARTESIAN_POINT('',(-0.04675,0.,-0.05125));
#422=CARTESIAN_POINT('',(-0.04675,0.,-0.06875));
#423=CARTESIAN_POINT('',(-0.05175,0.,-0.06875));
#424=CARTESIAN_POINT('',(-0.05675,0.,-0.06875));
#425=CARTESIAN_POINT('',(-0.05675,0.,-0.05125));
#426=CARTESIAN_POINT('',(-0.05875,0.,-0.05125));
#427=CARTESIAN_POINT('',(-0.05875,0.,-0.06875));
#428=CARTESIAN_POINT('',(-0.06375,0.,-0.06875));
#429=CARTESIAN_POINT('',(-0.04475,-0.003,-0.05125));
#430=CARTESIAN_POINT('',(-0.04475,-0.003,-0.06875));
#431=CARTESIAN_POINT('',(-0.03975,-0.003,-0.06875));
#432=CARTESIAN_POINT('',(-0.05675,-0.003,-0.05125));
#433=CARTESIAN_POINT('',(-0.05675,-0.003,-0.06875));
#434=CARTESIAN_POINT('',(-0.05175,-0.003,-0.06875));
#435=CARTESIAN_POINT('',(-0.04675,-0.003,-0.06875));
#436=CARTESIAN_POINT('',(-0.04675,-0.003,-0.05125));
#437=CARTESIAN_POINT('',(-0.06375,-0.003,-0.06875));
#438=CARTESIAN_POINT('',(-0.05875,-0.003,-0.06875));
#439=CARTESIAN_POINT('',(-0.05875,-0.003,-0.05125));
#440=MECHANICAL_DESIGN_GEOMETRIC_PRESENTATION_REPRESENTATION('',(#273),
#441);
#441=(
GEOMETRIC_REPRESENTATION_CONTEXT(3)
GLOBAL_UNCERTAINTY_ASSIGNED_CONTEXT((#442))
GLOBAL_UNIT_ASSIGNED_CONTEXT((#445,#444,#443))
REPRESENTATION_CONTEXT('Part 3','TOP_LEVEL_ASSEMBLY_PART')
);
#442=UNCERTAINTY_MEASURE_WITH_UNIT(LENGTH_MEASURE(1.E-8),#445,
'DISTANCE_ACCURACY_VALUE','Maximum Tolerance applied to model');
#443=(
NAMED_UNIT(*)
SI_UNIT($,.STERADIAN.)
SOLID_ANGLE_UNIT()
);
#444=(
NAMED_UNIT(*)
PLANE_ANGLE_UNIT()
SI_UNIT($,.RADIAN.)
);
#445=(
LENGTH_UNIT()
NAMED_UNIT(*)
SI_UNIT($,.METRE.)
);
#446=PRODUCT_DEFINITION_SHAPE('','',#447);
#447=PRODUCT_DEFINITION('','',#449,#448);
#448=PRODUCT_DEFINITION_CONTEXT('',#455,'design');
#449=PRODUCT_DEFINITION_FORMATION_WITH_SPECIFIED_SOURCE('','',#451,
 .NOT_KNOWN.);
#450=PRODUCT_RELATED_PRODUCT_CATEGORY('','',(#451));
#451=PRODUCT('Part 3','Part 3','Part 3',(#453));
#452=PRODUCT_CATEGORY('','');
#453=PRODUCT_CONTEXT('',#455,'mechanical');
#454=APPLICATION_PROTOCOL_DEFINITION('international standard',
'ap242_managed_model_based_3d_engineering',2020,#455);
#455=APPLICATION_CONTEXT('managed model based 3d engineering');
ENDSEC;
END-ISO-10303-21;
