ISO-10303-21;
HEADER;
/* Generated by software containing ST-Developer
 * from STEP Tools, Inc. (www.steptools.com) 
 */
/* OPTION: using custom renumber hook */

FILE_DESCRIPTION(
/* description */ ('STEP AP242 Edition 2',
'CAx-IF Rec.Pracs.---Representation and Presentation of Product Manufa
cturing Information (PMI)---4.0---2014-10-13',
'CAx-IF Rec.Pracs.---3D Tessellated Geometry---0.4---2014-09-14','2;1',
'CAx-IF Rec.Pracs.---User Defined Attributes---1.5---2016-08-15'),
/* implementation_level */ '2;1');

FILE_NAME(
/* name */ 'desk+chair - Part 2',
/* time_stamp */ '2026-08-29T04:48:14Z',
/* author */ (''),
/* organization */ (''),
/* preprocessor_version */ 'ST-DEVELOPER v20',
/* originating_system */ 'ONSHAPE BY PTC INC, 1.220',
/* authorisation */ '  ');

FILE_SCHEMA (('AP242_MANAGED_MODEL_BASED_3D_ENGINEERING_MIM_LF { 1 0 10303 442 3 1 4 }'));
ENDSEC;

DATA;
#10=SHAPE_REPRESENTATION_RELATIONSHIP('','',#1031,#11);
#11=ADVANCED_BREP_SHAPE_REPRESENTATION('',(#1029),#1616);
#12=PLANE('',#1039);
#13=PLANE('',#1040);
#14=PLANE('',#1041);
#15=PLANE('',#1042);
#16=PLANE('',#1043);
#17=PLANE('',#1044);
#18=PLANE('',#1045);
#19=PLANE('',#1046);
#20=PLANE('',#1047);
#21=PLANE('',#1048);
#22=PLANE('',#1049);
#23=PLANE('',#1050);
#24=PLANE('',#1051);
#25=PLANE('',#1052);
#26=PLANE('',#1053);
#27=PLANE('',#1054);
#28=PLANE('',#1055);
#29=PLANE('',#1056);
#30=PLANE('',#1057);
#31=PLANE('',#1058);
#32=PLANE('',#1059);
#33=PLANE('',#1060);
#34=PLANE('',#1061);
#35=PLANE('',#1062);
#36=PLANE('',#1063);
#37=PLANE('',#1064);
#38=PLANE('',#1065);
#39=PLANE('',#1066);
#40=PLANE('',#1067);
#41=PLANE('',#1068);
#42=PLANE('',#1069);
#43=PLANE('',#1070);
#44=PLANE('',#1071);
#45=PLANE('',#1072);
#46=PLANE('',#1073);
#47=PLANE('',#1074);
#48=PLANE('',#1075);
#49=PLANE('',#1076);
#50=PLANE('',#1077);
#51=PLANE('',#1078);
#52=PLANE('',#1079);
#53=PLANE('',#1080);
#54=PLANE('',#1081);
#55=PLANE('',#1082);
#56=PLANE('',#1083);
#57=PLANE('',#1084);
#58=PLANE('',#1085);
#59=OVER_RIDING_STYLED_ITEM('',(#1016),#966,#1014);
#60=LINE('',#1336,#197);
#61=LINE('',#1340,#198);
#62=LINE('',#1345,#199);
#63=LINE('',#1349,#200);
#64=LINE('',#1351,#201);
#65=LINE('',#1352,#202);
#66=LINE('',#1354,#203);
#67=LINE('',#1356,#204);
#68=LINE('',#1358,#205);
#69=LINE('',#1360,#206);
#70=LINE('',#1362,#207);
#71=LINE('',#1364,#208);
#72=LINE('',#1366,#209);
#73=LINE('',#1368,#210);
#74=LINE('',#1370,#211);
#75=LINE('',#1372,#212);
#76=LINE('',#1374,#213);
#77=LINE('',#1376,#214);
#78=LINE('',#1378,#215);
#79=LINE('',#1380,#216);
#80=LINE('',#1382,#217);
#81=LINE('',#1383,#218);
#82=LINE('',#1385,#219);
#83=LINE('',#1387,#220);
#84=LINE('',#1388,#221);
#85=LINE('',#1391,#222);
#86=LINE('',#1393,#223);
#87=LINE('',#1395,#224);
#88=LINE('',#1397,#225);
#89=LINE('',#1399,#226);
#90=LINE('',#1401,#227);
#91=LINE('',#1403,#228);
#92=LINE('',#1405,#229);
#93=LINE('',#1407,#230);
#94=LINE('',#1409,#231);
#95=LINE('',#1411,#232);
#96=LINE('',#1413,#233);
#97=LINE('',#1415,#234);
#98=LINE('',#1417,#235);
#99=LINE('',#1418,#236);
#100=LINE('',#1421,#237);
#101=LINE('',#1423,#238);
#102=LINE('',#1425,#239);
#103=LINE('',#1427,#240);
#104=LINE('',#1429,#241);
#105=LINE('',#1431,#242);
#106=LINE('',#1433,#243);
#107=LINE('',#1435,#244);
#108=LINE('',#1437,#245);
#109=LINE('',#1439,#246);
#110=LINE('',#1441,#247);
#111=LINE('',#1442,#248);
#112=LINE('',#1445,#249);
#113=LINE('',#1448,#250);
#114=LINE('',#1450,#251);
#115=LINE('',#1452,#252);
#116=LINE('',#1454,#253);
#117=LINE('',#1457,#254);
#118=LINE('',#1459,#255);
#119=LINE('',#1461,#256);
#120=LINE('',#1463,#257);
#121=LINE('',#1464,#258);
#122=LINE('',#1466,#259);
#123=LINE('',#1468,#260);
#124=LINE('',#1470,#261);
#125=LINE('',#1473,#262);
#126=LINE('',#1475,#263);
#127=LINE('',#1477,#264);
#128=LINE('',#1479,#265);
#129=LINE('',#1482,#266);
#130=LINE('',#1484,#267);
#131=LINE('',#1486,#268);
#132=LINE('',#1488,#269);
#133=LINE('',#1489,#270);
#134=LINE('',#1491,#271);
#135=LINE('',#1493,#272);
#136=LINE('',#1495,#273);
#137=LINE('',#1497,#274);
#138=LINE('',#1499,#275);
#139=LINE('',#1501,#276);
#140=LINE('',#1503,#277);
#141=LINE('',#1506,#278);
#142=LINE('',#1508,#279);
#143=LINE('',#1510,#280);
#144=LINE('',#1511,#281);
#145=LINE('',#1514,#282);
#146=LINE('',#1516,#283);
#147=LINE('',#1518,#284);
#148=LINE('',#1520,#285);
#149=LINE('',#1522,#286);
#150=LINE('',#1524,#287);
#151=LINE('',#1526,#288);
#152=LINE('',#1528,#289);
#153=LINE('',#1530,#290);
#154=LINE('',#1532,#291);
#155=LINE('',#1533,#292);
#156=LINE('',#1535,#293);
#157=LINE('',#1537,#294);
#158=LINE('',#1539,#295);
#159=LINE('',#1541,#296);
#160=LINE('',#1543,#297);
#161=LINE('',#1545,#298);
#162=LINE('',#1547,#299);
#163=LINE('',#1549,#300);
#164=LINE('',#1551,#301);
#165=LINE('',#1553,#302);
#166=LINE('',#1555,#303);
#167=LINE('',#1556,#304);
#168=LINE('',#1558,#305);
#169=LINE('',#1561,#306);
#170=LINE('',#1563,#307);
#171=LINE('',#1565,#308);
#172=LINE('',#1567,#309);
#173=LINE('',#1568,#310);
#174=LINE('',#1569,#311);
#175=LINE('',#1571,#312);
#176=LINE('',#1573,#313);
#177=LINE('',#1574,#314);
#178=LINE('',#1576,#315);
#179=LINE('',#1579,#316);
#180=LINE('',#1581,#317);
#181=LINE('',#1583,#318);
#182=LINE('',#1584,#319);
#183=LINE('',#1586,#320);
#184=LINE('',#1588,#321);
#185=LINE('',#1590,#322);
#186=LINE('',#1592,#323);
#187=LINE('',#1594,#324);
#188=LINE('',#1595,#325);
#189=LINE('',#1596,#326);
#190=LINE('',#1599,#327);
#191=LINE('',#1602,#328);
#192=LINE('',#1605,#329);
#193=LINE('',#1608,#330);
#194=LINE('',#1609,#331);
#195=LINE('',#1611,#332);
#196=LINE('',#1612,#333);
#197=VECTOR('',#1092,1.);
#198=VECTOR('',#1095,1.);
#199=VECTOR('',#1100,1.);
#200=VECTOR('',#1103,1.);
#201=VECTOR('',#1106,1.);
#202=VECTOR('',#1107,1.);
#203=VECTOR('',#1110,1.);
#204=VECTOR('',#1111,1.);
#205=VECTOR('',#1112,1.);
#206=VECTOR('',#1113,1.);
#207=VECTOR('',#1114,1.);
#208=VECTOR('',#1115,1.);
#209=VECTOR('',#1116,1.);
#210=VECTOR('',#1117,1.);
#211=VECTOR('',#1118,1.);
#212=VECTOR('',#1119,1.);
#213=VECTOR('',#1120,1.);
#214=VECTOR('',#1121,1.);
#215=VECTOR('',#1122,1.);
#216=VECTOR('',#1123,1.);
#217=VECTOR('',#1124,1.);
#218=VECTOR('',#1125,1.);
#219=VECTOR('',#1126,1.);
#220=VECTOR('',#1127,1.);
#221=VECTOR('',#1128,1.);
#222=VECTOR('',#1129,1.);
#223=VECTOR('',#1130,1.);
#224=VECTOR('',#1131,1.);
#225=VECTOR('',#1134,1.);
#226=VECTOR('',#1135,1.);
#227=VECTOR('',#1136,1.);
#228=VECTOR('',#1139,1.);
#229=VECTOR('',#1140,1.);
#230=VECTOR('',#1141,1.);
#231=VECTOR('',#1144,1.);
#232=VECTOR('',#1145,1.);
#233=VECTOR('',#1146,1.);
#234=VECTOR('',#1147,1.);
#235=VECTOR('',#1150,1.);
#236=VECTOR('',#1151,1.);
#237=VECTOR('',#1156,1.);
#238=VECTOR('',#1159,1.);
#239=VECTOR('',#1160,1.);
#240=VECTOR('',#1161,1.);
#241=VECTOR('',#1162,1.);
#242=VECTOR('',#1163,1.);
#243=VECTOR('',#1164,1.);
#244=VECTOR('',#1165,1.);
#245=VECTOR('',#1166,1.);
#246=VECTOR('',#1167,1.);
#247=VECTOR('',#1170,1.);
#248=VECTOR('',#1171,1.);
#249=VECTOR('',#1176,1.);
#250=VECTOR('',#1177,1.);
#251=VECTOR('',#1178,1.);
#252=VECTOR('',#1179,1.);
#253=VECTOR('',#1182,1.);
#254=VECTOR('',#1183,1.);
#255=VECTOR('',#1184,1.);
#256=VECTOR('',#1185,1.);
#257=VECTOR('',#1188,1.);
#258=VECTOR('',#1189,1.);
#259=VECTOR('',#1192,1.);
#260=VECTOR('',#1195,1.);
#261=VECTOR('',#1198,1.);
#262=VECTOR('',#1199,1.);
#263=VECTOR('',#1200,1.);
#264=VECTOR('',#1201,1.);
#265=VECTOR('',#1204,1.);
#266=VECTOR('',#1205,1.);
#267=VECTOR('',#1206,1.);
#268=VECTOR('',#1207,1.);
#269=VECTOR('',#1210,1.);
#270=VECTOR('',#1211,1.);
#271=VECTOR('',#1214,1.);
#272=VECTOR('',#1217,1.);
#273=VECTOR('',#1218,1.);
#274=VECTOR('',#1219,1.);
#275=VECTOR('',#1220,1.);
#276=VECTOR('',#1221,1.);
#277=VECTOR('',#1224,1.);
#278=VECTOR('',#1225,1.);
#279=VECTOR('',#1226,1.);
#280=VECTOR('',#1227,1.);
#281=VECTOR('',#1228,1.);
#282=VECTOR('',#1229,1.);
#283=VECTOR('',#1230,1.);
#284=VECTOR('',#1231,1.);
#285=VECTOR('',#1234,1.);
#286=VECTOR('',#1235,1.);
#287=VECTOR('',#1236,1.);
#288=VECTOR('',#1239,1.);
#289=VECTOR('',#1240,1.);
#290=VECTOR('',#1241,1.);
#291=VECTOR('',#1244,1.);
#292=VECTOR('',#1245,1.);
#293=VECTOR('',#1248,1.);
#294=VECTOR('',#1249,1.);
#295=VECTOR('',#1250,1.);
#296=VECTOR('',#1253,1.);
#297=VECTOR('',#1254,1.);
#298=VECTOR('',#1255,1.);
#299=VECTOR('',#1258,1.);
#300=VECTOR('',#1259,1.);
#301=VECTOR('',#1260,1.);
#302=VECTOR('',#1261,1.);
#303=VECTOR('',#1264,1.);
#304=VECTOR('',#1265,1.);
#305=VECTOR('',#1268,1.);
#306=VECTOR('',#1273,1.);
#307=VECTOR('',#1274,1.);
#308=VECTOR('',#1275,1.);
#309=VECTOR('',#1276,1.);
#310=VECTOR('',#1277,1.);
#311=VECTOR('',#1278,1.);
#312=VECTOR('',#1281,1.);
#313=VECTOR('',#1282,1.);
#314=VECTOR('',#1283,1.);
#315=VECTOR('',#1286,1.);
#316=VECTOR('',#1287,1.);
#317=VECTOR('',#1288,1.);
#318=VECTOR('',#1289,1.);
#319=VECTOR('',#1290,1.);
#320=VECTOR('',#1291,1.);
#321=VECTOR('',#1292,1.);
#322=VECTOR('',#1295,1.);
#323=VECTOR('',#1298,1.);
#324=VECTOR('',#1299,1.);
#325=VECTOR('',#1300,1.);
#326=VECTOR('',#1301,1.);
#327=VECTOR('',#1306,1.);
#328=VECTOR('',#1311,1.);
#329=VECTOR('',#1316,1.);
#330=VECTOR('',#1321,1.);
#331=VECTOR('',#1322,1.);
#332=VECTOR('',#1325,1.);
#333=VECTOR('',#1326,1.);
#334=ORIENTED_EDGE('',*,*,#616,.F.);
#335=ORIENTED_EDGE('',*,*,#617,.F.);
#336=ORIENTED_EDGE('',*,*,#618,.T.);
#337=ORIENTED_EDGE('',*,*,#619,.T.);
#338=ORIENTED_EDGE('',*,*,#620,.T.);
#339=ORIENTED_EDGE('',*,*,#621,.F.);
#340=ORIENTED_EDGE('',*,*,#622,.F.);
#341=ORIENTED_EDGE('',*,*,#623,.T.);
#342=ORIENTED_EDGE('',*,*,#624,.F.);
#343=ORIENTED_EDGE('',*,*,#622,.T.);
#344=ORIENTED_EDGE('',*,*,#625,.F.);
#345=ORIENTED_EDGE('',*,*,#618,.F.);
#346=ORIENTED_EDGE('',*,*,#626,.T.);
#347=ORIENTED_EDGE('',*,*,#616,.T.);
#348=ORIENTED_EDGE('',*,*,#627,.F.);
#349=ORIENTED_EDGE('',*,*,#628,.T.);
#350=ORIENTED_EDGE('',*,*,#629,.T.);
#351=ORIENTED_EDGE('',*,*,#630,.F.);
#352=ORIENTED_EDGE('',*,*,#631,.T.);
#353=ORIENTED_EDGE('',*,*,#632,.T.);
#354=ORIENTED_EDGE('',*,*,#633,.F.);
#355=ORIENTED_EDGE('',*,*,#634,.F.);
#356=ORIENTED_EDGE('',*,*,#635,.T.);
#357=ORIENTED_EDGE('',*,*,#636,.F.);
#358=ORIENTED_EDGE('',*,*,#637,.F.);
#359=ORIENTED_EDGE('',*,*,#638,.F.);
#360=ORIENTED_EDGE('',*,*,#639,.F.);
#361=ORIENTED_EDGE('',*,*,#640,.T.);
#362=ORIENTED_EDGE('',*,*,#620,.F.);
#363=ORIENTED_EDGE('',*,*,#641,.T.);
#364=ORIENTED_EDGE('',*,*,#642,.T.);
#365=ORIENTED_EDGE('',*,*,#643,.F.);
#366=ORIENTED_EDGE('',*,*,#644,.F.);
#367=ORIENTED_EDGE('',*,*,#645,.T.);
#368=ORIENTED_EDGE('',*,*,#646,.T.);
#369=ORIENTED_EDGE('',*,*,#647,.F.);
#370=ORIENTED_EDGE('',*,*,#619,.F.);
#371=ORIENTED_EDGE('',*,*,#625,.T.);
#372=ORIENTED_EDGE('',*,*,#621,.T.);
#373=ORIENTED_EDGE('',*,*,#643,.T.);
#374=ORIENTED_EDGE('',*,*,#648,.F.);
#375=ORIENTED_EDGE('',*,*,#649,.F.);
#376=ORIENTED_EDGE('',*,*,#650,.T.);
#377=ORIENTED_EDGE('',*,*,#627,.T.);
#378=ORIENTED_EDGE('',*,*,#623,.F.);
#379=ORIENTED_EDGE('',*,*,#624,.T.);
#380=ORIENTED_EDGE('',*,*,#617,.T.);
#381=ORIENTED_EDGE('',*,*,#626,.F.);
#382=ORIENTED_EDGE('',*,*,#651,.T.);
#383=ORIENTED_EDGE('',*,*,#652,.T.);
#384=ORIENTED_EDGE('',*,*,#653,.F.);
#385=ORIENTED_EDGE('',*,*,#641,.F.);
#386=ORIENTED_EDGE('',*,*,#654,.T.);
#387=ORIENTED_EDGE('',*,*,#655,.T.);
#388=ORIENTED_EDGE('',*,*,#656,.F.);
#389=ORIENTED_EDGE('',*,*,#657,.F.);
#390=ORIENTED_EDGE('',*,*,#649,.T.);
#391=ORIENTED_EDGE('',*,*,#658,.F.);
#392=ORIENTED_EDGE('',*,*,#629,.F.);
#393=ORIENTED_EDGE('',*,*,#659,.T.);
#394=ORIENTED_EDGE('',*,*,#656,.T.);
#395=ORIENTED_EDGE('',*,*,#650,.F.);
#396=ORIENTED_EDGE('',*,*,#657,.T.);
#397=ORIENTED_EDGE('',*,*,#659,.F.);
#398=ORIENTED_EDGE('',*,*,#628,.F.);
#399=ORIENTED_EDGE('',*,*,#655,.F.);
#400=ORIENTED_EDGE('',*,*,#660,.T.);
#401=ORIENTED_EDGE('',*,*,#630,.T.);
#402=ORIENTED_EDGE('',*,*,#658,.T.);
#403=ORIENTED_EDGE('',*,*,#639,.T.);
#404=ORIENTED_EDGE('',*,*,#661,.F.);
#405=ORIENTED_EDGE('',*,*,#662,.T.);
#406=ORIENTED_EDGE('',*,*,#663,.F.);
#407=ORIENTED_EDGE('',*,*,#664,.F.);
#408=ORIENTED_EDGE('',*,*,#665,.F.);
#409=ORIENTED_EDGE('',*,*,#666,.T.);
#410=ORIENTED_EDGE('',*,*,#667,.T.);
#411=ORIENTED_EDGE('',*,*,#668,.F.);
#412=ORIENTED_EDGE('',*,*,#669,.T.);
#413=ORIENTED_EDGE('',*,*,#670,.T.);
#414=ORIENTED_EDGE('',*,*,#652,.F.);
#415=ORIENTED_EDGE('',*,*,#671,.F.);
#416=ORIENTED_EDGE('',*,*,#668,.T.);
#417=ORIENTED_EDGE('',*,*,#669,.F.);
#418=ORIENTED_EDGE('',*,*,#671,.T.);
#419=ORIENTED_EDGE('',*,*,#651,.F.);
#420=ORIENTED_EDGE('',*,*,#640,.F.);
#421=ORIENTED_EDGE('',*,*,#672,.T.);
#422=ORIENTED_EDGE('',*,*,#673,.F.);
#423=ORIENTED_EDGE('',*,*,#674,.F.);
#424=ORIENTED_EDGE('',*,*,#675,.T.);
#425=ORIENTED_EDGE('',*,*,#676,.F.);
#426=ORIENTED_EDGE('',*,*,#677,.F.);
#427=ORIENTED_EDGE('',*,*,#678,.T.);
#428=ORIENTED_EDGE('',*,*,#679,.T.);
#429=ORIENTED_EDGE('',*,*,#680,.T.);
#430=ORIENTED_EDGE('',*,*,#679,.F.);
#431=ORIENTED_EDGE('',*,*,#681,.F.);
#432=ORIENTED_EDGE('',*,*,#673,.T.);
#433=ORIENTED_EDGE('',*,*,#674,.T.);
#434=ORIENTED_EDGE('',*,*,#681,.T.);
#435=ORIENTED_EDGE('',*,*,#678,.F.);
#436=ORIENTED_EDGE('',*,*,#682,.T.);
#437=ORIENTED_EDGE('',*,*,#672,.F.);
#438=ORIENTED_EDGE('',*,*,#683,.F.);
#439=ORIENTED_EDGE('',*,*,#676,.T.);
#440=ORIENTED_EDGE('',*,*,#680,.F.);
#441=ORIENTED_EDGE('',*,*,#684,.T.);
#442=ORIENTED_EDGE('',*,*,#685,.F.);
#443=ORIENTED_EDGE('',*,*,#686,.F.);
#444=ORIENTED_EDGE('',*,*,#687,.T.);
#445=ORIENTED_EDGE('',*,*,#688,.F.);
#446=ORIENTED_EDGE('',*,*,#689,.F.);
#447=ORIENTED_EDGE('',*,*,#690,.T.);
#448=ORIENTED_EDGE('',*,*,#691,.T.);
#449=ORIENTED_EDGE('',*,*,#692,.T.);
#450=ORIENTED_EDGE('',*,*,#691,.F.);
#451=ORIENTED_EDGE('',*,*,#693,.F.);
#452=ORIENTED_EDGE('',*,*,#685,.T.);
#453=ORIENTED_EDGE('',*,*,#686,.T.);
#454=ORIENTED_EDGE('',*,*,#693,.T.);
#455=ORIENTED_EDGE('',*,*,#690,.F.);
#456=ORIENTED_EDGE('',*,*,#694,.T.);
#457=ORIENTED_EDGE('',*,*,#684,.F.);
#458=ORIENTED_EDGE('',*,*,#695,.T.);
#459=ORIENTED_EDGE('',*,*,#696,.F.);
#460=ORIENTED_EDGE('',*,*,#697,.F.);
#461=ORIENTED_EDGE('',*,*,#698,.T.);
#462=ORIENTED_EDGE('',*,*,#699,.T.);
#463=ORIENTED_EDGE('',*,*,#688,.T.);
#464=ORIENTED_EDGE('',*,*,#692,.F.);
#465=ORIENTED_EDGE('',*,*,#700,.F.);
#466=ORIENTED_EDGE('',*,*,#701,.F.);
#467=ORIENTED_EDGE('',*,*,#702,.T.);
#468=ORIENTED_EDGE('',*,*,#703,.T.);
#469=ORIENTED_EDGE('',*,*,#704,.F.);
#470=ORIENTED_EDGE('',*,*,#705,.F.);
#471=ORIENTED_EDGE('',*,*,#706,.T.);
#472=ORIENTED_EDGE('',*,*,#707,.T.);
#473=ORIENTED_EDGE('',*,*,#636,.T.);
#474=ORIENTED_EDGE('',*,*,#708,.F.);
#475=ORIENTED_EDGE('',*,*,#709,.F.);
#476=ORIENTED_EDGE('',*,*,#710,.T.);
#477=ORIENTED_EDGE('',*,*,#645,.F.);
#478=ORIENTED_EDGE('',*,*,#711,.F.);
#479=ORIENTED_EDGE('',*,*,#712,.T.);
#480=ORIENTED_EDGE('',*,*,#713,.T.);
#481=ORIENTED_EDGE('',*,*,#709,.T.);
#482=ORIENTED_EDGE('',*,*,#714,.T.);
#483=ORIENTED_EDGE('',*,*,#712,.F.);
#484=ORIENTED_EDGE('',*,*,#715,.F.);
#485=ORIENTED_EDGE('',*,*,#710,.F.);
#486=ORIENTED_EDGE('',*,*,#715,.T.);
#487=ORIENTED_EDGE('',*,*,#711,.T.);
#488=ORIENTED_EDGE('',*,*,#644,.T.);
#489=ORIENTED_EDGE('',*,*,#716,.F.);
#490=ORIENTED_EDGE('',*,*,#717,.F.);
#491=ORIENTED_EDGE('',*,*,#718,.T.);
#492=ORIENTED_EDGE('',*,*,#637,.T.);
#493=ORIENTED_EDGE('',*,*,#719,.F.);
#494=ORIENTED_EDGE('',*,*,#720,.T.);
#495=ORIENTED_EDGE('',*,*,#721,.T.);
#496=ORIENTED_EDGE('',*,*,#632,.F.);
#497=ORIENTED_EDGE('',*,*,#722,.F.);
#498=ORIENTED_EDGE('',*,*,#723,.F.);
#499=ORIENTED_EDGE('',*,*,#724,.T.);
#500=ORIENTED_EDGE('',*,*,#725,.T.);
#501=ORIENTED_EDGE('',*,*,#720,.F.);
#502=ORIENTED_EDGE('',*,*,#713,.F.);
#503=ORIENTED_EDGE('',*,*,#714,.F.);
#504=ORIENTED_EDGE('',*,*,#708,.T.);
#505=ORIENTED_EDGE('',*,*,#635,.F.);
#506=ORIENTED_EDGE('',*,*,#726,.F.);
#507=ORIENTED_EDGE('',*,*,#723,.T.);
#508=ORIENTED_EDGE('',*,*,#727,.T.);
#509=ORIENTED_EDGE('',*,*,#646,.F.);
#510=ORIENTED_EDGE('',*,*,#721,.F.);
#511=ORIENTED_EDGE('',*,*,#725,.F.);
#512=ORIENTED_EDGE('',*,*,#728,.T.);
#513=ORIENTED_EDGE('',*,*,#633,.T.);
#514=ORIENTED_EDGE('',*,*,#724,.F.);
#515=ORIENTED_EDGE('',*,*,#726,.T.);
#516=ORIENTED_EDGE('',*,*,#634,.T.);
#517=ORIENTED_EDGE('',*,*,#728,.F.);
#518=ORIENTED_EDGE('',*,*,#727,.F.);
#519=ORIENTED_EDGE('',*,*,#722,.T.);
#520=ORIENTED_EDGE('',*,*,#729,.F.);
#521=ORIENTED_EDGE('',*,*,#730,.F.);
#522=ORIENTED_EDGE('',*,*,#731,.F.);
#523=ORIENTED_EDGE('',*,*,#732,.F.);
#524=ORIENTED_EDGE('',*,*,#700,.T.);
#525=ORIENTED_EDGE('',*,*,#733,.F.);
#526=ORIENTED_EDGE('',*,*,#663,.T.);
#527=ORIENTED_EDGE('',*,*,#734,.T.);
#528=ORIENTED_EDGE('',*,*,#716,.T.);
#529=ORIENTED_EDGE('',*,*,#647,.T.);
#530=ORIENTED_EDGE('',*,*,#735,.F.);
#531=ORIENTED_EDGE('',*,*,#736,.T.);
#532=ORIENTED_EDGE('',*,*,#696,.T.);
#533=ORIENTED_EDGE('',*,*,#737,.F.);
#534=ORIENTED_EDGE('',*,*,#738,.F.);
#535=ORIENTED_EDGE('',*,*,#739,.T.);
#536=ORIENTED_EDGE('',*,*,#740,.T.);
#537=ORIENTED_EDGE('',*,*,#741,.F.);
#538=ORIENTED_EDGE('',*,*,#731,.T.);
#539=ORIENTED_EDGE('',*,*,#742,.F.);
#540=ORIENTED_EDGE('',*,*,#743,.F.);
#541=ORIENTED_EDGE('',*,*,#744,.T.);
#542=ORIENTED_EDGE('',*,*,#687,.F.);
#543=ORIENTED_EDGE('',*,*,#694,.F.);
#544=ORIENTED_EDGE('',*,*,#689,.T.);
#545=ORIENTED_EDGE('',*,*,#699,.F.);
#546=ORIENTED_EDGE('',*,*,#745,.F.);
#547=ORIENTED_EDGE('',*,*,#742,.T.);
#548=ORIENTED_EDGE('',*,*,#730,.T.);
#549=ORIENTED_EDGE('',*,*,#737,.T.);
#550=ORIENTED_EDGE('',*,*,#695,.F.);
#551=ORIENTED_EDGE('',*,*,#736,.F.);
#552=ORIENTED_EDGE('',*,*,#746,.F.);
#553=ORIENTED_EDGE('',*,*,#747,.F.);
#554=ORIENTED_EDGE('',*,*,#666,.F.);
#555=ORIENTED_EDGE('',*,*,#748,.T.);
#556=ORIENTED_EDGE('',*,*,#701,.T.);
#557=ORIENTED_EDGE('',*,*,#732,.T.);
#558=ORIENTED_EDGE('',*,*,#744,.F.);
#559=ORIENTED_EDGE('',*,*,#749,.T.);
#560=ORIENTED_EDGE('',*,*,#697,.T.);
#561=ORIENTED_EDGE('',*,*,#743,.T.);
#562=ORIENTED_EDGE('',*,*,#745,.T.);
#563=ORIENTED_EDGE('',*,*,#698,.F.);
#564=ORIENTED_EDGE('',*,*,#749,.F.);
#565=ORIENTED_EDGE('',*,*,#734,.F.);
#566=ORIENTED_EDGE('',*,*,#662,.F.);
#567=ORIENTED_EDGE('',*,*,#750,.T.);
#568=ORIENTED_EDGE('',*,*,#717,.T.);
#569=ORIENTED_EDGE('',*,*,#750,.F.);
#570=ORIENTED_EDGE('',*,*,#661,.T.);
#571=ORIENTED_EDGE('',*,*,#638,.T.);
#572=ORIENTED_EDGE('',*,*,#718,.F.);
#573=ORIENTED_EDGE('',*,*,#682,.F.);
#574=ORIENTED_EDGE('',*,*,#677,.T.);
#575=ORIENTED_EDGE('',*,*,#683,.T.);
#576=ORIENTED_EDGE('',*,*,#675,.F.);
#577=ORIENTED_EDGE('',*,*,#733,.T.);
#578=ORIENTED_EDGE('',*,*,#703,.F.);
#579=ORIENTED_EDGE('',*,*,#751,.F.);
#580=ORIENTED_EDGE('',*,*,#664,.T.);
#581=ORIENTED_EDGE('',*,*,#665,.T.);
#582=ORIENTED_EDGE('',*,*,#751,.T.);
#583=ORIENTED_EDGE('',*,*,#702,.F.);
#584=ORIENTED_EDGE('',*,*,#748,.F.);
#585=ORIENTED_EDGE('',*,*,#735,.T.);
#586=ORIENTED_EDGE('',*,*,#729,.T.);
#587=ORIENTED_EDGE('',*,*,#719,.T.);
#588=ORIENTED_EDGE('',*,*,#631,.F.);
#589=ORIENTED_EDGE('',*,*,#660,.F.);
#590=ORIENTED_EDGE('',*,*,#752,.F.);
#591=ORIENTED_EDGE('',*,*,#746,.T.);
#592=ORIENTED_EDGE('',*,*,#654,.F.);
#593=ORIENTED_EDGE('',*,*,#648,.T.);
#594=ORIENTED_EDGE('',*,*,#642,.F.);
#595=ORIENTED_EDGE('',*,*,#653,.T.);
#596=ORIENTED_EDGE('',*,*,#670,.F.);
#597=ORIENTED_EDGE('',*,*,#667,.F.);
#598=ORIENTED_EDGE('',*,*,#747,.T.);
#599=ORIENTED_EDGE('',*,*,#752,.T.);
#600=ORIENTED_EDGE('',*,*,#753,.T.);
#601=ORIENTED_EDGE('',*,*,#739,.F.);
#602=ORIENTED_EDGE('',*,*,#754,.F.);
#603=ORIENTED_EDGE('',*,*,#705,.T.);
#604=ORIENTED_EDGE('',*,*,#755,.F.);
#605=ORIENTED_EDGE('',*,*,#707,.F.);
#606=ORIENTED_EDGE('',*,*,#756,.T.);
#607=ORIENTED_EDGE('',*,*,#741,.T.);
#608=ORIENTED_EDGE('',*,*,#754,.T.);
#609=ORIENTED_EDGE('',*,*,#738,.T.);
#610=ORIENTED_EDGE('',*,*,#756,.F.);
#611=ORIENTED_EDGE('',*,*,#706,.F.);
#612=ORIENTED_EDGE('',*,*,#753,.F.);
#613=ORIENTED_EDGE('',*,*,#704,.T.);
#614=ORIENTED_EDGE('',*,*,#755,.T.);
#615=ORIENTED_EDGE('',*,*,#740,.F.);
#616=EDGE_CURVE('',#757,#758,#850,.T.);
#617=EDGE_CURVE('',#759,#757,#60,.T.);
#618=EDGE_CURVE('',#759,#760,#851,.T.);
#619=EDGE_CURVE('',#760,#758,#61,.T.);
#620=EDGE_CURVE('',#761,#762,#852,.T.);
#621=EDGE_CURVE('',#763,#762,#62,.T.);
#622=EDGE_CURVE('',#764,#763,#853,.T.);
#623=EDGE_CURVE('',#764,#761,#63,.T.);
#624=EDGE_CURVE('',#764,#759,#64,.T.);
#625=EDGE_CURVE('',#760,#763,#65,.T.);
#626=EDGE_CURVE('',#765,#757,#66,.T.);
#627=EDGE_CURVE('',#766,#758,#67,.T.);
#628=EDGE_CURVE('',#766,#767,#68,.T.);
#629=EDGE_CURVE('',#767,#768,#69,.T.);
#630=EDGE_CURVE('',#769,#768,#70,.T.);
#631=EDGE_CURVE('',#769,#770,#71,.T.);
#632=EDGE_CURVE('',#770,#771,#72,.T.);
#633=EDGE_CURVE('',#772,#771,#73,.T.);
#634=EDGE_CURVE('',#773,#772,#74,.T.);
#635=EDGE_CURVE('',#773,#774,#75,.T.);
#636=EDGE_CURVE('',#775,#774,#76,.T.);
#637=EDGE_CURVE('',#776,#775,#77,.T.);
#638=EDGE_CURVE('',#777,#776,#78,.T.);
#639=EDGE_CURVE('',#778,#777,#79,.T.);
#640=EDGE_CURVE('',#778,#765,#80,.T.);
#641=EDGE_CURVE('',#761,#779,#81,.T.);
#642=EDGE_CURVE('',#779,#780,#82,.T.);
#643=EDGE_CURVE('',#762,#780,#83,.T.);
#644=EDGE_CURVE('',#781,#782,#84,.T.);
#645=EDGE_CURVE('',#781,#783,#85,.T.);
#646=EDGE_CURVE('',#783,#784,#86,.T.);
#647=EDGE_CURVE('',#782,#784,#87,.T.);
#648=EDGE_CURVE('',#785,#780,#88,.T.);
#649=EDGE_CURVE('',#786,#785,#89,.T.);
#650=EDGE_CURVE('',#786,#766,#90,.T.);
#651=EDGE_CURVE('',#765,#787,#91,.T.);
#652=EDGE_CURVE('',#787,#788,#92,.T.);
#653=EDGE_CURVE('',#779,#788,#93,.T.);
#654=EDGE_CURVE('',#785,#789,#94,.T.);
#655=EDGE_CURVE('',#789,#790,#95,.T.);
#656=EDGE_CURVE('',#791,#790,#96,.T.);
#657=EDGE_CURVE('',#786,#791,#97,.T.);
#658=EDGE_CURVE('',#768,#790,#98,.T.);
#659=EDGE_CURVE('',#767,#791,#99,.T.);
#660=EDGE_CURVE('',#789,#769,#100,.T.);
#661=EDGE_CURVE('',#792,#777,#101,.T.);
#662=EDGE_CURVE('',#792,#793,#102,.T.);
#663=EDGE_CURVE('',#794,#793,#103,.T.);
#664=EDGE_CURVE('',#795,#794,#104,.T.);
#665=EDGE_CURVE('',#796,#795,#105,.T.);
#666=EDGE_CURVE('',#796,#797,#106,.T.);
#667=EDGE_CURVE('',#797,#798,#107,.T.);
#668=EDGE_CURVE('',#799,#798,#108,.T.);
#669=EDGE_CURVE('',#799,#778,#109,.T.);
#670=EDGE_CURVE('',#798,#788,#110,.T.);
#671=EDGE_CURVE('',#799,#787,#111,.T.);
#672=EDGE_CURVE('',#800,#801,#112,.T.);
#673=EDGE_CURVE('',#802,#801,#113,.T.);
#674=EDGE_CURVE('',#803,#802,#114,.T.);
#675=EDGE_CURVE('',#803,#800,#115,.T.);
#676=EDGE_CURVE('',#804,#805,#116,.T.);
#677=EDGE_CURVE('',#806,#804,#117,.T.);
#678=EDGE_CURVE('',#806,#807,#118,.T.);
#679=EDGE_CURVE('',#807,#805,#119,.T.);
#680=EDGE_CURVE('',#801,#805,#120,.T.);
#681=EDGE_CURVE('',#802,#807,#121,.T.);
#682=EDGE_CURVE('',#806,#803,#122,.T.);
#683=EDGE_CURVE('',#804,#800,#123,.T.);
#684=EDGE_CURVE('',#808,#809,#124,.T.);
#685=EDGE_CURVE('',#810,#809,#125,.T.);
#686=EDGE_CURVE('',#811,#810,#126,.T.);
#687=EDGE_CURVE('',#811,#808,#127,.T.);
#688=EDGE_CURVE('',#812,#813,#128,.T.);
#689=EDGE_CURVE('',#814,#812,#129,.T.);
#690=EDGE_CURVE('',#814,#815,#130,.T.);
#691=EDGE_CURVE('',#815,#813,#131,.T.);
#692=EDGE_CURVE('',#809,#813,#132,.T.);
#693=EDGE_CURVE('',#810,#815,#133,.T.);
#694=EDGE_CURVE('',#814,#811,#134,.T.);
#695=EDGE_CURVE('',#808,#816,#135,.T.);
#696=EDGE_CURVE('',#817,#816,#136,.T.);
#697=EDGE_CURVE('',#818,#817,#137,.T.);
#698=EDGE_CURVE('',#818,#819,#138,.T.);
#699=EDGE_CURVE('',#819,#812,#139,.T.);
#700=EDGE_CURVE('',#820,#821,#140,.T.);
#701=EDGE_CURVE('',#822,#820,#141,.T.);
#702=EDGE_CURVE('',#822,#823,#142,.T.);
#703=EDGE_CURVE('',#823,#821,#143,.T.);
#704=EDGE_CURVE('',#824,#825,#144,.T.);
#705=EDGE_CURVE('',#826,#824,#145,.T.);
#706=EDGE_CURVE('',#826,#827,#146,.F.);
#707=EDGE_CURVE('',#827,#825,#147,.T.);
#708=EDGE_CURVE('',#828,#774,#148,.T.);
#709=EDGE_CURVE('',#829,#828,#149,.T.);
#710=EDGE_CURVE('',#829,#775,#150,.T.);
#711=EDGE_CURVE('',#830,#781,#151,.T.);
#712=EDGE_CURVE('',#830,#831,#152,.T.);
#713=EDGE_CURVE('',#831,#783,#153,.T.);
#714=EDGE_CURVE('',#828,#831,#154,.T.);
#715=EDGE_CURVE('',#829,#830,#155,.T.);
#716=EDGE_CURVE('',#832,#782,#156,.T.);
#717=EDGE_CURVE('',#833,#832,#157,.T.);
#718=EDGE_CURVE('',#833,#776,#158,.T.);
#719=EDGE_CURVE('',#834,#770,#159,.T.);
#720=EDGE_CURVE('',#834,#835,#160,.T.);
#721=EDGE_CURVE('',#835,#771,#161,.T.);
#722=EDGE_CURVE('',#836,#834,#162,.T.);
#723=EDGE_CURVE('',#837,#836,#163,.T.);
#724=EDGE_CURVE('',#837,#838,#164,.T.);
#725=EDGE_CURVE('',#838,#835,#165,.T.);
#726=EDGE_CURVE('',#837,#773,#166,.T.);
#727=EDGE_CURVE('',#836,#784,#167,.T.);
#728=EDGE_CURVE('',#838,#772,#168,.T.);
#729=EDGE_CURVE('',#839,#834,#169,.T.);
#730=EDGE_CURVE('',#840,#839,#170,.T.);
#731=EDGE_CURVE('',#841,#840,#171,.T.);
#732=EDGE_CURVE('',#820,#841,#172,.T.);
#733=EDGE_CURVE('',#794,#821,#173,.T.);
#734=EDGE_CURVE('',#793,#832,#174,.T.);
#735=EDGE_CURVE('',#842,#839,#175,.T.);
#736=EDGE_CURVE('',#842,#817,#176,.T.);
#737=EDGE_CURVE('',#839,#816,#177,.T.);
#738=EDGE_CURVE('',#843,#844,#178,.T.);
#739=EDGE_CURVE('',#843,#845,#179,.T.);
#740=EDGE_CURVE('',#845,#846,#180,.T.);
#741=EDGE_CURVE('',#844,#846,#181,.T.);
#742=EDGE_CURVE('',#847,#840,#182,.T.);
#743=EDGE_CURVE('',#848,#847,#183,.T.);
#744=EDGE_CURVE('',#848,#841,#184,.T.);
#745=EDGE_CURVE('',#847,#819,#185,.T.);
#746=EDGE_CURVE('',#849,#842,#186,.T.);
#747=EDGE_CURVE('',#797,#849,#187,.T.);
#748=EDGE_CURVE('',#796,#822,#188,.T.);
#749=EDGE_CURVE('',#848,#818,#189,.T.);
#750=EDGE_CURVE('',#792,#833,#190,.T.);
#751=EDGE_CURVE('',#795,#823,#191,.T.);
#752=EDGE_CURVE('',#849,#789,#192,.T.);
#753=EDGE_CURVE('',#824,#845,#193,.T.);
#754=EDGE_CURVE('',#826,#843,#194,.T.);
#755=EDGE_CURVE('',#825,#846,#195,.T.);
#756=EDGE_CURVE('',#827,#844,#196,.T.);
#757=VERTEX_POINT('',#1334);
#758=VERTEX_POINT('',#1335);
#759=VERTEX_POINT('',#1337);
#760=VERTEX_POINT('',#1339);
#761=VERTEX_POINT('',#1343);
#762=VERTEX_POINT('',#1344);
#763=VERTEX_POINT('',#1346);
#764=VERTEX_POINT('',#1348);
#765=VERTEX_POINT('',#1355);
#766=VERTEX_POINT('',#1357);
#767=VERTEX_POINT('',#1359);
#768=VERTEX_POINT('',#1361);
#769=VERTEX_POINT('',#1363);
#770=VERTEX_POINT('',#1365);
#771=VERTEX_POINT('',#1367);
#772=VERTEX_POINT('',#1369);
#773=VERTEX_POINT('',#1371);
#774=VERTEX_POINT('',#1373);
#775=VERTEX_POINT('',#1375);
#776=VERTEX_POINT('',#1377);
#777=VERTEX_POINT('',#1379);
#778=VERTEX_POINT('',#1381);
#779=VERTEX_POINT('',#1384);
#780=VERTEX_POINT('',#1386);
#781=VERTEX_POINT('',#1389);
#782=VERTEX_POINT('',#1390);
#783=VERTEX_POINT('',#1392);
#784=VERTEX_POINT('',#1394);
#785=VERTEX_POINT('',#1398);
#786=VERTEX_POINT('',#1400);
#787=VERTEX_POINT('',#1404);
#788=VERTEX_POINT('',#1406);
#789=VERTEX_POINT('',#1410);
#790=VERTEX_POINT('',#1412);
#791=VERTEX_POINT('',#1414);
#792=VERTEX_POINT('',#1424);
#793=VERTEX_POINT('',#1426);
#794=VERTEX_POINT('',#1428);
#795=VERTEX_POINT('',#1430);
#796=VERTEX_POINT('',#1432);
#797=VERTEX_POINT('',#1434);
#798=VERTEX_POINT('',#1436);
#799=VERTEX_POINT('',#1438);
#800=VERTEX_POINT('',#1446);
#801=VERTEX_POINT('',#1447);
#802=VERTEX_POINT('',#1449);
#803=VERTEX_POINT('',#1451);
#804=VERTEX_POINT('',#1455);
#805=VERTEX_POINT('',#1456);
#806=VERTEX_POINT('',#1458);
#807=VERTEX_POINT('',#1460);
#808=VERTEX_POINT('',#1471);
#809=VERTEX_POINT('',#1472);
#810=VERTEX_POINT('',#1474);
#811=VERTEX_POINT('',#1476);
#812=VERTEX_POINT('',#1480);
#813=VERTEX_POINT('',#1481);
#814=VERTEX_POINT('',#1483);
#815=VERTEX_POINT('',#1485);
#816=VERTEX_POINT('',#1494);
#817=VERTEX_POINT('',#1496);
#818=VERTEX_POINT('',#1498);
#819=VERTEX_POINT('',#1500);
#820=VERTEX_POINT('',#1504);
#821=VERTEX_POINT('',#1505);
#822=VERTEX_POINT('',#1507);
#823=VERTEX_POINT('',#1509);
#824=VERTEX_POINT('',#1512);
#825=VERTEX_POINT('',#1513);
#826=VERTEX_POINT('',#1515);
#827=VERTEX_POINT('',#1517);
#828=VERTEX_POINT('',#1521);
#829=VERTEX_POINT('',#1523);
#830=VERTEX_POINT('',#1527);
#831=VERTEX_POINT('',#1529);
#832=VERTEX_POINT('',#1536);
#833=VERTEX_POINT('',#1538);
#834=VERTEX_POINT('',#1542);
#835=VERTEX_POINT('',#1544);
#836=VERTEX_POINT('',#1548);
#837=VERTEX_POINT('',#1550);
#838=VERTEX_POINT('',#1552);
#839=VERTEX_POINT('',#1562);
#840=VERTEX_POINT('',#1564);
#841=VERTEX_POINT('',#1566);
#842=VERTEX_POINT('',#1572);
#843=VERTEX_POINT('',#1577);
#844=VERTEX_POINT('',#1578);
#845=VERTEX_POINT('',#1580);
#846=VERTEX_POINT('',#1582);
#847=VERTEX_POINT('',#1585);
#848=VERTEX_POINT('',#1587);
#849=VERTEX_POINT('',#1593);
#850=CIRCLE('',#1034,0.0082219049196514);
#851=CIRCLE('',#1035,0.0082219049196514);
#852=CIRCLE('',#1037,0.00911186189624306);
#853=CIRCLE('',#1038,0.00911186189624306);
#854=EDGE_LOOP('',(#334,#335,#336,#337));
#855=EDGE_LOOP('',(#338,#339,#340,#341));
#856=EDGE_LOOP('',(#342,#343,#344,#345));
#857=EDGE_LOOP('',(#346,#347,#348,#349,#350,#351,#352,#353,#354,#355,#356,
#357,#358,#359,#360,#361));
#858=EDGE_LOOP('',(#362,#363,#364,#365));
#859=EDGE_LOOP('',(#366,#367,#368,#369));
#860=EDGE_LOOP('',(#370,#371,#372,#373,#374,#375,#376,#377));
#861=EDGE_LOOP('',(#378,#379,#380,#381,#382,#383,#384,#385));
#862=EDGE_LOOP('',(#386,#387,#388,#389,#390));
#863=EDGE_LOOP('',(#391,#392,#393,#394));
#864=EDGE_LOOP('',(#395,#396,#397,#398));
#865=EDGE_LOOP('',(#399,#400,#401,#402));
#866=EDGE_LOOP('',(#403,#404,#405,#406,#407,#408,#409,#410,#411,#412));
#867=EDGE_LOOP('',(#413,#414,#415,#416));
#868=EDGE_LOOP('',(#417,#418,#419,#420));
#869=EDGE_LOOP('',(#421,#422,#423,#424));
#870=EDGE_LOOP('',(#425,#426,#427,#428));
#871=EDGE_LOOP('',(#429,#430,#431,#432));
#872=EDGE_LOOP('',(#433,#434,#435,#436));
#873=EDGE_LOOP('',(#437,#438,#439,#440));
#874=EDGE_LOOP('',(#441,#442,#443,#444));
#875=EDGE_LOOP('',(#445,#446,#447,#448));
#876=EDGE_LOOP('',(#449,#450,#451,#452));
#877=EDGE_LOOP('',(#453,#454,#455,#456));
#878=EDGE_LOOP('',(#457,#458,#459,#460,#461,#462,#463,#464));
#879=EDGE_LOOP('',(#465,#466,#467,#468));
#880=EDGE_LOOP('',(#469,#470,#471,#472));
#881=EDGE_LOOP('',(#473,#474,#475,#476));
#882=EDGE_LOOP('',(#477,#478,#479,#480));
#883=EDGE_LOOP('',(#481,#482,#483,#484));
#884=EDGE_LOOP('',(#485,#486,#487,#488,#489,#490,#491,#492));
#885=EDGE_LOOP('',(#493,#494,#495,#496));
#886=EDGE_LOOP('',(#497,#498,#499,#500,#501));
#887=EDGE_LOOP('',(#502,#503,#504,#505,#506,#507,#508,#509));
#888=EDGE_LOOP('',(#510,#511,#512,#513));
#889=EDGE_LOOP('',(#514,#515,#516,#517));
#890=EDGE_LOOP('',(#518,#519,#520,#521,#522,#523,#524,#525,#526,#527,#528,
#529));
#891=EDGE_LOOP('',(#530,#531,#532,#533));
#892=EDGE_LOOP('',(#534,#535,#536,#537));
#893=EDGE_LOOP('',(#538,#539,#540,#541));
#894=EDGE_LOOP('',(#542,#543,#544,#545,#546,#547,#548,#549,#550));
#895=EDGE_LOOP('',(#551,#552,#553,#554,#555,#556,#557,#558,#559,#560));
#896=EDGE_LOOP('',(#561,#562,#563,#564));
#897=EDGE_LOOP('',(#565,#566,#567,#568));
#898=EDGE_LOOP('',(#569,#570,#571,#572));
#899=EDGE_LOOP('',(#573,#574,#575,#576));
#900=EDGE_LOOP('',(#577,#578,#579,#580));
#901=EDGE_LOOP('',(#581,#582,#583,#584));
#902=EDGE_LOOP('',(#585,#586,#587,#588,#589,#590,#591));
#903=EDGE_LOOP('',(#592,#593,#594,#595,#596,#597,#598,#599));
#904=EDGE_LOOP('',(#600,#601,#602,#603));
#905=EDGE_LOOP('',(#604,#605,#606,#607));
#906=EDGE_LOOP('',(#608,#609,#610,#611));
#907=EDGE_LOOP('',(#612,#613,#614,#615));
#908=FACE_BOUND('',#854,.T.);
#909=FACE_BOUND('',#855,.T.);
#910=FACE_BOUND('',#856,.T.);
#911=FACE_BOUND('',#857,.T.);
#912=FACE_BOUND('',#858,.T.);
#913=FACE_BOUND('',#859,.T.);
#914=FACE_BOUND('',#860,.T.);
#915=FACE_BOUND('',#861,.T.);
#916=FACE_BOUND('',#862,.T.);
#917=FACE_BOUND('',#863,.T.);
#918=FACE_BOUND('',#864,.T.);
#919=FACE_BOUND('',#865,.T.);
#920=FACE_BOUND('',#866,.T.);
#921=FACE_BOUND('',#867,.T.);
#922=FACE_BOUND('',#868,.T.);
#923=FACE_BOUND('',#869,.T.);
#924=FACE_BOUND('',#870,.T.);
#925=FACE_BOUND('',#871,.T.);
#926=FACE_BOUND('',#872,.T.);
#927=FACE_BOUND('',#873,.T.);
#928=FACE_BOUND('',#874,.T.);
#929=FACE_BOUND('',#875,.T.);
#930=FACE_BOUND('',#876,.T.);
#931=FACE_BOUND('',#877,.T.);
#932=FACE_BOUND('',#878,.T.);
#933=FACE_BOUND('',#879,.T.);
#934=FACE_BOUND('',#880,.T.);
#935=FACE_BOUND('',#881,.T.);
#936=FACE_BOUND('',#882,.T.);
#937=FACE_BOUND('',#883,.T.);
#938=FACE_BOUND('',#884,.T.);
#939=FACE_BOUND('',#885,.T.);
#940=FACE_BOUND('',#886,.T.);
#941=FACE_BOUND('',#887,.T.);
#942=FACE_BOUND('',#888,.T.);
#943=FACE_BOUND('',#889,.T.);
#944=FACE_BOUND('',#890,.T.);
#945=FACE_BOUND('',#891,.T.);
#946=FACE_BOUND('',#892,.T.);
#947=FACE_BOUND('',#893,.T.);
#948=FACE_BOUND('',#894,.T.);
#949=FACE_BOUND('',#895,.T.);
#950=FACE_BOUND('',#896,.T.);
#951=FACE_BOUND('',#897,.T.);
#952=FACE_BOUND('',#898,.T.);
#953=FACE_BOUND('',#899,.T.);
#954=FACE_BOUND('',#900,.T.);
#955=FACE_BOUND('',#901,.T.);
#956=FACE_BOUND('',#902,.T.);
#957=FACE_BOUND('',#903,.T.);
#958=FACE_BOUND('',#904,.T.);
#959=FACE_BOUND('',#905,.T.);
#960=FACE_BOUND('',#906,.T.);
#961=FACE_BOUND('',#907,.T.);
#962=CYLINDRICAL_SURFACE('',#1033,0.0082219049196514);
#963=CYLINDRICAL_SURFACE('',#1036,0.00911186189624306);
#964=ADVANCED_FACE('',(#908),#962,.T.);
#965=ADVANCED_FACE('',(#909),#963,.F.);
#966=ADVANCED_FACE('Face appearance 3',(#910),#12,.F.);
#967=ADVANCED_FACE('Face appearance 2',(#911,#912,#913),#13,.T.);
#968=ADVANCED_FACE('Face appearance 2',(#914),#14,.T.);
#969=ADVANCED_FACE('Face appearance 2',(#915),#15,.T.);
#970=ADVANCED_FACE('Face appearance 2',(#916),#16,.F.);
#971=ADVANCED_FACE('Face appearance 2',(#917),#17,.T.);
#972=ADVANCED_FACE('Face appearance 2',(#918),#18,.T.);
#973=ADVANCED_FACE('Face appearance 2',(#919),#19,.F.);
#974=ADVANCED_FACE('Face appearance 2',(#920),#20,.T.);
#975=ADVANCED_FACE('Face appearance 2',(#921),#21,.F.);
#976=ADVANCED_FACE('Face appearance 2',(#922),#22,.T.);
#977=ADVANCED_FACE('Face appearance 1',(#923),#23,.F.);
#978=ADVANCED_FACE('Face appearance 1',(#924),#24,.T.);
#979=ADVANCED_FACE('Face appearance 1',(#925),#25,.F.);
#980=ADVANCED_FACE('Face appearance 1',(#926),#26,.F.);
#981=ADVANCED_FACE('Face appearance 1',(#927),#27,.T.);
#982=ADVANCED_FACE('Face appearance 1',(#928),#28,.F.);
#983=ADVANCED_FACE('Face appearance 1',(#929),#29,.T.);
#984=ADVANCED_FACE('Face appearance 1',(#930),#30,.F.);
#985=ADVANCED_FACE('Face appearance 1',(#931),#31,.F.);
#986=ADVANCED_FACE('Face appearance 1',(#932),#32,.T.);
#987=ADVANCED_FACE('',(#933,#934),#33,.T.);
#988=ADVANCED_FACE('Face appearance 1',(#935),#34,.F.);
#989=ADVANCED_FACE('Face appearance 1',(#936),#35,.T.);
#990=ADVANCED_FACE('Face appearance 1',(#937),#36,.F.);
#991=ADVANCED_FACE('',(#938),#37,.T.);
#992=ADVANCED_FACE('',(#939),#38,.F.);
#993=ADVANCED_FACE('',(#940),#39,.T.);
#994=ADVANCED_FACE('',(#941),#40,.F.);
#995=ADVANCED_FACE('',(#942),#41,.T.);
#996=ADVANCED_FACE('',(#943),#42,.T.);
#997=ADVANCED_FACE('',(#944),#43,.F.);
#998=ADVANCED_FACE('',(#945),#44,.F.);
#999=ADVANCED_FACE('',(#946,#947),#45,.F.);
#1000=ADVANCED_FACE('',(#948),#46,.F.);
#1001=ADVANCED_FACE('',(#949),#47,.T.);
#1002=ADVANCED_FACE('',(#950),#48,.T.);
#1003=ADVANCED_FACE('',(#951),#49,.T.);
#1004=ADVANCED_FACE('',(#952),#50,.T.);
#1005=ADVANCED_FACE('',(#953,#954),#51,.F.);
#1006=ADVANCED_FACE('',(#955),#52,.T.);
#1007=ADVANCED_FACE('',(#956),#53,.F.);
#1008=ADVANCED_FACE('',(#957),#54,.T.);
#1009=ADVANCED_FACE('Face appearance 1',(#958),#55,.F.);
#1010=ADVANCED_FACE('Face appearance 1',(#959),#56,.T.);
#1011=ADVANCED_FACE('Face appearance 1',(#960),#57,.F.);
#1012=ADVANCED_FACE('Face appearance 1',(#961),#58,.T.);
#1013=CLOSED_SHELL('',(#964,#965,#966,#967,#968,#969,#970,#971,#972,#973,
#974,#975,#976,#977,#978,#979,#980,#981,#982,#983,#984,#985,#986,#987,#988,
#989,#990,#991,#992,#993,#994,#995,#996,#997,#998,#999,#1000,#1001,#1002,
#1003,#1004,#1005,#1006,#1007,#1008,#1009,#1010,#1011,#1012));
#1014=STYLED_ITEM('',(#1015),#1029);
#1015=PRESENTATION_STYLE_ASSIGNMENT((#1017));
#1016=PRESENTATION_STYLE_ASSIGNMENT((#1018));
#1017=SURFACE_STYLE_USAGE(.BOTH.,#1019);
#1018=SURFACE_STYLE_USAGE(.BOTH.,#1020);
#1019=SURFACE_SIDE_STYLE('',(#1021));
#1020=SURFACE_SIDE_STYLE('',(#1022));
#1021=SURFACE_STYLE_FILL_AREA(#1023);
#1022=SURFACE_STYLE_FILL_AREA(#1024);
#1023=FILL_AREA_STYLE('',(#1025));
#1024=FILL_AREA_STYLE('',(#1026));
#1025=FILL_AREA_STYLE_COLOUR('',#1027);
#1026=FILL_AREA_STYLE_COLOUR('',#1028);
#1027=COLOUR_RGB('',0.96078431372549,0.901960784313726,0.862745098039216);
#1028=COLOUR_RGB('',0.917647058823529,0.643137254901961,0.568627450980392);
#1029=MANIFOLD_SOLID_BREP('Part 2',#1013);
#1030=SHAPE_DEFINITION_REPRESENTATION(#1621,#1031);
#1031=SHAPE_REPRESENTATION('Part 2',(#1032),#1616);
#1032=AXIS2_PLACEMENT_3D('',#1331,#1086,#1087);
#1033=AXIS2_PLACEMENT_3D('',#1332,#1088,#1089);
#1034=AXIS2_PLACEMENT_3D('',#1333,#1090,#1091);
#1035=AXIS2_PLACEMENT_3D('',#1338,#1093,#1094);
#1036=AXIS2_PLACEMENT_3D('',#1341,#1096,#1097);
#1037=AXIS2_PLACEMENT_3D('',#1342,#1098,#1099);
#1038=AXIS2_PLACEMENT_3D('',#1347,#1101,#1102);
#1039=AXIS2_PLACEMENT_3D('',#1350,#1104,#1105);
#1040=AXIS2_PLACEMENT_3D('',#1353,#1108,#1109);
#1041=AXIS2_PLACEMENT_3D('',#1396,#1132,#1133);
#1042=AXIS2_PLACEMENT_3D('',#1402,#1137,#1138);
#1043=AXIS2_PLACEMENT_3D('',#1408,#1142,#1143);
#1044=AXIS2_PLACEMENT_3D('',#1416,#1148,#1149);
#1045=AXIS2_PLACEMENT_3D('',#1419,#1152,#1153);
#1046=AXIS2_PLACEMENT_3D('',#1420,#1154,#1155);
#1047=AXIS2_PLACEMENT_3D('',#1422,#1157,#1158);
#1048=AXIS2_PLACEMENT_3D('',#1440,#1168,#1169);
#1049=AXIS2_PLACEMENT_3D('',#1443,#1172,#1173);
#1050=AXIS2_PLACEMENT_3D('',#1444,#1174,#1175);
#1051=AXIS2_PLACEMENT_3D('',#1453,#1180,#1181);
#1052=AXIS2_PLACEMENT_3D('',#1462,#1186,#1187);
#1053=AXIS2_PLACEMENT_3D('',#1465,#1190,#1191);
#1054=AXIS2_PLACEMENT_3D('',#1467,#1193,#1194);
#1055=AXIS2_PLACEMENT_3D('',#1469,#1196,#1197);
#1056=AXIS2_PLACEMENT_3D('',#1478,#1202,#1203);
#1057=AXIS2_PLACEMENT_3D('',#1487,#1208,#1209);
#1058=AXIS2_PLACEMENT_3D('',#1490,#1212,#1213);
#1059=AXIS2_PLACEMENT_3D('',#1492,#1215,#1216);
#1060=AXIS2_PLACEMENT_3D('',#1502,#1222,#1223);
#1061=AXIS2_PLACEMENT_3D('',#1519,#1232,#1233);
#1062=AXIS2_PLACEMENT_3D('',#1525,#1237,#1238);
#1063=AXIS2_PLACEMENT_3D('',#1531,#1242,#1243);
#1064=AXIS2_PLACEMENT_3D('',#1534,#1246,#1247);
#1065=AXIS2_PLACEMENT_3D('',#1540,#1251,#1252);
#1066=AXIS2_PLACEMENT_3D('',#1546,#1256,#1257);
#1067=AXIS2_PLACEMENT_3D('',#1554,#1262,#1263);
#1068=AXIS2_PLACEMENT_3D('',#1557,#1266,#1267);
#1069=AXIS2_PLACEMENT_3D('',#1559,#1269,#1270);
#1070=AXIS2_PLACEMENT_3D('',#1560,#1271,#1272);
#1071=AXIS2_PLACEMENT_3D('',#1570,#1279,#1280);
#1072=AXIS2_PLACEMENT_3D('',#1575,#1284,#1285);
#1073=AXIS2_PLACEMENT_3D('',#1589,#1293,#1294);
#1074=AXIS2_PLACEMENT_3D('',#1591,#1296,#1297);
#1075=AXIS2_PLACEMENT_3D('',#1597,#1302,#1303);
#1076=AXIS2_PLACEMENT_3D('',#1598,#1304,#1305);
#1077=AXIS2_PLACEMENT_3D('',#1600,#1307,#1308);
#1078=AXIS2_PLACEMENT_3D('',#1601,#1309,#1310);
#1079=AXIS2_PLACEMENT_3D('',#1603,#1312,#1313);
#1080=AXIS2_PLACEMENT_3D('',#1604,#1314,#1315);
#1081=AXIS2_PLACEMENT_3D('',#1606,#1317,#1318);
#1082=AXIS2_PLACEMENT_3D('',#1607,#1319,#1320);
#1083=AXIS2_PLACEMENT_3D('',#1610,#1323,#1324);
#1084=AXIS2_PLACEMENT_3D('',#1613,#1327,#1328);
#1085=AXIS2_PLACEMENT_3D('',#1614,#1329,#1330);
#1086=DIRECTION('',(0.,0.,1.));
#1087=DIRECTION('',(1.,0.,0.));
#1088=DIRECTION('',(0.,1.,0.));
#1089=DIRECTION('',(0.,0.,1.));
#1090=DIRECTION('',(0.,1.,0.));
#1091=DIRECTION('',(0.,0.,1.));
#1092=DIRECTION('',(0.,1.,0.));
#1093=DIRECTION('',(0.,1.,0.));
#1094=DIRECTION('',(0.,0.,1.));
#1095=DIRECTION('',(0.,1.,0.));
#1096=DIRECTION('',(0.,1.,0.));
#1097=DIRECTION('',(0.,0.,1.));
#1098=DIRECTION('',(0.,1.,0.));
#1099=DIRECTION('',(0.,0.,1.));
#1100=DIRECTION('',(0.,1.,0.));
#1101=DIRECTION('',(0.,1.,0.));
#1102=DIRECTION('',(0.,0.,1.));
#1103=DIRECTION('',(0.,1.,0.));
#1104=DIRECTION('',(0.,1.,0.));
#1105=DIRECTION('',(-1.,0.,0.));
#1106=DIRECTION('',(0.,0.,1.));
#1107=DIRECTION('',(0.,0.,-1.));
#1108=DIRECTION('',(0.,1.,0.));
#1109=DIRECTION('',(-1.,0.,0.));
#1110=DIRECTION('',(0.,0.,-1.));
#1111=DIRECTION('',(0.,0.,-1.));
#1112=DIRECTION('',(1.,0.,0.));
#1113=DIRECTION('',(0.,0.,-1.));
#1114=DIRECTION('',(1.,0.,0.));
#1115=DIRECTION('',(0.,0.,-1.));
#1116=DIRECTION('',(1.,0.,0.));
#1117=DIRECTION('',(0.,0.,1.));
#1118=DIRECTION('',(1.,0.,0.));
#1119=DIRECTION('',(0.,0.,1.));
#1120=DIRECTION('',(1.,0.,0.));
#1121=DIRECTION('',(0.,0.,1.));
#1122=DIRECTION('',(1.,0.,0.));
#1123=DIRECTION('',(0.,0.,-1.));
#1124=DIRECTION('',(1.,0.,0.));
#1125=DIRECTION('',(0.,0.,-1.));
#1126=DIRECTION('',(1.,0.,0.));
#1127=DIRECTION('',(0.,0.,-1.));
#1128=DIRECTION('',(0.,0.,1.));
#1129=DIRECTION('',(1.,0.,-2.31142368551207E-16));
#1130=DIRECTION('',(0.,0.,1.));
#1131=DIRECTION('',(1.,0.,0.));
#1132=DIRECTION('',(-1.,0.,0.));
#1133=DIRECTION('',(0.,0.,1.));
#1134=DIRECTION('',(0.,1.,0.));
#1135=DIRECTION('',(0.,0.,-1.));
#1136=DIRECTION('',(0.,1.,0.));
#1137=DIRECTION('',(1.,0.,0.));
#1138=DIRECTION('',(0.,0.,-1.));
#1139=DIRECTION('',(0.,-1.,0.));
#1140=DIRECTION('',(0.,0.,-1.));
#1141=DIRECTION('',(0.,-1.,0.));
#1142=DIRECTION('',(0.,1.,0.));
#1143=DIRECTION('',(0.,0.,1.));
#1144=DIRECTION('',(1.,0.,0.));
#1145=DIRECTION('',(1.,0.,0.));
#1146=DIRECTION('',(0.,0.,-1.));
#1147=DIRECTION('',(1.,0.,0.));
#1148=DIRECTION('',(1.,0.,0.));
#1149=DIRECTION('',(0.,0.,-1.));
#1150=DIRECTION('',(0.,-1.,0.));
#1151=DIRECTION('',(0.,-1.,0.));
#1152=DIRECTION('',(0.,0.,1.));
#1153=DIRECTION('',(1.,0.,0.));
#1154=DIRECTION('',(0.,0.,1.));
#1155=DIRECTION('',(1.,0.,0.));
#1156=DIRECTION('',(0.,1.,0.));
#1157=DIRECTION('',(-1.,0.,0.));
#1158=DIRECTION('',(0.,0.,1.));
#1159=DIRECTION('',(0.,1.,0.));
#1160=DIRECTION('',(0.,0.,1.));
#1161=DIRECTION('',(0.,1.,0.));
#1162=DIRECTION('',(0.,0.,1.));
#1163=DIRECTION('',(0.,1.,0.));
#1164=DIRECTION('',(0.,0.,1.));
#1165=DIRECTION('',(0.,1.,0.));
#1166=DIRECTION('',(0.,0.,-1.));
#1167=DIRECTION('',(0.,1.,0.));
#1168=DIRECTION('',(0.,1.,0.));
#1169=DIRECTION('',(0.,0.,1.));
#1170=DIRECTION('',(1.,0.,0.));
#1171=DIRECTION('',(1.,0.,0.));
#1172=DIRECTION('',(0.,0.,1.));
#1173=DIRECTION('',(1.,0.,0.));
#1174=DIRECTION('',(0.,0.,-1.));
#1175=DIRECTION('',(-1.,0.,0.));
#1176=DIRECTION('',(0.,1.,0.));
#1177=DIRECTION('',(1.,0.,0.));
#1178=DIRECTION('',(0.,1.,0.));
#1179=DIRECTION('',(1.,0.,0.));
#1180=DIRECTION('',(0.,0.,-1.));
#1181=DIRECTION('',(-1.,0.,0.));
#1182=DIRECTION('',(0.,1.,0.));
#1183=DIRECTION('',(1.,0.,0.));
#1184=DIRECTION('',(0.,1.,0.));
#1185=DIRECTION('',(1.,0.,0.));
#1186=DIRECTION('',(0.,-1.,0.));
#1187=DIRECTION('',(0.,0.,-1.));
#1188=DIRECTION('',(0.,0.,-1.));
#1189=DIRECTION('',(0.,0.,-1.));
#1190=DIRECTION('',(1.,0.,0.));
#1191=DIRECTION('',(0.,1.,0.));
#1192=DIRECTION('',(0.,0.,1.));
#1193=DIRECTION('',(1.,0.,0.));
#1194=DIRECTION('',(0.,1.,0.));
#1195=DIRECTION('',(0.,0.,1.));
#1196=DIRECTION('',(0.,0.,-1.));
#1197=DIRECTION('',(-1.,0.,0.));
#1198=DIRECTION('',(0.,1.,0.));
#1199=DIRECTION('',(1.,0.,0.));
#1200=DIRECTION('',(0.,1.,0.));
#1201=DIRECTION('',(1.,0.,0.));
#1202=DIRECTION('',(0.,0.,-1.));
#1203=DIRECTION('',(-1.,0.,0.));
#1204=DIRECTION('',(0.,1.,0.));
#1205=DIRECTION('',(1.,0.,0.));
#1206=DIRECTION('',(0.,1.,0.));
#1207=DIRECTION('',(1.,0.,0.));
#1208=DIRECTION('',(0.,-1.,0.));
#1209=DIRECTION('',(0.,0.,-1.));
#1210=DIRECTION('',(0.,0.,-1.));
#1211=DIRECTION('',(0.,0.,-1.));
#1212=DIRECTION('',(1.,0.,0.));
#1213=DIRECTION('',(0.,1.,0.));
#1214=DIRECTION('',(0.,0.,1.));
#1215=DIRECTION('',(1.,0.,0.));
#1216=DIRECTION('',(0.,1.,0.));
#1217=DIRECTION('',(0.,0.,1.));
#1218=DIRECTION('',(0.,1.,0.));
#1219=DIRECTION('',(0.,0.,1.));
#1220=DIRECTION('',(0.,1.,0.));
#1221=DIRECTION('',(0.,0.,1.));
#1222=DIRECTION('',(1.,0.,0.));
#1223=DIRECTION('',(0.,0.,-1.));
#1224=DIRECTION('',(0.,1.,0.));
#1225=DIRECTION('',(0.,0.,1.));
#1226=DIRECTION('',(0.,1.,0.));
#1227=DIRECTION('',(0.,0.,1.));
#1228=DIRECTION('',(0.,0.,1.));
#1229=DIRECTION('',(0.,1.,0.));
#1230=DIRECTION('',(0.,0.,-1.));
#1231=DIRECTION('',(0.,1.,0.));
#1232=DIRECTION('',(0.,0.,1.));
#1233=DIRECTION('',(1.,0.,0.));
#1234=DIRECTION('',(0.,1.,0.));
#1235=DIRECTION('',(1.,0.,0.));
#1236=DIRECTION('',(0.,1.,0.));
#1237=DIRECTION('',(2.31142368551207E-16,0.,1.));
#1238=DIRECTION('',(1.,0.,-2.31142368551207E-16));
#1239=DIRECTION('',(0.,1.,0.));
#1240=DIRECTION('',(1.,0.,-2.31142368551207E-16));
#1241=DIRECTION('',(0.,1.,0.));
#1242=DIRECTION('',(0.,1.,0.));
#1243=DIRECTION('',(-1.,0.,0.));
#1244=DIRECTION('',(0.,0.,1.));
#1245=DIRECTION('',(0.,0.,1.));
#1246=DIRECTION('',(1.,0.,0.));
#1247=DIRECTION('',(0.,0.,-1.));
#1248=DIRECTION('',(0.,1.,0.));
#1249=DIRECTION('',(0.,0.,1.));
#1250=DIRECTION('',(0.,1.,0.));
#1251=DIRECTION('',(0.,0.,-1.));
#1252=DIRECTION('',(1.,0.,0.));
#1253=DIRECTION('',(0.,1.,0.));
#1254=DIRECTION('',(1.,0.,0.));
#1255=DIRECTION('',(0.,1.,0.));
#1256=DIRECTION('',(0.,-1.,0.));
#1257=DIRECTION('',(0.,0.,-1.));
#1258=DIRECTION('',(1.,0.,0.));
#1259=DIRECTION('',(0.,0.,1.));
#1260=DIRECTION('',(1.,0.,0.));
#1261=DIRECTION('',(0.,0.,1.));
#1262=DIRECTION('',(1.,0.,0.));
#1263=DIRECTION('',(0.,0.,-1.));
#1264=DIRECTION('',(0.,1.,0.));
#1265=DIRECTION('',(0.,1.,0.));
#1266=DIRECTION('',(1.,0.,0.));
#1267=DIRECTION('',(0.,0.,-1.));
#1268=DIRECTION('',(0.,1.,0.));
#1269=DIRECTION('',(0.,0.,-1.));
#1270=DIRECTION('',(1.,0.,0.));
#1271=DIRECTION('',(0.,0.,1.));
#1272=DIRECTION('',(1.,0.,0.));
#1273=DIRECTION('',(0.,1.,0.));
#1274=DIRECTION('',(1.,0.,0.));
#1275=DIRECTION('',(0.,1.,0.));
#1276=DIRECTION('',(1.,0.,0.));
#1277=DIRECTION('',(1.,0.,0.));
#1278=DIRECTION('',(1.,0.,0.));
#1279=DIRECTION('',(0.,0.,-1.));
#1280=DIRECTION('',(1.,0.,0.));
#1281=DIRECTION('',(0.,1.,0.));
#1282=DIRECTION('',(1.,0.,0.));
#1283=DIRECTION('',(1.,0.,0.));
#1284=DIRECTION('',(1.,0.,0.));
#1285=DIRECTION('',(0.,0.,-1.));
#1286=DIRECTION('',(0.,0.,1.));
#1287=DIRECTION('',(0.,1.,0.));
#1288=DIRECTION('',(0.,0.,1.));
#1289=DIRECTION('',(0.,1.,0.));
#1290=DIRECTION('',(0.,0.,1.));
#1291=DIRECTION('',(0.,1.,0.));
#1292=DIRECTION('',(0.,0.,1.));
#1293=DIRECTION('',(0.,-1.,0.));
#1294=DIRECTION('',(0.,0.,-1.));
#1295=DIRECTION('',(1.,0.,0.));
#1296=DIRECTION('',(0.,-1.,0.));
#1297=DIRECTION('',(0.,0.,-1.));
#1298=DIRECTION('',(0.,0.,-1.));
#1299=DIRECTION('',(1.,0.,0.));
#1300=DIRECTION('',(1.,0.,0.));
#1301=DIRECTION('',(1.,0.,0.));
#1302=DIRECTION('',(0.,0.,-1.));
#1303=DIRECTION('',(1.,0.,0.));
#1304=DIRECTION('',(0.,-1.,0.));
#1305=DIRECTION('',(0.,0.,-1.));
#1306=DIRECTION('',(1.,0.,0.));
#1307=DIRECTION('',(0.,0.,-1.));
#1308=DIRECTION('',(1.,0.,0.));
#1309=DIRECTION('',(0.,-1.,0.));
#1310=DIRECTION('',(0.,0.,-1.));
#1311=DIRECTION('',(1.,0.,0.));
#1312=DIRECTION('',(0.,0.,-1.));
#1313=DIRECTION('',(1.,0.,0.));
#1314=DIRECTION('',(-1.,0.,0.));
#1315=DIRECTION('',(0.,0.,1.));
#1316=DIRECTION('',(0.,1.,0.));
#1317=DIRECTION('',(0.,0.,1.));
#1318=DIRECTION('',(1.,0.,0.));
#1319=DIRECTION('',(0.,0.,1.));
#1320=DIRECTION('',(1.,0.,0.));
#1321=DIRECTION('',(1.,0.,0.));
#1322=DIRECTION('',(1.,0.,0.));
#1323=DIRECTION('',(2.31142368551207E-16,0.,1.));
#1324=DIRECTION('',(1.,0.,-2.31142368551207E-16));
#1325=DIRECTION('',(1.,0.,-2.31142368551207E-16));
#1326=DIRECTION('',(1.,0.,-2.31142368551207E-16));
#1327=DIRECTION('',(0.,1.,0.));
#1328=DIRECTION('',(-1.,0.,0.));
#1329=DIRECTION('',(0.,1.,0.));
#1330=DIRECTION('',(-1.,0.,0.));
#1331=CARTESIAN_POINT('',(0.,0.,0.));
#1332=CARTESIAN_POINT('',(-0.0102390521168709,0.0467846759259701,0.0196987937611434));
#1333=CARTESIAN_POINT('',(-0.0102390521168709,0.0482846759259701,0.0196987937611434));
#1334=CARTESIAN_POINT('',(-0.0166697092354297,0.0482846759259701,0.0248219148344068));
#1335=CARTESIAN_POINT('',(-0.003808394998312,0.0482846759259701,0.0248219148344068));
#1336=CARTESIAN_POINT('',(-0.0166697092354297,0.0467846759259701,0.0248219148344068));
#1337=CARTESIAN_POINT('',(-0.0166697092354297,0.0467846759259701,0.0248219148344068));
#1338=CARTESIAN_POINT('',(-0.0102390521168709,0.0467846759259701,0.0196987937611434));
#1339=CARTESIAN_POINT('',(-0.003808394998312,0.0467846759259701,0.0248219148344068));
#1340=CARTESIAN_POINT('',(-0.003808394998312,0.0467846759259701,0.0248219148344068));
#1341=CARTESIAN_POINT('',(-0.0102390521168709,0.0467846759259701,0.00709548177679499));
#1342=CARTESIAN_POINT('',(-0.0102390521168709,0.0482846759259701,0.00709548177679499));
#1343=CARTESIAN_POINT('',(-0.0166697092354297,0.0482846759259701,0.0135509195032187));
#1344=CARTESIAN_POINT('',(-0.003808394998312,0.0482846759259701,0.0135509195032187));
#1345=CARTESIAN_POINT('',(-0.003808394998312,0.0467846759259701,0.0135509195032187));
#1346=CARTESIAN_POINT('',(-0.003808394998312,0.0467846759259701,0.0135509195032187));
#1347=CARTESIAN_POINT('',(-0.0102390521168709,0.0467846759259701,0.00709548177679499));
#1348=CARTESIAN_POINT('',(-0.0166697092354297,0.0467846759259701,0.0135509195032187));
#1349=CARTESIAN_POINT('',(-0.0166697092354297,0.0467846759259701,0.0135509195032187));
#1350=CARTESIAN_POINT('',(-0.00816970923542977,0.0467846759259701,0.0168));
#1351=CARTESIAN_POINT('',(-0.0166697092354297,0.0467846759259701,0.0191864171688127));
#1352=CARTESIAN_POINT('',(-0.003808394998312,0.0467846759259701,0.0318));
#1353=CARTESIAN_POINT('',(-0.00816970923542977,0.0482846759259701,0.0168));
#1354=CARTESIAN_POINT('',(-0.0166697092354297,0.0482846759259701,0.0318));
#1355=CARTESIAN_POINT('',(-0.0166697092354297,0.0482846759259701,0.0318));
#1356=CARTESIAN_POINT('',(-0.003808394998312,0.0482846759259701,0.0318));
#1357=CARTESIAN_POINT('',(-0.003808394998312,0.0482846759259701,0.0318));
#1358=CARTESIAN_POINT('',(0.006595802500844,0.0482846759259701,0.0318));
#1359=CARTESIAN_POINT('',(0.000330290764570237,0.0482846759259701,0.0318));
#1360=CARTESIAN_POINT('',(0.000330290764570237,0.0482846759259701,0.0318));
#1361=CARTESIAN_POINT('',(0.000330290764570237,0.0482846759259701,0.0018));
#1362=CARTESIAN_POINT('',(0.006595802500844,0.0482846759259701,0.0018));
#1363=CARTESIAN_POINT('',(0.,0.0482846759259701,0.0018));
#1364=CARTESIAN_POINT('',(0.,0.0482846759259701,0.0018));
#1365=CARTESIAN_POINT('',(0.,0.0482846759259701,0.));
#1366=CARTESIAN_POINT('',(0.007595802500844,0.0482846759259701,0.));
#1367=CARTESIAN_POINT('',(0.000181605001688005,0.0482846759259701,0.));
#1368=CARTESIAN_POINT('',(0.000181605001688005,0.0482846759259701,-0.02));
#1369=CARTESIAN_POINT('',(0.000181605001688005,0.0482846759259701,-0.02));
#1370=CARTESIAN_POINT('',(0.007595802500844,0.0482846759259701,-0.02));
#1371=CARTESIAN_POINT('',(-0.002808394998312,0.0482846759259701,-0.02));
#1372=CARTESIAN_POINT('',(-0.002808394998312,0.0482846759259701,-0.02));
#1373=CARTESIAN_POINT('',(-0.002808394998312,0.0482846759259701,-0.0163298818456141));
#1374=CARTESIAN_POINT('',(-0.010313394998312,0.0482846759259701,-0.0163298818456141));
#1375=CARTESIAN_POINT('',(-0.017818394998312,0.0482846759259701,-0.0163298818456141));
#1376=CARTESIAN_POINT('',(-0.017818394998312,0.0482846759259701,-0.02));
#1377=CARTESIAN_POINT('',(-0.017818394998312,0.0482846759259701,-0.02));
#1378=CARTESIAN_POINT('',(-0.010404197499156,0.0482846759259701,-0.02));
#1379=CARTESIAN_POINT('',(-0.020808394998312,0.0482846759259701,-0.02));
#1380=CARTESIAN_POINT('',(-0.020808394998312,0.0482846759259701,0.0318));
#1381=CARTESIAN_POINT('',(-0.020808394998312,0.0482846759259701,0.0318));
#1382=CARTESIAN_POINT('',(-0.010404197499156,0.0482846759259701,0.0318));
#1383=CARTESIAN_POINT('',(-0.0166697092354297,0.0482846759259701,0.0318));
#1384=CARTESIAN_POINT('',(-0.0166697092354297,0.0482846759259701,0.0018));
#1385=CARTESIAN_POINT('',(-0.010404197499156,0.0482846759259701,0.0018));
#1386=CARTESIAN_POINT('',(-0.003808394998312,0.0482846759259701,0.0018));
#1387=CARTESIAN_POINT('',(-0.003808394998312,0.0482846759259701,0.0318));
#1388=CARTESIAN_POINT('',(-0.017818394998312,0.0482846759259701,-0.02));
#1389=CARTESIAN_POINT('',(-0.017818394998312,0.0482846759259701,-0.0148298818456141));
#1390=CARTESIAN_POINT('',(-0.017818394998312,0.0482846759259701,0.));
#1391=CARTESIAN_POINT('',(-0.010313394998312,0.0482846759259701,-0.0148298818456141));
#1392=CARTESIAN_POINT('',(-0.002808394998312,0.0482846759259701,-0.0148298818456141));
#1393=CARTESIAN_POINT('',(-0.002808394998312,0.0482846759259701,-0.02));
#1394=CARTESIAN_POINT('',(-0.002808394998312,0.0482846759259701,0.));
#1395=CARTESIAN_POINT('',(-0.010404197499156,0.0482846759259701,0.));
#1396=CARTESIAN_POINT('',(-0.003808394998312,0.0378229971975088,0.0318));
#1397=CARTESIAN_POINT('',(-0.003808394998312,0.0378229971975088,0.0018));
#1398=CARTESIAN_POINT('',(-0.003808394998312,0.0441459864377975,0.0018));
#1399=CARTESIAN_POINT('',(-0.003808394998312,0.0441459864377975,0.0318));
#1400=CARTESIAN_POINT('',(-0.003808394998312,0.0441459864377975,0.0318));
#1401=CARTESIAN_POINT('',(-0.003808394998312,0.0378229971975088,0.0318));
#1402=CARTESIAN_POINT('',(-0.0166697092354297,0.0462153311818838,0.0318));
#1403=CARTESIAN_POINT('',(-0.0166697092354297,0.0462153311818838,0.0318));
#1404=CARTESIAN_POINT('',(-0.0166697092354297,0.0441459864377975,0.0318));
#1405=CARTESIAN_POINT('',(-0.0166697092354297,0.0441459864377975,0.0318));
#1406=CARTESIAN_POINT('',(-0.0166697092354297,0.0441459864377975,0.0018));
#1407=CARTESIAN_POINT('',(-0.0166697092354297,0.0462153311818838,0.0018));
#1408=CARTESIAN_POINT('',(-0.00173905211687088,0.0441459864377975,0.0318));
#1409=CARTESIAN_POINT('',(-0.00173905211687088,0.0441459864377975,0.0018));
#1410=CARTESIAN_POINT('',(0.,0.0441459864377975,0.0018));
#1411=CARTESIAN_POINT('',(-0.00173905211687088,0.0441459864377975,0.0018));
#1412=CARTESIAN_POINT('',(0.000330290764570237,0.0441459864377975,0.0018));
#1413=CARTESIAN_POINT('',(0.000330290764570237,0.0441459864377975,0.0318));
#1414=CARTESIAN_POINT('',(0.000330290764570237,0.0441459864377975,0.0318));
#1415=CARTESIAN_POINT('',(-0.00173905211687088,0.0441459864377975,0.0318));
#1416=CARTESIAN_POINT('',(0.000330290764570237,0.0462153311818838,0.0318));
#1417=CARTESIAN_POINT('',(0.000330290764570237,0.0462153311818838,0.0018));
#1418=CARTESIAN_POINT('',(0.000330290764570237,0.0462153311818838,0.0318));
#1419=CARTESIAN_POINT('',(0.006595802500844,0.0378229971975088,0.0318));
#1420=CARTESIAN_POINT('',(0.006595802500844,0.0378229971975088,0.0018));
#1421=CARTESIAN_POINT('',(0.,0.0378229971975088,0.0018));
#1422=CARTESIAN_POINT('',(-0.020808394998312,0.0378229971975088,0.0318));
#1423=CARTESIAN_POINT('',(-0.020808394998312,0.0378229971975088,-0.02));
#1424=CARTESIAN_POINT('',(-0.020808394998312,0.0446846759259701,-0.02));
#1425=CARTESIAN_POINT('',(-0.020808394998312,0.0446846759259701,-0.02));
#1426=CARTESIAN_POINT('',(-0.020808394998312,0.0446846759259701,0.));
#1427=CARTESIAN_POINT('',(-0.020808394998312,0.0378229971975088,0.));
#1428=CARTESIAN_POINT('',(-0.020808394998312,0.0310401525348425,0.));
#1429=CARTESIAN_POINT('',(-0.020808394998312,0.0310401525348425,-0.02));
#1430=CARTESIAN_POINT('',(-0.020808394998312,0.0310401525348425,-0.02));
#1431=CARTESIAN_POINT('',(-0.020808394998312,0.0378229971975088,-0.02));
#1432=CARTESIAN_POINT('',(-0.020808394998312,0.0273613184690475,-0.02));
#1433=CARTESIAN_POINT('',(-0.020808394998312,0.0273613184690475,-0.02));
#1434=CARTESIAN_POINT('',(-0.020808394998312,0.0273613184690475,0.0018));
#1435=CARTESIAN_POINT('',(-0.020808394998312,0.0378229971975088,0.0018));
#1436=CARTESIAN_POINT('',(-0.020808394998312,0.0441459864377975,0.0018));
#1437=CARTESIAN_POINT('',(-0.020808394998312,0.0441459864377975,0.0318));
#1438=CARTESIAN_POINT('',(-0.020808394998312,0.0441459864377975,0.0318));
#1439=CARTESIAN_POINT('',(-0.020808394998312,0.0378229971975088,0.0318));
#1440=CARTESIAN_POINT('',(-0.0187390521168709,0.0441459864377975,0.0318));
#1441=CARTESIAN_POINT('',(-0.0187390521168709,0.0441459864377975,0.0018));
#1442=CARTESIAN_POINT('',(-0.0187390521168709,0.0441459864377975,0.0318));
#1443=CARTESIAN_POINT('',(-0.010404197499156,0.0378229971975088,0.0318));
#1444=CARTESIAN_POINT('',(-0.0203193431347609,0.0378387555550772,-0.0147489756801546));
#1445=CARTESIAN_POINT('',(-0.0188193431347609,0.0378387555550772,-0.0147489756801546));
#1446=CARTESIAN_POINT('',(-0.0188193431347609,0.0310401525348425,-0.0147489756801546));
#1447=CARTESIAN_POINT('',(-0.0188193431347609,0.0446373585753119,-0.0147489756801546));
#1448=CARTESIAN_POINT('',(-0.0203193431347609,0.0446373585753119,-0.0147489756801546));
#1449=CARTESIAN_POINT('',(-0.0203193431347609,0.0446373585753119,-0.0147489756801546));
#1450=CARTESIAN_POINT('',(-0.0203193431347609,0.0378387555550772,-0.0147489756801546));
#1451=CARTESIAN_POINT('',(-0.0203193431347609,0.0310401525348425,-0.0147489756801546));
#1452=CARTESIAN_POINT('',(-0.0203193431347609,0.0310401525348425,-0.0147489756801546));
#1453=CARTESIAN_POINT('',(-0.0203193431347609,0.0378387555550772,-0.0162489756801547));
#1454=CARTESIAN_POINT('',(-0.0188193431347609,0.0378387555550772,-0.0162489756801547));
#1455=CARTESIAN_POINT('',(-0.0188193431347609,0.0310401525348425,-0.0162489756801547));
#1456=CARTESIAN_POINT('',(-0.0188193431347609,0.0446373585753119,-0.0162489756801547));
#1457=CARTESIAN_POINT('',(-0.0203193431347609,0.0310401525348425,-0.0162489756801547));
#1458=CARTESIAN_POINT('',(-0.0203193431347609,0.0310401525348425,-0.0162489756801547));
#1459=CARTESIAN_POINT('',(-0.0203193431347609,0.0378387555550772,-0.0162489756801547));
#1460=CARTESIAN_POINT('',(-0.0203193431347609,0.0446373585753119,-0.0162489756801547));
#1461=CARTESIAN_POINT('',(-0.0203193431347609,0.0446373585753119,-0.0162489756801547));
#1462=CARTESIAN_POINT('',(-0.0203193431347609,0.0446373585753119,-0.0154989756801547));
#1463=CARTESIAN_POINT('',(-0.0188193431347609,0.0446373585753119,-0.0154989756801547));
#1464=CARTESIAN_POINT('',(-0.0203193431347609,0.0446373585753119,-0.0154989756801547));
#1465=CARTESIAN_POINT('',(-0.0203193431347609,0.0359993385221797,-0.01));
#1466=CARTESIAN_POINT('',(-0.0203193431347609,0.0310401525348425,-0.02));
#1467=CARTESIAN_POINT('',(-0.0188193431347609,0.0359993385221797,-0.01));
#1468=CARTESIAN_POINT('',(-0.0188193431347609,0.0310401525348425,-0.02));
#1469=CARTESIAN_POINT('',(-0.00131934313476085,0.0378387555550772,-0.0147489756801546));
#1470=CARTESIAN_POINT('',(0.000180656865239146,0.0378387555550772,-0.0147489756801546));
#1471=CARTESIAN_POINT('',(0.000180656865239146,0.0310401525348425,-0.0147489756801546));
#1472=CARTESIAN_POINT('',(0.000180656865239146,0.0446373585753119,-0.0147489756801546));
#1473=CARTESIAN_POINT('',(-0.00131934313476085,0.0446373585753119,-0.0147489756801546));
#1474=CARTESIAN_POINT('',(-0.00131934313476085,0.0446373585753119,-0.0147489756801546));
#1475=CARTESIAN_POINT('',(-0.00131934313476085,0.0378387555550772,-0.0147489756801546));
#1476=CARTESIAN_POINT('',(-0.00131934313476085,0.0310401525348425,-0.0147489756801546));
#1477=CARTESIAN_POINT('',(-0.00131934313476085,0.0310401525348425,-0.0147489756801546));
#1478=CARTESIAN_POINT('',(-0.00131934313476085,0.0378387555550772,-0.0162489756801547));
#1479=CARTESIAN_POINT('',(0.000180656865239146,0.0378387555550772,-0.0162489756801547));
#1480=CARTESIAN_POINT('',(0.000180656865239146,0.0310401525348425,-0.0162489756801547));
#1481=CARTESIAN_POINT('',(0.000180656865239146,0.0446373585753119,-0.0162489756801547));
#1482=CARTESIAN_POINT('',(-0.00131934313476085,0.0310401525348425,-0.0162489756801547));
#1483=CARTESIAN_POINT('',(-0.00131934313476085,0.0310401525348425,-0.0162489756801547));
#1484=CARTESIAN_POINT('',(-0.00131934313476085,0.0378387555550772,-0.0162489756801547));
#1485=CARTESIAN_POINT('',(-0.00131934313476085,0.0446373585753119,-0.0162489756801547));
#1486=CARTESIAN_POINT('',(-0.00131934313476085,0.0446373585753119,-0.0162489756801547));
#1487=CARTESIAN_POINT('',(-0.00131934313476085,0.0446373585753119,-0.0154989756801547));
#1488=CARTESIAN_POINT('',(0.000180656865239146,0.0446373585753119,-0.0154989756801547));
#1489=CARTESIAN_POINT('',(-0.00131934313476085,0.0446373585753119,-0.0154989756801547));
#1490=CARTESIAN_POINT('',(-0.00131934313476085,0.0359993385221797,-0.01));
#1491=CARTESIAN_POINT('',(-0.00131934313476085,0.0310401525348425,-0.02));
#1492=CARTESIAN_POINT('',(0.000180656865239146,0.0359993385221797,-0.01));
#1493=CARTESIAN_POINT('',(0.000180656865239146,0.0310401525348425,-0.02));
#1494=CARTESIAN_POINT('',(0.000180656865239146,0.0310401525348425,0.));
#1495=CARTESIAN_POINT('',(0.000180656865239146,0.029200735501945,0.));
#1496=CARTESIAN_POINT('',(0.000180656865239146,0.0273613184690475,0.));
#1497=CARTESIAN_POINT('',(0.000180656865239146,0.0273613184690475,-0.02));
#1498=CARTESIAN_POINT('',(0.000180656865239146,0.0273613184690475,-0.02));
#1499=CARTESIAN_POINT('',(0.000180656865239146,0.029200735501945,-0.02));
#1500=CARTESIAN_POINT('',(0.000180656865239146,0.0310401525348425,-0.02));
#1501=CARTESIAN_POINT('',(0.000180656865239146,0.0310401525348425,-0.02));
#1502=CARTESIAN_POINT('',(-0.0178193431347609,0.029200735501945,-0.02));
#1503=CARTESIAN_POINT('',(-0.0178193431347609,0.029200735501945,0.));
#1504=CARTESIAN_POINT('',(-0.0178193431347609,0.0273613184690475,0.));
#1505=CARTESIAN_POINT('',(-0.0178193431347609,0.0310401525348425,0.));
#1506=CARTESIAN_POINT('',(-0.0178193431347609,0.0273613184690475,-0.02));
#1507=CARTESIAN_POINT('',(-0.0178193431347609,0.0273613184690475,-0.02));
#1508=CARTESIAN_POINT('',(-0.0178193431347609,0.029200735501945,-0.02));
#1509=CARTESIAN_POINT('',(-0.0178193431347609,0.0310401525348425,-0.02));
#1510=CARTESIAN_POINT('',(-0.0178193431347609,0.0310401525348425,-0.02));
#1511=CARTESIAN_POINT('',(-0.0178193431347609,0.0292846759259701,-0.02));
#1512=CARTESIAN_POINT('',(-0.0178193431347609,0.0292846759259701,-0.0163298818456141));
#1513=CARTESIAN_POINT('',(-0.0178193431347609,0.0292846759259701,-0.0148298818456141));
#1514=CARTESIAN_POINT('',(-0.0178193431347609,0.0277846759259701,-0.0163298818456141));
#1515=CARTESIAN_POINT('',(-0.0178193431347609,0.0277846759259701,-0.0163298818456141));
#1516=CARTESIAN_POINT('',(-0.0178193431347609,0.0277846759259701,-0.02));
#1517=CARTESIAN_POINT('',(-0.0178193431347609,0.0277846759259701,-0.0148298818456141));
#1518=CARTESIAN_POINT('',(-0.0178193431347609,0.029200735501945,-0.0148298818456141));
#1519=CARTESIAN_POINT('',(-0.010313394998312,0.0467846759259701,-0.0163298818456141));
#1520=CARTESIAN_POINT('',(-0.002808394998312,0.0467846759259701,-0.0163298818456141));
#1521=CARTESIAN_POINT('',(-0.002808394998312,0.0467846759259701,-0.0163298818456141));
#1522=CARTESIAN_POINT('',(-0.010313394998312,0.0467846759259701,-0.0163298818456141));
#1523=CARTESIAN_POINT('',(-0.017818394998312,0.0467846759259701,-0.0163298818456141));
#1524=CARTESIAN_POINT('',(-0.017818394998312,0.0467846759259701,-0.0163298818456141));
#1525=CARTESIAN_POINT('',(-0.010313394998312,0.0467846759259701,-0.0148298818456141));
#1526=CARTESIAN_POINT('',(-0.017818394998312,0.0467846759259701,-0.0148298818456141));
#1527=CARTESIAN_POINT('',(-0.017818394998312,0.0467846759259701,-0.0148298818456141));
#1528=CARTESIAN_POINT('',(-0.010313394998312,0.0467846759259701,-0.0148298818456141));
#1529=CARTESIAN_POINT('',(-0.002808394998312,0.0467846759259701,-0.0148298818456141));
#1530=CARTESIAN_POINT('',(-0.002808394998312,0.0467846759259701,-0.0148298818456141));
#1531=CARTESIAN_POINT('',(-0.011808394998312,0.0467846759259701,-0.01));
#1532=CARTESIAN_POINT('',(-0.002808394998312,0.0467846759259701,-0.0155798818456141));
#1533=CARTESIAN_POINT('',(-0.017818394998312,0.0467846759259701,-0.02));
#1534=CARTESIAN_POINT('',(-0.017818394998312,0.0464846759259701,-0.02));
#1535=CARTESIAN_POINT('',(-0.017818394998312,0.0464846759259701,0.));
#1536=CARTESIAN_POINT('',(-0.017818394998312,0.0446846759259701,0.));
#1537=CARTESIAN_POINT('',(-0.017818394998312,0.0446846759259701,-0.02));
#1538=CARTESIAN_POINT('',(-0.017818394998312,0.0446846759259701,-0.02));
#1539=CARTESIAN_POINT('',(-0.017818394998312,0.0464846759259701,-0.02));
#1540=CARTESIAN_POINT('',(0.007595802500844,0.0378229971975088,0.));
#1541=CARTESIAN_POINT('',(0.,0.0378229971975088,0.));
#1542=CARTESIAN_POINT('',(0.,0.0446846759259701,0.));
#1543=CARTESIAN_POINT('',(-0.00131339499831199,0.0446846759259701,0.));
#1544=CARTESIAN_POINT('',(0.000181605001688005,0.0446846759259701,0.));
#1545=CARTESIAN_POINT('',(0.000181605001688005,0.0464846759259701,0.));
#1546=CARTESIAN_POINT('',(-0.00131339499831199,0.0446846759259701,-0.02));
#1547=CARTESIAN_POINT('',(-0.00131339499831199,0.0446846759259701,0.));
#1548=CARTESIAN_POINT('',(-0.002808394998312,0.0446846759259701,0.));
#1549=CARTESIAN_POINT('',(-0.002808394998312,0.0446846759259701,-0.02));
#1550=CARTESIAN_POINT('',(-0.002808394998312,0.0446846759259701,-0.02));
#1551=CARTESIAN_POINT('',(-0.00131339499831199,0.0446846759259701,-0.02));
#1552=CARTESIAN_POINT('',(0.000181605001688005,0.0446846759259701,-0.02));
#1553=CARTESIAN_POINT('',(0.000181605001688005,0.0446846759259701,-0.02));
#1554=CARTESIAN_POINT('',(-0.002808394998312,0.0378229971975088,-0.02));
#1555=CARTESIAN_POINT('',(-0.002808394998312,0.0378229971975088,-0.02));
#1556=CARTESIAN_POINT('',(-0.002808394998312,0.0378229971975088,0.));
#1557=CARTESIAN_POINT('',(0.000181605001688005,0.0464846759259701,-0.02));
#1558=CARTESIAN_POINT('',(0.000181605001688005,0.0464846759259701,-0.02));
#1559=CARTESIAN_POINT('',(0.007595802500844,0.0378229971975088,-0.02));
#1560=CARTESIAN_POINT('',(-0.010404197499156,0.0378229971975088,0.));
#1561=CARTESIAN_POINT('',(0.,0.0378229971975088,0.));
#1562=CARTESIAN_POINT('',(0.,0.0310401525348425,0.));
#1563=CARTESIAN_POINT('',(-0.00131386906653642,0.0310401525348425,0.));
#1564=CARTESIAN_POINT('',(-0.002808394998312,0.0310401525348425,0.));
#1565=CARTESIAN_POINT('',(-0.002808394998312,0.0378229971975088,0.));
#1566=CARTESIAN_POINT('',(-0.002808394998312,0.0273613184690475,0.));
#1567=CARTESIAN_POINT('',(-0.010404197499156,0.0273613184690475,0.));
#1568=CARTESIAN_POINT('',(-0.0193138690665364,0.0310401525348425,0.));
#1569=CARTESIAN_POINT('',(-0.019313394998312,0.0446846759259701,0.));
#1570=CARTESIAN_POINT('',(0.007595802500844,0.0378229971975088,0.));
#1571=CARTESIAN_POINT('',(0.,0.0378229971975088,0.));
#1572=CARTESIAN_POINT('',(0.,0.0273613184690475,0.));
#1573=CARTESIAN_POINT('',(0.007595802500844,0.0273613184690475,0.));
#1574=CARTESIAN_POINT('',(-0.00131386906653642,0.0310401525348425,0.));
#1575=CARTESIAN_POINT('',(-0.002808394998312,0.0378229971975088,-0.02));
#1576=CARTESIAN_POINT('',(-0.002808394998312,0.0277846759259701,-0.0155798818456141));
#1577=CARTESIAN_POINT('',(-0.002808394998312,0.0277846759259701,-0.0163298818456141));
#1578=CARTESIAN_POINT('',(-0.002808394998312,0.0277846759259701,-0.0148298818456141));
#1579=CARTESIAN_POINT('',(-0.002808394998312,0.0277846759259701,-0.0163298818456141));
#1580=CARTESIAN_POINT('',(-0.002808394998312,0.0292846759259701,-0.0163298818456141));
#1581=CARTESIAN_POINT('',(-0.002808394998312,0.0292846759259701,-0.0155798818456141));
#1582=CARTESIAN_POINT('',(-0.002808394998312,0.0292846759259701,-0.0148298818456141));
#1583=CARTESIAN_POINT('',(-0.002808394998312,0.0277846759259701,-0.0148298818456141));
#1584=CARTESIAN_POINT('',(-0.002808394998312,0.0310401525348425,-0.02));
#1585=CARTESIAN_POINT('',(-0.002808394998312,0.0310401525348425,-0.02));
#1586=CARTESIAN_POINT('',(-0.002808394998312,0.0378229971975088,-0.02));
#1587=CARTESIAN_POINT('',(-0.002808394998312,0.0273613184690475,-0.02));
#1588=CARTESIAN_POINT('',(-0.002808394998312,0.0273613184690475,-0.02));
#1589=CARTESIAN_POINT('',(-0.00131386906653642,0.0310401525348425,-0.02));
#1590=CARTESIAN_POINT('',(-0.00131386906653642,0.0310401525348425,-0.02));
#1591=CARTESIAN_POINT('',(0.007595802500844,0.0273613184690475,-0.02));
#1592=CARTESIAN_POINT('',(0.,0.0273613184690475,0.0018));
#1593=CARTESIAN_POINT('',(0.,0.0273613184690475,0.0018));
#1594=CARTESIAN_POINT('',(-0.010404197499156,0.0273613184690475,0.0018));
#1595=CARTESIAN_POINT('',(-0.010404197499156,0.0273613184690475,-0.02));
#1596=CARTESIAN_POINT('',(0.007595802500844,0.0273613184690475,-0.02));
#1597=CARTESIAN_POINT('',(0.007595802500844,0.0378229971975088,-0.02));
#1598=CARTESIAN_POINT('',(-0.019313394998312,0.0446846759259701,-0.02));
#1599=CARTESIAN_POINT('',(-0.019313394998312,0.0446846759259701,-0.02));
#1600=CARTESIAN_POINT('',(-0.010404197499156,0.0378229971975088,-0.02));
#1601=CARTESIAN_POINT('',(-0.0193138690665364,0.0310401525348425,-0.02));
#1602=CARTESIAN_POINT('',(-0.0193138690665364,0.0310401525348425,-0.02));
#1603=CARTESIAN_POINT('',(-0.010404197499156,0.0378229971975088,-0.02));
#1604=CARTESIAN_POINT('',(0.,0.0378229971975088,0.0018));
#1605=CARTESIAN_POINT('',(0.,0.0378229971975088,0.0018));
#1606=CARTESIAN_POINT('',(-0.010404197499156,0.0378229971975088,0.0018));
#1607=CARTESIAN_POINT('',(-0.010313394998312,0.0277846759259701,-0.0163298818456141));
#1608=CARTESIAN_POINT('',(-0.010313394998312,0.0292846759259701,-0.0163298818456141));
#1609=CARTESIAN_POINT('',(-0.010313394998312,0.0277846759259701,-0.0163298818456141));
#1610=CARTESIAN_POINT('',(-0.010313394998312,0.0277846759259701,-0.0148298818456141));
#1611=CARTESIAN_POINT('',(-0.010313394998312,0.0292846759259701,-0.0148298818456141));
#1612=CARTESIAN_POINT('',(-0.010313394998312,0.0277846759259701,-0.0148298818456141));
#1613=CARTESIAN_POINT('',(-0.011808394998312,0.0277846759259701,-0.01));
#1614=CARTESIAN_POINT('',(-0.011808394998312,0.0292846759259701,-0.01));
#1615=MECHANICAL_DESIGN_GEOMETRIC_PRESENTATION_REPRESENTATION('',(#1014,
#59),#1616);
#1616=(
GEOMETRIC_REPRESENTATION_CONTEXT(3)
GLOBAL_UNCERTAINTY_ASSIGNED_CONTEXT((#1617))
GLOBAL_UNIT_ASSIGNED_CONTEXT((#1620,#1619,#1618))
REPRESENTATION_CONTEXT('Part 2','TOP_LEVEL_ASSEMBLY_PART')
);
#1617=UNCERTAINTY_MEASURE_WITH_UNIT(LENGTH_MEASURE(1.E-8),#1620,
'DISTANCE_ACCURACY_VALUE','Maximum Tolerance applied to model');
#1618=(
NAMED_UNIT(*)
SI_UNIT($,.STERADIAN.)
SOLID_ANGLE_UNIT()
);
#1619=(
NAMED_UNIT(*)
PLANE_ANGLE_UNIT()
SI_UNIT($,.RADIAN.)
);
#1620=(
LENGTH_UNIT()
NAMED_UNIT(*)
SI_UNIT($,.METRE.)
);
#1621=PRODUCT_DEFINITION_SHAPE('','',#1622);
#1622=PRODUCT_DEFINITION('','',#1624,#1623);
#1623=PRODUCT_DEFINITION_CONTEXT('',#1630,'design');
#1624=PRODUCT_DEFINITION_FORMATION_WITH_SPECIFIED_SOURCE('','',#1626,
 .NOT_KNOWN.);
#1625=PRODUCT_RELATED_PRODUCT_CATEGORY('','',(#1626));
#1626=PRODUCT('Part 2','Part 2','Part 2',(#1628));
#1627=PRODUCT_CATEGORY('','');
#1628=PRODUCT_CONTEXT('',#1630,'mechanical');
#1629=APPLICATION_PROTOCOL_DEFINITION('international standard',
'ap242_managed_model_based_3d_engineering',2020,#1630);
#1630=APPLICATION_CONTEXT('managed model based 3d engineering');
ENDSEC;
END-ISO-10303-21;
