ISO-10303-21;
HEADER;
/* Generated by software containing ST-Developer
 * from STEP Tools, Inc. (www.steptools.com) 
 */
/* OPTION: using custom renumber hook */

FILE_DESCRIPTION(
/* description */ ('STEP AP242 Edition 2',
'CAx-IF Rec.Pracs.---Representation and Presentation of Product Manufa
cturing Information (PMI)---4.0---2014-10-13',
'CAx-IF Rec.Pracs.---3D Tessellated Geometry---0.4---2014-09-14','2;1',
'CAx-IF Rec.Pracs.---User Defined Attributes---1.5---2016-08-15'),
/* implementation_level */ '2;1');

FILE_NAME(
/* name */ 'desktop - Part 1',
/* time_stamp */ '2026-08-29T04:49:51Z',
/* author */ (''),
/* organization */ (''),
/* preprocessor_version */ 'ST-DEVELOPER v20',
/* originating_system */ 'ONSHAPE BY PTC INC, 1.220',
/* authorisation */ '  ');

FILE_SCHEMA (('AP242_MANAGED_MODEL_BASED_3D_ENGINEERING_MIM_LF { 1 0 10303 442 3 1 4 }'));
ENDSEC;

DATA;
#10=SHAPE_REPRESENTATION_RELATIONSHIP('','',#427,#11);
#11=ADVANCED_BREP_SHAPE_REPRESENTATION('',(#425),#795);
#12=B_SPLINE_SURFACE_WITH_KNOTS('',5,1,((#602,#603),(#604,#605),(#606,#607),
(#608,#609),(#610,#611),(#612,#613),(#614,#615),(#616,#617)),
 .SURF_OF_LINEAR_EXTRUSION.,.F.,.F.,.F.,(6,2,6),(2,2),(0.,0.5,1.00000000001021),
(0.,1.),.UNSPECIFIED.);
#13=B_SPLINE_SURFACE_WITH_KNOTS('',5,1,((#649,#650),(#651,#652),(#653,#654),
(#655,#656),(#657,#658),(#659,#660),(#661,#662),(#663,#664)),
 .SURF_OF_LINEAR_EXTRUSION.,.F.,.F.,.F.,(6,2,6),(2,2),(0.,0.5,1.00000000001082),
(0.,1.),.UNSPECIFIED.);
#14=B_SPLINE_SURFACE_WITH_KNOTS('',5,1,((#680,#681),(#682,#683),(#684,#685),
(#686,#687),(#688,#689),(#690,#691),(#692,#693),(#694,#695)),
 .SURF_OF_LINEAR_EXTRUSION.,.F.,.F.,.F.,(6,2,6),(2,2),(0.,0.5,1.),(0.,1.),
 .UNSPECIFIED.);
#15=B_SPLINE_SURFACE_WITH_KNOTS('',5,1,((#712,#713),(#714,#715),(#716,#717),
(#718,#719),(#720,#721),(#722,#723),(#724,#725),(#726,#727)),
 .SURF_OF_LINEAR_EXTRUSION.,.F.,.F.,.F.,(6,2,6),(2,2),(0.,0.5,1.),(0.,1.),
 .UNSPECIFIED.);
#16=B_SPLINE_CURVE_WITH_KNOTS('',3,(#540,#541,#542,#543),.UNSPECIFIED.,
 .F.,.F.,(4,4),(0.,1.),.UNSPECIFIED.);
#17=B_SPLINE_CURVE_WITH_KNOTS('',3,(#549,#550,#551,#552),.UNSPECIFIED.,
 .F.,.F.,(4,4),(0.,1.),.UNSPECIFIED.);
#18=B_SPLINE_CURVE_WITH_KNOTS('',3,(#558,#559,#560,#561),.UNSPECIFIED.,
 .F.,.F.,(4,4),(0.,1.),.UNSPECIFIED.);
#19=B_SPLINE_CURVE_WITH_KNOTS('',3,(#567,#568,#569,#570),.UNSPECIFIED.,
 .F.,.F.,(4,4),(0.,1.),.UNSPECIFIED.);
#20=B_SPLINE_CURVE_WITH_KNOTS('',3,(#582,#583,#584,#585),.UNSPECIFIED.,
 .F.,.F.,(4,4),(0.,1.),.UNSPECIFIED.);
#21=B_SPLINE_CURVE_WITH_KNOTS('',3,(#588,#589,#590,#591),.UNSPECIFIED.,
 .F.,.F.,(4,4),(0.,1.),.UNSPECIFIED.);
#22=B_SPLINE_CURVE_WITH_KNOTS('',3,(#593,#594,#595,#596),.UNSPECIFIED.,
 .F.,.F.,(4,4),(0.,1.),.UNSPECIFIED.);
#23=B_SPLINE_CURVE_WITH_KNOTS('',3,(#598,#599,#600,#601),.UNSPECIFIED.,
 .F.,.F.,(4,4),(0.,1.),.UNSPECIFIED.);
#24=B_SPLINE_CURVE_WITH_KNOTS('',3,(#618,#619,#620,#621,#622,#623,#624,
#625,#626,#627,#628,#629,#630,#631,#632,#633),.UNSPECIFIED.,.F.,.F.,(4,
1,1,1,1,1,1,1,1,1,1,1,1,4),(0.,0.125,0.25,0.3125,0.34375,0.375,0.40625,
0.4375,0.5,0.5625,0.625,0.75,0.875,1.),.UNSPECIFIED.);
#25=B_SPLINE_CURVE_WITH_KNOTS('',3,(#634,#635,#636,#637,#638,#639,#640,
#641,#642,#643,#644,#645,#646,#647,#648),.UNSPECIFIED.,.F.,.F.,(4,1,1,1,
1,1,1,1,1,1,1,1,4),(0.,0.125,0.25,0.375,0.4375,0.5,0.5625,0.625,0.6875,
0.75,0.8125,0.875,1.),.UNSPECIFIED.);
#26=B_SPLINE_CURVE_WITH_KNOTS('',3,(#665,#666,#667,#668,#669,#670,#671,
#672,#673,#674,#675,#676,#677,#678,#679),.UNSPECIFIED.,.F.,.F.,(4,1,1,1,
1,1,1,1,1,1,1,1,4),(0.,0.125,0.25,0.375,0.4375,0.5,0.5625,0.625,0.6875,
0.75,0.8125,0.875,1.),.UNSPECIFIED.);
#27=B_SPLINE_CURVE_WITH_KNOTS('',3,(#696,#697,#698,#699,#700,#701,#702,
#703,#704,#705,#706,#707,#708,#709,#710,#711),.UNSPECIFIED.,.F.,.F.,(4,
1,1,1,1,1,1,1,1,1,1,1,1,4),(0.,0.125,0.25,0.3125,0.34375,0.375,0.40625,
0.4375,0.5,0.5625,0.625,0.75,0.875,1.),.UNSPECIFIED.);
#28=ORIENTED_EDGE('',*,*,#140,.T.);
#29=ORIENTED_EDGE('',*,*,#141,.T.);
#30=ORIENTED_EDGE('',*,*,#142,.F.);
#31=ORIENTED_EDGE('',*,*,#143,.T.);
#32=ORIENTED_EDGE('',*,*,#142,.T.);
#33=ORIENTED_EDGE('',*,*,#144,.T.);
#34=ORIENTED_EDGE('',*,*,#145,.F.);
#35=ORIENTED_EDGE('',*,*,#146,.F.);
#36=ORIENTED_EDGE('',*,*,#145,.T.);
#37=ORIENTED_EDGE('',*,*,#147,.T.);
#38=ORIENTED_EDGE('',*,*,#148,.F.);
#39=ORIENTED_EDGE('',*,*,#149,.F.);
#40=ORIENTED_EDGE('',*,*,#148,.T.);
#41=ORIENTED_EDGE('',*,*,#150,.T.);
#42=ORIENTED_EDGE('',*,*,#140,.F.);
#43=ORIENTED_EDGE('',*,*,#151,.T.);
#44=ORIENTED_EDGE('',*,*,#143,.F.);
#45=ORIENTED_EDGE('',*,*,#146,.T.);
#46=ORIENTED_EDGE('',*,*,#149,.T.);
#47=ORIENTED_EDGE('',*,*,#151,.F.);
#48=ORIENTED_EDGE('',*,*,#152,.F.);
#49=ORIENTED_EDGE('',*,*,#153,.T.);
#50=ORIENTED_EDGE('',*,*,#154,.T.);
#51=ORIENTED_EDGE('',*,*,#155,.F.);
#52=ORIENTED_EDGE('',*,*,#156,.T.);
#53=ORIENTED_EDGE('',*,*,#157,.T.);
#54=ORIENTED_EDGE('',*,*,#158,.T.);
#55=ORIENTED_EDGE('',*,*,#159,.T.);
#56=ORIENTED_EDGE('',*,*,#160,.F.);
#57=ORIENTED_EDGE('',*,*,#144,.F.);
#58=ORIENTED_EDGE('',*,*,#161,.F.);
#59=ORIENTED_EDGE('',*,*,#159,.F.);
#60=ORIENTED_EDGE('',*,*,#161,.T.);
#61=ORIENTED_EDGE('',*,*,#141,.F.);
#62=ORIENTED_EDGE('',*,*,#162,.F.);
#63=ORIENTED_EDGE('',*,*,#156,.F.);
#64=ORIENTED_EDGE('',*,*,#160,.T.);
#65=ORIENTED_EDGE('',*,*,#158,.F.);
#66=ORIENTED_EDGE('',*,*,#163,.F.);
#67=ORIENTED_EDGE('',*,*,#147,.F.);
#68=ORIENTED_EDGE('',*,*,#162,.T.);
#69=ORIENTED_EDGE('',*,*,#150,.F.);
#70=ORIENTED_EDGE('',*,*,#163,.T.);
#71=ORIENTED_EDGE('',*,*,#157,.F.);
#72=ORIENTED_EDGE('',*,*,#164,.F.);
#73=ORIENTED_EDGE('',*,*,#165,.F.);
#74=ORIENTED_EDGE('',*,*,#166,.T.);
#75=ORIENTED_EDGE('',*,*,#167,.T.);
#76=ORIENTED_EDGE('',*,*,#168,.F.);
#77=ORIENTED_EDGE('',*,*,#169,.T.);
#78=ORIENTED_EDGE('',*,*,#165,.T.);
#79=ORIENTED_EDGE('',*,*,#170,.F.);
#80=ORIENTED_EDGE('',*,*,#152,.T.);
#81=ORIENTED_EDGE('',*,*,#171,.T.);
#82=ORIENTED_EDGE('',*,*,#172,.T.);
#83=ORIENTED_EDGE('',*,*,#173,.F.);
#84=ORIENTED_EDGE('',*,*,#174,.F.);
#85=ORIENTED_EDGE('',*,*,#175,.T.);
#86=ORIENTED_EDGE('',*,*,#176,.T.);
#87=ORIENTED_EDGE('',*,*,#177,.F.);
#88=ORIENTED_EDGE('',*,*,#178,.F.);
#89=ORIENTED_EDGE('',*,*,#179,.F.);
#90=ORIENTED_EDGE('',*,*,#168,.T.);
#91=ORIENTED_EDGE('',*,*,#180,.T.);
#92=ORIENTED_EDGE('',*,*,#181,.T.);
#93=ORIENTED_EDGE('',*,*,#166,.F.);
#94=ORIENTED_EDGE('',*,*,#169,.F.);
#95=ORIENTED_EDGE('',*,*,#179,.T.);
#96=ORIENTED_EDGE('',*,*,#172,.F.);
#97=ORIENTED_EDGE('',*,*,#182,.T.);
#98=ORIENTED_EDGE('',*,*,#183,.T.);
#99=ORIENTED_EDGE('',*,*,#184,.F.);
#100=ORIENTED_EDGE('',*,*,#185,.F.);
#101=ORIENTED_EDGE('',*,*,#180,.F.);
#102=ORIENTED_EDGE('',*,*,#173,.T.);
#103=ORIENTED_EDGE('',*,*,#184,.T.);
#104=ORIENTED_EDGE('',*,*,#178,.T.);
#105=ORIENTED_EDGE('',*,*,#185,.T.);
#106=ORIENTED_EDGE('',*,*,#183,.F.);
#107=ORIENTED_EDGE('',*,*,#186,.F.);
#108=ORIENTED_EDGE('',*,*,#154,.F.);
#109=ORIENTED_EDGE('',*,*,#187,.T.);
#110=ORIENTED_EDGE('',*,*,#167,.F.);
#111=ORIENTED_EDGE('',*,*,#181,.F.);
#112=ORIENTED_EDGE('',*,*,#175,.F.);
#113=ORIENTED_EDGE('',*,*,#188,.F.);
#114=ORIENTED_EDGE('',*,*,#189,.T.);
#115=ORIENTED_EDGE('',*,*,#190,.T.);
#116=ORIENTED_EDGE('',*,*,#174,.T.);
#117=ORIENTED_EDGE('',*,*,#191,.F.);
#118=ORIENTED_EDGE('',*,*,#192,.F.);
#119=ORIENTED_EDGE('',*,*,#188,.T.);
#120=ORIENTED_EDGE('',*,*,#177,.T.);
#121=ORIENTED_EDGE('',*,*,#193,.F.);
#122=ORIENTED_EDGE('',*,*,#194,.F.);
#123=ORIENTED_EDGE('',*,*,#191,.T.);
#124=ORIENTED_EDGE('',*,*,#176,.F.);
#125=ORIENTED_EDGE('',*,*,#190,.F.);
#126=ORIENTED_EDGE('',*,*,#195,.T.);
#127=ORIENTED_EDGE('',*,*,#193,.T.);
#128=ORIENTED_EDGE('',*,*,#189,.F.);
#129=ORIENTED_EDGE('',*,*,#192,.T.);
#130=ORIENTED_EDGE('',*,*,#194,.T.);
#131=ORIENTED_EDGE('',*,*,#195,.F.);
#132=ORIENTED_EDGE('',*,*,#164,.T.);
#133=ORIENTED_EDGE('',*,*,#187,.F.);
#134=ORIENTED_EDGE('',*,*,#153,.F.);
#135=ORIENTED_EDGE('',*,*,#170,.T.);
#136=ORIENTED_EDGE('',*,*,#182,.F.);
#137=ORIENTED_EDGE('',*,*,#171,.F.);
#138=ORIENTED_EDGE('',*,*,#155,.T.);
#139=ORIENTED_EDGE('',*,*,#186,.T.);
#140=EDGE_CURVE('',#196,#197,#232,.T.);
#141=EDGE_CURVE('',#197,#198,#16,.T.);
#142=EDGE_CURVE('',#199,#198,#233,.T.);
#143=EDGE_CURVE('',#199,#196,#234,.T.);
#144=EDGE_CURVE('',#198,#200,#17,.T.);
#145=EDGE_CURVE('',#201,#200,#235,.T.);
#146=EDGE_CURVE('',#199,#201,#236,.T.);
#147=EDGE_CURVE('',#200,#202,#18,.T.);
#148=EDGE_CURVE('',#203,#202,#237,.T.);
#149=EDGE_CURVE('',#201,#203,#238,.T.);
#150=EDGE_CURVE('',#202,#197,#19,.T.);
#151=EDGE_CURVE('',#196,#203,#239,.T.);
#152=EDGE_CURVE('',#204,#205,#240,.T.);
#153=EDGE_CURVE('',#204,#206,#241,.T.);
#154=EDGE_CURVE('',#206,#207,#242,.T.);
#155=EDGE_CURVE('',#205,#207,#243,.T.);
#156=EDGE_CURVE('',#208,#209,#20,.T.);
#157=EDGE_CURVE('',#209,#210,#21,.T.);
#158=EDGE_CURVE('',#210,#211,#22,.T.);
#159=EDGE_CURVE('',#211,#208,#23,.T.);
#160=EDGE_CURVE('',#200,#211,#24,.F.);
#161=EDGE_CURVE('',#208,#198,#25,.F.);
#162=EDGE_CURVE('',#209,#197,#26,.F.);
#163=EDGE_CURVE('',#202,#210,#27,.F.);
#164=EDGE_CURVE('',#212,#213,#244,.T.);
#165=EDGE_CURVE('',#214,#212,#245,.T.);
#166=EDGE_CURVE('',#214,#215,#246,.T.);
#167=EDGE_CURVE('',#215,#213,#247,.T.);
#168=EDGE_CURVE('',#216,#217,#248,.T.);
#169=EDGE_CURVE('',#216,#214,#249,.T.);
#170=EDGE_CURVE('',#204,#212,#250,.T.);
#171=EDGE_CURVE('',#205,#218,#251,.T.);
#172=EDGE_CURVE('',#218,#219,#252,.T.);
#173=EDGE_CURVE('',#217,#219,#253,.T.);
#174=EDGE_CURVE('',#220,#221,#254,.T.);
#175=EDGE_CURVE('',#220,#222,#255,.T.);
#176=EDGE_CURVE('',#222,#223,#256,.T.);
#177=EDGE_CURVE('',#221,#223,#257,.T.);
#178=EDGE_CURVE('',#224,#225,#258,.T.);
#179=EDGE_CURVE('',#216,#224,#259,.T.);
#180=EDGE_CURVE('',#217,#225,#260,.T.);
#181=EDGE_CURVE('',#224,#215,#261,.T.);
#182=EDGE_CURVE('',#218,#226,#262,.T.);
#183=EDGE_CURVE('',#226,#227,#263,.T.);
#184=EDGE_CURVE('',#219,#227,#264,.T.);
#185=EDGE_CURVE('',#225,#227,#265,.T.);
#186=EDGE_CURVE('',#207,#226,#266,.T.);
#187=EDGE_CURVE('',#206,#213,#267,.T.);
#188=EDGE_CURVE('',#228,#220,#268,.T.);
#189=EDGE_CURVE('',#228,#229,#269,.T.);
#190=EDGE_CURVE('',#229,#222,#270,.T.);
#191=EDGE_CURVE('',#230,#221,#271,.T.);
#192=EDGE_CURVE('',#228,#230,#272,.T.);
#193=EDGE_CURVE('',#231,#223,#273,.T.);
#194=EDGE_CURVE('',#230,#231,#274,.T.);
#195=EDGE_CURVE('',#229,#231,#275,.T.);
#196=VERTEX_POINT('',#538);
#197=VERTEX_POINT('',#539);
#198=VERTEX_POINT('',#544);
#199=VERTEX_POINT('',#546);
#200=VERTEX_POINT('',#553);
#201=VERTEX_POINT('',#555);
#202=VERTEX_POINT('',#562);
#203=VERTEX_POINT('',#564);
#204=VERTEX_POINT('',#575);
#205=VERTEX_POINT('',#576);
#206=VERTEX_POINT('',#578);
#207=VERTEX_POINT('',#580);
#208=VERTEX_POINT('',#586);
#209=VERTEX_POINT('',#587);
#210=VERTEX_POINT('',#592);
#211=VERTEX_POINT('',#597);
#212=VERTEX_POINT('',#730);
#213=VERTEX_POINT('',#731);
#214=VERTEX_POINT('',#733);
#215=VERTEX_POINT('',#735);
#216=VERTEX_POINT('',#739);
#217=VERTEX_POINT('',#740);
#218=VERTEX_POINT('',#744);
#219=VERTEX_POINT('',#746);
#220=VERTEX_POINT('',#749);
#221=VERTEX_POINT('',#750);
#222=VERTEX_POINT('',#752);
#223=VERTEX_POINT('',#754);
#224=VERTEX_POINT('',#758);
#225=VERTEX_POINT('',#759);
#226=VERTEX_POINT('',#766);
#227=VERTEX_POINT('',#768);
#228=VERTEX_POINT('',#777);
#229=VERTEX_POINT('',#779);
#230=VERTEX_POINT('',#783);
#231=VERTEX_POINT('',#787);
#232=LINE('',#537,#276);
#233=LINE('',#545,#277);
#234=LINE('',#547,#278);
#235=LINE('',#554,#279);
#236=LINE('',#556,#280);
#237=LINE('',#563,#281);
#238=LINE('',#565,#282);
#239=LINE('',#571,#283);
#240=LINE('',#574,#284);
#241=LINE('',#577,#285);
#242=LINE('',#579,#286);
#243=LINE('',#581,#287);
#244=LINE('',#729,#288);
#245=LINE('',#732,#289);
#246=LINE('',#734,#290);
#247=LINE('',#736,#291);
#248=LINE('',#738,#292);
#249=LINE('',#741,#293);
#250=LINE('',#742,#294);
#251=LINE('',#743,#295);
#252=LINE('',#745,#296);
#253=LINE('',#747,#297);
#254=LINE('',#748,#298);
#255=LINE('',#751,#299);
#256=LINE('',#753,#300);
#257=LINE('',#755,#301);
#258=LINE('',#757,#302);
#259=LINE('',#760,#303);
#260=LINE('',#761,#304);
#261=LINE('',#763,#305);
#262=LINE('',#765,#306);
#263=LINE('',#767,#307);
#264=LINE('',#769,#308);
#265=LINE('',#771,#309);
#266=LINE('',#773,#310);
#267=LINE('',#774,#311);
#268=LINE('',#776,#312);
#269=LINE('',#778,#313);
#270=LINE('',#780,#314);
#271=LINE('',#782,#315);
#272=LINE('',#784,#316);
#273=LINE('',#786,#317);
#274=LINE('',#788,#318);
#275=LINE('',#790,#319);
#276=VECTOR('',#453,1.);
#277=VECTOR('',#454,1.);
#278=VECTOR('',#455,1.);
#279=VECTOR('',#458,1.);
#280=VECTOR('',#459,1.);
#281=VECTOR('',#462,1.);
#282=VECTOR('',#463,1.);
#283=VECTOR('',#466,1.);
#284=VECTOR('',#471,1.);
#285=VECTOR('',#472,1.);
#286=VECTOR('',#473,1.);
#287=VECTOR('',#474,1.);
#288=VECTOR('',#477,1.);
#289=VECTOR('',#478,1.);
#290=VECTOR('',#479,1.);
#291=VECTOR('',#480,1.);
#292=VECTOR('',#483,1.);
#293=VECTOR('',#484,1.);
#294=VECTOR('',#485,1.);
#295=VECTOR('',#486,1.);
#296=VECTOR('',#487,1.);
#297=VECTOR('',#488,1.);
#298=VECTOR('',#489,1.);
#299=VECTOR('',#490,1.);
#300=VECTOR('',#491,1.);
#301=VECTOR('',#492,1.);
#302=VECTOR('',#495,1.);
#303=VECTOR('',#496,1.);
#304=VECTOR('',#497,1.);
#305=VECTOR('',#500,1.);
#306=VECTOR('',#503,1.);
#307=VECTOR('',#504,1.);
#308=VECTOR('',#505,1.);
#309=VECTOR('',#508,1.);
#310=VECTOR('',#511,1.);
#311=VECTOR('',#512,1.);
#312=VECTOR('',#515,1.);
#313=VECTOR('',#516,1.);
#314=VECTOR('',#517,1.);
#315=VECTOR('',#520,1.);
#316=VECTOR('',#521,1.);
#317=VECTOR('',#524,1.);
#318=VECTOR('',#525,1.);
#319=VECTOR('',#528,1.);
#320=EDGE_LOOP('',(#28,#29,#30,#31));
#321=EDGE_LOOP('',(#32,#33,#34,#35));
#322=EDGE_LOOP('',(#36,#37,#38,#39));
#323=EDGE_LOOP('',(#40,#41,#42,#43));
#324=EDGE_LOOP('',(#44,#45,#46,#47));
#325=EDGE_LOOP('',(#48,#49,#50,#51));
#326=EDGE_LOOP('',(#52,#53,#54,#55));
#327=EDGE_LOOP('',(#56,#57,#58,#59));
#328=EDGE_LOOP('',(#60,#61,#62,#63));
#329=EDGE_LOOP('',(#64,#65,#66,#67));
#330=EDGE_LOOP('',(#68,#69,#70,#71));
#331=EDGE_LOOP('',(#72,#73,#74,#75));
#332=EDGE_LOOP('',(#76,#77,#78,#79,#80,#81,#82,#83));
#333=EDGE_LOOP('',(#84,#85,#86,#87));
#334=EDGE_LOOP('',(#88,#89,#90,#91));
#335=EDGE_LOOP('',(#92,#93,#94,#95));
#336=EDGE_LOOP('',(#96,#97,#98,#99));
#337=EDGE_LOOP('',(#100,#101,#102,#103));
#338=EDGE_LOOP('',(#104,#105,#106,#107,#108,#109,#110,#111));
#339=EDGE_LOOP('',(#112,#113,#114,#115));
#340=EDGE_LOOP('',(#116,#117,#118,#119));
#341=EDGE_LOOP('',(#120,#121,#122,#123));
#342=EDGE_LOOP('',(#124,#125,#126,#127));
#343=EDGE_LOOP('',(#128,#129,#130,#131));
#344=EDGE_LOOP('',(#132,#133,#134,#135));
#345=EDGE_LOOP('',(#136,#137,#138,#139));
#346=FACE_BOUND('',#320,.T.);
#347=FACE_BOUND('',#321,.T.);
#348=FACE_BOUND('',#322,.T.);
#349=FACE_BOUND('',#323,.T.);
#350=FACE_BOUND('',#324,.T.);
#351=FACE_BOUND('',#325,.T.);
#352=FACE_BOUND('',#326,.T.);
#353=FACE_BOUND('',#327,.T.);
#354=FACE_BOUND('',#328,.T.);
#355=FACE_BOUND('',#329,.T.);
#356=FACE_BOUND('',#330,.T.);
#357=FACE_BOUND('',#331,.T.);
#358=FACE_BOUND('',#332,.T.);
#359=FACE_BOUND('',#333,.T.);
#360=FACE_BOUND('',#334,.T.);
#361=FACE_BOUND('',#335,.T.);
#362=FACE_BOUND('',#336,.T.);
#363=FACE_BOUND('',#337,.T.);
#364=FACE_BOUND('',#338,.T.);
#365=FACE_BOUND('',#339,.T.);
#366=FACE_BOUND('',#340,.T.);
#367=FACE_BOUND('',#341,.T.);
#368=FACE_BOUND('',#342,.T.);
#369=FACE_BOUND('',#343,.T.);
#370=FACE_BOUND('',#344,.T.);
#371=FACE_BOUND('',#345,.T.);
#372=PLANE('',#429);
#373=PLANE('',#430);
#374=PLANE('',#431);
#375=PLANE('',#432);
#376=PLANE('',#433);
#377=PLANE('',#434);
#378=PLANE('',#435);
#379=PLANE('',#436);
#380=PLANE('',#437);
#381=PLANE('',#438);
#382=PLANE('',#439);
#383=PLANE('',#440);
#384=PLANE('',#441);
#385=PLANE('',#442);
#386=PLANE('',#443);
#387=PLANE('',#444);
#388=PLANE('',#445);
#389=PLANE('',#446);
#390=PLANE('',#447);
#391=PLANE('',#448);
#392=ADVANCED_FACE('',(#346),#372,.T.);
#393=ADVANCED_FACE('',(#347),#373,.F.);
#394=ADVANCED_FACE('',(#348),#374,.F.);
#395=ADVANCED_FACE('',(#349),#375,.T.);
#396=ADVANCED_FACE('',(#350),#376,.T.);
#397=ADVANCED_FACE('',(#351,#352),#377,.F.);
#398=ADVANCED_FACE('',(#353),#12,.T.);
#399=ADVANCED_FACE('',(#354),#13,.T.);
#400=ADVANCED_FACE('',(#355),#14,.T.);
#401=ADVANCED_FACE('',(#356),#15,.T.);
#402=ADVANCED_FACE('',(#357),#378,.F.);
#403=ADVANCED_FACE('',(#358,#359),#379,.T.);
#404=ADVANCED_FACE('',(#360),#380,.T.);
#405=ADVANCED_FACE('',(#361),#381,.F.);
#406=ADVANCED_FACE('',(#362),#382,.F.);
#407=ADVANCED_FACE('',(#363),#383,.T.);
#408=ADVANCED_FACE('',(#364),#384,.F.);
#409=ADVANCED_FACE('',(#365),#385,.T.);
#410=ADVANCED_FACE('',(#366),#386,.F.);
#411=ADVANCED_FACE('',(#367),#387,.F.);
#412=ADVANCED_FACE('',(#368),#388,.T.);
#413=ADVANCED_FACE('',(#369),#389,.T.);
#414=ADVANCED_FACE('',(#370),#390,.F.);
#415=ADVANCED_FACE('',(#371),#391,.T.);
#416=CLOSED_SHELL('',(#392,#393,#394,#395,#396,#397,#398,#399,#400,#401,
#402,#403,#404,#405,#406,#407,#408,#409,#410,#411,#412,#413,#414,#415));
#417=STYLED_ITEM('',(#418),#425);
#418=PRESENTATION_STYLE_ASSIGNMENT((#419));
#419=SURFACE_STYLE_USAGE(.BOTH.,#420);
#420=SURFACE_SIDE_STYLE('',(#421));
#421=SURFACE_STYLE_FILL_AREA(#422);
#422=FILL_AREA_STYLE('',(#423));
#423=FILL_AREA_STYLE_COLOUR('',#424);
#424=COLOUR_RGB('',0.917647058823529,0.643137254901961,0.568627450980392);
#425=MANIFOLD_SOLID_BREP('Part 1',#416);
#426=SHAPE_DEFINITION_REPRESENTATION(#800,#427);
#427=SHAPE_REPRESENTATION('Part 1',(#428),#795);
#428=AXIS2_PLACEMENT_3D('',#535,#449,#450);
#429=AXIS2_PLACEMENT_3D('',#536,#451,#452);
#430=AXIS2_PLACEMENT_3D('',#548,#456,#457);
#431=AXIS2_PLACEMENT_3D('',#557,#460,#461);
#432=AXIS2_PLACEMENT_3D('',#566,#464,#465);
#433=AXIS2_PLACEMENT_3D('',#572,#467,#468);
#434=AXIS2_PLACEMENT_3D('',#573,#469,#470);
#435=AXIS2_PLACEMENT_3D('',#728,#475,#476);
#436=AXIS2_PLACEMENT_3D('',#737,#481,#482);
#437=AXIS2_PLACEMENT_3D('',#756,#493,#494);
#438=AXIS2_PLACEMENT_3D('',#762,#498,#499);
#439=AXIS2_PLACEMENT_3D('',#764,#501,#502);
#440=AXIS2_PLACEMENT_3D('',#770,#506,#507);
#441=AXIS2_PLACEMENT_3D('',#772,#509,#510);
#442=AXIS2_PLACEMENT_3D('',#775,#513,#514);
#443=AXIS2_PLACEMENT_3D('',#781,#518,#519);
#444=AXIS2_PLACEMENT_3D('',#785,#522,#523);
#445=AXIS2_PLACEMENT_3D('',#789,#526,#527);
#446=AXIS2_PLACEMENT_3D('',#791,#529,#530);
#447=AXIS2_PLACEMENT_3D('',#792,#531,#532);
#448=AXIS2_PLACEMENT_3D('',#793,#533,#534);
#449=DIRECTION('',(0.,0.,1.));
#450=DIRECTION('',(1.,0.,0.));
#451=DIRECTION('',(0.,-1.,0.));
#452=DIRECTION('',(0.,0.,-1.));
#453=DIRECTION('',(0.,0.,1.));
#454=DIRECTION('',(0.,0.,1.));
#455=DIRECTION('',(1.,0.,0.));
#456=DIRECTION('',(1.,0.,0.));
#457=DIRECTION('',(0.,0.,-1.));
#458=DIRECTION('',(0.,0.,1.));
#459=DIRECTION('',(0.,1.,0.));
#460=DIRECTION('',(0.,-1.,0.));
#461=DIRECTION('',(0.,0.,-1.));
#462=DIRECTION('',(0.,0.,1.));
#463=DIRECTION('',(1.,0.,0.));
#464=DIRECTION('',(1.,0.,0.));
#465=DIRECTION('',(0.,0.,-1.));
#466=DIRECTION('',(0.,1.,0.));
#467=DIRECTION('',(0.,0.,-1.));
#468=DIRECTION('',(1.,0.,0.));
#469=DIRECTION('',(0.,0.,-1.));
#470=DIRECTION('',(1.,0.,0.));
#471=DIRECTION('',(1.,0.,0.));
#472=DIRECTION('',(0.,1.,0.));
#473=DIRECTION('',(1.,0.,0.));
#474=DIRECTION('',(0.,1.,0.));
#475=DIRECTION('',(0.,0.,1.));
#476=DIRECTION('',(1.,0.,0.));
#477=DIRECTION('',(0.,1.,0.));
#478=DIRECTION('',(1.,0.,0.));
#479=DIRECTION('',(0.,1.,0.));
#480=DIRECTION('',(1.,0.,0.));
#481=DIRECTION('',(0.,-1.,0.));
#482=DIRECTION('',(1.,0.,0.));
#483=DIRECTION('',(1.,0.,0.));
#484=DIRECTION('',(0.,0.,-1.));
#485=DIRECTION('',(0.,0.,1.));
#486=DIRECTION('',(0.,0.,1.));
#487=DIRECTION('',(1.,0.,0.));
#488=DIRECTION('',(0.,0.,-1.));
#489=DIRECTION('',(0.,0.,-1.));
#490=DIRECTION('',(1.,0.,0.));
#491=DIRECTION('',(0.,0.,-1.));
#492=DIRECTION('',(1.,0.,0.));
#493=DIRECTION('',(0.,0.,1.));
#494=DIRECTION('',(1.,0.,0.));
#495=DIRECTION('',(1.,0.,0.));
#496=DIRECTION('',(0.,1.,0.));
#497=DIRECTION('',(0.,1.,0.));
#498=DIRECTION('',(1.,0.,0.));
#499=DIRECTION('',(0.,0.,-1.));
#500=DIRECTION('',(0.,0.,-1.));
#501=DIRECTION('',(0.,0.,1.));
#502=DIRECTION('',(1.,0.,0.));
#503=DIRECTION('',(0.,1.,0.));
#504=DIRECTION('',(1.,0.,0.));
#505=DIRECTION('',(0.,1.,0.));
#506=DIRECTION('',(1.,0.,0.));
#507=DIRECTION('',(0.,0.,-1.));
#508=DIRECTION('',(0.,0.,-1.));
#509=DIRECTION('',(0.,-1.,0.));
#510=DIRECTION('',(1.,0.,0.));
#511=DIRECTION('',(0.,0.,1.));
#512=DIRECTION('',(0.,0.,1.));
#513=DIRECTION('',(0.,0.,-1.));
#514=DIRECTION('',(-1.,0.,0.));
#515=DIRECTION('',(0.,-1.,0.));
#516=DIRECTION('',(1.,0.,0.));
#517=DIRECTION('',(0.,-1.,0.));
#518=DIRECTION('',(-1.,0.,0.));
#519=DIRECTION('',(0.,0.,1.));
#520=DIRECTION('',(0.,-1.,0.));
#521=DIRECTION('',(0.,0.,-1.));
#522=DIRECTION('',(0.,0.,-1.));
#523=DIRECTION('',(-1.,0.,0.));
#524=DIRECTION('',(0.,-1.,0.));
#525=DIRECTION('',(1.,0.,0.));
#526=DIRECTION('',(-1.,0.,0.));
#527=DIRECTION('',(0.,0.,1.));
#528=DIRECTION('',(0.,0.,-1.));
#529=DIRECTION('',(0.,-1.,0.));
#530=DIRECTION('',(1.,0.,0.));
#531=DIRECTION('',(1.,0.,0.));
#532=DIRECTION('',(0.,0.,-1.));
#533=DIRECTION('',(1.,0.,0.));
#534=DIRECTION('',(0.,0.,-1.));
#535=CARTESIAN_POINT('',(0.,0.,0.));
#536=CARTESIAN_POINT('',(-0.0185816297307611,-0.00405686437371336,-0.00495502282939064));
#537=CARTESIAN_POINT('',(-0.0106303244829178,-0.00405686437371336,-0.00495502282939064));
#538=CARTESIAN_POINT('',(-0.0106303244829178,-0.00405686437371336,-0.00495502282939064));
#539=CARTESIAN_POINT('',(-0.0106303244829178,-0.00405686437371336,-0.00345502282939065));
#540=CARTESIAN_POINT('',(-0.010630324482921,-0.00405686437371336,-0.00345502282939064));
#541=CARTESIAN_POINT('',(-0.015931194648146,-0.00405686437371336,-0.00345502282939064));
#542=CARTESIAN_POINT('',(-0.0212320648133709,-0.00405686437371336,-0.00345502282939064));
#543=CARTESIAN_POINT('',(-0.0265329349785959,-0.00405686437371336,-0.00345502282939064));
#544=CARTESIAN_POINT('',(-0.0265329349786043,-0.00405686437371336,-0.00345502282939065));
#545=CARTESIAN_POINT('',(-0.0265329349786043,-0.00405686437371336,-0.00495502282939064));
#546=CARTESIAN_POINT('',(-0.0265329349786043,-0.00405686437371336,-0.00495502282939064));
#547=CARTESIAN_POINT('',(-0.0185816297307611,-0.00405686437371336,-0.00495502282939064));
#548=CARTESIAN_POINT('',(-0.0265329349786043,-0.000704096299028839,-0.00495502282939064));
#549=CARTESIAN_POINT('',(-0.0265329349786043,-0.00405686437371043,-0.00345502282939064));
#550=CARTESIAN_POINT('',(-0.0265329349786043,-0.00182168565725506,-0.00345502282939064));
#551=CARTESIAN_POINT('',(-0.0265329349786043,0.00041349305920031,-0.00345502282939064));
#552=CARTESIAN_POINT('',(-0.0265329349786043,0.00264867177565568,-0.00345502282939064));
#553=CARTESIAN_POINT('',(-0.0265329349786043,0.00264867177565569,-0.00345502282939065));
#554=CARTESIAN_POINT('',(-0.0265329349786043,0.00264867177565569,-0.00495502282939064));
#555=CARTESIAN_POINT('',(-0.0265329349786043,0.00264867177565569,-0.00495502282939064));
#556=CARTESIAN_POINT('',(-0.0265329349786043,-0.000704096299028839,-0.00495502282939064));
#557=CARTESIAN_POINT('',(-0.0185816297307611,0.00264867177565569,-0.00495502282939064));
#558=CARTESIAN_POINT('',(-0.026532934978596,0.00264867177565569,-0.00345502282939064));
#559=CARTESIAN_POINT('',(-0.0212320648133688,0.00264867177565569,-0.00345502282939064));
#560=CARTESIAN_POINT('',(-0.0159311946481417,0.00264867177565569,-0.00345502282939064));
#561=CARTESIAN_POINT('',(-0.0106303244829145,0.00264867177565569,-0.00345502282939064));
#562=CARTESIAN_POINT('',(-0.0106303244829178,0.00264867177565569,-0.00345502282939065));
#563=CARTESIAN_POINT('',(-0.0106303244829178,0.00264867177565569,-0.00495502282939064));
#564=CARTESIAN_POINT('',(-0.0106303244829178,0.00264867177565569,-0.00495502282939064));
#565=CARTESIAN_POINT('',(-0.0185816297307611,0.00264867177565569,-0.00495502282939064));
#566=CARTESIAN_POINT('',(-0.0106303244829178,-0.000704096299028839,-0.00495502282939064));
#567=CARTESIAN_POINT('',(-0.0106303244829178,0.00264867177565568,-0.00345502282939064));
#568=CARTESIAN_POINT('',(-0.0106303244829178,0.00041349305920031,-0.00345502282939064));
#569=CARTESIAN_POINT('',(-0.0106303244829178,-0.00182168565725506,-0.00345502282939064));
#570=CARTESIAN_POINT('',(-0.0106303244829178,-0.00405686437371043,-0.00345502282939064));
#571=CARTESIAN_POINT('',(-0.0106303244829178,-0.000704096299028839,-0.00495502282939064));
#572=CARTESIAN_POINT('',(-0.0185816297307611,-0.000704096299028839,-0.00495502282939064));
#573=CARTESIAN_POINT('',(-0.0185816297307611,-0.000704096299028839,-0.00245502282939064));
#574=CARTESIAN_POINT('',(-0.0190548651153221,-0.0015,-0.00245502282939064));
#575=CARTESIAN_POINT('',(-0.0217749997973442,-0.0015,-0.00245502282939064));
#576=CARTESIAN_POINT('',(-0.0164097622036934,-0.0015,-0.00245502282939064));
#577=CARTESIAN_POINT('',(-0.0217749997973442,-0.00075,-0.00245502282939064));
#578=CARTESIAN_POINT('',(-0.0217749997973442,0.,-0.00245502282939064));
#579=CARTESIAN_POINT('',(-0.0190548651153221,0.,-0.00245502282939064));
#580=CARTESIAN_POINT('',(-0.0164097622036934,0.,-0.00245502282939064));
#581=CARTESIAN_POINT('',(-0.0164097622036934,-0.00075,-0.00245502282939064));
#582=CARTESIAN_POINT('',(-0.0255329349785788,-0.00305686437371336,-0.00245502282939064));
#583=CARTESIAN_POINT('',(-0.020898731480028,-0.00305686437371336,-0.00245502282939064));
#584=CARTESIAN_POINT('',(-0.0162645279814773,-0.00305686437371336,-0.00245502282939064));
#585=CARTESIAN_POINT('',(-0.0116303244829265,-0.00305686437371336,-0.00245502282939064));
#586=CARTESIAN_POINT('',(-0.0255329349786043,-0.00305686437368698,-0.00245502282939064));
#587=CARTESIAN_POINT('',(-0.0116303244829265,-0.00305686437371337,-0.00245502282939064));
#588=CARTESIAN_POINT('',(-0.0116303244829178,-0.00305686437368718,-0.00245502282939064));
#589=CARTESIAN_POINT('',(-0.0116303244829178,-0.00148835232390625,-0.00245502282939064));
#590=CARTESIAN_POINT('',(-0.0116303244829178,8.01597258746894E-5,-0.00245502282939064));
#591=CARTESIAN_POINT('',(-0.0116303244829178,0.00164867177565563,-0.00245502282939064));
#592=CARTESIAN_POINT('',(-0.011630324482909,0.00164867177565568,-0.00245502282939064));
#593=CARTESIAN_POINT('',(-0.011630324482909,0.00164867177565569,-0.00245502282939064));
#594=CARTESIAN_POINT('',(-0.0162645279814654,0.00164867177565569,-0.00245502282939064));
#595=CARTESIAN_POINT('',(-0.0208987314800218,0.00164867177565569,-0.00245502282939064));
#596=CARTESIAN_POINT('',(-0.0255329349785781,0.00164867177565569,-0.00245502282939064));
#597=CARTESIAN_POINT('',(-0.0255329349785781,0.00164867177565568,-0.00245502282939064));
#598=CARTESIAN_POINT('',(-0.0255329349786043,0.00164867177565572,-0.00245502282939064));
#599=CARTESIAN_POINT('',(-0.0255329349786043,8.01597258748192E-5,-0.00245502282939064));
#600=CARTESIAN_POINT('',(-0.0255329349786043,-0.00148835232390608,-0.00245502282939064));
#601=CARTESIAN_POINT('',(-0.0255329349786043,-0.00305686437368697,-0.00245502282939064));
#602=CARTESIAN_POINT('',(-0.0265329349786043,-0.00409709759060958,-0.00345502282939065));
#603=CARTESIAN_POINT('',(-0.0265329349786043,0.0026889049925519,-0.00345502282939065));
#604=CARTESIAN_POINT('',(-0.0265329349786043,-0.00409709759060958,-0.00333502282939065));
#605=CARTESIAN_POINT('',(-0.0265329349786043,0.0026889049925519,-0.00333502282939065));
#606=CARTESIAN_POINT('',(-0.0265329349786043,-0.00409709759060958,-0.00321502282939064));
#607=CARTESIAN_POINT('',(-0.0265329349786043,0.0026889049925519,-0.00321502282939064));
#608=CARTESIAN_POINT('',(-0.0263862683119376,-0.00409709759060958,-0.00285502282939064));
#609=CARTESIAN_POINT('',(-0.0263862683119376,0.0026889049925519,-0.00285502282939064));
#610=CARTESIAN_POINT('',(-0.0261329349786043,-0.00409709759060958,-0.00260168949605731));
#611=CARTESIAN_POINT('',(-0.0261329349786043,0.0026889049925519,-0.00260168949605731));
#612=CARTESIAN_POINT('',(-0.0257729349786043,-0.00409709759060958,-0.00245502282939064));
#613=CARTESIAN_POINT('',(-0.0257729349786043,0.0026889049925519,-0.00245502282939064));
#614=CARTESIAN_POINT('',(-0.0256529349786043,-0.00409709759060958,-0.00245502282939064));
#615=CARTESIAN_POINT('',(-0.0256529349786043,0.0026889049925519,-0.00245502282939064));
#616=CARTESIAN_POINT('',(-0.0255329349786043,-0.00409709759060958,-0.00245502282939064));
#617=CARTESIAN_POINT('',(-0.0255329349786043,0.0026889049925519,-0.00245502282939064));
#618=CARTESIAN_POINT('',(-0.0255329349786043,0.00164867177565569,-0.00245502282939064));
#619=CARTESIAN_POINT('',(-0.0255859799976483,0.00170171679468776,-0.00245502282939064));
#620=CARTESIAN_POINT('',(-0.025695467365701,0.00181435461828716,-0.00245952777488748));
#621=CARTESIAN_POINT('',(-0.0258246186596648,0.00194027477368505,-0.00249235576590398));
#622=CARTESIAN_POINT('',(-0.0259545193105872,0.00206982176831509,-0.00255189894849531));
#623=CARTESIAN_POINT('',(-0.0260193973799554,0.00213465952682673,-0.00258811164855623));
#624=CARTESIAN_POINT('',(-0.0260840717102941,0.00220175702465866,-0.00263032965889715));
#625=CARTESIAN_POINT('',(-0.026083985460917,0.00220139321329098,-0.00263076849452285));
#626=CARTESIAN_POINT('',(-0.0261181790358318,0.00223494799456888,-0.0026549099581545));
#627=CARTESIAN_POINT('',(-0.0261693363815126,0.00228470231812721,-0.00269441275796029));
#628=CARTESIAN_POINT('',(-0.0262532960303119,0.00236920350300002,-0.002772895153834));
#629=CARTESIAN_POINT('',(-0.0263420515430548,0.00245792732722304,-0.0028775777096157));
#630=CARTESIAN_POINT('',(-0.0264251210397043,0.00254081037774019,-0.00300128134505704));
#631=CARTESIAN_POINT('',(-0.0265202027314854,0.00263595308825549,-0.00322226351863512));
#632=CARTESIAN_POINT('',(-0.0265329349786043,0.00264867177565569,-0.00336443132400052));
#633=CARTESIAN_POINT('',(-0.0265329349786043,0.00264867177565569,-0.00345502282939065));
#634=CARTESIAN_POINT('',(-0.0265329349786043,-0.00405686437371336,-0.00345502282939065));
#635=CARTESIAN_POINT('',(-0.0265329349786043,-0.00405686437371336,-0.00336448073149717));
#636=CARTESIAN_POINT('',(-0.0265201855076138,-0.00404413136183015,-0.00322222681246458));
#637=CARTESIAN_POINT('',(-0.0264251813232521,-0.0039490531114868,-0.00300133570539916));
#638=CARTESIAN_POINT('',(-0.0263418749983677,-0.0038659730993302,-0.00287743615698498));
#639=CARTESIAN_POINT('',(-0.0262537165389795,-0.00377778147960264,-0.00277328499844097));
#640=CARTESIAN_POINT('',(-0.0261678736115898,-0.00369156385528421,-0.00269306330818671));
#641=CARTESIAN_POINT('',(-0.026113378137703,-0.00363812859295672,-0.00265201735266686));
#642=CARTESIAN_POINT('',(-0.0260895154277009,-0.00361469810533003,-0.0026329497581893));
#643=CARTESIAN_POINT('',(-0.0259682298335391,-0.00349531541281899,-0.0025563823932414));
#644=CARTESIAN_POINT('',(-0.0258573227308906,-0.00338096401017374,-0.00250832740199031));
#645=CARTESIAN_POINT('',(-0.0257954464568117,-0.0033173721310534,-0.00248741010086984));
#646=CARTESIAN_POINT('',(-0.0256811199125145,-0.0032060471404012,-0.00245834317637462));
#647=CARTESIAN_POINT('',(-0.0255952692268189,-0.0031191986218815,-0.00245502282939064));
#648=CARTESIAN_POINT('',(-0.0255329349785921,-0.00305686437371337,-0.00245502282939064));
#649=CARTESIAN_POINT('',(-0.0105349088199437,-0.00405686437371337,-0.00345502282939065));
#650=CARTESIAN_POINT('',(-0.0266283506415784,-0.00405686437371337,-0.00345502282939065));
#651=CARTESIAN_POINT('',(-0.0105349088199437,-0.00405686437371337,-0.00333502282939065));
#652=CARTESIAN_POINT('',(-0.0266283506415784,-0.00405686437371337,-0.00333502282939065));
#653=CARTESIAN_POINT('',(-0.0105349088199437,-0.00405686437371337,-0.00321502282939064));
#654=CARTESIAN_POINT('',(-0.0266283506415784,-0.00405686437371337,-0.00321502282939064));
#655=CARTESIAN_POINT('',(-0.0105349088199437,-0.00391019770704669,-0.00285502282939064));
#656=CARTESIAN_POINT('',(-0.0266283506415784,-0.00391019770704669,-0.00285502282939064));
#657=CARTESIAN_POINT('',(-0.0105349088199437,-0.00365686437371336,-0.00260168949605731));
#658=CARTESIAN_POINT('',(-0.0266283506415784,-0.00365686437371336,-0.00260168949605731));
#659=CARTESIAN_POINT('',(-0.0105349088199437,-0.00329686437371336,-0.00245502282939064));
#660=CARTESIAN_POINT('',(-0.0266283506415784,-0.00329686437371336,-0.00245502282939064));
#661=CARTESIAN_POINT('',(-0.0105349088199437,-0.00317686437371337,-0.00245502282939064));
#662=CARTESIAN_POINT('',(-0.0266283506415784,-0.00317686437371337,-0.00245502282939064));
#663=CARTESIAN_POINT('',(-0.0105349088199437,-0.00305686437371337,-0.00245502282939064));
#664=CARTESIAN_POINT('',(-0.0266283506415784,-0.00305686437371337,-0.00245502282939064));
#665=CARTESIAN_POINT('',(-0.0106303244829178,-0.00405686437371337,-0.00345502282939065));
#666=CARTESIAN_POINT('',(-0.0106303244829178,-0.00405686437371337,-0.00336448073150494));
#667=CARTESIAN_POINT('',(-0.0106430574948018,-0.00404411490272205,-0.00322222681245957));
#668=CARTESIAN_POINT('',(-0.0107381357451416,-0.00394911071836404,-0.00300133570540461));
#669=CARTESIAN_POINT('',(-0.0108212157573094,-0.00386580439346797,-0.00287743615697141));
#670=CARTESIAN_POINT('',(-0.0109094073770381,-0.00377764593407688,-0.00277328499843026));
#671=CARTESIAN_POINT('',(-0.0109956250013364,-0.00369180300670984,-0.0026930633081952));
#672=CARTESIAN_POINT('',(-0.0110490602637081,-0.00363730753277886,-0.00265201735264284));
#673=CARTESIAN_POINT('',(-0.0110724907512823,-0.00361344482282779,-0.00263294975819856));
#674=CARTESIAN_POINT('',(-0.0111918734438559,-0.00349215922860797,-0.00255638239322709));
#675=CARTESIAN_POINT('',(-0.0113062248463068,-0.00338125212614045,-0.00250832740203737));
#676=CARTESIAN_POINT('',(-0.0113698167261382,-0.00331937585139592,-0.00248741010069533));
#677=CARTESIAN_POINT('',(-0.0114811417169082,-0.0032050493070556,-0.00245834317630727));
#678=CARTESIAN_POINT('',(-0.0115679902351554,-0.00311919862162067,-0.00245502282939064));
#679=CARTESIAN_POINT('',(-0.0116303244829178,-0.00305686437370038,-0.00245502282939064));
#680=CARTESIAN_POINT('',(-0.0266283506415784,0.00264867177565569,-0.00345502282939065));
#681=CARTESIAN_POINT('',(-0.0105349088199404,0.00264867177565569,-0.00345502282939065));
#682=CARTESIAN_POINT('',(-0.0266283506415784,0.00264867177565569,-0.00333502282939064));
#683=CARTESIAN_POINT('',(-0.0105349088199404,0.00264867177565569,-0.00333502282939064));
#684=CARTESIAN_POINT('',(-0.0266283506415784,0.00264867177565569,-0.00321502282939064));
#685=CARTESIAN_POINT('',(-0.0105349088199404,0.00264867177565569,-0.00321502282939064));
#686=CARTESIAN_POINT('',(-0.0266283506415784,0.00250200510898902,-0.00285502282939063));
#687=CARTESIAN_POINT('',(-0.0105349088199404,0.00250200510898902,-0.00285502282939063));
#688=CARTESIAN_POINT('',(-0.0266283506415784,0.00224867177565568,-0.0026016894960573));
#689=CARTESIAN_POINT('',(-0.0105349088199404,0.00224867177565568,-0.0026016894960573));
#690=CARTESIAN_POINT('',(-0.0266283506415784,0.00188867177565567,-0.00245502282939064));
#691=CARTESIAN_POINT('',(-0.0105349088199404,0.00188867177565567,-0.00245502282939064));
#692=CARTESIAN_POINT('',(-0.0266283506415784,0.00176867177565568,-0.00245502282939064));
#693=CARTESIAN_POINT('',(-0.0105349088199404,0.00176867177565568,-0.00245502282939064));
#694=CARTESIAN_POINT('',(-0.0266283506415784,0.00164867177565568,-0.00245502282939064));
#695=CARTESIAN_POINT('',(-0.0105349088199404,0.00164867177565568,-0.00245502282939064));
#696=CARTESIAN_POINT('',(-0.0116303244829178,0.00164867177565566,-0.00245502282939064));
#697=CARTESIAN_POINT('',(-0.011577384571899,0.00170161168668667,-0.00245502282939064));
#698=CARTESIAN_POINT('',(-0.0114648492145961,0.00181103204181955,-0.00245962449430119));
#699=CARTESIAN_POINT('',(-0.0113405420754146,0.00193852735946454,-0.00249170174136022));
#700=CARTESIAN_POINT('',(-0.0112101407475602,0.00206929453074496,-0.00255139714961821));
#701=CARTESIAN_POINT('',(-0.0111450742616075,0.00213440163042198,-0.00258766405399455));
#702=CARTESIAN_POINT('',(-0.0110774446523835,0.0021995666339161,-0.0026301563562542));
#703=CARTESIAN_POINT('',(-0.0110784896338891,0.00219882666323762,-0.00263015010708506));
#704=CARTESIAN_POINT('',(-0.0110452269563596,0.00223273080766862,-0.00265402873268206));
#705=CARTESIAN_POINT('',(-0.010995692305381,0.00228367595598356,-0.00269323457160054));
#706=CARTESIAN_POINT('',(-0.0109109972945082,0.00236783154691355,-0.00277163295515189));
#707=CARTESIAN_POINT('',(-0.0108221467706748,0.00245670945275151,-0.00287610001862924));
#708=CARTESIAN_POINT('',(-0.0107390086513407,0.0025400354241123,-0.00299990247049536));
#709=CARTESIAN_POINT('',(-0.0106435236713739,0.00263545892523395,-0.0032201635086146));
#710=CARTESIAN_POINT('',(-0.0106303244829178,0.00264867177565569,-0.00336392090516462));
#711=CARTESIAN_POINT('',(-0.0106303244829178,0.00264867177565569,-0.00345502282939065));
#712=CARTESIAN_POINT('',(-0.0106303244829178,0.0026889049925519,-0.00345502282939065));
#713=CARTESIAN_POINT('',(-0.0106303244829178,-0.00409709759060959,-0.00345502282939065));
#714=CARTESIAN_POINT('',(-0.0106303244829178,0.0026889049925519,-0.00333502282939065));
#715=CARTESIAN_POINT('',(-0.0106303244829178,-0.00409709759060959,-0.00333502282939065));
#716=CARTESIAN_POINT('',(-0.0106303244829178,0.0026889049925519,-0.00321502282939065));
#717=CARTESIAN_POINT('',(-0.0106303244829178,-0.00409709759060959,-0.00321502282939065));
#718=CARTESIAN_POINT('',(-0.0107769911495845,0.0026889049925519,-0.00285502282939064));
#719=CARTESIAN_POINT('',(-0.0107769911495845,-0.00409709759060959,-0.00285502282939064));
#720=CARTESIAN_POINT('',(-0.0110303244829178,0.0026889049925519,-0.00260168949605731));
#721=CARTESIAN_POINT('',(-0.0110303244829178,-0.00409709759060959,-0.00260168949605731));
#722=CARTESIAN_POINT('',(-0.0113903244829178,0.0026889049925519,-0.00245502282939064));
#723=CARTESIAN_POINT('',(-0.0113903244829178,-0.00409709759060959,-0.00245502282939064));
#724=CARTESIAN_POINT('',(-0.0115103244829178,0.0026889049925519,-0.00245502282939064));
#725=CARTESIAN_POINT('',(-0.0115103244829178,-0.00409709759060959,-0.00245502282939064));
#726=CARTESIAN_POINT('',(-0.0116303244829178,0.0026889049925519,-0.00245502282939064));
#727=CARTESIAN_POINT('',(-0.0116303244829178,-0.00409709759060959,-0.00245502282939064));
#728=CARTESIAN_POINT('',(-0.0190548651153221,-0.0015,0.00754497717060936));
#729=CARTESIAN_POINT('',(-0.0217749997973442,-0.00075,0.00754497717060936));
#730=CARTESIAN_POINT('',(-0.0217749997973442,-0.0015,0.00754497717060936));
#731=CARTESIAN_POINT('',(-0.0217749997973442,0.,0.00754497717060936));
#732=CARTESIAN_POINT('',(-0.0190548651153221,-0.0015,0.00754497717060936));
#733=CARTESIAN_POINT('',(-0.0390548651153222,-0.0015,0.00754497717060936));
#734=CARTESIAN_POINT('',(-0.0390548651153222,-0.0015,0.00754497717060936));
#735=CARTESIAN_POINT('',(-0.0390548651153222,0.,0.00754497717060936));
#736=CARTESIAN_POINT('',(-0.0190548651153221,0.,0.00754497717060936));
#737=CARTESIAN_POINT('',(-0.0190548651153222,-0.0015,0.0190449771706094));
#738=CARTESIAN_POINT('',(-0.0190548651153222,-0.0015,0.0305449771706094));
#739=CARTESIAN_POINT('',(-0.0390548651153222,-0.0015,0.0305449771706094));
#740=CARTESIAN_POINT('',(0.000945134884677829,-0.0015,0.0305449771706094));
#741=CARTESIAN_POINT('',(-0.0390548651153222,-0.0015,0.0190449771706094));
#742=CARTESIAN_POINT('',(-0.0217749997973442,-0.0015,-0.00245502282939064));
#743=CARTESIAN_POINT('',(-0.0164097622036934,-0.0015,-0.00245502282939064));
#744=CARTESIAN_POINT('',(-0.0164097622036934,-0.0015,0.00754497717060936));
#745=CARTESIAN_POINT('',(-0.0190548651153221,-0.0015,0.00754497717060936));
#746=CARTESIAN_POINT('',(0.000945134884677829,-0.0015,0.00754497717060936));
#747=CARTESIAN_POINT('',(0.000945134884677829,-0.0015,0.0190449771706094));
#748=CARTESIAN_POINT('',(-0.0377451479434967,-0.0015,0.019198436755687));
#749=CARTESIAN_POINT('',(-0.0377451479434967,-0.0015,0.0293813850730658));
#750=CARTESIAN_POINT('',(-0.0377451479434967,-0.0015,0.00901548843830824));
#751=CARTESIAN_POINT('',(-0.0188725739717484,-0.0015,0.0293813850730658));
#752=CARTESIAN_POINT('',(0.,-0.0015,0.0293813850730658));
#753=CARTESIAN_POINT('',(0.,-0.0015,0.019198436755687));
#754=CARTESIAN_POINT('',(0.,-0.0015,0.00901548843830824));
#755=CARTESIAN_POINT('',(-0.0188725739717484,-0.0015,0.00901548843830824));
#756=CARTESIAN_POINT('',(-0.0190548651153222,-0.0015,0.0305449771706094));
#757=CARTESIAN_POINT('',(-0.0190548651153222,0.,0.0305449771706094));
#758=CARTESIAN_POINT('',(-0.0390548651153222,0.,0.0305449771706094));
#759=CARTESIAN_POINT('',(0.000945134884677829,0.,0.0305449771706094));
#760=CARTESIAN_POINT('',(-0.0390548651153222,-0.0015,0.0305449771706094));
#761=CARTESIAN_POINT('',(0.000945134884677829,-0.0015,0.0305449771706094));
#762=CARTESIAN_POINT('',(-0.0390548651153222,-0.0015,0.0190449771706094));
#763=CARTESIAN_POINT('',(-0.0390548651153222,0.,0.0190449771706094));
#764=CARTESIAN_POINT('',(-0.0190548651153221,-0.0015,0.00754497717060936));
#765=CARTESIAN_POINT('',(-0.0164097622036934,-0.00075,0.00754497717060936));
#766=CARTESIAN_POINT('',(-0.0164097622036934,0.,0.00754497717060936));
#767=CARTESIAN_POINT('',(-0.0190548651153221,0.,0.00754497717060936));
#768=CARTESIAN_POINT('',(0.000945134884677829,0.,0.00754497717060936));
#769=CARTESIAN_POINT('',(0.000945134884677829,-0.0015,0.00754497717060936));
#770=CARTESIAN_POINT('',(0.000945134884677829,-0.0015,0.0190449771706094));
#771=CARTESIAN_POINT('',(0.000945134884677829,0.,0.0190449771706094));
#772=CARTESIAN_POINT('',(-0.0190548651153222,0.,0.0190449771706094));
#773=CARTESIAN_POINT('',(-0.0164097622036934,0.,-0.00245502282939064));
#774=CARTESIAN_POINT('',(-0.0217749997973442,0.,-0.00245502282939064));
#775=CARTESIAN_POINT('',(-0.0188725739717484,-0.001,0.0293813850730658));
#776=CARTESIAN_POINT('',(-0.0377451479434967,-0.001,0.0293813850730658));
#777=CARTESIAN_POINT('',(-0.0377451479434967,-0.001,0.0293813850730658));
#778=CARTESIAN_POINT('',(-0.0188725739717484,-0.001,0.0293813850730658));
#779=CARTESIAN_POINT('',(0.,-0.001,0.0293813850730658));
#780=CARTESIAN_POINT('',(0.,-0.001,0.0293813850730658));
#781=CARTESIAN_POINT('',(-0.0377451479434967,-0.001,0.019198436755687));
#782=CARTESIAN_POINT('',(-0.0377451479434967,-0.001,0.00901548843830824));
#783=CARTESIAN_POINT('',(-0.0377451479434967,-0.001,0.00901548843830824));
#784=CARTESIAN_POINT('',(-0.0377451479434967,-0.001,0.019198436755687));
#785=CARTESIAN_POINT('',(-0.0188725739717484,-0.001,0.00901548843830824));
#786=CARTESIAN_POINT('',(0.,-0.001,0.00901548843830824));
#787=CARTESIAN_POINT('',(0.,-0.001,0.00901548843830824));
#788=CARTESIAN_POINT('',(-0.0188725739717484,-0.001,0.00901548843830824));
#789=CARTESIAN_POINT('',(0.,-0.001,0.019198436755687));
#790=CARTESIAN_POINT('',(0.,-0.001,0.019198436755687));
#791=CARTESIAN_POINT('',(-0.0190548651153222,-0.001,0.0190449771706094));
#792=CARTESIAN_POINT('',(-0.0217749997973442,-0.00075,-0.00245502282939064));
#793=CARTESIAN_POINT('',(-0.0164097622036934,-0.00075,-0.00245502282939064));
#794=MECHANICAL_DESIGN_GEOMETRIC_PRESENTATION_REPRESENTATION('',(#417),
#795);
#795=(
GEOMETRIC_REPRESENTATION_CONTEXT(3)
GLOBAL_UNCERTAINTY_ASSIGNED_CONTEXT((#796))
GLOBAL_UNIT_ASSIGNED_CONTEXT((#799,#798,#797))
REPRESENTATION_CONTEXT('Part 1','TOP_LEVEL_ASSEMBLY_PART')
);
#796=UNCERTAINTY_MEASURE_WITH_UNIT(LENGTH_MEASURE(2.E-5),#799,
'DISTANCE_ACCURACY_VALUE','Maximum Tolerance applied to model');
#797=(
NAMED_UNIT(*)
SI_UNIT($,.STERADIAN.)
SOLID_ANGLE_UNIT()
);
#798=(
NAMED_UNIT(*)
PLANE_ANGLE_UNIT()
SI_UNIT($,.RADIAN.)
);
#799=(
LENGTH_UNIT()
NAMED_UNIT(*)
SI_UNIT($,.METRE.)
);
#800=PRODUCT_DEFINITION_SHAPE('','',#801);
#801=PRODUCT_DEFINITION('','',#803,#802);
#802=PRODUCT_DEFINITION_CONTEXT('',#809,'design');
#803=PRODUCT_DEFINITION_FORMATION_WITH_SPECIFIED_SOURCE('','',#805,
 .NOT_KNOWN.);
#804=PRODUCT_RELATED_PRODUCT_CATEGORY('','',(#805));
#805=PRODUCT('Part 1','Part 1','Part 1',(#807));
#806=PRODUCT_CATEGORY('','');
#807=PRODUCT_CONTEXT('',#809,'mechanical');
#808=APPLICATION_PROTOCOL_DEFINITION('international standard',
'ap242_managed_model_based_3d_engineering',2020,#809);
#809=APPLICATION_CONTEXT('managed model based 3d engineering');
ENDSEC;
END-ISO-10303-21;
